<?xml version="1.0" encoding="UTF-8" standalone="no"?>
<svg
   xmlns:dc="http://purl.org/dc/elements/1.1/"
   xmlns:cc="http://creativecommons.org/ns#"
   xmlns:rdf="http://www.w3.org/1999/02/22-rdf-syntax-ns#"
   xmlns:svg="http://www.w3.org/2000/svg"
   xmlns="http://www.w3.org/2000/svg"
   xmlns:sodipodi="http://sodipodi.sourceforge.net/DTD/sodipodi-0.dtd"
   xmlns:inkscape="http://www.inkscape.org/namespaces/inkscape"
   preserveAspectRatio="xMinYMin meet"
   width="900"
   height="900"
   viewBox="-1638400 0 0 701"
   version="1.1"
   id="svg2"
   inkscape:version="0.91 r13725"
   sodipodi:docname="ProportionNotMatchedByLetter.svg">
  <metadata
     id="metadata709">
    <rdf:RDF>
      <cc:Work
         rdf:about="">
        <dc:format>image/svg+xml</dc:format>
        <dc:type
           rdf:resource="http://purl.org/dc/dcmitype/StillImage" />
        <dc:title></dc:title>
      </cc:Work>
    </rdf:RDF>
  </metadata>
  <defs
     id="defs707">
    <clipPath
       id="ID000001">
      <rect
         x="166.39999"
         y="52.575001"
         width="428.36401"
         height="571.315"
         id="rect11" />
    </clipPath>
    <clipPath
       id="ID000007">
      <rect
         x="730.03601"
         y="52.575001"
         width="428.36401"
         height="571.315"
         id="rect311" />
    </clipPath>
  </defs>
  <sodipodi:namedview
     pagecolor="#ffffff"
     bordercolor="#666666"
     borderopacity="1"
     objecttolerance="10"
     gridtolerance="10"
     guidetolerance="10"
     inkscape:pageopacity="0"
     inkscape:pageshadow="2"
     inkscape:window-width="1280"
     inkscape:window-height="752"
     id="namedview705"
     showgrid="false"
     inkscape:zoom="0.2421875"
     inkscape:cx="383.06933"
     inkscape:cy="-60.187918"
     inkscape:window-x="0"
     inkscape:window-y="0"
     inkscape:window-maximized="1"
     inkscape:current-layer="svg2" />
  <desc
     id="desc4">Matlab Figure Converted by PLOT2SVG written by Juerg Schwizer</desc>
  <polygon
     points="730.036,623.89 730.036,52.575 730.036,52.575 730.036,623.89 "
     id="polygon317"
     style="fill:#ffffff;fill-opacity:1;stroke:none;stroke-width:0.5pt;stroke-dasharray:none;stroke-opacity:1"
     transform="matrix(1.4178058,0,0,1.1104811,-859.15552,110.08375)" />
  <g
     clip-path="url(#ID000007)"
     id="ID000008"
     transform="matrix(1.4178058,0,0,1.1104811,-859.15552,110.08375)">
    <g
       clip-path="url(#ID000007)"
       id="ID000009">
      <polygon
         style="fill:#000001;fill-opacity:1;stroke:#000000;stroke-width:0.5pt;stroke-dasharray:none;stroke-opacity:1"
         id="polygon323"
         points="750.027,623.89 738.604,623.89 738.604,556.248 750.027,556.248 " />
      <polygon
         style="fill:#000001;fill-opacity:1;stroke:#000000;stroke-width:0.5pt;stroke-dasharray:none;stroke-opacity:1"
         id="polygon325"
         points="764.305,623.89 752.882,623.89 752.882,509.419 764.305,509.419 " />
      <polygon
         style="fill:#000001;fill-opacity:1;stroke:#000000;stroke-width:0.5pt;stroke-dasharray:none;stroke-opacity:1"
         id="polygon327"
         points="778.584,623.89 767.161,623.89 767.161,517.224 778.584,517.224 " />
      <polygon
         style="fill:#000001;fill-opacity:1;stroke:#000000;stroke-width:0.5pt;stroke-dasharray:none;stroke-opacity:1"
         id="polygon329"
         points="792.863,623.89 781.44,623.89 781.44,465.191 792.863,465.191 " />
      <polygon
         style="fill:#000001;fill-opacity:1;stroke:#000000;stroke-width:0.5pt;stroke-dasharray:none;stroke-opacity:1"
         id="polygon331"
         points="807.142,623.89 795.719,623.89 795.719,511.153 807.142,511.153 " />
      <polygon
         style="fill:#000001;fill-opacity:1;stroke:#000000;stroke-width:0.5pt;stroke-dasharray:none;stroke-opacity:1"
         id="polygon333"
         points="821.421,623.89 809.998,623.89 809.998,447.847 821.421,447.847 " />
      <polygon
         style="fill:#000001;fill-opacity:1;stroke:#000000;stroke-width:0.5pt;stroke-dasharray:none;stroke-opacity:1"
         id="polygon335"
         points="835.699,623.89 824.276,623.89 824.276,445.246 835.699,445.246 " />
      <polygon
         style="fill:#000001;fill-opacity:1;stroke:#000000;stroke-width:0.5pt;stroke-dasharray:none;stroke-opacity:1"
         id="polygon337"
         points="849.978,623.89 838.555,623.89 838.555,421.831 849.978,421.831 " />
      <polygon
         style="fill:#000001;fill-opacity:1;stroke:#000000;stroke-width:0.5pt;stroke-dasharray:none;stroke-opacity:1"
         id="polygon339"
         points="864.257,623.89 852.834,623.89 852.834,248.39 864.257,248.39 " />
      <polygon
         style="fill:#000001;fill-opacity:1;stroke:#000000;stroke-width:0.5pt;stroke-dasharray:none;stroke-opacity:1"
         id="polygon341"
         points="878.536,623.89 867.113,623.89 867.113,427.034 878.536,427.034 " />
      <polygon
         style="fill:#000001;fill-opacity:1;stroke:#000000;stroke-width:0.5pt;stroke-dasharray:none;stroke-opacity:1"
         id="polygon343"
         points="892.815,623.89 881.392,623.89 881.392,394.948 892.815,394.948 " />
      <polygon
         style="fill:#000001;fill-opacity:1;stroke:#000000;stroke-width:0.5pt;stroke-dasharray:none;stroke-opacity:1"
         id="polygon345"
         points="907.093,623.89 895.67,623.89 895.67,396.682 907.093,396.682 " />
      <polygon
         style="fill:#000001;fill-opacity:1;stroke:#000000;stroke-width:0.5pt;stroke-dasharray:none;stroke-opacity:1"
         id="polygon347"
         points="921.372,623.89 909.949,623.89 909.949,486.004 921.372,486.004 " />
      <polygon
         style="fill:#000001;fill-opacity:1;stroke:#000000;stroke-width:0.5pt;stroke-dasharray:none;stroke-opacity:1"
         id="polygon349"
         points="935.651,623.89 924.228,623.89 924.228,438.308 935.651,438.308 " />
      <polygon
         style="fill:#000001;fill-opacity:1;stroke:#000000;stroke-width:0.5pt;stroke-dasharray:none;stroke-opacity:1"
         id="polygon351"
         points="949.93,623.89 938.507,623.89 938.507,100.098 949.93,100.098 " />
      <polygon
         style="fill:#000001;fill-opacity:1;stroke:#000000;stroke-width:0.5pt;stroke-dasharray:none;stroke-opacity:1"
         id="polygon353"
         points="964.208,623.89 952.785,623.89 952.785,417.495 964.208,417.495 " />
      <polygon
         style="fill:#000001;fill-opacity:1;stroke:#000000;stroke-width:0.5pt;stroke-dasharray:none;stroke-opacity:1"
         id="polygon355"
         points="978.487,623.89 967.064,623.89 967.064,143.458 978.487,143.458 " />
      <polygon
         style="fill:#000001;fill-opacity:1;stroke:#000000;stroke-width:0.5pt;stroke-dasharray:none;stroke-opacity:1"
         id="polygon357"
         points="992.766,623.89 981.343,623.89 981.343,467.793 992.766,467.793 " />
      <polygon
         style="fill:#000001;fill-opacity:1;stroke:#000000;stroke-width:0.5pt;stroke-dasharray:none;stroke-opacity:1"
         id="polygon359"
         points="1007.045,623.89 995.622,623.89 995.622,492.075 1007.045,492.075 " />
      <polygon
         style="fill:#000001;fill-opacity:1;stroke:#000000;stroke-width:0.5pt;stroke-dasharray:none;stroke-opacity:1"
         id="polygon361"
         points="1021.324,623.89 1009.901,623.89 1009.901,407.089 1021.324,407.089 " />
      <polygon
         style="fill:#000001;fill-opacity:1;stroke:#000000;stroke-width:0.5pt;stroke-dasharray:none;stroke-opacity:1"
         id="polygon363"
         points="1035.602,623.89 1024.179,623.89 1024.179,243.187 1035.602,243.187 " />
      <polygon
         style="fill:#000001;fill-opacity:1;stroke:#000000;stroke-width:0.5pt;stroke-dasharray:none;stroke-opacity:1"
         id="polygon365"
         points="1049.881,623.89 1038.458,623.89 1038.458,310.829 1049.881,310.829 " />
      <polygon
         style="fill:#000001;fill-opacity:1;stroke:#000000;stroke-width:0.5pt;stroke-dasharray:none;stroke-opacity:1"
         id="polygon367"
         points="1064.16,623.89 1052.737,623.89 1052.737,274.406 1064.16,274.406 " />
      <polygon
         style="fill:#000001;fill-opacity:1;stroke:#000000;stroke-width:0.5pt;stroke-dasharray:none;stroke-opacity:1"
         id="polygon369"
         points="1078.439,623.89 1067.016,623.89 1067.016,89.691 1078.439,89.691 " />
      <polygon
         style="fill:#000001;fill-opacity:1;stroke:#000000;stroke-width:0.5pt;stroke-dasharray:none;stroke-opacity:1"
         id="polygon371"
         points="1092.718,623.89 1081.295,623.89 1081.295,363.728 1092.718,363.728 " />
      <polygon
         style="fill:#000001;fill-opacity:1;stroke:#000000;stroke-width:0.5pt;stroke-dasharray:none;stroke-opacity:1"
         id="polygon373"
         points="1106.996,623.89 1095.573,623.89 1095.573,270.07 1106.996,270.07 " />
    </g>
  </g>
  <g
     clip-path="url(#ID000007)"
     id="ID000010"
     transform="matrix(1.4178058,0,0,1.1104811,-859.15552,110.08375)">
    <polyline
       style="fill:none;stroke:#000000;stroke-width:0.5pt;stroke-dasharray:none"
       id="polyline376"
       points="730.036,623.890 1158.400,623.890 " />
    <g
       id="g378" />
  </g>
  <g
     id="ID000012"
     transform="matrix(1.4178058,0,0,1.1104811,-910.24969,34.172415)">
    <g
       id="g388"
       transform="translate(692.006,339.233)">
      <g
         id="g390"
         transform="matrix(0,-1,1,0,0,0)">
        <text
           style="font-size:12.5px;font-family:Helvetica;text-anchor:middle;fill:#000000"
           id="text392"
           font-size="10pt"
           y="0"
           x="0">
          <tspan
             style="font-size:35.86316px;-inkscape-font-specification:'Helvetica Bold';font-family:Helvetica;font-weight:bold;font-style:normal;font-stretch:normal;font-variant:normal"
             id="tspan4966">% not matched</tspan>
        </text>
      </g>
    </g>
  </g>
  <g
     id="ID000013"
     transform="matrix(1.4178058,0,0,1.1104811,-859.15552,110.08375)" />
  <polyline
     style="fill:none;stroke:#000000;stroke-width:0.5pt;stroke-dasharray:none"
     id="polyline397"
     points="744.315,623.890 744.315,618.177 "
     transform="matrix(1.4178058,0,0,1.1104811,-859.15552,110.08375)" />
  <polyline
     style="fill:none;stroke:#000000;stroke-width:0.5pt;stroke-dasharray:none"
     id="polyline399"
     points="758.594,623.890 758.594,618.177 "
     transform="matrix(1.4178058,0,0,1.1104811,-859.15552,110.08375)" />
  <polyline
     style="fill:none;stroke:#000000;stroke-width:0.5pt;stroke-dasharray:none"
     id="polyline401"
     points="772.873,623.890 772.873,618.177 "
     transform="matrix(1.4178058,0,0,1.1104811,-859.15552,110.08375)" />
  <polyline
     style="fill:none;stroke:#000000;stroke-width:0.5pt;stroke-dasharray:none"
     id="polyline403"
     points="787.152,623.890 787.152,618.177 "
     transform="matrix(1.4178058,0,0,1.1104811,-859.15552,110.08375)" />
  <polyline
     style="fill:none;stroke:#000000;stroke-width:0.5pt;stroke-dasharray:none"
     id="polyline405"
     points="801.430,623.890 801.430,618.177 "
     transform="matrix(1.4178058,0,0,1.1104811,-859.15552,110.08375)" />
  <polyline
     style="fill:none;stroke:#000000;stroke-width:0.5pt;stroke-dasharray:none"
     id="polyline407"
     points="815.709,623.890 815.709,618.177 "
     transform="matrix(1.4178058,0,0,1.1104811,-859.15552,110.08375)" />
  <polyline
     style="fill:none;stroke:#000000;stroke-width:0.5pt;stroke-dasharray:none"
     id="polyline409"
     points="829.988,623.890 829.988,618.177 "
     transform="matrix(1.4178058,0,0,1.1104811,-859.15552,110.08375)" />
  <polyline
     style="fill:none;stroke:#000000;stroke-width:0.5pt;stroke-dasharray:none"
     id="polyline411"
     points="844.267,623.890 844.267,618.177 "
     transform="matrix(1.4178058,0,0,1.1104811,-859.15552,110.08375)" />
  <polyline
     style="fill:none;stroke:#000000;stroke-width:0.5pt;stroke-dasharray:none"
     id="polyline413"
     points="858.545,623.890 858.545,618.177 "
     transform="matrix(1.4178058,0,0,1.1104811,-859.15552,110.08375)" />
  <polyline
     style="fill:none;stroke:#000000;stroke-width:0.5pt;stroke-dasharray:none"
     id="polyline415"
     points="872.824,623.890 872.824,618.177 "
     transform="matrix(1.4178058,0,0,1.1104811,-859.15552,110.08375)" />
  <polyline
     style="fill:none;stroke:#000000;stroke-width:0.5pt;stroke-dasharray:none"
     id="polyline417"
     points="887.103,623.890 887.103,618.177 "
     transform="matrix(1.4178058,0,0,1.1104811,-859.15552,110.08375)" />
  <polyline
     style="fill:none;stroke:#000000;stroke-width:0.5pt;stroke-dasharray:none"
     id="polyline419"
     points="901.382,623.890 901.382,618.177 "
     transform="matrix(1.4178058,0,0,1.1104811,-859.15552,110.08375)" />
  <polyline
     style="fill:none;stroke:#000000;stroke-width:0.5pt;stroke-dasharray:none"
     id="polyline421"
     points="915.661,623.890 915.661,618.177 "
     transform="matrix(1.4178058,0,0,1.1104811,-859.15552,110.08375)" />
  <polyline
     style="fill:none;stroke:#000000;stroke-width:0.5pt;stroke-dasharray:none"
     id="polyline423"
     points="929.939,623.890 929.939,618.177 "
     transform="matrix(1.4178058,0,0,1.1104811,-859.15552,110.08375)" />
  <polyline
     style="fill:none;stroke:#000000;stroke-width:0.5pt;stroke-dasharray:none"
     id="polyline425"
     points="944.218,623.890 944.218,618.177 "
     transform="matrix(1.4178058,0,0,1.1104811,-859.15552,110.08375)" />
  <polyline
     style="fill:none;stroke:#000000;stroke-width:0.5pt;stroke-dasharray:none"
     id="polyline427"
     points="958.497,623.890 958.497,618.177 "
     transform="matrix(1.4178058,0,0,1.1104811,-859.15552,110.08375)" />
  <polyline
     style="fill:none;stroke:#000000;stroke-width:0.5pt;stroke-dasharray:none"
     id="polyline429"
     points="972.776,623.890 972.776,618.177 "
     transform="matrix(1.4178058,0,0,1.1104811,-859.15552,110.08375)" />
  <polyline
     style="fill:none;stroke:#000000;stroke-width:0.5pt;stroke-dasharray:none"
     id="polyline431"
     points="987.055,623.890 987.055,618.177 "
     transform="matrix(1.4178058,0,0,1.1104811,-859.15552,110.08375)" />
  <polyline
     style="fill:none;stroke:#000000;stroke-width:0.5pt;stroke-dasharray:none"
     id="polyline433"
     points="1001.333,623.890 1001.333,618.177 "
     transform="matrix(1.4178058,0,0,1.1104811,-859.15552,110.08375)" />
  <polyline
     style="fill:none;stroke:#000000;stroke-width:0.5pt;stroke-dasharray:none"
     id="polyline435"
     points="1015.612,623.890 1015.612,618.177 "
     transform="matrix(1.4178058,0,0,1.1104811,-859.15552,110.08375)" />
  <polyline
     style="fill:none;stroke:#000000;stroke-width:0.5pt;stroke-dasharray:none"
     id="polyline437"
     points="1029.891,623.890 1029.891,618.177 "
     transform="matrix(1.4178058,0,0,1.1104811,-859.15552,110.08375)" />
  <polyline
     style="fill:none;stroke:#000000;stroke-width:0.5pt;stroke-dasharray:none"
     id="polyline439"
     points="1044.170,623.890 1044.170,618.177 "
     transform="matrix(1.4178058,0,0,1.1104811,-859.15552,110.08375)" />
  <polyline
     style="fill:none;stroke:#000000;stroke-width:0.5pt;stroke-dasharray:none"
     id="polyline441"
     points="1058.448,623.890 1058.448,618.177 "
     transform="matrix(1.4178058,0,0,1.1104811,-859.15552,110.08375)" />
  <polyline
     style="fill:none;stroke:#000000;stroke-width:0.5pt;stroke-dasharray:none"
     id="polyline443"
     points="1072.727,623.890 1072.727,618.177 "
     transform="matrix(1.4178058,0,0,1.1104811,-859.15552,110.08375)" />
  <polyline
     style="fill:none;stroke:#000000;stroke-width:0.5pt;stroke-dasharray:none"
     id="polyline445"
     points="1087.006,623.890 1087.006,618.177 "
     transform="matrix(1.4178058,0,0,1.1104811,-859.15552,110.08375)" />
  <polyline
     style="fill:none;stroke:#000000;stroke-width:0.5pt;stroke-dasharray:none"
     id="polyline447"
     points="1101.285,623.890 1101.285,618.177 "
     transform="matrix(1.4178058,0,0,1.1104811,-859.15552,110.08375)" />
  <polyline
     style="fill:none;stroke:#000000;stroke-width:3.18783644;stroke-dasharray:none;stroke-miterlimit:4"
     id="polyline449"
     points="730.036,623.890 1158.400,623.890 "
     transform="matrix(1.4178058,0,0,1.1104811,-859.15552,110.08375)" />
  <g
     id="g451"
     transform="matrix(1.4178058,0,0,1.1104811,196.1386,828.69384)">
    <g
       id="g453">
      <text
         style="font-size:12.5px;font-family:Helvetica;text-anchor:middle;fill:#000000"
         id="text455"
         font-size="10pt"
         y="0"
         x="0">
        <tspan
           style="font-size:17.93158px;-inkscape-font-specification:'Helvetica Bold';font-family:Helvetica;font-weight:bold;font-style:normal;font-stretch:normal;font-variant:normal"
           id="tspan4914">A</tspan>
      </text>
    </g>
  </g>
  <g
     id="g457"
     transform="matrix(1.4178058,0,0,1.1104811,216.38345,828.69384)">
    <g
       id="g459">
      <text
         style="font-size:12.5px;font-family:Helvetica;text-anchor:middle;fill:#000000"
         id="text461"
         font-size="10pt"
         y="0"
         x="0">
        <tspan
           style="font-size:17.93158px;-inkscape-font-specification:'Helvetica Bold';font-family:Helvetica;font-weight:bold;font-style:normal;font-stretch:normal;font-variant:normal"
           id="tspan4916">B</tspan>
      </text>
    </g>
  </g>
  <g
     id="g463"
     transform="matrix(1.4178058,0,0,1.1104811,236.6283,828.69384)">
    <g
       id="g465">
      <text
         style="font-size:12.5px;font-family:Helvetica;text-anchor:middle;fill:#000000"
         id="text467"
         font-size="10pt"
         y="0"
         x="0">
        <tspan
           style="font-size:17.93158px;-inkscape-font-specification:'Helvetica Bold';font-family:Helvetica;font-weight:bold;font-style:normal;font-stretch:normal;font-variant:normal"
           id="tspan4918">C</tspan>
      </text>
    </g>
  </g>
  <g
     id="g469"
     transform="matrix(1.4178058,0,0,1.1104811,256.87315,828.69384)">
    <g
       id="g471">
      <text
         style="font-size:12.5px;font-family:Helvetica;text-anchor:middle;fill:#000000"
         id="text473"
         font-size="10pt"
         y="0"
         x="0">
        <tspan
           style="font-size:17.93158px;-inkscape-font-specification:'Helvetica Bold';font-family:Helvetica;font-weight:bold;font-style:normal;font-stretch:normal;font-variant:normal"
           id="tspan4920">D</tspan>
      </text>
    </g>
  </g>
  <g
     id="g475"
     transform="matrix(1.4178058,0,0,1.1104811,277.11658,828.69384)">
    <g
       id="g477">
      <text
         style="font-size:12.5px;font-family:Helvetica;text-anchor:middle;fill:#000000"
         id="text479"
         font-size="10pt"
         y="0"
         x="0">
        <tspan
           style="font-size:17.93158px;-inkscape-font-specification:'Helvetica Bold';font-family:Helvetica;font-weight:bold;font-style:normal;font-stretch:normal;font-variant:normal"
           id="tspan4922">E</tspan>
      </text>
    </g>
  </g>
  <g
     id="g481"
     transform="matrix(1.4178058,0,0,1.1104811,297.36143,828.69384)">
    <g
       id="g483">
      <text
         style="font-size:12.5px;font-family:Helvetica;text-anchor:middle;fill:#000000"
         id="text485"
         font-size="10pt"
         y="0"
         x="0">
        <tspan
           style="font-size:17.93158px;-inkscape-font-specification:'Helvetica Bold';font-family:Helvetica;font-weight:bold;font-style:normal;font-stretch:normal;font-variant:normal"
           id="tspan4924">F</tspan>
      </text>
    </g>
  </g>
  <g
     id="g487"
     transform="matrix(1.4178058,0,0,1.1104811,317.60628,828.69384)">
    <g
       id="g489">
      <text
         style="font-size:12.5px;font-family:Helvetica;text-anchor:middle;fill:#000000"
         id="text491"
         font-size="10pt"
         y="0"
         x="0">
        <tspan
           style="font-size:17.93158px;-inkscape-font-specification:'Helvetica Bold';font-family:Helvetica;font-weight:bold;font-style:normal;font-stretch:normal;font-variant:normal"
           id="tspan4926">G</tspan>
      </text>
    </g>
  </g>
  <g
     id="g493"
     transform="matrix(1.4178058,0,0,1.1104811,337.85113,828.69384)">
    <g
       id="g495">
      <text
         style="font-size:12.5px;font-family:Helvetica;text-anchor:middle;fill:#000000"
         id="text497"
         font-size="10pt"
         y="0"
         x="0">
        <tspan
           style="font-size:17.93158px;-inkscape-font-specification:'Helvetica Bold';font-family:Helvetica;font-weight:bold;font-style:normal;font-stretch:normal;font-variant:normal"
           id="tspan4928">H</tspan>
      </text>
    </g>
  </g>
  <g
     id="g499"
     transform="matrix(1.4178058,0,0,1.1104811,358.09456,828.69384)">
    <g
       id="g501">
      <text
         style="font-size:12.5px;font-family:Helvetica;text-anchor:middle;fill:#000000"
         id="text503"
         font-size="10pt"
         y="0"
         x="0">
        <tspan
           style="font-size:17.93158px;-inkscape-font-specification:'Helvetica Bold';font-family:Helvetica;font-weight:bold;font-style:normal;font-stretch:normal;font-variant:normal"
           id="tspan4930">I</tspan>
      </text>
    </g>
  </g>
  <g
     id="g505"
     transform="matrix(1.4178058,0,0,1.1104811,378.33941,828.69384)">
    <g
       id="g507">
      <text
         style="font-size:12.5px;font-family:Helvetica;text-anchor:middle;fill:#000000"
         id="text509"
         font-size="10pt"
         y="0"
         x="0">
        <tspan
           style="font-size:17.93158px;-inkscape-font-specification:'Helvetica Bold';font-family:Helvetica;font-weight:bold;font-style:normal;font-stretch:normal;font-variant:normal"
           id="tspan4932">J</tspan>
      </text>
    </g>
  </g>
  <g
     id="g511"
     transform="matrix(1.4178058,0,0,1.1104811,398.58426,828.69384)">
    <g
       id="g513">
      <text
         style="font-size:12.5px;font-family:Helvetica;text-anchor:middle;fill:#000000"
         id="text515"
         font-size="10pt"
         y="0"
         x="0">
        <tspan
           style="font-size:17.93158px;-inkscape-font-specification:'Helvetica Bold';font-family:Helvetica;font-weight:bold;font-style:normal;font-stretch:normal;font-variant:normal"
           id="tspan4934">K</tspan>
      </text>
    </g>
  </g>
  <g
     id="g517"
     transform="matrix(1.4178058,0,0,1.1104811,418.82911,828.69384)">
    <g
       id="g519">
      <text
         style="font-size:12.5px;font-family:Helvetica;text-anchor:middle;fill:#000000"
         id="text521"
         font-size="10pt"
         y="0"
         x="0">
        <tspan
           style="font-size:17.93158px;-inkscape-font-specification:'Helvetica Bold';font-family:Helvetica;font-weight:bold;font-style:normal;font-stretch:normal;font-variant:normal"
           id="tspan4936">L</tspan>
      </text>
    </g>
  </g>
  <g
     id="g523"
     transform="matrix(1.4178058,0,0,1.1104811,439.07396,828.69384)">
    <g
       id="g525">
      <text
         style="font-size:12.5px;font-family:Helvetica;text-anchor:middle;fill:#000000"
         id="text527"
         font-size="10pt"
         y="0"
         x="0">
        <tspan
           style="font-size:17.93158px;-inkscape-font-specification:'Helvetica Bold';font-family:Helvetica;font-weight:bold;font-style:normal;font-stretch:normal;font-variant:normal"
           id="tspan4938">M</tspan>
      </text>
    </g>
  </g>
  <g
     id="g529"
     transform="matrix(1.4178058,0,0,1.1104811,459.31739,828.69384)">
    <g
       id="g531">
      <text
         style="font-size:12.5px;font-family:Helvetica;text-anchor:middle;fill:#000000"
         id="text533"
         font-size="10pt"
         y="0"
         x="0">
        <tspan
           style="font-size:17.93158px;-inkscape-font-specification:'Helvetica Bold';font-family:Helvetica;font-weight:bold;font-style:normal;font-stretch:normal;font-variant:normal"
           id="tspan4940">N</tspan>
      </text>
    </g>
  </g>
  <g
     id="g535"
     transform="matrix(1.4178058,0,0,1.1104811,479.56224,828.69384)">
    <g
       id="g537">
      <text
         style="font-size:12.5px;font-family:Helvetica;text-anchor:middle;fill:#000000"
         id="text539"
         font-size="10pt"
         y="0"
         x="0">
        <tspan
           style="font-size:17.93158px;-inkscape-font-specification:'Helvetica Bold';font-family:Helvetica;font-weight:bold;font-style:normal;font-stretch:normal;font-variant:normal"
           id="tspan4942">O</tspan>
      </text>
    </g>
  </g>
  <g
     id="g541"
     transform="matrix(1.4178058,0,0,1.1104811,499.80709,828.69384)">
    <g
       id="g543">
      <text
         style="font-size:12.5px;font-family:Helvetica;text-anchor:middle;fill:#000000"
         id="text545"
         font-size="10pt"
         y="0"
         x="0">
        <tspan
           style="font-size:17.93158px;-inkscape-font-specification:'Helvetica Bold';font-family:Helvetica;font-weight:bold;font-style:normal;font-stretch:normal;font-variant:normal"
           id="tspan4944">P</tspan>
      </text>
    </g>
  </g>
  <g
     id="g547"
     transform="matrix(1.4178058,0,0,1.1104811,520.05193,828.69384)">
    <g
       id="g549">
      <text
         style="font-size:12.5px;font-family:Helvetica;text-anchor:middle;fill:#000000"
         id="text551"
         font-size="10pt"
         y="0"
         x="0">
        <tspan
           style="font-size:17.93158px;-inkscape-font-specification:'Helvetica Bold';font-family:Helvetica;font-weight:bold;font-style:normal;font-stretch:normal;font-variant:normal"
           id="tspan4946">Q</tspan>
      </text>
    </g>
  </g>
  <g
     id="g553"
     transform="matrix(1.4178058,0,0,1.1104811,540.29678,828.69384)">
    <g
       id="g555">
      <text
         style="font-size:12.5px;font-family:Helvetica;text-anchor:middle;fill:#000000"
         id="text557"
         font-size="10pt"
         y="0"
         x="0">
        <tspan
           style="font-size:17.93158px;-inkscape-font-specification:'Helvetica Bold';font-family:Helvetica;font-weight:bold;font-style:normal;font-stretch:normal;font-variant:normal"
           id="tspan4948">R</tspan>
      </text>
    </g>
  </g>
  <g
     id="g559"
     transform="matrix(1.4178058,0,0,1.1104811,560.54022,828.69384)">
    <g
       id="g561">
      <text
         style="font-size:12.5px;font-family:Helvetica;text-anchor:middle;fill:#000000"
         id="text563"
         font-size="10pt"
         y="0"
         x="0">
        <tspan
           style="font-size:17.93158px;-inkscape-font-specification:'Helvetica Bold';font-family:Helvetica;font-weight:bold;font-style:normal;font-stretch:normal;font-variant:normal"
           id="tspan4950">S</tspan>
      </text>
    </g>
  </g>
  <g
     id="g565"
     transform="matrix(1.4178058,0,0,1.1104811,580.78506,828.69384)">
    <g
       id="g567">
      <text
         style="font-size:12.5px;font-family:Helvetica;text-anchor:middle;fill:#000000"
         id="text569"
         font-size="10pt"
         y="0"
         x="0">
        <tspan
           style="font-size:17.93158px;-inkscape-font-specification:'Helvetica Bold';font-family:Helvetica;font-weight:bold;font-style:normal;font-stretch:normal;font-variant:normal"
           id="tspan4952">T</tspan>
      </text>
    </g>
  </g>
  <g
     id="g571"
     transform="matrix(1.4178058,0,0,1.1104811,601.02991,828.69384)">
    <g
       id="g573">
      <text
         style="font-size:12.5px;font-family:Helvetica;text-anchor:middle;fill:#000000"
         id="text575"
         font-size="10pt"
         y="0"
         x="0">
        <tspan
           style="font-size:17.93158px;-inkscape-font-specification:'Helvetica Bold';font-family:Helvetica;font-weight:bold;font-style:normal;font-stretch:normal;font-variant:normal"
           id="tspan4954">U</tspan>
      </text>
    </g>
  </g>
  <g
     id="g577"
     transform="matrix(1.4178058,0,0,1.1104811,621.27476,828.69384)">
    <g
       id="g579">
      <text
         style="font-size:12.5px;font-family:Helvetica;text-anchor:middle;fill:#000000"
         id="text581"
         font-size="10pt"
         y="0"
         x="0">
        <tspan
           style="font-size:17.93158px;-inkscape-font-specification:'Helvetica Bold';font-family:Helvetica;font-weight:bold;font-style:normal;font-stretch:normal;font-variant:normal"
           id="tspan4956">V</tspan>
      </text>
    </g>
  </g>
  <g
     id="g583"
     transform="matrix(1.4178058,0,0,1.1104811,641.51819,828.69384)">
    <g
       id="g585">
      <text
         style="font-size:12.5px;font-family:Helvetica;text-anchor:middle;fill:#000000"
         id="text587"
         font-size="10pt"
         y="0"
         x="0">
        <tspan
           style="font-size:17.93158px;-inkscape-font-specification:'Helvetica Bold';font-family:Helvetica;font-weight:bold;font-style:normal;font-stretch:normal;font-variant:normal"
           id="tspan4958">W</tspan>
      </text>
    </g>
  </g>
  <g
     id="g589"
     transform="matrix(1.4178058,0,0,1.1104811,661.76304,828.69384)">
    <g
       id="g591">
      <text
         style="font-size:12.5px;font-family:Helvetica;text-anchor:middle;fill:#000000"
         id="text593"
         font-size="10pt"
         y="0"
         x="0">
        <tspan
           style="font-size:17.93158px;-inkscape-font-specification:'Helvetica Bold';font-family:Helvetica;font-weight:bold;font-style:normal;font-stretch:normal;font-variant:normal"
           id="tspan4960">X</tspan>
      </text>
    </g>
  </g>
  <g
     id="g595"
     transform="matrix(1.4178058,0,0,1.1104811,682.00789,828.69384)">
    <g
       id="g597">
      <text
         style="font-size:12.5px;font-family:Helvetica;text-anchor:middle;fill:#000000"
         id="text599"
         font-size="10pt"
         y="0"
         x="0">
        <tspan
           style="font-size:17.93158px;-inkscape-font-specification:'Helvetica Bold';font-family:Helvetica;font-weight:bold;font-style:normal;font-stretch:normal;font-variant:normal"
           id="tspan4962">Y</tspan>
      </text>
    </g>
  </g>
  <g
     id="g601"
     transform="matrix(1.4178058,0,0,1.1104811,702.25274,828.69384)">
    <g
       id="g603">
      <text
         style="font-size:12.5px;font-family:Helvetica;text-anchor:middle;fill:#000000"
         id="text605"
         font-size="10pt"
         y="0"
         x="0">
        <tspan
           style="font-size:17.93158px;-inkscape-font-specification:'Helvetica Bold';font-family:Helvetica;font-weight:bold;font-style:normal;font-stretch:normal;font-variant:normal"
           id="tspan4964">Z</tspan>
      </text>
    </g>
  </g>
  <polyline
     style="fill:none;stroke:#000000;stroke-width:0.5pt;stroke-dasharray:none"
     id="polyline607"
     points="730.036,623.890 735.750,623.890 "
     transform="matrix(1.4178058,0,0,1.1104811,-859.15552,110.08375)" />
  <polyline
     style="fill:none;stroke:#000000;stroke-width:0.5pt;stroke-dasharray:none"
     id="polyline609"
     points="730.036,566.759 735.750,566.759 "
     transform="matrix(1.4178058,0,0,1.1104811,-859.15552,110.08375)" />
  <polyline
     style="fill:none;stroke:#000000;stroke-width:0.5pt;stroke-dasharray:none"
     id="polyline611"
     points="730.036,509.627 735.750,509.627 "
     transform="matrix(1.4178058,0,0,1.1104811,-859.15552,110.08375)" />
  <polyline
     style="fill:none;stroke:#000000;stroke-width:0.5pt;stroke-dasharray:none"
     id="polyline613"
     points="730.036,452.495 735.750,452.495 "
     transform="matrix(1.4178058,0,0,1.1104811,-859.15552,110.08375)" />
  <polyline
     style="fill:none;stroke:#000000;stroke-width:0.5pt;stroke-dasharray:none"
     id="polyline615"
     points="730.036,395.364 735.750,395.364 "
     transform="matrix(1.4178058,0,0,1.1104811,-859.15552,110.08375)" />
  <polyline
     style="fill:none;stroke:#000000;stroke-width:0.5pt;stroke-dasharray:none"
     id="polyline617"
     points="730.036,338.233 735.750,338.233 "
     transform="matrix(1.4178058,0,0,1.1104811,-859.15552,110.08375)" />
  <polyline
     style="fill:none;stroke:#000000;stroke-width:0.5pt;stroke-dasharray:none"
     id="polyline619"
     points="730.036,281.101 735.750,281.101 "
     transform="matrix(1.4178058,0,0,1.1104811,-859.15552,110.08375)" />
  <polyline
     style="fill:none;stroke:#000000;stroke-width:0.5pt;stroke-dasharray:none"
     id="polyline621"
     points="730.036,223.969 735.750,223.969 "
     transform="matrix(1.4178058,0,0,1.1104811,-859.15552,110.08375)" />
  <polyline
     style="fill:none;stroke:#000000;stroke-width:0.5pt;stroke-dasharray:none"
     id="polyline623"
     points="730.036,166.838 735.750,166.838 "
     transform="matrix(1.4178058,0,0,1.1104811,-859.15552,110.08375)" />
  <polyline
     style="fill:none;stroke:#000000;stroke-width:0.5pt;stroke-dasharray:none"
     id="polyline625"
     points="730.036,109.707 735.750,109.707 "
     transform="matrix(1.4178058,0,0,1.1104811,-859.15552,110.08375)" />
  <polyline
     style="fill:none;stroke:#000000;stroke-width:0.5pt;stroke-dasharray:none"
     id="polyline627"
     points="730.036,52.575 735.750,52.575 "
     transform="matrix(1.4178058,0,0,1.1104811,-859.15552,110.08375)" />
  <polyline
     style="fill:none;stroke:#000000;stroke-width:3.18783644;stroke-dasharray:none;stroke-miterlimit:4"
     id="polyline629"
     points="730.036,623.890 730.036,52.575 "
     transform="matrix(1.4178058,0,0,1.1104811,-859.15552,110.08375)" />
  <g
     id="g631"
     transform="matrix(1.4178058,0,0,1.1104811,163.74741,807.89897)">
    <g
       id="g633">
      <text
         style="font-size:12.5px;font-family:Helvetica;text-anchor:end;fill:#000000"
         id="text635"
         font-size="10pt"
         y="0"
         x="0">
        <tspan
           style="font-size:19.92397778px;-inkscape-font-specification:'Helvetica Bold';font-family:Helvetica;font-weight:bold;font-style:normal;font-stretch:normal;font-variant:normal"
           id="tspan4912">0</tspan>
      </text>
    </g>
  </g>
  <g
     id="g643"
     transform="matrix(1.4178058,0,0,1.1104811,163.74741,681.01207)">
    <g
       id="g645">
      <text
         style="font-size:12.5px;font-family:Helvetica;text-anchor:end;fill:#000000"
         id="text647"
         font-size="10pt"
         y="0"
         x="0">
        <tspan
           style="font-size:19.92397778px;-inkscape-font-specification:'Helvetica Bold';font-family:Helvetica;font-weight:bold;font-style:normal;font-stretch:normal;font-variant:normal"
           id="tspan4910">0.02</tspan>
      </text>
    </g>
  </g>
  <g
     id="g655"
     transform="matrix(1.4178058,0,0,1.1104811,163.74741,554.12516)">
    <g
       id="g657">
      <text
         style="font-size:12.5px;font-family:Helvetica;text-anchor:end;fill:#000000"
         id="text659"
         font-size="10pt"
         y="0"
         x="0">
        <tspan
           style="font-size:19.92397778px;-inkscape-font-specification:'Helvetica Bold';font-family:Helvetica;font-weight:bold;font-style:normal;font-stretch:normal;font-variant:normal"
           id="tspan4908">0.04</tspan>
      </text>
    </g>
  </g>
  <g
     id="g667"
     transform="matrix(1.4178058,0,0,1.1104811,163.74741,427.23826)">
    <g
       id="g669">
      <text
         style="font-size:12.5px;font-family:Helvetica;text-anchor:end;fill:#000000"
         id="text671"
         font-size="10pt"
         y="0"
         x="0">
        <tspan
           style="font-size:19.92397778px;-inkscape-font-specification:'Helvetica Bold';font-family:Helvetica;font-weight:bold;font-style:normal;font-stretch:normal;font-variant:normal"
           id="tspan4906">0.06</tspan>
      </text>
    </g>
  </g>
  <g
     id="g679"
     transform="matrix(1.4178058,0,0,1.1104811,163.74741,300.35136)">
    <g
       id="g681">
      <text
         style="font-size:12.5px;font-family:Helvetica;text-anchor:end;fill:#000000"
         id="text683"
         font-size="10pt"
         y="0"
         x="0">
        <tspan
           style="-inkscape-font-specification:'Helvetica Bold';font-family:Helvetica;font-weight:bold;font-style:normal;font-stretch:normal;font-variant:normal;font-size:19.92397778px"
           id="tspan4904">0.08</tspan>
      </text>
    </g>
  </g>
  <g
     id="g691"
     transform="matrix(1.4178058,0,0,1.1104811,163.74741,173.46446)">
    <g
       id="g693">
      <text
         style="font-size:12.5px;font-family:Helvetica;text-anchor:end;fill:#000000"
         id="text695"
         font-size="10pt"
         y="0"
         x="0">
        <tspan
           style="-inkscape-font-specification:'Helvetica Bold';font-family:Helvetica;font-weight:bold;font-style:normal;font-stretch:normal;font-variant:normal;font-size:19.92397778px"
           id="tspan4902">0.1</tspan>
      </text>
    </g>
  </g>
  <polyline
     style="fill:none;stroke:#000000;stroke-width:0.5pt;stroke-dasharray:none"
     id="polyline697"
     points="730.036,623.890 730.036,618.177 "
     transform="matrix(1.4178058,0,0,1.1104811,-859.15552,110.08375)" />
  <polyline
     style="fill:none;stroke:#000000;stroke-width:0.5pt;stroke-dasharray:none"
     id="polyline699"
     points="730.036,623.890 730.036,618.177 "
     transform="matrix(1.4178058,0,0,1.1104811,-859.15552,110.08375)" />
  <polyline
     style="fill:none;stroke:#000000;stroke-width:0.5pt;stroke-dasharray:none"
     id="polyline701"
     points="730.036,623.890 730.036,618.177 "
     transform="matrix(1.4178058,0,0,1.1104811,-859.15552,110.08375)" />
  <polyline
     style="fill:none;stroke:#000000;stroke-width:0.5pt;stroke-dasharray:none"
     id="polyline703"
     points="730.036,623.890 730.036,623.890 "
     transform="matrix(1.4178058,0,0,1.1104811,-859.15552,110.08375)" />
</svg>
