<?xml version="1.0" encoding="utf-8" standalone="no"?><!DOCTYPE svg PUBLIC "-//W3C//DTD SVG 1.1//EN" "http://www.w3.org/Graphics/SVG/1.1/DTD/svg11.dtd">
<svg preserveAspectRatio="xMinYMin meet" width="100%" height="100%" viewBox="0 0 1280.000 701.000"  version="1.1" xmlns="http://www.w3.org/2000/svg" xmlns:xlink="http://www.w3.org/1999/xlink">
  <desc>Matlab Figure Converted by PLOT2SVG written by Juerg Schwizer</desc>
  <g id="topgroup">
  <rect x="0" y="0" width="1280.000" height="701.000" fill="#ffffff" stroke="none" />
  <g id ="ID000000">
  <clipPath id="ID000001">
    <rect x="166.400" y="52.575" width="992.000" height="571.315"/>
  </clipPath>
      <polygon fill="#ffffff" fill-opacity="1.00" stroke="none" stroke-width="0.5pt" stroke-opacity="1.00" stroke-dasharray="none" points="166.400,623.890 1158.400,623.890 1158.400,52.575 166.400,52.575 "/>
      <polygon fill="#ffffff" fill-opacity="1.00" stroke="none" stroke-width="0.5pt" stroke-opacity="1.00" stroke-dasharray="none" points="166.400,52.575 1158.400,52.575 1158.400,52.575 166.400,52.575 "/>
      <polygon fill="#ffffff" fill-opacity="1.00" stroke="none" stroke-width="0.5pt" stroke-opacity="1.00" stroke-dasharray="none" points="166.400,623.890 166.400,623.890 166.400,52.575 166.400,52.575 "/>
    <g>
<g id="ID000002" clip-path="url(#ID000001)" >
      <polyline fill="none" stroke="#0000ff" stroke-width="0.5pt" stroke-dasharray="none" stroke-opacity="1.00" points="169.94286,-747.26600 173.48571,-290.21400 177.02857,-214.03867 180.57143,-61.68800 184.11429,-15.98280 187.65714,52.57500 191.20000,101.54486 194.74286,123.98938 198.28571,141.44622 201.82857,166.83800 205.37143,177.22555 208.91429,214.44758 212.45714,245.94315 216.00000,240.29279 219.54286,243.01333 223.08571,266.81813 226.62857,294.54371 230.17143,281.10100 233.71429,299.14253 237.25714,292.52730 240.80000,308.30648 244.34286,333.03873 247.88571,325.81261 251.42857,314.42771 254.97143,345.08828 258.51429,342.62723 262.05714,353.04437 265.60000,354.55579 269.14286,348.08276 272.68571,361.08510 276.22857,362.19087 279.77143,381.08113 283.31429,381.51394 286.85714,358.39656 290.40000,388.83469 293.94286,395.36400 297.48571,395.36400 301.02857,395.36400 304.57143,395.36400 308.11429,403.93372 311.65714,400.93780 315.20000,403.52564 318.74286,416.62223 322.28571,410.94532 325.82857,415.67742 329.37143,415.23583 332.91429,417.24415 336.45714,414.40783 340.00000,423.34678 343.54286,422.78712 347.08571,431.21122 350.62857,423.92975 354.17143,419.07896 357.71429,422.87176 361.25714,432.75916 364.80000,432.09139 368.34286,429.44244 371.88571,434.76503 375.42857,439.90720 378.97143,433.45167 382.51429,440.31993 386.05714,437.75189 389.60000,440.70646 393.14286,436.42727 396.68571,439.31131 400.22857,455.95802 403.77143,458.46446 407.31429,449.13482 410.85714,450.01152 414.40000,454.12783 417.94286,461.34686 421.48571,455.66947 425.02857,454.84337 428.57143,454.03959 432.11429,456.30427 435.65714,463.01972 439.20000,460.65714 442.74286,465.67969 446.28571,461.89689 449.82857,456.78036 453.37143,467.30737 456.91429,465.03656 460.45714,468.32712 464.00000,463.37769 467.54286,465.26607 471.08571,463.12462 474.62857,479.41954 478.17143,471.97215 481.71429,471.11138 485.25714,463.92180 488.80000,470.70224 492.34286,483.54523 495.88571,475.22524 499.42857,481.66903 502.97143,479.55779 506.51429,471.53933 510.05714,477.82184 513.60000,474.64853 517.14286,478.46436 520.68571,479.91862 524.22857,480.21276 527.77143,478.26069 531.31429,475.23717 534.85714,483.25862 538.40000,483.50974 541.94286,484.83408 545.48571,485.06579 549.02857,484.23522 552.57143,484.46817 556.11429,482.61938 559.65714,485.95088 563.20000,484.12187 566.74286,494.45935 570.28571,479.55779 573.82857,493.72954 577.37143,488.94146 580.91429,494.00129 584.45714,491.22872 588.00000,492.34352 591.54286,497.24851 595.08571,492.62920 598.62857,495.57827 602.17143,494.76352 605.71429,492.11896 609.25714,489.51671 612.80000,496.02426 616.34286,488.93370 619.88571,494.45145 623.42857,501.65516 626.97143,495.56386 630.51429,500.90463 634.05714,500.97071 637.60000,504.47228 641.14286,499.39449 644.68571,495.23833 648.22857,498.70480 651.77143,505.45682 655.31429,500.51908 658.85714,496.47442 662.40000,499.83303 665.94286,501.52324 669.48571,507.21299 673.02857,500.03850 676.57143,508.83351 680.11429,504.11086 683.65714,505.71388 687.20000,504.18590 690.74286,504.99472 694.28571,501.19148 697.82857,507.34174 701.37143,505.84346 704.91429,510.37873 708.45714,508.13337 712.00000,515.56274 715.54286,514.78726 719.08571,509.62700 722.62857,511.08258 726.17143,511.79655 729.71429,506.03382 733.25714,506.77042 736.80000,506.78817 740.34286,510.33233 743.88571,515.23500 747.42857,511.71718 750.97143,510.31950 754.51429,513.06866 758.05714,506.89016 761.60000,510.30714 765.14286,514.35979 768.68571,510.97127 772.22857,515.64084 775.77143,516.27020 779.31429,510.94796 782.85714,514.22379 786.40000,513.54459 789.94286,513.52233 793.48571,516.72809 797.02857,516.68820 800.57143,524.30884 804.11429,517.87933 807.65714,519.09631 811.20000,514.64955 814.74286,518.36843 818.28571,520.18391 821.82857,517.65629 825.37143,513.92722 828.91429,515.73732 832.45714,521.78264 836.00000,523.53202 839.54286,512.63392 843.08571,520.39524 846.62857,523.90988 850.17143,517.91551 853.71429,523.17364 857.25714,519.00243 860.80000,524.78434 864.34286,520.06727 867.88571,513.66660 871.42857,519.96235 874.97143,523.90988 878.51429,518.15409 882.05714,522.07149 885.60000,520.32157 889.14286,525.87027 892.68571,524.67627 896.22857,526.82192 899.77143,522.32289 903.31429,521.16317 906.85714,521.10797 910.40000,525.40618 913.94286,526.95599 917.48571,522.56243 921.02857,520.35592 924.57143,527.78093 928.11429,523.44485 931.65714,524.96787 935.20000,524.89717 938.74286,526.39955 942.28571,528.93171 945.82857,527.80520 949.37143,526.68890 952.91429,531.75902 956.45714,531.14739 960.00000,529.52100 963.54286,529.94042 967.08571,523.78348 970.62857,525.73456 974.17143,529.67314 977.71429,530.08457 981.25714,525.02767 984.80000,532.87532 988.34286,528.34249 991.88571,531.69496 995.42857,531.11235 998.97143,531.02092 1002.51429,530.44611 1006.05714,535.17949 1009.60000,527.87067 1013.14286,529.22860 1016.68571,527.71864 1020.22857,529.54005 1023.77143,531.81857 1027.31429,529.84638 1030.85714,535.85130 1034.40000,527.81580 1037.94286,533.78015 1041.48571,536.45799 "/>
</g>
<g id="ID000003" >
  <g transform="translate(128.400,339.233)">
    <g transform="rotate(-90.0)">
      <text x="0.000" y="0.000" font-family="Helvetica" text-anchor="middle" font-size="10pt" fill="#000000" ><tspan>95% confidence interval on prob letter is orange</tspan></text>
    </g>
  </g>
</g>
<g id="ID000004" >
  <g transform="translate(661.900,655.902)">
    <g transform="rotate(-0.0)">
      <text x="0.000" y="0.000" font-family="Helvetica" text-anchor="middle" font-size="10pt" fill="#000000" ><tspan>bootstrap sample size</tspan></text>
    </g>
  </g>
</g>
<g id="ID000005" >
</g>
    </g>
    <g>
      <polyline fill="none" stroke="#000000" stroke-width="0.5pt" stroke-dasharray="none" stroke-opacity="1.00" points="166.40000,623.89000 166.40000,613.97000 "/>
      <polyline fill="none" stroke="#000000" stroke-width="0.5pt" stroke-dasharray="none" stroke-opacity="1.00" points="308.11429,623.89000 308.11429,613.97000 "/>
      <polyline fill="none" stroke="#000000" stroke-width="0.5pt" stroke-dasharray="none" stroke-opacity="1.00" points="449.82857,623.89000 449.82857,613.97000 "/>
      <polyline fill="none" stroke="#000000" stroke-width="0.5pt" stroke-dasharray="none" stroke-opacity="1.00" points="591.54286,623.89000 591.54286,613.97000 "/>
      <polyline fill="none" stroke="#000000" stroke-width="0.5pt" stroke-dasharray="none" stroke-opacity="1.00" points="733.25714,623.89000 733.25714,613.97000 "/>
      <polyline fill="none" stroke="#000000" stroke-width="0.5pt" stroke-dasharray="none" stroke-opacity="1.00" points="874.97143,623.89000 874.97143,613.97000 "/>
      <polyline fill="none" stroke="#000000" stroke-width="0.5pt" stroke-dasharray="none" stroke-opacity="1.00" points="1016.68571,623.89000 1016.68571,613.97000 "/>
      <polyline fill="none" stroke="#000000" stroke-width="0.5pt" stroke-dasharray="none" stroke-opacity="1.00" points="1158.40000,623.89000 1158.40000,613.97000 "/>
      <polyline fill="none" stroke="#000000" stroke-width="0.5pt" stroke-dasharray="none" stroke-opacity="1.00" points="166.40000,623.89000 1158.40000,623.89000 "/>
  <g transform="translate(166.400,647.116)">
    <g transform="rotate(-0.0)">
      <text x="0.000" y="0.000" font-family="Helvetica" text-anchor="middle" font-size="10pt" fill="#000000" ><tspan>0</tspan></text>
    </g>
  </g>
  <g transform="translate(308.114,647.116)">
    <g transform="rotate(-0.0)">
      <text x="0.000" y="0.000" font-family="Helvetica" text-anchor="middle" font-size="10pt" fill="#000000" ><tspan>1000</tspan></text>
    </g>
  </g>
  <g transform="translate(449.829,647.116)">
    <g transform="rotate(-0.0)">
      <text x="0.000" y="0.000" font-family="Helvetica" text-anchor="middle" font-size="10pt" fill="#000000" ><tspan>2000</tspan></text>
    </g>
  </g>
  <g transform="translate(591.543,647.116)">
    <g transform="rotate(-0.0)">
      <text x="0.000" y="0.000" font-family="Helvetica" text-anchor="middle" font-size="10pt" fill="#000000" ><tspan>3000</tspan></text>
    </g>
  </g>
  <g transform="translate(733.257,647.116)">
    <g transform="rotate(-0.0)">
      <text x="0.000" y="0.000" font-family="Helvetica" text-anchor="middle" font-size="10pt" fill="#000000" ><tspan>4000</tspan></text>
    </g>
  </g>
  <g transform="translate(874.971,647.116)">
    <g transform="rotate(-0.0)">
      <text x="0.000" y="0.000" font-family="Helvetica" text-anchor="middle" font-size="10pt" fill="#000000" ><tspan>5000</tspan></text>
    </g>
  </g>
  <g transform="translate(1016.686,647.116)">
    <g transform="rotate(-0.0)">
      <text x="0.000" y="0.000" font-family="Helvetica" text-anchor="middle" font-size="10pt" fill="#000000" ><tspan>6000</tspan></text>
    </g>
  </g>
  <g transform="translate(1158.400,647.116)">
    <g transform="rotate(-0.0)">
      <text x="0.000" y="0.000" font-family="Helvetica" text-anchor="middle" font-size="10pt" fill="#000000" ><tspan>7000</tspan></text>
    </g>
  </g>
      <polyline fill="none" stroke="#000000" stroke-width="0.5pt" stroke-dasharray="none" stroke-opacity="1.00" points="166.40000,623.89000 176.32000,623.89000 "/>
      <polyline fill="none" stroke="#000000" stroke-width="0.5pt" stroke-dasharray="none" stroke-opacity="1.00" points="166.40000,566.75850 176.32000,566.75850 "/>
      <polyline fill="none" stroke="#000000" stroke-width="0.5pt" stroke-dasharray="none" stroke-opacity="1.00" points="166.40000,509.62700 176.32000,509.62700 "/>
      <polyline fill="none" stroke="#000000" stroke-width="0.5pt" stroke-dasharray="none" stroke-opacity="1.00" points="166.40000,452.49550 176.32000,452.49550 "/>
      <polyline fill="none" stroke="#000000" stroke-width="0.5pt" stroke-dasharray="none" stroke-opacity="1.00" points="166.40000,395.36400 176.32000,395.36400 "/>
      <polyline fill="none" stroke="#000000" stroke-width="0.5pt" stroke-dasharray="none" stroke-opacity="1.00" points="166.40000,338.23250 176.32000,338.23250 "/>
      <polyline fill="none" stroke="#000000" stroke-width="0.5pt" stroke-dasharray="none" stroke-opacity="1.00" points="166.40000,281.10100 176.32000,281.10100 "/>
      <polyline fill="none" stroke="#000000" stroke-width="0.5pt" stroke-dasharray="none" stroke-opacity="1.00" points="166.40000,223.96950 176.32000,223.96950 "/>
      <polyline fill="none" stroke="#000000" stroke-width="0.5pt" stroke-dasharray="none" stroke-opacity="1.00" points="166.40000,166.83800 176.32000,166.83800 "/>
      <polyline fill="none" stroke="#000000" stroke-width="0.5pt" stroke-dasharray="none" stroke-opacity="1.00" points="166.40000,109.70650 176.32000,109.70650 "/>
      <polyline fill="none" stroke="#000000" stroke-width="0.5pt" stroke-dasharray="none" stroke-opacity="1.00" points="166.40000,52.57500 176.32000,52.57500 "/>
      <polyline fill="none" stroke="#000000" stroke-width="0.5pt" stroke-dasharray="none" stroke-opacity="1.00" points="166.40000,623.89000 166.40000,52.57500 "/>
  <g transform="translate(146.560,628.390)">
    <g transform="rotate(-0.0)">
      <text x="0.000" y="0.000" font-family="Helvetica" text-anchor="end" font-size="10pt" fill="#000000" ><tspan>0</tspan></text>
    </g>
  </g>
  <g transform="translate(146.560,571.259)">
    <g transform="rotate(-0.0)">
      <text x="0.000" y="0.000" font-family="Helvetica" text-anchor="end" font-size="10pt" fill="#000000" ><tspan>0.01</tspan></text>
    </g>
  </g>
  <g transform="translate(146.560,514.127)">
    <g transform="rotate(-0.0)">
      <text x="0.000" y="0.000" font-family="Helvetica" text-anchor="end" font-size="10pt" fill="#000000" ><tspan>0.02</tspan></text>
    </g>
  </g>
  <g transform="translate(146.560,456.995)">
    <g transform="rotate(-0.0)">
      <text x="0.000" y="0.000" font-family="Helvetica" text-anchor="end" font-size="10pt" fill="#000000" ><tspan>0.03</tspan></text>
    </g>
  </g>
  <g transform="translate(146.560,399.864)">
    <g transform="rotate(-0.0)">
      <text x="0.000" y="0.000" font-family="Helvetica" text-anchor="end" font-size="10pt" fill="#000000" ><tspan>0.04</tspan></text>
    </g>
  </g>
  <g transform="translate(146.560,342.733)">
    <g transform="rotate(-0.0)">
      <text x="0.000" y="0.000" font-family="Helvetica" text-anchor="end" font-size="10pt" fill="#000000" ><tspan>0.05</tspan></text>
    </g>
  </g>
  <g transform="translate(146.560,285.601)">
    <g transform="rotate(-0.0)">
      <text x="0.000" y="0.000" font-family="Helvetica" text-anchor="end" font-size="10pt" fill="#000000" ><tspan>0.06</tspan></text>
    </g>
  </g>
  <g transform="translate(146.560,228.469)">
    <g transform="rotate(-0.0)">
      <text x="0.000" y="0.000" font-family="Helvetica" text-anchor="end" font-size="10pt" fill="#000000" ><tspan>0.07</tspan></text>
    </g>
  </g>
  <g transform="translate(146.560,171.338)">
    <g transform="rotate(-0.0)">
      <text x="0.000" y="0.000" font-family="Helvetica" text-anchor="end" font-size="10pt" fill="#000000" ><tspan>0.08</tspan></text>
    </g>
  </g>
  <g transform="translate(146.560,114.207)">
    <g transform="rotate(-0.0)">
      <text x="0.000" y="0.000" font-family="Helvetica" text-anchor="end" font-size="10pt" fill="#000000" ><tspan>0.09</tspan></text>
    </g>
  </g>
  <g transform="translate(146.560,57.075)">
    <g transform="rotate(-0.0)">
      <text x="0.000" y="0.000" font-family="Helvetica" text-anchor="end" font-size="10pt" fill="#000000" ><tspan>0.1</tspan></text>
    </g>
  </g>
      <polyline fill="none" stroke="#000000" stroke-width="0.5pt" stroke-dasharray="none" stroke-opacity="1.00" points="166.40000,623.89000 166.40000,618.17685 "/>
      <polyline fill="none" stroke="#000000" stroke-width="0.5pt" stroke-dasharray="none" stroke-opacity="1.00" points="166.40000,623.89000 166.40000,618.17685 "/>
      <polyline fill="none" stroke="#000000" stroke-width="0.5pt" stroke-dasharray="none" stroke-opacity="1.00" points="166.40000,623.89000 166.40000,618.17685 "/>
      <polyline fill="none" stroke="#000000" stroke-width="0.5pt" stroke-dasharray="none" stroke-opacity="1.00" points="166.40000,623.89000 166.40000,623.89000 "/>
    </g>
  </g>
  </g>
</svg>
