<?xml version="1.0" encoding="utf-8" standalone="no"?><!DOCTYPE svg PUBLIC "-//W3C//DTD SVG 1.1//EN" "http://www.w3.org/Graphics/SVG/1.1/DTD/svg11.dtd">
<svg preserveAspectRatio="xMinYMin meet" width="100%" height="100%" viewBox="0 0 1280.000 701.000"  version="1.1" xmlns="http://www.w3.org/2000/svg" xmlns:xlink="http://www.w3.org/1999/xlink">
  <desc>Matlab Figure Converted by PLOT2SVG written by Juerg Schwizer</desc>
  <g id="topgroup">
  <rect x="0" y="0" width="1280.000" height="701.000" fill="#ffffff" stroke="none" />
  <g id ="ID000000">
  <clipPath id="ID000001">
    <rect x="166.400" y="52.575" width="992.000" height="571.315"/>
  </clipPath>
      <polygon fill="#ffffff" fill-opacity="1.00" stroke="none" stroke-width="0.5pt" stroke-opacity="1.00" stroke-dasharray="none" points="166.400,623.890 1158.400,623.890 1158.400,52.575 166.400,52.575 "/>
      <polygon fill="#ffffff" fill-opacity="1.00" stroke="none" stroke-width="0.5pt" stroke-opacity="1.00" stroke-dasharray="none" points="166.400,52.575 1158.400,52.575 1158.400,52.575 166.400,52.575 "/>
      <polygon fill="#ffffff" fill-opacity="1.00" stroke="none" stroke-width="0.5pt" stroke-opacity="1.00" stroke-dasharray="none" points="166.400,623.890 166.400,623.890 166.400,52.575 166.400,52.575 "/>
    <g>
<g id="ID000002" clip-path="url(#ID000001)" >
      <polyline fill="none" stroke="#0000ff" stroke-width="0.5pt" stroke-dasharray="none" stroke-opacity="1.00" points="169.94286,-518.74000 173.48571,-290.21400 177.02857,-61.68800 180.57143,24.00925 184.11429,75.42760 187.65714,147.79417 191.20000,166.83800 194.74286,195.40375 198.28571,217.62156 201.82857,258.24840 205.37143,270.71345 208.91429,262.05717 212.45714,289.89046 216.00000,289.26264 219.54286,319.18867 223.08571,323.94963 226.62857,314.70776 230.17143,331.88456 233.71429,341.23942 237.25714,349.65880 240.80000,357.27633 244.34286,374.58891 247.88571,375.49217 251.42857,362.03729 254.97143,386.22296 258.51429,377.78508 262.05714,386.90007 265.60000,403.52564 269.14286,403.24421 272.68571,414.40783 276.22857,406.42171 279.77143,402.50544 283.31429,405.75155 286.85714,435.69212 290.40000,414.95194 293.94286,423.92975 297.48571,420.06951 301.02857,425.43321 304.57143,418.80256 308.11429,423.92975 311.65714,434.38063 315.20000,438.89276 318.74286,445.85230 322.28571,452.49550 325.82857,430.91249 329.37143,447.52754 332.91429,439.12430 336.45714,452.49550 340.00000,437.33816 343.54286,454.78076 347.08571,458.09663 350.62857,450.29813 354.17143,453.57345 357.71429,471.53933 361.25714,463.92180 364.80000,470.85920 368.34286,461.51626 371.88571,458.40566 375.42857,467.02046 378.97143,467.73057 382.51429,464.67107 386.05714,472.76797 389.60000,476.98043 393.14286,472.13445 396.68571,472.71126 400.22857,480.19562 403.77143,473.81322 407.31429,476.02024 410.85714,486.44320 414.40000,486.77440 417.94286,475.83090 421.48571,484.23522 425.02857,481.45256 428.57143,483.37739 432.11429,473.06284 435.65714,491.58547 439.20000,488.85191 442.74286,490.58317 446.28571,490.82423 449.82857,491.05926 453.37143,488.46719 456.91429,490.11868 460.45714,487.60040 464.00000,489.22289 467.54286,490.80721 471.08571,488.36877 474.62857,493.86659 478.17143,486.25502 481.71429,496.78846 485.25714,494.39193 488.80000,489.53680 492.34286,492.23915 495.88571,494.88339 499.42857,498.68693 502.97143,498.80208 506.51429,502.48556 510.05714,504.91512 513.60000,503.79726 517.14286,503.85614 520.68571,505.05648 524.22857,500.57647 527.77143,511.86745 531.31429,506.29895 534.85714,507.42963 538.40000,507.45056 541.94286,510.70495 545.48571,504.28761 549.02857,511.74298 552.57143,514.86842 556.11429,508.58825 559.65714,513.74459 563.20000,512.68762 566.74286,514.68288 570.28571,509.62700 573.82857,510.62059 577.37143,508.64197 580.91429,511.58021 584.45714,510.59533 588.00000,510.58719 591.54286,515.34015 595.08571,514.34861 598.62857,515.24649 602.17143,514.27184 605.71429,508.70552 609.25714,517.85394 612.80000,514.16125 616.34286,513.22583 619.88571,511.41236 623.42857,514.05580 626.97143,513.14278 630.51429,518.34937 634.05714,523.47706 637.60000,521.65468 641.14286,520.71222 644.68571,517.24453 648.22857,509.62700 651.77143,527.14177 655.31429,517.07893 658.85714,518.66940 662.40000,521.86946 665.94286,520.16189 669.48571,519.28303 673.02857,524.80880 676.57143,520.73590 680.11429,526.96346 683.65714,523.71422 687.20000,520.50919 690.74286,524.29590 694.28571,522.66372 697.82857,527.90908 701.37143,522.49105 704.91429,522.40641 708.45714,515.60154 712.00000,526.69225 715.54286,522.89625 719.08571,527.20592 722.62857,525.63838 726.17143,530.59932 729.71429,528.31152 733.25714,529.62302 736.80000,528.07941 740.34286,530.08149 743.88571,532.05900 747.42857,525.65169 750.97143,529.01708 754.51429,533.03027 758.05714,530.83750 761.60000,533.43179 765.14286,532.61482 768.68571,531.80746 772.22857,529.00494 775.77143,536.19979 779.31429,532.08331 782.85714,532.61094 786.40000,533.78546 789.94286,534.94664 793.48571,529.63916 797.02857,533.37830 800.57143,534.52229 804.11429,526.76645 807.65714,534.24720 811.20000,533.48411 814.74286,540.22201 818.28571,532.60380 821.82857,532.47960 825.37143,531.12810 828.91429,533.45725 832.45714,538.80053 836.00000,535.62334 839.54286,541.50036 843.08571,534.75290 846.62857,532.24155 850.17143,537.45270 853.71429,530.83044 857.25714,535.99538 860.80000,538.77572 864.34286,540.94782 867.88571,539.63546 871.42857,538.33630 874.97143,539.33538 878.51429,539.75605 882.05714,541.30387 885.60000,540.58496 889.14286,535.95230 892.68571,540.84031 896.22857,539.57944 899.77143,543.29871 903.31429,534.89670 906.85714,539.14950 910.40000,543.36179 913.94286,540.49426 917.48571,543.04354 921.02857,544.49599 924.57143,540.59548 928.11429,542.04580 931.65714,540.30873 935.20000,542.27357 938.74286,544.22039 942.28571,544.06242 945.82857,543.90590 949.37143,542.71674 952.91429,539.99419 956.45714,539.34563 960.00000,543.80388 963.54286,540.60497 967.08571,545.52378 970.62857,544.86229 974.17143,541.70082 977.71429,546.05145 981.25714,542.91231 984.80000,543.75751 988.34286,542.13285 991.88571,542.97414 995.42857,546.24976 998.97143,546.58014 1002.51429,547.87606 1006.05714,544.33981 1009.60000,549.47502 1013.14286,540.22462 1016.68571,547.71467 1020.22857,547.55663 1023.77143,545.51125 1027.31429,548.18488 1030.85714,550.36832 1034.40000,548.80289 1037.94286,550.96605 1041.48571,548.94828 "/>
</g>
<g id="ID000003" >
  <g transform="translate(128.400,339.233)">
    <g transform="rotate(-90.0)">
      <text x="0.000" y="0.000" font-family="Helvetica" text-anchor="middle" font-size="10pt" fill="#000000" ><tspan>95% confidence interval on prob letter is red</tspan></text>
    </g>
  </g>
</g>
<g id="ID000004" >
  <g transform="translate(661.900,655.902)">
    <g transform="rotate(-0.0)">
      <text x="0.000" y="0.000" font-family="Helvetica" text-anchor="middle" font-size="10pt" fill="#000000" ><tspan>bootstrap sample size</tspan></text>
    </g>
  </g>
</g>
<g id="ID000005" >
</g>
    </g>
    <g>
      <polyline fill="none" stroke="#000000" stroke-width="0.5pt" stroke-dasharray="none" stroke-opacity="1.00" points="166.40000,623.89000 166.40000,613.97000 "/>
      <polyline fill="none" stroke="#000000" stroke-width="0.5pt" stroke-dasharray="none" stroke-opacity="1.00" points="308.11429,623.89000 308.11429,613.97000 "/>
      <polyline fill="none" stroke="#000000" stroke-width="0.5pt" stroke-dasharray="none" stroke-opacity="1.00" points="449.82857,623.89000 449.82857,613.97000 "/>
      <polyline fill="none" stroke="#000000" stroke-width="0.5pt" stroke-dasharray="none" stroke-opacity="1.00" points="591.54286,623.89000 591.54286,613.97000 "/>
      <polyline fill="none" stroke="#000000" stroke-width="0.5pt" stroke-dasharray="none" stroke-opacity="1.00" points="733.25714,623.89000 733.25714,613.97000 "/>
      <polyline fill="none" stroke="#000000" stroke-width="0.5pt" stroke-dasharray="none" stroke-opacity="1.00" points="874.97143,623.89000 874.97143,613.97000 "/>
      <polyline fill="none" stroke="#000000" stroke-width="0.5pt" stroke-dasharray="none" stroke-opacity="1.00" points="1016.68571,623.89000 1016.68571,613.97000 "/>
      <polyline fill="none" stroke="#000000" stroke-width="0.5pt" stroke-dasharray="none" stroke-opacity="1.00" points="1158.40000,623.89000 1158.40000,613.97000 "/>
      <polyline fill="none" stroke="#000000" stroke-width="0.5pt" stroke-dasharray="none" stroke-opacity="1.00" points="166.40000,623.89000 1158.40000,623.89000 "/>
  <g transform="translate(166.400,647.116)">
    <g transform="rotate(-0.0)">
      <text x="0.000" y="0.000" font-family="Helvetica" text-anchor="middle" font-size="10pt" fill="#000000" ><tspan>0</tspan></text>
    </g>
  </g>
  <g transform="translate(308.114,647.116)">
    <g transform="rotate(-0.0)">
      <text x="0.000" y="0.000" font-family="Helvetica" text-anchor="middle" font-size="10pt" fill="#000000" ><tspan>1000</tspan></text>
    </g>
  </g>
  <g transform="translate(449.829,647.116)">
    <g transform="rotate(-0.0)">
      <text x="0.000" y="0.000" font-family="Helvetica" text-anchor="middle" font-size="10pt" fill="#000000" ><tspan>2000</tspan></text>
    </g>
  </g>
  <g transform="translate(591.543,647.116)">
    <g transform="rotate(-0.0)">
      <text x="0.000" y="0.000" font-family="Helvetica" text-anchor="middle" font-size="10pt" fill="#000000" ><tspan>3000</tspan></text>
    </g>
  </g>
  <g transform="translate(733.257,647.116)">
    <g transform="rotate(-0.0)">
      <text x="0.000" y="0.000" font-family="Helvetica" text-anchor="middle" font-size="10pt" fill="#000000" ><tspan>4000</tspan></text>
    </g>
  </g>
  <g transform="translate(874.971,647.116)">
    <g transform="rotate(-0.0)">
      <text x="0.000" y="0.000" font-family="Helvetica" text-anchor="middle" font-size="10pt" fill="#000000" ><tspan>5000</tspan></text>
    </g>
  </g>
  <g transform="translate(1016.686,647.116)">
    <g transform="rotate(-0.0)">
      <text x="0.000" y="0.000" font-family="Helvetica" text-anchor="middle" font-size="10pt" fill="#000000" ><tspan>6000</tspan></text>
    </g>
  </g>
  <g transform="translate(1158.400,647.116)">
    <g transform="rotate(-0.0)">
      <text x="0.000" y="0.000" font-family="Helvetica" text-anchor="middle" font-size="10pt" fill="#000000" ><tspan>7000</tspan></text>
    </g>
  </g>
      <polyline fill="none" stroke="#000000" stroke-width="0.5pt" stroke-dasharray="none" stroke-opacity="1.00" points="166.40000,623.89000 176.32000,623.89000 "/>
      <polyline fill="none" stroke="#000000" stroke-width="0.5pt" stroke-dasharray="none" stroke-opacity="1.00" points="166.40000,566.75850 176.32000,566.75850 "/>
      <polyline fill="none" stroke="#000000" stroke-width="0.5pt" stroke-dasharray="none" stroke-opacity="1.00" points="166.40000,509.62700 176.32000,509.62700 "/>
      <polyline fill="none" stroke="#000000" stroke-width="0.5pt" stroke-dasharray="none" stroke-opacity="1.00" points="166.40000,452.49550 176.32000,452.49550 "/>
      <polyline fill="none" stroke="#000000" stroke-width="0.5pt" stroke-dasharray="none" stroke-opacity="1.00" points="166.40000,395.36400 176.32000,395.36400 "/>
      <polyline fill="none" stroke="#000000" stroke-width="0.5pt" stroke-dasharray="none" stroke-opacity="1.00" points="166.40000,338.23250 176.32000,338.23250 "/>
      <polyline fill="none" stroke="#000000" stroke-width="0.5pt" stroke-dasharray="none" stroke-opacity="1.00" points="166.40000,281.10100 176.32000,281.10100 "/>
      <polyline fill="none" stroke="#000000" stroke-width="0.5pt" stroke-dasharray="none" stroke-opacity="1.00" points="166.40000,223.96950 176.32000,223.96950 "/>
      <polyline fill="none" stroke="#000000" stroke-width="0.5pt" stroke-dasharray="none" stroke-opacity="1.00" points="166.40000,166.83800 176.32000,166.83800 "/>
      <polyline fill="none" stroke="#000000" stroke-width="0.5pt" stroke-dasharray="none" stroke-opacity="1.00" points="166.40000,109.70650 176.32000,109.70650 "/>
      <polyline fill="none" stroke="#000000" stroke-width="0.5pt" stroke-dasharray="none" stroke-opacity="1.00" points="166.40000,52.57500 176.32000,52.57500 "/>
      <polyline fill="none" stroke="#000000" stroke-width="0.5pt" stroke-dasharray="none" stroke-opacity="1.00" points="166.40000,623.89000 166.40000,52.57500 "/>
  <g transform="translate(146.560,628.390)">
    <g transform="rotate(-0.0)">
      <text x="0.000" y="0.000" font-family="Helvetica" text-anchor="end" font-size="10pt" fill="#000000" ><tspan>0</tspan></text>
    </g>
  </g>
  <g transform="translate(146.560,571.259)">
    <g transform="rotate(-0.0)">
      <text x="0.000" y="0.000" font-family="Helvetica" text-anchor="end" font-size="10pt" fill="#000000" ><tspan>0.01</tspan></text>
    </g>
  </g>
  <g transform="translate(146.560,514.127)">
    <g transform="rotate(-0.0)">
      <text x="0.000" y="0.000" font-family="Helvetica" text-anchor="end" font-size="10pt" fill="#000000" ><tspan>0.02</tspan></text>
    </g>
  </g>
  <g transform="translate(146.560,456.995)">
    <g transform="rotate(-0.0)">
      <text x="0.000" y="0.000" font-family="Helvetica" text-anchor="end" font-size="10pt" fill="#000000" ><tspan>0.03</tspan></text>
    </g>
  </g>
  <g transform="translate(146.560,399.864)">
    <g transform="rotate(-0.0)">
      <text x="0.000" y="0.000" font-family="Helvetica" text-anchor="end" font-size="10pt" fill="#000000" ><tspan>0.04</tspan></text>
    </g>
  </g>
  <g transform="translate(146.560,342.733)">
    <g transform="rotate(-0.0)">
      <text x="0.000" y="0.000" font-family="Helvetica" text-anchor="end" font-size="10pt" fill="#000000" ><tspan>0.05</tspan></text>
    </g>
  </g>
  <g transform="translate(146.560,285.601)">
    <g transform="rotate(-0.0)">
      <text x="0.000" y="0.000" font-family="Helvetica" text-anchor="end" font-size="10pt" fill="#000000" ><tspan>0.06</tspan></text>
    </g>
  </g>
  <g transform="translate(146.560,228.469)">
    <g transform="rotate(-0.0)">
      <text x="0.000" y="0.000" font-family="Helvetica" text-anchor="end" font-size="10pt" fill="#000000" ><tspan>0.07</tspan></text>
    </g>
  </g>
  <g transform="translate(146.560,171.338)">
    <g transform="rotate(-0.0)">
      <text x="0.000" y="0.000" font-family="Helvetica" text-anchor="end" font-size="10pt" fill="#000000" ><tspan>0.08</tspan></text>
    </g>
  </g>
  <g transform="translate(146.560,114.207)">
    <g transform="rotate(-0.0)">
      <text x="0.000" y="0.000" font-family="Helvetica" text-anchor="end" font-size="10pt" fill="#000000" ><tspan>0.09</tspan></text>
    </g>
  </g>
  <g transform="translate(146.560,57.075)">
    <g transform="rotate(-0.0)">
      <text x="0.000" y="0.000" font-family="Helvetica" text-anchor="end" font-size="10pt" fill="#000000" ><tspan>0.1</tspan></text>
    </g>
  </g>
      <polyline fill="none" stroke="#000000" stroke-width="0.5pt" stroke-dasharray="none" stroke-opacity="1.00" points="166.40000,623.89000 166.40000,618.17685 "/>
      <polyline fill="none" stroke="#000000" stroke-width="0.5pt" stroke-dasharray="none" stroke-opacity="1.00" points="166.40000,623.89000 166.40000,618.17685 "/>
      <polyline fill="none" stroke="#000000" stroke-width="0.5pt" stroke-dasharray="none" stroke-opacity="1.00" points="166.40000,623.89000 166.40000,618.17685 "/>
      <polyline fill="none" stroke="#000000" stroke-width="0.5pt" stroke-dasharray="none" stroke-opacity="1.00" points="166.40000,623.89000 166.40000,623.89000 "/>
    </g>
  </g>
  </g>
</svg>
