<?xml version="1.0" encoding="utf-8" standalone="no"?><!DOCTYPE svg PUBLIC "-//W3C//DTD SVG 1.1//EN" "http://www.w3.org/Graphics/SVG/1.1/DTD/svg11.dtd">
<svg preserveAspectRatio="xMinYMin meet" width="100%" height="100%" viewBox="0 0 1280.000 701.000"  version="1.1" xmlns="http://www.w3.org/2000/svg" xmlns:xlink="http://www.w3.org/1999/xlink">
  <desc>Matlab Figure Converted by PLOT2SVG written by Juerg Schwizer</desc>
  <g id="topgroup">
  <rect x="0" y="0" width="1280.000" height="701.000" fill="#ffffff" stroke="none" />
  <g id ="ID000000">
  <clipPath id="ID000001">
    <rect x="166.400" y="52.575" width="992.000" height="571.315"/>
  </clipPath>
      <polygon fill="#ffffff" fill-opacity="1.00" stroke="none" stroke-width="0.5pt" stroke-opacity="1.00" stroke-dasharray="none" points="166.400,623.890 1158.400,623.890 1158.400,52.575 166.400,52.575 "/>
      <polygon fill="#ffffff" fill-opacity="1.00" stroke="none" stroke-width="0.5pt" stroke-opacity="1.00" stroke-dasharray="none" points="166.400,52.575 1158.400,52.575 1158.400,52.575 166.400,52.575 "/>
      <polygon fill="#ffffff" fill-opacity="1.00" stroke="none" stroke-width="0.5pt" stroke-opacity="1.00" stroke-dasharray="none" points="166.400,623.890 166.400,623.890 166.400,52.575 166.400,52.575 "/>
    <g>
<g id="ID000002" clip-path="url(#ID000001)" >
      <polyline fill="none" stroke="#0000ff" stroke-width="0.5pt" stroke-dasharray="none" stroke-opacity="1.00" points="169.94286,-61.68800 173.48571,166.83800 177.02857,204.92567 180.57143,252.53525 184.11429,235.39580 187.65714,281.10100 191.20000,297.42429 194.74286,366.79825 198.28571,344.58044 201.82857,395.36400 205.37143,395.36400 208.91429,395.36400 212.45714,404.15346 216.00000,395.36400 219.54286,418.21660 223.08571,431.07119 226.62857,422.24941 230.17143,433.45167 233.71429,443.47474 237.25714,452.49550 240.80000,455.21605 244.34286,442.10795 247.88571,450.01152 251.42857,457.25646 254.97143,454.78076 258.51429,465.67969 262.05714,463.07541 265.60000,468.81879 269.14286,470.22597 272.68571,479.15687 276.22857,469.08206 279.77143,481.06125 283.31429,495.77694 286.85714,482.74159 290.40000,486.77440 293.94286,493.75714 297.48571,497.27424 301.02857,500.60624 304.57143,494.97790 308.11429,486.77440 311.65714,501.26629 315.20000,504.18590 318.74286,506.96972 322.28571,517.41766 325.82857,496.93111 329.37143,502.17507 332.91429,502.33362 336.45714,504.86604 340.00000,511.95890 343.54286,500.48596 347.08571,514.10790 350.62857,509.62700 354.17143,507.47109 357.71429,509.62700 361.25714,509.62700 364.80000,517.78864 368.34286,513.63623 371.88571,525.38741 375.42857,517.37364 378.97143,505.81823 382.51429,530.23180 386.05714,522.52766 389.60000,527.76398 393.14286,522.12452 396.68571,513.14278 400.22857,525.20832 403.77143,531.79743 407.31429,526.43038 410.85714,527.84284 414.40000,529.21494 417.94286,530.54839 421.48571,528.67083 425.02857,537.80144 428.57143,525.06795 432.11429,526.38557 435.65714,524.66161 439.20000,527.43422 442.74286,525.74101 446.28571,537.10797 449.82857,531.05131 453.37143,532.19747 456.91429,540.28293 460.45714,533.03027 464.00000,531.39138 467.54286,535.16814 471.08571,541.51435 474.62857,542.46120 478.17143,538.19275 481.71429,535.30408 485.25714,541.36672 488.80000,538.50666 492.34286,539.43474 495.88571,537.88559 499.42857,542.44722 502.97143,542.10175 506.51429,535.81227 510.05714,543.78810 513.60000,543.43952 517.14286,539.63546 520.68571,538.19275 524.22857,537.90992 527.77143,548.83489 531.31429,538.47009 534.85714,539.29143 538.40000,539.00891 541.94286,546.27740 545.48571,547.00275 549.02857,545.59869 552.57143,550.51009 556.11429,548.06092 559.65714,545.65587 563.20000,547.37460 566.74286,545.01819 570.28571,548.71697 573.82857,548.37706 577.37143,545.08793 580.91429,546.73806 584.45714,553.20187 588.00000,551.87550 591.54286,546.76248 595.08571,545.51125 598.62857,553.64635 602.17143,552.35950 605.71429,547.40751 609.25714,552.58989 612.80000,554.06261 616.34286,557.31156 619.88571,553.36830 623.42857,554.80074 626.97143,551.81642 630.51429,557.60002 634.05714,553.77407 637.60000,550.86477 641.14286,553.96787 644.68571,555.33220 648.22857,550.79529 651.77143,550.49479 655.31429,556.82259 658.85714,557.30509 662.40000,552.88371 665.94286,555.81843 669.48571,556.29780 673.02857,559.96664 676.57143,558.82357 680.11429,554.54418 683.65714,551.88866 687.20000,553.93306 690.74286,560.58212 694.28571,558.70641 697.82857,557.61746 701.37143,557.29964 704.91429,562.24812 708.45714,558.17010 712.00000,560.82276 715.54286,560.49246 719.08571,558.70149 722.62857,556.93334 726.17143,560.24985 729.71429,560.65010 733.25714,559.61706 736.80000,556.46773 740.34286,563.23186 743.88571,558.69700 747.42857,560.48797 750.97143,560.17972 754.51429,561.94018 758.05714,560.94272 761.60000,561.99754 765.14286,561.68766 768.68571,562.72569 772.22857,560.41056 775.77143,559.45098 779.31429,561.14442 782.85714,562.16171 786.40000,568.39083 789.94286,565.46006 793.48571,562.56240 797.02857,566.11657 800.57143,562.60928 804.11429,561.68014 807.65714,563.28642 811.20000,564.24723 814.74286,565.19753 818.28571,564.89552 821.82857,565.83204 825.37143,570.44440 828.91429,565.23092 832.45714,563.11181 836.00000,561.01512 839.54286,567.35988 843.08571,562.86997 846.62857,563.78290 850.17143,570.01470 853.71429,564.40256 857.25714,564.12166 860.80000,564.42660 864.34286,564.72845 867.88571,569.64393 871.42857,565.32304 874.97143,569.61508 878.51429,568.17968 882.05714,569.58679 885.60000,568.16568 889.14286,567.31861 892.68571,570.93885 896.22857,567.31317 899.77143,567.03450 903.31429,565.65982 906.85714,566.48514 910.40000,567.84672 913.94286,568.65386 917.48571,569.99236 921.02857,565.95383 924.57143,564.08880 928.11429,562.77258 931.65714,568.87448 935.20000,572.28735 938.74286,569.37921 942.28571,567.54112 945.82857,570.91352 949.37143,564.94890 952.91429,572.93488 956.45714,571.11382 960.00000,569.81912 963.54286,572.09077 967.08571,569.28644 970.62857,570.03035 974.17143,568.76311 977.71429,570.00177 981.25714,570.23607 984.80000,570.46834 988.34286,567.74353 991.88571,569.45570 995.42857,570.66493 998.97143,569.91897 1002.51429,572.56848 1006.05714,574.23140 1009.60000,572.03956 1013.14286,574.64695 1016.68571,571.51946 1020.22857,572.68500 1023.77143,572.89660 1027.31429,574.04688 1030.85714,575.65603 1034.40000,571.18911 1037.94286,567.68747 1041.48571,571.61583 "/>
</g>
<g id="ID000003" >
  <g transform="translate(128.400,339.233)">
    <g transform="rotate(-90.0)">
      <text x="0.000" y="0.000" font-family="Helvetica" text-anchor="middle" font-size="10pt" fill="#000000" ><tspan>95% confidence interval on prob letter is grey</tspan></text>
    </g>
  </g>
</g>
<g id="ID000004" >
  <g transform="translate(661.900,655.902)">
    <g transform="rotate(-0.0)">
      <text x="0.000" y="0.000" font-family="Helvetica" text-anchor="middle" font-size="10pt" fill="#000000" ><tspan>bootstrap sample size</tspan></text>
    </g>
  </g>
</g>
<g id="ID000005" >
</g>
    </g>
    <g>
      <polyline fill="none" stroke="#000000" stroke-width="0.5pt" stroke-dasharray="none" stroke-opacity="1.00" points="166.40000,623.89000 166.40000,613.97000 "/>
      <polyline fill="none" stroke="#000000" stroke-width="0.5pt" stroke-dasharray="none" stroke-opacity="1.00" points="308.11429,623.89000 308.11429,613.97000 "/>
      <polyline fill="none" stroke="#000000" stroke-width="0.5pt" stroke-dasharray="none" stroke-opacity="1.00" points="449.82857,623.89000 449.82857,613.97000 "/>
      <polyline fill="none" stroke="#000000" stroke-width="0.5pt" stroke-dasharray="none" stroke-opacity="1.00" points="591.54286,623.89000 591.54286,613.97000 "/>
      <polyline fill="none" stroke="#000000" stroke-width="0.5pt" stroke-dasharray="none" stroke-opacity="1.00" points="733.25714,623.89000 733.25714,613.97000 "/>
      <polyline fill="none" stroke="#000000" stroke-width="0.5pt" stroke-dasharray="none" stroke-opacity="1.00" points="874.97143,623.89000 874.97143,613.97000 "/>
      <polyline fill="none" stroke="#000000" stroke-width="0.5pt" stroke-dasharray="none" stroke-opacity="1.00" points="1016.68571,623.89000 1016.68571,613.97000 "/>
      <polyline fill="none" stroke="#000000" stroke-width="0.5pt" stroke-dasharray="none" stroke-opacity="1.00" points="1158.40000,623.89000 1158.40000,613.97000 "/>
      <polyline fill="none" stroke="#000000" stroke-width="0.5pt" stroke-dasharray="none" stroke-opacity="1.00" points="166.40000,623.89000 1158.40000,623.89000 "/>
  <g transform="translate(166.400,647.116)">
    <g transform="rotate(-0.0)">
      <text x="0.000" y="0.000" font-family="Helvetica" text-anchor="middle" font-size="10pt" fill="#000000" ><tspan>0</tspan></text>
    </g>
  </g>
  <g transform="translate(308.114,647.116)">
    <g transform="rotate(-0.0)">
      <text x="0.000" y="0.000" font-family="Helvetica" text-anchor="middle" font-size="10pt" fill="#000000" ><tspan>1000</tspan></text>
    </g>
  </g>
  <g transform="translate(449.829,647.116)">
    <g transform="rotate(-0.0)">
      <text x="0.000" y="0.000" font-family="Helvetica" text-anchor="middle" font-size="10pt" fill="#000000" ><tspan>2000</tspan></text>
    </g>
  </g>
  <g transform="translate(591.543,647.116)">
    <g transform="rotate(-0.0)">
      <text x="0.000" y="0.000" font-family="Helvetica" text-anchor="middle" font-size="10pt" fill="#000000" ><tspan>3000</tspan></text>
    </g>
  </g>
  <g transform="translate(733.257,647.116)">
    <g transform="rotate(-0.0)">
      <text x="0.000" y="0.000" font-family="Helvetica" text-anchor="middle" font-size="10pt" fill="#000000" ><tspan>4000</tspan></text>
    </g>
  </g>
  <g transform="translate(874.971,647.116)">
    <g transform="rotate(-0.0)">
      <text x="0.000" y="0.000" font-family="Helvetica" text-anchor="middle" font-size="10pt" fill="#000000" ><tspan>5000</tspan></text>
    </g>
  </g>
  <g transform="translate(1016.686,647.116)">
    <g transform="rotate(-0.0)">
      <text x="0.000" y="0.000" font-family="Helvetica" text-anchor="middle" font-size="10pt" fill="#000000" ><tspan>6000</tspan></text>
    </g>
  </g>
  <g transform="translate(1158.400,647.116)">
    <g transform="rotate(-0.0)">
      <text x="0.000" y="0.000" font-family="Helvetica" text-anchor="middle" font-size="10pt" fill="#000000" ><tspan>7000</tspan></text>
    </g>
  </g>
      <polyline fill="none" stroke="#000000" stroke-width="0.5pt" stroke-dasharray="none" stroke-opacity="1.00" points="166.40000,623.89000 176.32000,623.89000 "/>
      <polyline fill="none" stroke="#000000" stroke-width="0.5pt" stroke-dasharray="none" stroke-opacity="1.00" points="166.40000,566.75850 176.32000,566.75850 "/>
      <polyline fill="none" stroke="#000000" stroke-width="0.5pt" stroke-dasharray="none" stroke-opacity="1.00" points="166.40000,509.62700 176.32000,509.62700 "/>
      <polyline fill="none" stroke="#000000" stroke-width="0.5pt" stroke-dasharray="none" stroke-opacity="1.00" points="166.40000,452.49550 176.32000,452.49550 "/>
      <polyline fill="none" stroke="#000000" stroke-width="0.5pt" stroke-dasharray="none" stroke-opacity="1.00" points="166.40000,395.36400 176.32000,395.36400 "/>
      <polyline fill="none" stroke="#000000" stroke-width="0.5pt" stroke-dasharray="none" stroke-opacity="1.00" points="166.40000,338.23250 176.32000,338.23250 "/>
      <polyline fill="none" stroke="#000000" stroke-width="0.5pt" stroke-dasharray="none" stroke-opacity="1.00" points="166.40000,281.10100 176.32000,281.10100 "/>
      <polyline fill="none" stroke="#000000" stroke-width="0.5pt" stroke-dasharray="none" stroke-opacity="1.00" points="166.40000,223.96950 176.32000,223.96950 "/>
      <polyline fill="none" stroke="#000000" stroke-width="0.5pt" stroke-dasharray="none" stroke-opacity="1.00" points="166.40000,166.83800 176.32000,166.83800 "/>
      <polyline fill="none" stroke="#000000" stroke-width="0.5pt" stroke-dasharray="none" stroke-opacity="1.00" points="166.40000,109.70650 176.32000,109.70650 "/>
      <polyline fill="none" stroke="#000000" stroke-width="0.5pt" stroke-dasharray="none" stroke-opacity="1.00" points="166.40000,52.57500 176.32000,52.57500 "/>
      <polyline fill="none" stroke="#000000" stroke-width="0.5pt" stroke-dasharray="none" stroke-opacity="1.00" points="166.40000,623.89000 166.40000,52.57500 "/>
  <g transform="translate(146.560,628.390)">
    <g transform="rotate(-0.0)">
      <text x="0.000" y="0.000" font-family="Helvetica" text-anchor="end" font-size="10pt" fill="#000000" ><tspan>0</tspan></text>
    </g>
  </g>
  <g transform="translate(146.560,571.259)">
    <g transform="rotate(-0.0)">
      <text x="0.000" y="0.000" font-family="Helvetica" text-anchor="end" font-size="10pt" fill="#000000" ><tspan>0.01</tspan></text>
    </g>
  </g>
  <g transform="translate(146.560,514.127)">
    <g transform="rotate(-0.0)">
      <text x="0.000" y="0.000" font-family="Helvetica" text-anchor="end" font-size="10pt" fill="#000000" ><tspan>0.02</tspan></text>
    </g>
  </g>
  <g transform="translate(146.560,456.995)">
    <g transform="rotate(-0.0)">
      <text x="0.000" y="0.000" font-family="Helvetica" text-anchor="end" font-size="10pt" fill="#000000" ><tspan>0.03</tspan></text>
    </g>
  </g>
  <g transform="translate(146.560,399.864)">
    <g transform="rotate(-0.0)">
      <text x="0.000" y="0.000" font-family="Helvetica" text-anchor="end" font-size="10pt" fill="#000000" ><tspan>0.04</tspan></text>
    </g>
  </g>
  <g transform="translate(146.560,342.733)">
    <g transform="rotate(-0.0)">
      <text x="0.000" y="0.000" font-family="Helvetica" text-anchor="end" font-size="10pt" fill="#000000" ><tspan>0.05</tspan></text>
    </g>
  </g>
  <g transform="translate(146.560,285.601)">
    <g transform="rotate(-0.0)">
      <text x="0.000" y="0.000" font-family="Helvetica" text-anchor="end" font-size="10pt" fill="#000000" ><tspan>0.06</tspan></text>
    </g>
  </g>
  <g transform="translate(146.560,228.469)">
    <g transform="rotate(-0.0)">
      <text x="0.000" y="0.000" font-family="Helvetica" text-anchor="end" font-size="10pt" fill="#000000" ><tspan>0.07</tspan></text>
    </g>
  </g>
  <g transform="translate(146.560,171.338)">
    <g transform="rotate(-0.0)">
      <text x="0.000" y="0.000" font-family="Helvetica" text-anchor="end" font-size="10pt" fill="#000000" ><tspan>0.08</tspan></text>
    </g>
  </g>
  <g transform="translate(146.560,114.207)">
    <g transform="rotate(-0.0)">
      <text x="0.000" y="0.000" font-family="Helvetica" text-anchor="end" font-size="10pt" fill="#000000" ><tspan>0.09</tspan></text>
    </g>
  </g>
  <g transform="translate(146.560,57.075)">
    <g transform="rotate(-0.0)">
      <text x="0.000" y="0.000" font-family="Helvetica" text-anchor="end" font-size="10pt" fill="#000000" ><tspan>0.1</tspan></text>
    </g>
  </g>
      <polyline fill="none" stroke="#000000" stroke-width="0.5pt" stroke-dasharray="none" stroke-opacity="1.00" points="166.40000,623.89000 166.40000,618.17685 "/>
      <polyline fill="none" stroke="#000000" stroke-width="0.5pt" stroke-dasharray="none" stroke-opacity="1.00" points="166.40000,623.89000 166.40000,618.17685 "/>
      <polyline fill="none" stroke="#000000" stroke-width="0.5pt" stroke-dasharray="none" stroke-opacity="1.00" points="166.40000,623.89000 166.40000,618.17685 "/>
      <polyline fill="none" stroke="#000000" stroke-width="0.5pt" stroke-dasharray="none" stroke-opacity="1.00" points="166.40000,623.89000 166.40000,623.89000 "/>
    </g>
  </g>
  </g>
</svg>
