<?xml version="1.0" encoding="utf-8" standalone="no"?><!DOCTYPE svg PUBLIC "-//W3C//DTD SVG 1.1//EN" "http://www.w3.org/Graphics/SVG/1.1/DTD/svg11.dtd">
<svg preserveAspectRatio="xMinYMin meet" width="100%" height="100%" viewBox="0 0 1280.000 701.000"  version="1.1" xmlns="http://www.w3.org/2000/svg" xmlns:xlink="http://www.w3.org/1999/xlink">
  <desc>Matlab Figure Converted by PLOT2SVG written by Juerg Schwizer</desc>
  <g id="topgroup">
  <rect x="0" y="0" width="1280.000" height="701.000" fill="#ffffff" stroke="none" />
  <g id ="ID000000">
  <clipPath id="ID000001">
    <rect x="166.400" y="52.575" width="992.000" height="571.315"/>
  </clipPath>
      <polygon fill="#ffffff" fill-opacity="1.00" stroke="none" stroke-width="0.5pt" stroke-opacity="1.00" stroke-dasharray="none" points="166.400,623.890 1158.400,623.890 1158.400,52.575 166.400,52.575 "/>
      <polygon fill="#ffffff" fill-opacity="1.00" stroke="none" stroke-width="0.5pt" stroke-opacity="1.00" stroke-dasharray="none" points="166.400,52.575 1158.400,52.575 1158.400,52.575 166.400,52.575 "/>
      <polygon fill="#ffffff" fill-opacity="1.00" stroke="none" stroke-width="0.5pt" stroke-opacity="1.00" stroke-dasharray="none" points="166.400,623.890 166.400,623.890 166.400,52.575 166.400,52.575 "/>
    <g>
<g id="ID000002" clip-path="url(#ID000001)" >
<g id="ID000003" clip-path="url(#ID000001)" >
<g>
<circle cx="199.467" cy="577.358" r="5.000" fill="#6600cc" stroke="#000000" stroke-width="0.5pt" />
</g>
</g>
<g id="ID000004" clip-path="url(#ID000001)" >
<g>
<circle cx="232.533" cy="596.931" r="5.000" fill="#6600cc" stroke="#000000" stroke-width="0.5pt" />
</g>
</g>
<g id="ID000005" clip-path="url(#ID000001)" >
<g>
<circle cx="265.600" cy="549.290" r="5.000" fill="#6600cc" stroke="#000000" stroke-width="0.5pt" />
</g>
</g>
<g id="ID000006" clip-path="url(#ID000001)" >
<g>
<circle cx="298.667" cy="513.468" r="5.000" fill="#6600cc" stroke="#000000" stroke-width="0.5pt" />
</g>
</g>
<g id="ID000007" clip-path="url(#ID000001)" >
<g>
<circle cx="331.733" cy="379.041" r="5.000" fill="#6600cc" stroke="#000000" stroke-width="0.5pt" />
</g>
</g>
<g id="ID000008" clip-path="url(#ID000001)" >
<g>
<circle cx="364.800" cy="565.540" r="5.000" fill="#6600cc" stroke="#000000" stroke-width="0.5pt" />
</g>
</g>
<g id="ID000009" clip-path="url(#ID000001)" >
<g>
<circle cx="397.867" cy="582.897" r="5.000" fill="#6600cc" stroke="#000000" stroke-width="0.5pt" />
</g>
</g>
<g id="ID000010" clip-path="url(#ID000001)" >
<g>
<circle cx="430.933" cy="529.348" r="5.000" fill="#6600cc" stroke="#000000" stroke-width="0.5pt" />
</g>
</g>
<g id="ID000011" clip-path="url(#ID000001)" >
<g>
<circle cx="464.000" cy="431.851" r="5.000" fill="#6600cc" stroke="#000000" stroke-width="0.5pt" />
</g>
</g>
<g id="ID000012" clip-path="url(#ID000001)" >
<g>
<circle cx="497.067" cy="405.631" r="5.000" fill="#6600cc" stroke="#000000" stroke-width="0.5pt" />
</g>
</g>
<g id="ID000013" clip-path="url(#ID000001)" >
<g>
<circle cx="530.133" cy="577.358" r="5.000" fill="#6600cc" stroke="#000000" stroke-width="0.5pt" />
</g>
</g>
<g id="ID000014" clip-path="url(#ID000001)" >
<g>
<circle cx="563.200" cy="494.264" r="5.000" fill="#6600cc" stroke="#000000" stroke-width="0.5pt" />
</g>
</g>
<g id="ID000015" clip-path="url(#ID000001)" >
<g>
<circle cx="596.267" cy="513.837" r="5.000" fill="#6600cc" stroke="#000000" stroke-width="0.5pt" />
</g>
</g>
<g id="ID000016" clip-path="url(#ID000001)" >
<g>
<circle cx="629.333" cy="212.115" r="5.000" fill="#6600cc" stroke="#000000" stroke-width="0.5pt" />
</g>
</g>
<g id="ID000017" clip-path="url(#ID000001)" >
<g>
<circle cx="662.400" cy="497.957" r="5.000" fill="#6600cc" stroke="#000000" stroke-width="0.5pt" />
</g>
</g>
<g id="ID000018" clip-path="url(#ID000001)" >
<g>
<circle cx="695.467" cy="558.892" r="5.000" fill="#6600cc" stroke="#000000" stroke-width="0.5pt" />
</g>
</g>
<g id="ID000019" clip-path="url(#ID000001)" >
<g>
<circle cx="728.533" cy="461.026" r="5.000" fill="#6600cc" stroke="#000000" stroke-width="0.5pt" />
</g>
</g>
<g id="ID000020" clip-path="url(#ID000001)" >
<g>
<circle cx="761.600" cy="439.976" r="5.000" fill="#6600cc" stroke="#000000" stroke-width="0.5pt" />
</g>
</g>
<g id="ID000021" clip-path="url(#ID000001)" >
<g>
<circle cx="794.667" cy="522.700" r="5.000" fill="#6600cc" stroke="#000000" stroke-width="0.5pt" />
</g>
</g>
<g id="ID000022" clip-path="url(#ID000001)" >
<g>
<circle cx="827.733" cy="379.041" r="5.000" fill="#6600cc" stroke="#000000" stroke-width="0.5pt" />
</g>
</g>
<g id="ID000023" clip-path="url(#ID000001)" >
<g>
<circle cx="860.800" cy="148.594" r="5.000" fill="#6600cc" stroke="#000000" stroke-width="0.5pt" />
</g>
</g>
<g id="ID000024" clip-path="url(#ID000001)" >
<g>
<circle cx="893.867" cy="264.556" r="5.000" fill="#6600cc" stroke="#000000" stroke-width="0.5pt" />
</g>
</g>
<g id="ID000025" clip-path="url(#ID000001)" >
<g>
<circle cx="926.933" cy="334.355" r="5.000" fill="#6600cc" stroke="#000000" stroke-width="0.5pt" />
</g>
</g>
<g id="ID000026" clip-path="url(#ID000001)" >
<g>
<circle cx="960.000" cy="163.367" r="5.000" fill="#6600cc" stroke="#000000" stroke-width="0.5pt" />
</g>
</g>
<g id="ID000027" clip-path="url(#ID000001)" >
<g>
<circle cx="993.067" cy="441.084" r="5.000" fill="#6600cc" stroke="#000000" stroke-width="0.5pt" />
</g>
</g>
<g id="ID000028" clip-path="url(#ID000001)" >
<g>
<circle cx="1026.133" cy="521.592" r="5.000" fill="#6600cc" stroke="#000000" stroke-width="0.5pt" />
</g>
</g>
</g><g id="ID000029" >
  <g transform="translate(207.733,586.358)">
    <g transform="rotate(-0.0)">
      <text x="0.000" y="0.000" font-family="Helvetica" text-anchor="start" font-size="20pt" font-weight="bold" fill="#000000" ><tspan>T</tspan></text>
    </g>
  </g>
</g>
<g id="ID000030" >
  <g transform="translate(240.800,605.931)">
    <g transform="rotate(-0.0)">
      <text x="0.000" y="0.000" font-family="Helvetica" text-anchor="start" font-size="20pt" font-weight="bold" fill="#000000" ><tspan>A</tspan></text>
    </g>
  </g>
</g>
<g id="ID000031" >
  <g transform="translate(273.867,558.290)">
    <g transform="rotate(-0.0)">
      <text x="0.000" y="0.000" font-family="Helvetica" text-anchor="start" font-size="20pt" font-weight="bold" fill="#000000" ><tspan>S</tspan></text>
    </g>
  </g>
</g>
<g id="ID000032" >
  <g transform="translate(306.933,522.468)">
    <g transform="rotate(-0.0)">
      <text x="0.000" y="0.000" font-family="Helvetica" text-anchor="start" font-size="20pt" font-weight="bold" fill="#000000" ><tspan>H</tspan></text>
    </g>
  </g>
</g>
<g id="ID000033" >
  <g transform="translate(340.000,388.041)">
    <g transform="rotate(-0.0)">
      <text x="0.000" y="0.000" font-family="Helvetica" text-anchor="start" font-size="20pt" font-weight="bold" fill="#000000" ><tspan>W</tspan></text>
    </g>
  </g>
</g>
<g id="ID000034" >
  <g transform="translate(373.067,574.540)">
    <g transform="rotate(-0.0)">
      <text x="0.000" y="0.000" font-family="Helvetica" text-anchor="start" font-size="20pt" font-weight="bold" fill="#000000" ><tspan>I</tspan></text>
    </g>
  </g>
</g>
<g id="ID000035" >
  <g transform="translate(406.133,591.897)">
    <g transform="rotate(-0.0)">
      <text x="0.000" y="0.000" font-family="Helvetica" text-anchor="start" font-size="20pt" font-weight="bold" fill="#000000" ><tspan>O</tspan></text>
    </g>
  </g>
</g>
<g id="ID000036" >
  <g transform="translate(439.200,538.348)">
    <g transform="rotate(-0.0)">
      <text x="0.000" y="0.000" font-family="Helvetica" text-anchor="start" font-size="20pt" font-weight="bold" fill="#000000" ><tspan>B</tspan></text>
    </g>
  </g>
</g>
<g id="ID000037" >
  <g transform="translate(472.267,440.851)">
    <g transform="rotate(-0.0)">
      <text x="0.000" y="0.000" font-family="Helvetica" text-anchor="start" font-size="20pt" font-weight="bold" fill="#000000" ><tspan>M</tspan></text>
    </g>
  </g>
</g>
<g id="ID000038" >
  <g transform="translate(505.333,414.631)">
    <g transform="rotate(-0.0)">
      <text x="0.000" y="0.000" font-family="Helvetica" text-anchor="start" font-size="20pt" font-weight="bold" fill="#000000" ><tspan>F</tspan></text>
    </g>
  </g>
</g>
<g id="ID000039" >
  <g transform="translate(538.400,586.358)">
    <g transform="rotate(-0.0)">
      <text x="0.000" y="0.000" font-family="Helvetica" text-anchor="start" font-size="20pt" font-weight="bold" fill="#000000" ><tspan>C</tspan></text>
    </g>
  </g>
</g>
<g id="ID000040" >
  <g transform="translate(571.467,503.264)">
    <g transform="rotate(-0.0)">
      <text x="0.000" y="0.000" font-family="Helvetica" text-anchor="start" font-size="20pt" font-weight="bold" fill="#000000" ><tspan>L</tspan></text>
    </g>
  </g>
</g>
<g id="ID000041" >
  <g transform="translate(604.533,522.837)">
    <g transform="rotate(-0.0)">
      <text x="0.000" y="0.000" font-family="Helvetica" text-anchor="start" font-size="20pt" font-weight="bold" fill="#000000" ><tspan>D</tspan></text>
    </g>
  </g>
</g>
<g id="ID000042" >
  <g transform="translate(637.600,221.115)">
    <g transform="rotate(-0.0)">
      <text x="0.000" y="0.000" font-family="Helvetica" text-anchor="start" font-size="20pt" font-weight="bold" fill="#000000" ><tspan>P</tspan></text>
    </g>
  </g>
</g>
<g id="ID000043" >
  <g transform="translate(670.667,506.957)">
    <g transform="rotate(-0.0)">
      <text x="0.000" y="0.000" font-family="Helvetica" text-anchor="start" font-size="20pt" font-weight="bold" fill="#000000" ><tspan>N</tspan></text>
    </g>
  </g>
</g>
<g id="ID000044" >
  <g transform="translate(703.733,567.892)">
    <g transform="rotate(-0.0)">
      <text x="0.000" y="0.000" font-family="Helvetica" text-anchor="start" font-size="20pt" font-weight="bold" fill="#000000" ><tspan>E</tspan></text>
    </g>
  </g>
</g>
<g id="ID000045" >
  <g transform="translate(736.800,470.026)">
    <g transform="rotate(-0.0)">
      <text x="0.000" y="0.000" font-family="Helvetica" text-anchor="start" font-size="20pt" font-weight="bold" fill="#000000" ><tspan>G</tspan></text>
    </g>
  </g>
</g>
<g id="ID000046" >
  <g transform="translate(769.867,448.976)">
    <g transform="rotate(-0.0)">
      <text x="0.000" y="0.000" font-family="Helvetica" text-anchor="start" font-size="20pt" font-weight="bold" fill="#000000" ><tspan>R</tspan></text>
    </g>
  </g>
</g>
<g id="ID000047" >
  <g transform="translate(802.933,531.700)">
    <g transform="rotate(-0.0)">
      <text x="0.000" y="0.000" font-family="Helvetica" text-anchor="start" font-size="20pt" font-weight="bold" fill="#000000" ><tspan>Y</tspan></text>
    </g>
  </g>
</g>
<g id="ID000048" >
  <g transform="translate(836.000,388.041)">
    <g transform="rotate(-0.0)">
      <text x="0.000" y="0.000" font-family="Helvetica" text-anchor="start" font-size="20pt" font-weight="bold" fill="#000000" ><tspan>U</tspan></text>
    </g>
  </g>
</g>
<g id="ID000049" >
  <g transform="translate(869.067,157.594)">
    <g transform="rotate(-0.0)">
      <text x="0.000" y="0.000" font-family="Helvetica" text-anchor="start" font-size="20pt" font-weight="bold" fill="#000000" ><tspan>V</tspan></text>
    </g>
  </g>
</g>
<g id="ID000050" >
  <g transform="translate(902.133,273.556)">
    <g transform="rotate(-0.0)">
      <text x="0.000" y="0.000" font-family="Helvetica" text-anchor="start" font-size="20pt" font-weight="bold" fill="#000000" ><tspan>J</tspan></text>
    </g>
  </g>
</g>
<g id="ID000051" >
  <g transform="translate(935.200,343.355)">
    <g transform="rotate(-0.0)">
      <text x="0.000" y="0.000" font-family="Helvetica" text-anchor="start" font-size="20pt" font-weight="bold" fill="#000000" ><tspan>K</tspan></text>
    </g>
  </g>
</g>
<g id="ID000052" >
  <g transform="translate(968.267,172.367)">
    <g transform="rotate(-0.0)">
      <text x="0.000" y="0.000" font-family="Helvetica" text-anchor="start" font-size="20pt" font-weight="bold" fill="#000000" ><tspan>Q</tspan></text>
    </g>
  </g>
</g>
<g id="ID000053" >
  <g transform="translate(1001.333,450.084)">
    <g transform="rotate(-0.0)">
      <text x="0.000" y="0.000" font-family="Helvetica" text-anchor="start" font-size="20pt" font-weight="bold" fill="#000000" ><tspan>Z</tspan></text>
    </g>
  </g>
</g>
<g id="ID000054" >
  <g transform="translate(1034.400,530.592)">
    <g transform="rotate(-0.0)">
      <text x="0.000" y="0.000" font-family="Helvetica" text-anchor="start" font-size="20pt" font-weight="bold" fill="#000000" ><tspan>X</tspan></text>
    </g>
  </g>
</g>
<g id="ID000055" >
  <g transform="translate(661.900,655.902)">
    <g transform="rotate(-0.0)">
      <text x="0.000" y="0.000" font-family="Helvetica" text-anchor="middle" font-size="10pt" fill="#000000" ><tspan>letters</tspan></text>
    </g>
  </g>
</g>
<g id="ID000056" >
  <g transform="translate(128.400,339.233)">
    <g transform="rotate(-90.0)">
      <text x="0.000" y="0.000" font-family="Helvetica" text-anchor="middle" font-size="10pt" fill="#000000" ><tspan>% of times matched</tspan></text>
    </g>
  </g>
</g>
<g id="ID000057" clip-path="url(#ID000001)" >
      <polyline fill="none" stroke="#000000" stroke-width="0.5pt" stroke-dasharray="8.0,2.0" stroke-opacity="1.00" points="199.46667,565.34409 207.73333,563.00803 216.00000,560.67197 224.26667,558.33591 232.53333,555.99985 240.80000,553.66379 249.06667,551.32773 257.33333,548.99167 265.60000,546.65561 273.86667,544.31955 282.13333,541.98349 290.40000,539.64743 298.66667,537.31137 306.93333,534.97531 315.20000,532.63925 323.46667,530.30319 331.73333,527.96713 340.00000,525.63107 348.26667,523.29501 356.53333,520.95895 364.80000,518.62289 373.06667,516.28683 381.33333,513.95077 389.60000,511.61471 397.86667,509.27865 406.13333,506.94259 414.40000,504.60653 422.66667,502.27047 430.93333,499.93441 439.20000,497.59835 447.46667,495.26229 455.73333,492.92623 464.00000,490.59017 472.26667,488.25411 480.53333,485.91805 488.80000,483.58199 497.06667,481.24593 505.33333,478.90987 513.60000,476.57381 521.86667,474.23775 530.13333,471.90169 538.40000,469.56563 546.66667,467.22957 554.93333,464.89351 563.20000,462.55745 571.46667,460.22139 579.73333,457.88533 588.00000,455.54927 596.26667,453.21321 604.53333,450.87715 612.80000,448.54109 621.06667,446.20503 629.33333,443.86897 637.60000,441.53291 645.86667,439.19685 654.13333,436.86079 662.40000,434.52473 670.66667,432.18867 678.93333,429.85261 687.20000,427.51655 695.46667,425.18049 703.73333,422.84443 712.00000,420.50837 720.26667,418.17231 728.53333,415.83625 736.80000,413.50020 745.06667,411.16414 753.33333,408.82808 761.60000,406.49202 769.86667,404.15596 778.13333,401.81990 786.40000,399.48384 794.66667,397.14778 802.93333,394.81172 811.20000,392.47566 819.46667,390.13960 827.73333,387.80354 836.00000,385.46748 844.26667,383.13142 852.53333,380.79536 860.80000,378.45930 869.06667,376.12324 877.33333,373.78718 885.60000,371.45112 893.86667,369.11506 902.13333,366.77900 910.40000,364.44294 918.66667,362.10688 926.93333,359.77082 935.20000,357.43476 943.46667,355.09870 951.73333,352.76264 960.00000,350.42658 968.26667,348.09052 976.53333,345.75446 984.80000,343.41840 993.06667,341.08234 1001.33333,338.74628 1009.60000,336.41022 1017.86667,334.07416 1026.13333,331.73810 "/>
</g>
<g id="ID000058" >
  <g transform="translate(661.900,44.572)">
    <g transform="rotate(-0.0)">
      <text x="0.000" y="0.000" font-family="Helvetica" text-anchor="middle" font-size="10pt" fill="#000000" ><tspan>r<tspan style="baseline-shift:super;font-size:65%%">2</tspan> = 0.2999 p = 0.0023082</tspan></text>
    </g>
  </g>
</g>
    </g>
    <g>
      <polyline fill="none" stroke="#000000" stroke-width="0.5pt" stroke-dasharray="none" stroke-opacity="1.00" points="199.46667,623.89000 199.46667,613.97000 "/>
      <polyline fill="none" stroke="#000000" stroke-width="0.5pt" stroke-dasharray="none" stroke-opacity="1.00" points="232.53333,623.89000 232.53333,613.97000 "/>
      <polyline fill="none" stroke="#000000" stroke-width="0.5pt" stroke-dasharray="none" stroke-opacity="1.00" points="265.60000,623.89000 265.60000,613.97000 "/>
      <polyline fill="none" stroke="#000000" stroke-width="0.5pt" stroke-dasharray="none" stroke-opacity="1.00" points="298.66667,623.89000 298.66667,613.97000 "/>
      <polyline fill="none" stroke="#000000" stroke-width="0.5pt" stroke-dasharray="none" stroke-opacity="1.00" points="331.73333,623.89000 331.73333,613.97000 "/>
      <polyline fill="none" stroke="#000000" stroke-width="0.5pt" stroke-dasharray="none" stroke-opacity="1.00" points="364.80000,623.89000 364.80000,613.97000 "/>
      <polyline fill="none" stroke="#000000" stroke-width="0.5pt" stroke-dasharray="none" stroke-opacity="1.00" points="397.86667,623.89000 397.86667,613.97000 "/>
      <polyline fill="none" stroke="#000000" stroke-width="0.5pt" stroke-dasharray="none" stroke-opacity="1.00" points="430.93333,623.89000 430.93333,613.97000 "/>
      <polyline fill="none" stroke="#000000" stroke-width="0.5pt" stroke-dasharray="none" stroke-opacity="1.00" points="464.00000,623.89000 464.00000,613.97000 "/>
      <polyline fill="none" stroke="#000000" stroke-width="0.5pt" stroke-dasharray="none" stroke-opacity="1.00" points="497.06667,623.89000 497.06667,613.97000 "/>
      <polyline fill="none" stroke="#000000" stroke-width="0.5pt" stroke-dasharray="none" stroke-opacity="1.00" points="530.13333,623.89000 530.13333,613.97000 "/>
      <polyline fill="none" stroke="#000000" stroke-width="0.5pt" stroke-dasharray="none" stroke-opacity="1.00" points="563.20000,623.89000 563.20000,613.97000 "/>
      <polyline fill="none" stroke="#000000" stroke-width="0.5pt" stroke-dasharray="none" stroke-opacity="1.00" points="596.26667,623.89000 596.26667,613.97000 "/>
      <polyline fill="none" stroke="#000000" stroke-width="0.5pt" stroke-dasharray="none" stroke-opacity="1.00" points="629.33333,623.89000 629.33333,613.97000 "/>
      <polyline fill="none" stroke="#000000" stroke-width="0.5pt" stroke-dasharray="none" stroke-opacity="1.00" points="662.40000,623.89000 662.40000,613.97000 "/>
      <polyline fill="none" stroke="#000000" stroke-width="0.5pt" stroke-dasharray="none" stroke-opacity="1.00" points="695.46667,623.89000 695.46667,613.97000 "/>
      <polyline fill="none" stroke="#000000" stroke-width="0.5pt" stroke-dasharray="none" stroke-opacity="1.00" points="728.53333,623.89000 728.53333,613.97000 "/>
      <polyline fill="none" stroke="#000000" stroke-width="0.5pt" stroke-dasharray="none" stroke-opacity="1.00" points="761.60000,623.89000 761.60000,613.97000 "/>
      <polyline fill="none" stroke="#000000" stroke-width="0.5pt" stroke-dasharray="none" stroke-opacity="1.00" points="794.66667,623.89000 794.66667,613.97000 "/>
      <polyline fill="none" stroke="#000000" stroke-width="0.5pt" stroke-dasharray="none" stroke-opacity="1.00" points="827.73333,623.89000 827.73333,613.97000 "/>
      <polyline fill="none" stroke="#000000" stroke-width="0.5pt" stroke-dasharray="none" stroke-opacity="1.00" points="860.80000,623.89000 860.80000,613.97000 "/>
      <polyline fill="none" stroke="#000000" stroke-width="0.5pt" stroke-dasharray="none" stroke-opacity="1.00" points="893.86667,623.89000 893.86667,613.97000 "/>
      <polyline fill="none" stroke="#000000" stroke-width="0.5pt" stroke-dasharray="none" stroke-opacity="1.00" points="926.93333,623.89000 926.93333,613.97000 "/>
      <polyline fill="none" stroke="#000000" stroke-width="0.5pt" stroke-dasharray="none" stroke-opacity="1.00" points="960.00000,623.89000 960.00000,613.97000 "/>
      <polyline fill="none" stroke="#000000" stroke-width="0.5pt" stroke-dasharray="none" stroke-opacity="1.00" points="993.06667,623.89000 993.06667,613.97000 "/>
      <polyline fill="none" stroke="#000000" stroke-width="0.5pt" stroke-dasharray="none" stroke-opacity="1.00" points="1026.13333,623.89000 1026.13333,613.97000 "/>
      <polyline fill="none" stroke="#000000" stroke-width="0.5pt" stroke-dasharray="none" stroke-opacity="1.00" points="166.40000,623.89000 1158.40000,623.89000 "/>
  <g transform="translate(199.467,647.116)">
    <g transform="rotate(-0.0)">
      <text x="0.000" y="0.000" font-family="Helvetica" text-anchor="middle" font-size="10pt" fill="#000000" ><tspan>T</tspan></text>
    </g>
  </g>
  <g transform="translate(232.533,647.116)">
    <g transform="rotate(-0.0)">
      <text x="0.000" y="0.000" font-family="Helvetica" text-anchor="middle" font-size="10pt" fill="#000000" ><tspan>A</tspan></text>
    </g>
  </g>
  <g transform="translate(265.600,647.116)">
    <g transform="rotate(-0.0)">
      <text x="0.000" y="0.000" font-family="Helvetica" text-anchor="middle" font-size="10pt" fill="#000000" ><tspan>S</tspan></text>
    </g>
  </g>
  <g transform="translate(298.667,647.116)">
    <g transform="rotate(-0.0)">
      <text x="0.000" y="0.000" font-family="Helvetica" text-anchor="middle" font-size="10pt" fill="#000000" ><tspan>H</tspan></text>
    </g>
  </g>
  <g transform="translate(331.733,647.116)">
    <g transform="rotate(-0.0)">
      <text x="0.000" y="0.000" font-family="Helvetica" text-anchor="middle" font-size="10pt" fill="#000000" ><tspan>W</tspan></text>
    </g>
  </g>
  <g transform="translate(364.800,647.116)">
    <g transform="rotate(-0.0)">
      <text x="0.000" y="0.000" font-family="Helvetica" text-anchor="middle" font-size="10pt" fill="#000000" ><tspan>I</tspan></text>
    </g>
  </g>
  <g transform="translate(397.867,647.116)">
    <g transform="rotate(-0.0)">
      <text x="0.000" y="0.000" font-family="Helvetica" text-anchor="middle" font-size="10pt" fill="#000000" ><tspan>O</tspan></text>
    </g>
  </g>
  <g transform="translate(430.933,647.116)">
    <g transform="rotate(-0.0)">
      <text x="0.000" y="0.000" font-family="Helvetica" text-anchor="middle" font-size="10pt" fill="#000000" ><tspan>B</tspan></text>
    </g>
  </g>
  <g transform="translate(464.000,647.116)">
    <g transform="rotate(-0.0)">
      <text x="0.000" y="0.000" font-family="Helvetica" text-anchor="middle" font-size="10pt" fill="#000000" ><tspan>M</tspan></text>
    </g>
  </g>
  <g transform="translate(497.067,647.116)">
    <g transform="rotate(-0.0)">
      <text x="0.000" y="0.000" font-family="Helvetica" text-anchor="middle" font-size="10pt" fill="#000000" ><tspan>F</tspan></text>
    </g>
  </g>
  <g transform="translate(530.133,647.116)">
    <g transform="rotate(-0.0)">
      <text x="0.000" y="0.000" font-family="Helvetica" text-anchor="middle" font-size="10pt" fill="#000000" ><tspan>C</tspan></text>
    </g>
  </g>
  <g transform="translate(563.200,647.116)">
    <g transform="rotate(-0.0)">
      <text x="0.000" y="0.000" font-family="Helvetica" text-anchor="middle" font-size="10pt" fill="#000000" ><tspan>L</tspan></text>
    </g>
  </g>
  <g transform="translate(596.267,647.116)">
    <g transform="rotate(-0.0)">
      <text x="0.000" y="0.000" font-family="Helvetica" text-anchor="middle" font-size="10pt" fill="#000000" ><tspan>D</tspan></text>
    </g>
  </g>
  <g transform="translate(629.333,647.116)">
    <g transform="rotate(-0.0)">
      <text x="0.000" y="0.000" font-family="Helvetica" text-anchor="middle" font-size="10pt" fill="#000000" ><tspan>P</tspan></text>
    </g>
  </g>
  <g transform="translate(662.400,647.116)">
    <g transform="rotate(-0.0)">
      <text x="0.000" y="0.000" font-family="Helvetica" text-anchor="middle" font-size="10pt" fill="#000000" ><tspan>N</tspan></text>
    </g>
  </g>
  <g transform="translate(695.467,647.116)">
    <g transform="rotate(-0.0)">
      <text x="0.000" y="0.000" font-family="Helvetica" text-anchor="middle" font-size="10pt" fill="#000000" ><tspan>E</tspan></text>
    </g>
  </g>
  <g transform="translate(728.533,647.116)">
    <g transform="rotate(-0.0)">
      <text x="0.000" y="0.000" font-family="Helvetica" text-anchor="middle" font-size="10pt" fill="#000000" ><tspan>G</tspan></text>
    </g>
  </g>
  <g transform="translate(761.600,647.116)">
    <g transform="rotate(-0.0)">
      <text x="0.000" y="0.000" font-family="Helvetica" text-anchor="middle" font-size="10pt" fill="#000000" ><tspan>R</tspan></text>
    </g>
  </g>
  <g transform="translate(794.667,647.116)">
    <g transform="rotate(-0.0)">
      <text x="0.000" y="0.000" font-family="Helvetica" text-anchor="middle" font-size="10pt" fill="#000000" ><tspan>Y</tspan></text>
    </g>
  </g>
  <g transform="translate(827.733,647.116)">
    <g transform="rotate(-0.0)">
      <text x="0.000" y="0.000" font-family="Helvetica" text-anchor="middle" font-size="10pt" fill="#000000" ><tspan>U</tspan></text>
    </g>
  </g>
  <g transform="translate(860.800,647.116)">
    <g transform="rotate(-0.0)">
      <text x="0.000" y="0.000" font-family="Helvetica" text-anchor="middle" font-size="10pt" fill="#000000" ><tspan>V</tspan></text>
    </g>
  </g>
  <g transform="translate(893.867,647.116)">
    <g transform="rotate(-0.0)">
      <text x="0.000" y="0.000" font-family="Helvetica" text-anchor="middle" font-size="10pt" fill="#000000" ><tspan>J</tspan></text>
    </g>
  </g>
  <g transform="translate(926.933,647.116)">
    <g transform="rotate(-0.0)">
      <text x="0.000" y="0.000" font-family="Helvetica" text-anchor="middle" font-size="10pt" fill="#000000" ><tspan>K</tspan></text>
    </g>
  </g>
  <g transform="translate(960.000,647.116)">
    <g transform="rotate(-0.0)">
      <text x="0.000" y="0.000" font-family="Helvetica" text-anchor="middle" font-size="10pt" fill="#000000" ><tspan>Q</tspan></text>
    </g>
  </g>
  <g transform="translate(993.067,647.116)">
    <g transform="rotate(-0.0)">
      <text x="0.000" y="0.000" font-family="Helvetica" text-anchor="middle" font-size="10pt" fill="#000000" ><tspan>Z</tspan></text>
    </g>
  </g>
  <g transform="translate(1026.133,647.116)">
    <g transform="rotate(-0.0)">
      <text x="0.000" y="0.000" font-family="Helvetica" text-anchor="middle" font-size="10pt" fill="#000000" ><tspan>X</tspan></text>
    </g>
  </g>
      <polyline fill="none" stroke="#000000" stroke-width="0.5pt" stroke-dasharray="none" stroke-opacity="1.00" points="166.40000,623.89000 176.32000,623.89000 "/>
      <polyline fill="none" stroke="#000000" stroke-width="0.5pt" stroke-dasharray="none" stroke-opacity="1.00" points="166.40000,509.62700 176.32000,509.62700 "/>
      <polyline fill="none" stroke="#000000" stroke-width="0.5pt" stroke-dasharray="none" stroke-opacity="1.00" points="166.40000,395.36400 176.32000,395.36400 "/>
      <polyline fill="none" stroke="#000000" stroke-width="0.5pt" stroke-dasharray="none" stroke-opacity="1.00" points="166.40000,281.10100 176.32000,281.10100 "/>
      <polyline fill="none" stroke="#000000" stroke-width="0.5pt" stroke-dasharray="none" stroke-opacity="1.00" points="166.40000,166.83800 176.32000,166.83800 "/>
      <polyline fill="none" stroke="#000000" stroke-width="0.5pt" stroke-dasharray="none" stroke-opacity="1.00" points="166.40000,52.57500 176.32000,52.57500 "/>
      <polyline fill="none" stroke="#000000" stroke-width="0.5pt" stroke-dasharray="none" stroke-opacity="1.00" points="166.40000,623.89000 166.40000,52.57500 "/>
  <g transform="translate(146.560,628.390)">
    <g transform="rotate(-0.0)">
      <text x="0.000" y="0.000" font-family="Helvetica" text-anchor="end" font-size="10pt" fill="#000000" ><tspan>0</tspan></text>
    </g>
  </g>
  <g transform="translate(146.560,514.127)">
    <g transform="rotate(-0.0)">
      <text x="0.000" y="0.000" font-family="Helvetica" text-anchor="end" font-size="10pt" fill="#000000" ><tspan>0.05</tspan></text>
    </g>
  </g>
  <g transform="translate(146.560,399.864)">
    <g transform="rotate(-0.0)">
      <text x="0.000" y="0.000" font-family="Helvetica" text-anchor="end" font-size="10pt" fill="#000000" ><tspan>0.1</tspan></text>
    </g>
  </g>
  <g transform="translate(146.560,285.601)">
    <g transform="rotate(-0.0)">
      <text x="0.000" y="0.000" font-family="Helvetica" text-anchor="end" font-size="10pt" fill="#000000" ><tspan>0.15</tspan></text>
    </g>
  </g>
  <g transform="translate(146.560,171.338)">
    <g transform="rotate(-0.0)">
      <text x="0.000" y="0.000" font-family="Helvetica" text-anchor="end" font-size="10pt" fill="#000000" ><tspan>0.2</tspan></text>
    </g>
  </g>
  <g transform="translate(146.560,57.075)">
    <g transform="rotate(-0.0)">
      <text x="0.000" y="0.000" font-family="Helvetica" text-anchor="end" font-size="10pt" fill="#000000" ><tspan>0.25</tspan></text>
    </g>
  </g>
      <polyline fill="none" stroke="#000000" stroke-width="0.5pt" stroke-dasharray="none" stroke-opacity="1.00" points="166.40000,623.89000 166.40000,618.17685 "/>
      <polyline fill="none" stroke="#000000" stroke-width="0.5pt" stroke-dasharray="none" stroke-opacity="1.00" points="166.40000,623.89000 166.40000,618.17685 "/>
      <polyline fill="none" stroke="#000000" stroke-width="0.5pt" stroke-dasharray="none" stroke-opacity="1.00" points="166.40000,623.89000 166.40000,618.17685 "/>
      <polyline fill="none" stroke="#000000" stroke-width="0.5pt" stroke-dasharray="none" stroke-opacity="1.00" points="166.40000,623.89000 166.40000,623.89000 "/>
    </g>
  </g>
  </g>
</svg>
