<?xml version="1.0" encoding="utf-8" standalone="no"?><!DOCTYPE svg PUBLIC "-//W3C//DTD SVG 1.1//EN" "http://www.w3.org/Graphics/SVG/1.1/DTD/svg11.dtd">
<svg preserveAspectRatio="xMinYMin meet" width="100%" height="100%" viewBox="0 0 1280.000 701.000"  version="1.1" xmlns="http://www.w3.org/2000/svg" xmlns:xlink="http://www.w3.org/1999/xlink">
  <desc>Matlab Figure Converted by PLOT2SVG written by Juerg Schwizer</desc>
  <g id="topgroup">
  <rect x="0" y="0" width="1280.000" height="701.000" fill="#ffffff" stroke="none" />
  <g id ="ID000000">
  <clipPath id="ID000001">
    <rect x="166.400" y="52.575" width="992.000" height="571.315"/>
  </clipPath>
      <polygon fill="#ffffff" fill-opacity="1.00" stroke="none" stroke-width="0.5pt" stroke-opacity="1.00" stroke-dasharray="none" points="166.400,623.890 1158.400,623.890 1158.400,52.575 166.400,52.575 "/>
      <polygon fill="#ffffff" fill-opacity="1.00" stroke="none" stroke-width="0.5pt" stroke-opacity="1.00" stroke-dasharray="none" points="166.400,52.575 1158.400,52.575 1158.400,52.575 166.400,52.575 "/>
      <polygon fill="#ffffff" fill-opacity="1.00" stroke="none" stroke-width="0.5pt" stroke-opacity="1.00" stroke-dasharray="none" points="166.400,623.890 166.400,623.890 166.400,52.575 166.400,52.575 "/>
    <g>
<g id="ID000002" clip-path="url(#ID000001)" >
      <polyline fill="none" stroke="#0000ff" stroke-width="0.5pt" stroke-dasharray="none" stroke-opacity="1.00" points="169.94286,-61.68800 173.48571,52.57500 177.02857,90.66267 180.57143,138.27225 184.11429,212.54320 187.65714,262.05717 191.20000,264.77771 194.74286,309.66675 198.28571,319.18867 201.82857,349.65880 205.37143,353.81382 208.91429,357.27633 212.45714,360.20615 216.00000,379.04071 219.54286,387.74647 223.08571,395.36400 226.62857,415.52806 230.17143,408.05989 233.71429,413.40553 237.25714,429.64290 240.80000,428.01057 244.34286,426.52664 247.88571,445.04357 251.42857,438.21263 254.97143,441.06920 258.51429,448.10077 262.05714,454.61148 265.60000,444.33386 269.14286,450.52545 272.68571,463.92180 276.22857,461.71026 279.77143,470.34909 283.31429,464.61430 286.85714,472.65956 290.40000,470.45111 293.94286,477.88728 297.48571,475.65692 301.02857,482.56471 304.57143,477.39897 308.11429,472.49153 311.65714,478.97107 315.20000,476.98043 318.74286,485.71149 322.28571,496.64257 325.82857,486.77440 329.37143,494.72313 332.91429,490.17798 336.45714,497.72460 340.00000,476.98043 343.54286,500.48596 347.08571,496.18429 350.62857,500.83754 354.17143,492.37975 357.71429,496.93111 361.25714,503.39447 364.80000,499.42495 368.34286,503.61316 371.88571,509.62700 375.42857,503.81702 378.97143,507.72262 382.51429,504.00751 386.05714,507.78405 389.60000,507.81330 393.14286,516.76844 396.68571,513.14278 400.22857,518.28329 403.77143,516.44867 407.31429,518.02869 410.85714,521.21890 414.40000,512.89166 417.94286,522.50170 421.48571,515.97494 425.02857,520.58373 428.57143,523.52385 432.11429,518.76804 435.65714,515.64084 439.20000,522.98242 442.74286,525.74101 446.28571,522.64430 449.82857,523.90988 453.37143,529.37616 456.91429,520.77461 460.45714,524.77029 464.00000,525.95029 467.54286,521.72544 471.08571,525.57067 474.62857,525.38741 478.17143,525.20832 481.71429,526.31710 485.25714,519.78371 488.80000,529.71720 492.34286,533.22479 495.88571,526.82788 499.42857,533.93828 502.97143,532.47960 506.51429,531.05131 510.05714,533.18638 513.60000,528.28218 517.14286,536.17295 520.68571,533.62223 524.22857,534.51597 527.77143,535.39219 531.31429,535.14204 534.85714,533.79802 538.40000,537.92070 541.94286,533.34196 545.48571,536.32396 549.02857,541.36672 552.57143,536.88239 556.11429,534.55711 559.65714,544.62648 563.20000,540.23316 566.74286,536.92878 570.28571,538.69390 573.82857,538.44115 577.37143,538.19275 580.91429,540.87842 584.45714,540.61358 588.00000,539.39299 591.54286,543.90590 595.08571,544.56693 598.62857,544.28053 602.17143,533.78015 605.71429,540.95718 609.25714,540.70654 612.80000,550.43521 616.34286,537.51797 619.88571,545.33419 623.42857,548.60043 626.97143,546.54274 630.51429,543.64423 634.05714,542.52089 637.60000,544.85093 641.14286,545.44078 644.68571,551.94663 648.22857,541.55343 651.77143,550.49479 655.31429,543.57470 658.85714,549.08473 662.40000,547.98672 665.94286,548.52504 669.48571,545.03244 673.02857,549.57910 676.57143,552.47563 680.11429,548.24001 683.65714,547.97554 687.20000,545.38277 690.74286,546.68527 694.28571,551.80462 697.82857,550.76168 701.37143,555.02952 704.91429,550.22043 708.45714,546.22103 712.00000,551.91915 715.54286,553.85784 719.08571,548.44712 722.62857,550.38323 726.17143,547.23254 729.71429,552.74511 733.25714,554.61806 736.80000,546.53182 740.34286,554.06261 743.88571,555.19200 747.42857,553.52071 750.97143,552.56219 754.51429,546.10856 758.05714,551.36378 761.60000,555.87631 765.14286,557.63098 768.68571,556.67647 772.22857,551.05569 775.77143,556.12938 779.31429,552.55818 782.85714,555.59487 786.40000,559.90272 789.94286,557.66940 793.48571,556.75242 797.02857,560.33923 800.57143,554.31085 804.11429,554.06261 807.65714,555.71097 811.20000,557.96904 814.74286,558.32926 818.28571,560.54855 821.82857,558.42039 825.37143,552.62920 828.91429,554.84337 832.45714,560.68068 836.00000,561.61969 839.54286,557.73774 843.08571,559.28055 846.62857,556.64146 850.17143,551.06954 853.71429,558.51272 857.25714,556.50413 860.80000,561.51173 864.34286,560.66834 867.88571,554.06261 871.42857,557.28443 874.97143,559.33141 878.51429,561.92648 882.05714,560.53626 885.60000,558.59686 889.14286,561.71749 892.68571,557.00434 896.22857,556.77435 899.77143,555.44260 903.31429,560.71575 906.85714,563.20487 910.40000,562.94973 913.94286,562.15549 917.48571,562.98567 921.02857,561.12582 924.57143,561.41911 928.11429,560.64676 931.65714,565.17151 935.20000,562.80932 938.74286,564.66193 942.28571,558.14964 945.82857,556.37095 949.37143,566.49999 952.91429,562.64091 956.45714,564.96513 960.00000,563.69788 963.54286,559.39488 967.08571,565.24173 970.62857,563.48665 974.17143,566.25735 977.71429,564.51316 981.25714,563.28093 984.80000,566.51118 988.34286,563.80342 991.88571,561.60931 995.42857,560.89886 998.97143,563.59803 1002.51429,562.88518 1006.05714,565.55319 1009.60000,566.75850 1013.14286,567.47563 1016.68571,565.33021 1020.22857,565.57320 1023.77143,563.92553 1027.31429,569.34470 1030.85714,563.01217 1034.40000,566.99169 1037.94286,567.22298 1041.48571,564.21418 "/>
</g>
<g id="ID000003" >
  <g transform="translate(128.400,339.233)">
    <g transform="rotate(-90.0)">
      <text x="0.000" y="0.000" font-family="Helvetica" text-anchor="middle" font-size="10pt" fill="#000000" ><tspan>95% confidence interval on prob letter is black</tspan></text>
    </g>
  </g>
</g>
<g id="ID000004" >
  <g transform="translate(661.900,655.902)">
    <g transform="rotate(-0.0)">
      <text x="0.000" y="0.000" font-family="Helvetica" text-anchor="middle" font-size="10pt" fill="#000000" ><tspan>bootstrap sample size</tspan></text>
    </g>
  </g>
</g>
<g id="ID000005" >
</g>
    </g>
    <g>
      <polyline fill="none" stroke="#000000" stroke-width="0.5pt" stroke-dasharray="none" stroke-opacity="1.00" points="166.40000,623.89000 166.40000,613.97000 "/>
      <polyline fill="none" stroke="#000000" stroke-width="0.5pt" stroke-dasharray="none" stroke-opacity="1.00" points="308.11429,623.89000 308.11429,613.97000 "/>
      <polyline fill="none" stroke="#000000" stroke-width="0.5pt" stroke-dasharray="none" stroke-opacity="1.00" points="449.82857,623.89000 449.82857,613.97000 "/>
      <polyline fill="none" stroke="#000000" stroke-width="0.5pt" stroke-dasharray="none" stroke-opacity="1.00" points="591.54286,623.89000 591.54286,613.97000 "/>
      <polyline fill="none" stroke="#000000" stroke-width="0.5pt" stroke-dasharray="none" stroke-opacity="1.00" points="733.25714,623.89000 733.25714,613.97000 "/>
      <polyline fill="none" stroke="#000000" stroke-width="0.5pt" stroke-dasharray="none" stroke-opacity="1.00" points="874.97143,623.89000 874.97143,613.97000 "/>
      <polyline fill="none" stroke="#000000" stroke-width="0.5pt" stroke-dasharray="none" stroke-opacity="1.00" points="1016.68571,623.89000 1016.68571,613.97000 "/>
      <polyline fill="none" stroke="#000000" stroke-width="0.5pt" stroke-dasharray="none" stroke-opacity="1.00" points="1158.40000,623.89000 1158.40000,613.97000 "/>
      <polyline fill="none" stroke="#000000" stroke-width="0.5pt" stroke-dasharray="none" stroke-opacity="1.00" points="166.40000,623.89000 1158.40000,623.89000 "/>
  <g transform="translate(166.400,647.116)">
    <g transform="rotate(-0.0)">
      <text x="0.000" y="0.000" font-family="Helvetica" text-anchor="middle" font-size="10pt" fill="#000000" ><tspan>0</tspan></text>
    </g>
  </g>
  <g transform="translate(308.114,647.116)">
    <g transform="rotate(-0.0)">
      <text x="0.000" y="0.000" font-family="Helvetica" text-anchor="middle" font-size="10pt" fill="#000000" ><tspan>1000</tspan></text>
    </g>
  </g>
  <g transform="translate(449.829,647.116)">
    <g transform="rotate(-0.0)">
      <text x="0.000" y="0.000" font-family="Helvetica" text-anchor="middle" font-size="10pt" fill="#000000" ><tspan>2000</tspan></text>
    </g>
  </g>
  <g transform="translate(591.543,647.116)">
    <g transform="rotate(-0.0)">
      <text x="0.000" y="0.000" font-family="Helvetica" text-anchor="middle" font-size="10pt" fill="#000000" ><tspan>3000</tspan></text>
    </g>
  </g>
  <g transform="translate(733.257,647.116)">
    <g transform="rotate(-0.0)">
      <text x="0.000" y="0.000" font-family="Helvetica" text-anchor="middle" font-size="10pt" fill="#000000" ><tspan>4000</tspan></text>
    </g>
  </g>
  <g transform="translate(874.971,647.116)">
    <g transform="rotate(-0.0)">
      <text x="0.000" y="0.000" font-family="Helvetica" text-anchor="middle" font-size="10pt" fill="#000000" ><tspan>5000</tspan></text>
    </g>
  </g>
  <g transform="translate(1016.686,647.116)">
    <g transform="rotate(-0.0)">
      <text x="0.000" y="0.000" font-family="Helvetica" text-anchor="middle" font-size="10pt" fill="#000000" ><tspan>6000</tspan></text>
    </g>
  </g>
  <g transform="translate(1158.400,647.116)">
    <g transform="rotate(-0.0)">
      <text x="0.000" y="0.000" font-family="Helvetica" text-anchor="middle" font-size="10pt" fill="#000000" ><tspan>7000</tspan></text>
    </g>
  </g>
      <polyline fill="none" stroke="#000000" stroke-width="0.5pt" stroke-dasharray="none" stroke-opacity="1.00" points="166.40000,623.89000 176.32000,623.89000 "/>
      <polyline fill="none" stroke="#000000" stroke-width="0.5pt" stroke-dasharray="none" stroke-opacity="1.00" points="166.40000,566.75850 176.32000,566.75850 "/>
      <polyline fill="none" stroke="#000000" stroke-width="0.5pt" stroke-dasharray="none" stroke-opacity="1.00" points="166.40000,509.62700 176.32000,509.62700 "/>
      <polyline fill="none" stroke="#000000" stroke-width="0.5pt" stroke-dasharray="none" stroke-opacity="1.00" points="166.40000,452.49550 176.32000,452.49550 "/>
      <polyline fill="none" stroke="#000000" stroke-width="0.5pt" stroke-dasharray="none" stroke-opacity="1.00" points="166.40000,395.36400 176.32000,395.36400 "/>
      <polyline fill="none" stroke="#000000" stroke-width="0.5pt" stroke-dasharray="none" stroke-opacity="1.00" points="166.40000,338.23250 176.32000,338.23250 "/>
      <polyline fill="none" stroke="#000000" stroke-width="0.5pt" stroke-dasharray="none" stroke-opacity="1.00" points="166.40000,281.10100 176.32000,281.10100 "/>
      <polyline fill="none" stroke="#000000" stroke-width="0.5pt" stroke-dasharray="none" stroke-opacity="1.00" points="166.40000,223.96950 176.32000,223.96950 "/>
      <polyline fill="none" stroke="#000000" stroke-width="0.5pt" stroke-dasharray="none" stroke-opacity="1.00" points="166.40000,166.83800 176.32000,166.83800 "/>
      <polyline fill="none" stroke="#000000" stroke-width="0.5pt" stroke-dasharray="none" stroke-opacity="1.00" points="166.40000,109.70650 176.32000,109.70650 "/>
      <polyline fill="none" stroke="#000000" stroke-width="0.5pt" stroke-dasharray="none" stroke-opacity="1.00" points="166.40000,52.57500 176.32000,52.57500 "/>
      <polyline fill="none" stroke="#000000" stroke-width="0.5pt" stroke-dasharray="none" stroke-opacity="1.00" points="166.40000,623.89000 166.40000,52.57500 "/>
  <g transform="translate(146.560,628.390)">
    <g transform="rotate(-0.0)">
      <text x="0.000" y="0.000" font-family="Helvetica" text-anchor="end" font-size="10pt" fill="#000000" ><tspan>0</tspan></text>
    </g>
  </g>
  <g transform="translate(146.560,571.259)">
    <g transform="rotate(-0.0)">
      <text x="0.000" y="0.000" font-family="Helvetica" text-anchor="end" font-size="10pt" fill="#000000" ><tspan>0.01</tspan></text>
    </g>
  </g>
  <g transform="translate(146.560,514.127)">
    <g transform="rotate(-0.0)">
      <text x="0.000" y="0.000" font-family="Helvetica" text-anchor="end" font-size="10pt" fill="#000000" ><tspan>0.02</tspan></text>
    </g>
  </g>
  <g transform="translate(146.560,456.995)">
    <g transform="rotate(-0.0)">
      <text x="0.000" y="0.000" font-family="Helvetica" text-anchor="end" font-size="10pt" fill="#000000" ><tspan>0.03</tspan></text>
    </g>
  </g>
  <g transform="translate(146.560,399.864)">
    <g transform="rotate(-0.0)">
      <text x="0.000" y="0.000" font-family="Helvetica" text-anchor="end" font-size="10pt" fill="#000000" ><tspan>0.04</tspan></text>
    </g>
  </g>
  <g transform="translate(146.560,342.733)">
    <g transform="rotate(-0.0)">
      <text x="0.000" y="0.000" font-family="Helvetica" text-anchor="end" font-size="10pt" fill="#000000" ><tspan>0.05</tspan></text>
    </g>
  </g>
  <g transform="translate(146.560,285.601)">
    <g transform="rotate(-0.0)">
      <text x="0.000" y="0.000" font-family="Helvetica" text-anchor="end" font-size="10pt" fill="#000000" ><tspan>0.06</tspan></text>
    </g>
  </g>
  <g transform="translate(146.560,228.469)">
    <g transform="rotate(-0.0)">
      <text x="0.000" y="0.000" font-family="Helvetica" text-anchor="end" font-size="10pt" fill="#000000" ><tspan>0.07</tspan></text>
    </g>
  </g>
  <g transform="translate(146.560,171.338)">
    <g transform="rotate(-0.0)">
      <text x="0.000" y="0.000" font-family="Helvetica" text-anchor="end" font-size="10pt" fill="#000000" ><tspan>0.08</tspan></text>
    </g>
  </g>
  <g transform="translate(146.560,114.207)">
    <g transform="rotate(-0.0)">
      <text x="0.000" y="0.000" font-family="Helvetica" text-anchor="end" font-size="10pt" fill="#000000" ><tspan>0.09</tspan></text>
    </g>
  </g>
  <g transform="translate(146.560,57.075)">
    <g transform="rotate(-0.0)">
      <text x="0.000" y="0.000" font-family="Helvetica" text-anchor="end" font-size="10pt" fill="#000000" ><tspan>0.1</tspan></text>
    </g>
  </g>
      <polyline fill="none" stroke="#000000" stroke-width="0.5pt" stroke-dasharray="none" stroke-opacity="1.00" points="166.40000,623.89000 166.40000,618.17685 "/>
      <polyline fill="none" stroke="#000000" stroke-width="0.5pt" stroke-dasharray="none" stroke-opacity="1.00" points="166.40000,623.89000 166.40000,618.17685 "/>
      <polyline fill="none" stroke="#000000" stroke-width="0.5pt" stroke-dasharray="none" stroke-opacity="1.00" points="166.40000,623.89000 166.40000,618.17685 "/>
      <polyline fill="none" stroke="#000000" stroke-width="0.5pt" stroke-dasharray="none" stroke-opacity="1.00" points="166.40000,623.89000 166.40000,623.89000 "/>
    </g>
  </g>
  </g>
</svg>
