<?xml version="1.0" encoding="utf-8" standalone="no"?><!DOCTYPE svg PUBLIC "-//W3C//DTD SVG 1.1//EN" "http://www.w3.org/Graphics/SVG/1.1/DTD/svg11.dtd">
<svg preserveAspectRatio="xMinYMin meet" width="100%" height="100%" viewBox="0 0 1280.000 701.000"  version="1.1" xmlns="http://www.w3.org/2000/svg" xmlns:xlink="http://www.w3.org/1999/xlink">
  <desc>Matlab Figure Converted by PLOT2SVG written by Juerg Schwizer</desc>
  <g id="topgroup">
  <rect x="0" y="0" width="1280.000" height="701.000" fill="#ffffff" stroke="none" />
  <g id ="ID000000">
  <clipPath id="ID000001">
    <rect x="166.400" y="52.575" width="992.000" height="571.315"/>
  </clipPath>
      <polygon fill="#ffffff" fill-opacity="1.00" stroke="none" stroke-width="0.5pt" stroke-opacity="1.00" stroke-dasharray="none" points="166.400,623.890 1158.400,623.890 1158.400,52.575 166.400,52.575 "/>
      <polygon fill="#ffffff" fill-opacity="1.00" stroke="none" stroke-width="0.5pt" stroke-opacity="1.00" stroke-dasharray="none" points="166.400,52.575 1158.400,52.575 1158.400,52.575 166.400,52.575 "/>
      <polygon fill="#ffffff" fill-opacity="1.00" stroke="none" stroke-width="0.5pt" stroke-opacity="1.00" stroke-dasharray="none" points="166.400,623.890 166.400,623.890 166.400,52.575 166.400,52.575 "/>
    <g>
<g id="ID000002" clip-path="url(#ID000001)" >
      <polyline fill="none" stroke="#0000ff" stroke-width="0.5pt" stroke-dasharray="none" stroke-opacity="1.00" points="169.94286,52.57500 173.48571,166.83800 177.02857,243.01333 180.57143,252.53525 184.11429,303.95360 187.65714,300.14483 191.20000,346.39414 194.74286,366.79825 198.28571,395.36400 201.82857,395.36400 205.37143,405.75155 208.91429,404.88592 212.45714,421.73238 216.00000,436.17221 219.54286,433.45167 223.08571,431.07119 226.62857,449.13482 230.17143,452.49550 233.71429,455.50242 237.25714,458.20865 240.80000,455.21605 244.34286,483.65814 247.88571,494.72313 251.42857,457.25646 254.97143,477.63336 258.51429,487.65335 262.05714,480.00326 265.60000,485.14207 269.14286,485.98638 272.68571,486.77440 276.22857,502.25519 279.77143,502.48556 283.31429,495.77694 286.85714,496.18429 290.40000,496.56837 293.94286,506.45303 297.48571,500.36243 301.02857,512.63392 304.57143,506.69718 308.11429,506.77043 311.65714,506.84010 315.20000,512.34755 318.74286,509.62700 322.28571,507.03011 325.82857,502.00947 329.37143,517.07893 332.91429,521.78264 336.45714,516.76844 340.00000,521.28649 343.54286,518.76804 347.08571,523.06971 350.62857,516.21910 354.17143,520.40653 357.71429,530.78681 361.25714,530.40209 364.80000,521.86946 368.34286,527.66853 371.88571,525.38741 375.42857,523.18363 378.97143,530.57522 382.51429,530.23180 386.05714,537.27127 389.60000,533.20508 393.14286,531.05131 396.68571,532.47960 400.22857,535.59586 403.77143,530.09201 407.31429,536.51241 410.85714,536.12277 414.40000,532.47960 417.94286,532.15773 421.48571,530.25782 425.02857,537.80144 428.57143,532.78842 432.11429,541.62064 435.65714,538.19275 439.20000,543.75751 442.74286,533.06556 446.28571,542.89344 449.82857,538.19275 453.37143,540.66140 456.91429,543.06983 460.45714,545.42023 464.00000,546.35439 467.54286,545.92231 471.08571,542.84299 474.62857,542.46120 478.17143,548.58030 481.71429,537.87179 485.25714,552.79302 488.80000,548.55176 492.34286,536.95076 495.88571,544.02876 499.42857,543.66279 502.97143,546.91282 506.51429,552.47563 510.05714,556.74576 513.60000,541.10762 517.14286,548.86884 520.68571,558.76009 524.22857,545.82914 527.77143,556.67647 531.31429,550.67293 534.85714,554.67299 538.40000,557.50864 541.94286,553.82307 545.48571,553.41002 549.02857,559.35256 552.57143,553.65494 556.11429,557.40971 559.65714,551.83225 563.20000,552.47563 566.74286,553.10761 570.28571,557.73774 573.82857,554.33861 577.37143,550.99809 580.91429,552.59770 584.45714,555.13853 588.00000,554.75608 591.54286,554.38001 595.08571,565.34202 598.62857,555.51952 602.17143,555.14641 605.71429,564.91555 609.25714,555.33220 612.80000,557.69001 616.34286,562.70981 619.88571,564.08046 623.42857,560.11530 626.97143,558.84798 630.51429,560.21673 634.05714,561.56473 637.60000,560.31510 641.14286,556.52599 644.68571,557.02499 648.22857,562.55765 651.77143,562.17130 655.31429,562.61854 658.85714,559.77119 662.40000,558.59686 665.94286,564.73256 669.48571,561.93049 673.02857,563.96185 676.57143,561.20405 680.11429,564.00043 683.65714,559.71489 687.20000,558.59686 690.74286,562.12622 694.28571,564.07447 697.82857,561.42623 701.37143,564.86673 704.91429,560.74466 708.45714,564.14464 712.00000,567.50047 715.54286,565.65273 719.08571,565.29359 722.62857,564.21124 726.17143,564.58895 729.71429,566.39918 733.25714,571.75751 736.80000,564.27452 740.34286,568.16915 743.88571,568.51100 747.42857,568.15195 750.97143,561.56473 754.51429,570.88849 758.05714,571.20586 761.60000,572.87973 765.14286,565.06822 768.68571,570.11918 772.22857,569.09722 775.77143,572.07306 779.31429,569.73066 782.85714,568.07187 786.40000,570.34962 789.94286,564.81084 793.48571,567.72683 797.02857,572.53584 800.57143,573.46108 804.11429,569.29768 807.65714,567.70543 811.20000,568.64196 814.74286,567.07069 818.28571,569.24248 821.82857,570.15551 825.37143,569.21577 828.91429,570.11918 832.45714,568.58185 836.00000,568.87448 839.54286,571.56957 843.08571,565.86115 846.62857,572.11458 850.17143,572.97488 853.71429,573.23733 857.25714,571.73919 860.80000,570.25635 864.34286,571.10861 867.88571,572.52936 871.42857,573.93582 874.97143,569.61508 878.51429,571.02204 882.05714,572.41508 885.60000,574.35727 889.14286,572.91974 892.68571,570.93885 896.22857,572.85992 899.77143,575.86642 903.31429,573.89994 906.85714,573.04570 910.40000,571.11138 913.94286,572.44457 917.48571,572.68724 921.02857,572.92763 924.57143,570.49607 928.11429,570.21296 931.65714,574.16444 935.20000,576.49982 938.74286,569.37921 942.28571,576.93260 945.82857,575.58791 949.37143,575.80648 952.91429,572.42018 956.45714,568.55187 960.00000,572.87973 963.54286,581.23181 967.08571,577.37586 970.62857,575.56732 974.17143,575.77926 977.71429,574.99142 981.25714,576.69441 984.80000,572.44692 988.34286,576.11625 991.88571,577.79248 995.42857,573.10644 998.97143,575.26745 1002.51429,574.50514 1006.05714,577.60625 1009.60000,572.51966 1013.14286,576.08121 1016.68571,578.66090 1020.22857,574.58149 1023.77143,579.03469 1027.31429,578.27884 1030.85714,577.06090 1034.40000,579.11756 1037.94286,575.11921 1041.48571,579.01749 "/>
</g>
<g id="ID000003" >
  <g transform="translate(128.400,339.233)">
    <g transform="rotate(-90.0)">
      <text x="0.000" y="0.000" font-family="Helvetica" text-anchor="middle" font-size="10pt" fill="#000000" ><tspan>95% confidence interval on prob letter is white</tspan></text>
    </g>
  </g>
</g>
<g id="ID000004" >
  <g transform="translate(661.900,655.902)">
    <g transform="rotate(-0.0)">
      <text x="0.000" y="0.000" font-family="Helvetica" text-anchor="middle" font-size="10pt" fill="#000000" ><tspan>bootstrap sample size</tspan></text>
    </g>
  </g>
</g>
<g id="ID000005" >
</g>
    </g>
    <g>
      <polyline fill="none" stroke="#000000" stroke-width="0.5pt" stroke-dasharray="none" stroke-opacity="1.00" points="166.40000,623.89000 166.40000,613.97000 "/>
      <polyline fill="none" stroke="#000000" stroke-width="0.5pt" stroke-dasharray="none" stroke-opacity="1.00" points="308.11429,623.89000 308.11429,613.97000 "/>
      <polyline fill="none" stroke="#000000" stroke-width="0.5pt" stroke-dasharray="none" stroke-opacity="1.00" points="449.82857,623.89000 449.82857,613.97000 "/>
      <polyline fill="none" stroke="#000000" stroke-width="0.5pt" stroke-dasharray="none" stroke-opacity="1.00" points="591.54286,623.89000 591.54286,613.97000 "/>
      <polyline fill="none" stroke="#000000" stroke-width="0.5pt" stroke-dasharray="none" stroke-opacity="1.00" points="733.25714,623.89000 733.25714,613.97000 "/>
      <polyline fill="none" stroke="#000000" stroke-width="0.5pt" stroke-dasharray="none" stroke-opacity="1.00" points="874.97143,623.89000 874.97143,613.97000 "/>
      <polyline fill="none" stroke="#000000" stroke-width="0.5pt" stroke-dasharray="none" stroke-opacity="1.00" points="1016.68571,623.89000 1016.68571,613.97000 "/>
      <polyline fill="none" stroke="#000000" stroke-width="0.5pt" stroke-dasharray="none" stroke-opacity="1.00" points="1158.40000,623.89000 1158.40000,613.97000 "/>
      <polyline fill="none" stroke="#000000" stroke-width="0.5pt" stroke-dasharray="none" stroke-opacity="1.00" points="166.40000,623.89000 1158.40000,623.89000 "/>
  <g transform="translate(166.400,647.116)">
    <g transform="rotate(-0.0)">
      <text x="0.000" y="0.000" font-family="Helvetica" text-anchor="middle" font-size="10pt" fill="#000000" ><tspan>0</tspan></text>
    </g>
  </g>
  <g transform="translate(308.114,647.116)">
    <g transform="rotate(-0.0)">
      <text x="0.000" y="0.000" font-family="Helvetica" text-anchor="middle" font-size="10pt" fill="#000000" ><tspan>1000</tspan></text>
    </g>
  </g>
  <g transform="translate(449.829,647.116)">
    <g transform="rotate(-0.0)">
      <text x="0.000" y="0.000" font-family="Helvetica" text-anchor="middle" font-size="10pt" fill="#000000" ><tspan>2000</tspan></text>
    </g>
  </g>
  <g transform="translate(591.543,647.116)">
    <g transform="rotate(-0.0)">
      <text x="0.000" y="0.000" font-family="Helvetica" text-anchor="middle" font-size="10pt" fill="#000000" ><tspan>3000</tspan></text>
    </g>
  </g>
  <g transform="translate(733.257,647.116)">
    <g transform="rotate(-0.0)">
      <text x="0.000" y="0.000" font-family="Helvetica" text-anchor="middle" font-size="10pt" fill="#000000" ><tspan>4000</tspan></text>
    </g>
  </g>
  <g transform="translate(874.971,647.116)">
    <g transform="rotate(-0.0)">
      <text x="0.000" y="0.000" font-family="Helvetica" text-anchor="middle" font-size="10pt" fill="#000000" ><tspan>5000</tspan></text>
    </g>
  </g>
  <g transform="translate(1016.686,647.116)">
    <g transform="rotate(-0.0)">
      <text x="0.000" y="0.000" font-family="Helvetica" text-anchor="middle" font-size="10pt" fill="#000000" ><tspan>6000</tspan></text>
    </g>
  </g>
  <g transform="translate(1158.400,647.116)">
    <g transform="rotate(-0.0)">
      <text x="0.000" y="0.000" font-family="Helvetica" text-anchor="middle" font-size="10pt" fill="#000000" ><tspan>7000</tspan></text>
    </g>
  </g>
      <polyline fill="none" stroke="#000000" stroke-width="0.5pt" stroke-dasharray="none" stroke-opacity="1.00" points="166.40000,623.89000 176.32000,623.89000 "/>
      <polyline fill="none" stroke="#000000" stroke-width="0.5pt" stroke-dasharray="none" stroke-opacity="1.00" points="166.40000,566.75850 176.32000,566.75850 "/>
      <polyline fill="none" stroke="#000000" stroke-width="0.5pt" stroke-dasharray="none" stroke-opacity="1.00" points="166.40000,509.62700 176.32000,509.62700 "/>
      <polyline fill="none" stroke="#000000" stroke-width="0.5pt" stroke-dasharray="none" stroke-opacity="1.00" points="166.40000,452.49550 176.32000,452.49550 "/>
      <polyline fill="none" stroke="#000000" stroke-width="0.5pt" stroke-dasharray="none" stroke-opacity="1.00" points="166.40000,395.36400 176.32000,395.36400 "/>
      <polyline fill="none" stroke="#000000" stroke-width="0.5pt" stroke-dasharray="none" stroke-opacity="1.00" points="166.40000,338.23250 176.32000,338.23250 "/>
      <polyline fill="none" stroke="#000000" stroke-width="0.5pt" stroke-dasharray="none" stroke-opacity="1.00" points="166.40000,281.10100 176.32000,281.10100 "/>
      <polyline fill="none" stroke="#000000" stroke-width="0.5pt" stroke-dasharray="none" stroke-opacity="1.00" points="166.40000,223.96950 176.32000,223.96950 "/>
      <polyline fill="none" stroke="#000000" stroke-width="0.5pt" stroke-dasharray="none" stroke-opacity="1.00" points="166.40000,166.83800 176.32000,166.83800 "/>
      <polyline fill="none" stroke="#000000" stroke-width="0.5pt" stroke-dasharray="none" stroke-opacity="1.00" points="166.40000,109.70650 176.32000,109.70650 "/>
      <polyline fill="none" stroke="#000000" stroke-width="0.5pt" stroke-dasharray="none" stroke-opacity="1.00" points="166.40000,52.57500 176.32000,52.57500 "/>
      <polyline fill="none" stroke="#000000" stroke-width="0.5pt" stroke-dasharray="none" stroke-opacity="1.00" points="166.40000,623.89000 166.40000,52.57500 "/>
  <g transform="translate(146.560,628.390)">
    <g transform="rotate(-0.0)">
      <text x="0.000" y="0.000" font-family="Helvetica" text-anchor="end" font-size="10pt" fill="#000000" ><tspan>0</tspan></text>
    </g>
  </g>
  <g transform="translate(146.560,571.259)">
    <g transform="rotate(-0.0)">
      <text x="0.000" y="0.000" font-family="Helvetica" text-anchor="end" font-size="10pt" fill="#000000" ><tspan>0.01</tspan></text>
    </g>
  </g>
  <g transform="translate(146.560,514.127)">
    <g transform="rotate(-0.0)">
      <text x="0.000" y="0.000" font-family="Helvetica" text-anchor="end" font-size="10pt" fill="#000000" ><tspan>0.02</tspan></text>
    </g>
  </g>
  <g transform="translate(146.560,456.995)">
    <g transform="rotate(-0.0)">
      <text x="0.000" y="0.000" font-family="Helvetica" text-anchor="end" font-size="10pt" fill="#000000" ><tspan>0.03</tspan></text>
    </g>
  </g>
  <g transform="translate(146.560,399.864)">
    <g transform="rotate(-0.0)">
      <text x="0.000" y="0.000" font-family="Helvetica" text-anchor="end" font-size="10pt" fill="#000000" ><tspan>0.04</tspan></text>
    </g>
  </g>
  <g transform="translate(146.560,342.733)">
    <g transform="rotate(-0.0)">
      <text x="0.000" y="0.000" font-family="Helvetica" text-anchor="end" font-size="10pt" fill="#000000" ><tspan>0.05</tspan></text>
    </g>
  </g>
  <g transform="translate(146.560,285.601)">
    <g transform="rotate(-0.0)">
      <text x="0.000" y="0.000" font-family="Helvetica" text-anchor="end" font-size="10pt" fill="#000000" ><tspan>0.06</tspan></text>
    </g>
  </g>
  <g transform="translate(146.560,228.469)">
    <g transform="rotate(-0.0)">
      <text x="0.000" y="0.000" font-family="Helvetica" text-anchor="end" font-size="10pt" fill="#000000" ><tspan>0.07</tspan></text>
    </g>
  </g>
  <g transform="translate(146.560,171.338)">
    <g transform="rotate(-0.0)">
      <text x="0.000" y="0.000" font-family="Helvetica" text-anchor="end" font-size="10pt" fill="#000000" ><tspan>0.08</tspan></text>
    </g>
  </g>
  <g transform="translate(146.560,114.207)">
    <g transform="rotate(-0.0)">
      <text x="0.000" y="0.000" font-family="Helvetica" text-anchor="end" font-size="10pt" fill="#000000" ><tspan>0.09</tspan></text>
    </g>
  </g>
  <g transform="translate(146.560,57.075)">
    <g transform="rotate(-0.0)">
      <text x="0.000" y="0.000" font-family="Helvetica" text-anchor="end" font-size="10pt" fill="#000000" ><tspan>0.1</tspan></text>
    </g>
  </g>
      <polyline fill="none" stroke="#000000" stroke-width="0.5pt" stroke-dasharray="none" stroke-opacity="1.00" points="166.40000,623.89000 166.40000,618.17685 "/>
      <polyline fill="none" stroke="#000000" stroke-width="0.5pt" stroke-dasharray="none" stroke-opacity="1.00" points="166.40000,623.89000 166.40000,618.17685 "/>
      <polyline fill="none" stroke="#000000" stroke-width="0.5pt" stroke-dasharray="none" stroke-opacity="1.00" points="166.40000,623.89000 166.40000,618.17685 "/>
      <polyline fill="none" stroke="#000000" stroke-width="0.5pt" stroke-dasharray="none" stroke-opacity="1.00" points="166.40000,623.89000 166.40000,623.89000 "/>
    </g>
  </g>
  </g>
</svg>
