<?xml version="1.0" encoding="utf-8" standalone="no"?><!DOCTYPE svg PUBLIC "-//W3C//DTD SVG 1.1//EN" "http://www.w3.org/Graphics/SVG/1.1/DTD/svg11.dtd">
<svg preserveAspectRatio="xMinYMin meet" width="100%" height="100%" viewBox="0 0 1280.000 701.000"  version="1.1" xmlns="http://www.w3.org/2000/svg" xmlns:xlink="http://www.w3.org/1999/xlink">
  <desc>Matlab Figure Converted by PLOT2SVG written by Juerg Schwizer</desc>
  <g id="topgroup">
  <rect x="0" y="0" width="1280.000" height="701.000" fill="#ffffff" stroke="none" />
  <g id ="ID000000">
  <clipPath id="ID000001">
    <rect x="166.400" y="52.575" width="992.000" height="571.315"/>
  </clipPath>
      <polygon fill="#ffffff" fill-opacity="1.00" stroke="none" stroke-width="0.5pt" stroke-opacity="1.00" stroke-dasharray="none" points="166.400,623.890 1158.400,623.890 1158.400,52.575 166.400,52.575 "/>
      <polygon fill="#ffffff" fill-opacity="1.00" stroke="none" stroke-width="0.5pt" stroke-opacity="1.00" stroke-dasharray="none" points="166.400,52.575 1158.400,52.575 1158.400,52.575 166.400,52.575 "/>
      <polygon fill="#ffffff" fill-opacity="1.00" stroke="none" stroke-width="0.5pt" stroke-opacity="1.00" stroke-dasharray="none" points="166.400,623.890 166.400,623.890 166.400,52.575 166.400,52.575 "/>
    <g>
<g id="ID000002" clip-path="url(#ID000001)" >
<g id="ID000003" clip-path="url(#ID000001)" >
<g>
<circle cx="199.467" cy="348.230" r="5.000" fill="#994c00" stroke="#000000" stroke-width="0.5pt" />
</g>
</g>
<g id="ID000004" clip-path="url(#ID000001)" >
<g>
<circle cx="232.533" cy="602.787" r="5.000" fill="#994c00" stroke="#000000" stroke-width="0.5pt" />
</g>
</g>
<g id="ID000005" clip-path="url(#ID000001)" >
<g>
<circle cx="265.600" cy="591.576" r="5.000" fill="#994c00" stroke="#000000" stroke-width="0.5pt" />
</g>
</g>
<g id="ID000006" clip-path="url(#ID000001)" >
<g>
<circle cx="298.667" cy="214.357" r="5.000" fill="#994c00" stroke="#000000" stroke-width="0.5pt" />
</g>
</g>
<g id="ID000007" clip-path="url(#ID000001)" >
<g>
<circle cx="331.733" cy="377.247" r="5.000" fill="#994c00" stroke="#000000" stroke-width="0.5pt" />
</g>
</g>
<g id="ID000008" clip-path="url(#ID000001)" >
<g>
<circle cx="364.800" cy="597.511" r="5.000" fill="#994c00" stroke="#000000" stroke-width="0.5pt" />
</g>
</g>
<g id="ID000009" clip-path="url(#ID000001)" >
<g>
<circle cx="397.867" cy="571.792" r="5.000" fill="#994c00" stroke="#000000" stroke-width="0.5pt" />
</g>
</g>
<g id="ID000010" clip-path="url(#ID000001)" >
<g>
<circle cx="430.933" cy="387.139" r="5.000" fill="#994c00" stroke="#000000" stroke-width="0.5pt" />
</g>
</g>
<g id="ID000011" clip-path="url(#ID000001)" >
<g>
<circle cx="464.000" cy="405.604" r="5.000" fill="#994c00" stroke="#000000" stroke-width="0.5pt" />
</g>
</g>
<g id="ID000012" clip-path="url(#ID000001)" >
<g>
<circle cx="497.067" cy="367.355" r="5.000" fill="#994c00" stroke="#000000" stroke-width="0.5pt" />
</g>
</g>
<g id="ID000013" clip-path="url(#ID000001)" >
<g>
<circle cx="530.133" cy="555.305" r="5.000" fill="#994c00" stroke="#000000" stroke-width="0.5pt" />
</g>
</g>
<g id="ID000014" clip-path="url(#ID000001)" >
<g>
<circle cx="563.200" cy="524.310" r="5.000" fill="#994c00" stroke="#000000" stroke-width="0.5pt" />
</g>
</g>
<g id="ID000015" clip-path="url(#ID000001)" >
<g>
<circle cx="596.267" cy="66.635" r="5.000" fill="#994c00" stroke="#000000" stroke-width="0.5pt" />
</g>
</g>
<g id="ID000016" clip-path="url(#ID000001)" >
<g>
<circle cx="629.333" cy="468.254" r="5.000" fill="#994c00" stroke="#000000" stroke-width="0.5pt" />
</g>
</g>
<g id="ID000017" clip-path="url(#ID000001)" >
<g>
<circle cx="662.400" cy="231.503" r="5.000" fill="#994c00" stroke="#000000" stroke-width="0.5pt" />
</g>
</g>
<g id="ID000018" clip-path="url(#ID000001)" >
<g>
<circle cx="695.467" cy="548.051" r="5.000" fill="#994c00" stroke="#000000" stroke-width="0.5pt" />
</g>
</g>
<g id="ID000019" clip-path="url(#ID000001)" >
<g>
<circle cx="728.533" cy="225.568" r="5.000" fill="#994c00" stroke="#000000" stroke-width="0.5pt" />
</g>
</g>
<g id="ID000020" clip-path="url(#ID000001)" >
<g>
<circle cx="761.600" cy="338.997" r="5.000" fill="#994c00" stroke="#000000" stroke-width="0.5pt" />
</g>
</g>
<g id="ID000021" clip-path="url(#ID000001)" >
<g>
<circle cx="794.667" cy="516.396" r="5.000" fill="#994c00" stroke="#000000" stroke-width="0.5pt" />
</g>
</g>
<g id="ID000022" clip-path="url(#ID000001)" >
<g>
<circle cx="827.733" cy="379.225" r="5.000" fill="#994c00" stroke="#000000" stroke-width="0.5pt" />
</g>
</g>
<g id="ID000023" clip-path="url(#ID000001)" >
<g>
<circle cx="860.800" cy="439.237" r="5.000" fill="#994c00" stroke="#000000" stroke-width="0.5pt" />
</g>
</g>
<g id="ID000024" clip-path="url(#ID000001)" >
<g>
<circle cx="893.867" cy="459.022" r="5.000" fill="#994c00" stroke="#000000" stroke-width="0.5pt" />
</g>
</g>
<g id="ID000025" clip-path="url(#ID000001)" >
<g>
<circle cx="926.933" cy="374.609" r="5.000" fill="#994c00" stroke="#000000" stroke-width="0.5pt" />
</g>
</g>
<g id="ID000026" clip-path="url(#ID000001)" >
<g>
<circle cx="960.000" cy="381.863" r="5.000" fill="#994c00" stroke="#000000" stroke-width="0.5pt" />
</g>
</g>
<g id="ID000027" clip-path="url(#ID000001)" >
<g>
<circle cx="993.067" cy="491.995" r="5.000" fill="#994c00" stroke="#000000" stroke-width="0.5pt" />
</g>
</g>
<g id="ID000028" clip-path="url(#ID000001)" >
<g>
<circle cx="1026.133" cy="381.863" r="5.000" fill="#994c00" stroke="#000000" stroke-width="0.5pt" />
</g>
</g>
</g><g id="ID000029" >
  <g transform="translate(207.733,357.230)">
    <g transform="rotate(-0.0)">
      <text x="0.000" y="0.000" font-family="Helvetica" text-anchor="start" font-size="20pt" font-weight="bold" fill="#000000" ><tspan>T</tspan></text>
    </g>
  </g>
</g>
<g id="ID000030" >
  <g transform="translate(240.800,611.787)">
    <g transform="rotate(-0.0)">
      <text x="0.000" y="0.000" font-family="Helvetica" text-anchor="start" font-size="20pt" font-weight="bold" fill="#000000" ><tspan>A</tspan></text>
    </g>
  </g>
</g>
<g id="ID000031" >
  <g transform="translate(273.867,600.576)">
    <g transform="rotate(-0.0)">
      <text x="0.000" y="0.000" font-family="Helvetica" text-anchor="start" font-size="20pt" font-weight="bold" fill="#000000" ><tspan>S</tspan></text>
    </g>
  </g>
</g>
<g id="ID000032" >
  <g transform="translate(306.933,223.357)">
    <g transform="rotate(-0.0)">
      <text x="0.000" y="0.000" font-family="Helvetica" text-anchor="start" font-size="20pt" font-weight="bold" fill="#000000" ><tspan>H</tspan></text>
    </g>
  </g>
</g>
<g id="ID000033" >
  <g transform="translate(340.000,386.247)">
    <g transform="rotate(-0.0)">
      <text x="0.000" y="0.000" font-family="Helvetica" text-anchor="start" font-size="20pt" font-weight="bold" fill="#000000" ><tspan>W</tspan></text>
    </g>
  </g>
</g>
<g id="ID000034" >
  <g transform="translate(373.067,606.511)">
    <g transform="rotate(-0.0)">
      <text x="0.000" y="0.000" font-family="Helvetica" text-anchor="start" font-size="20pt" font-weight="bold" fill="#000000" ><tspan>I</tspan></text>
    </g>
  </g>
</g>
<g id="ID000035" >
  <g transform="translate(406.133,580.792)">
    <g transform="rotate(-0.0)">
      <text x="0.000" y="0.000" font-family="Helvetica" text-anchor="start" font-size="20pt" font-weight="bold" fill="#000000" ><tspan>O</tspan></text>
    </g>
  </g>
</g>
<g id="ID000036" >
  <g transform="translate(439.200,396.139)">
    <g transform="rotate(-0.0)">
      <text x="0.000" y="0.000" font-family="Helvetica" text-anchor="start" font-size="20pt" font-weight="bold" fill="#000000" ><tspan>B</tspan></text>
    </g>
  </g>
</g>
<g id="ID000037" >
  <g transform="translate(472.267,414.604)">
    <g transform="rotate(-0.0)">
      <text x="0.000" y="0.000" font-family="Helvetica" text-anchor="start" font-size="20pt" font-weight="bold" fill="#000000" ><tspan>M</tspan></text>
    </g>
  </g>
</g>
<g id="ID000038" >
  <g transform="translate(505.333,376.355)">
    <g transform="rotate(-0.0)">
      <text x="0.000" y="0.000" font-family="Helvetica" text-anchor="start" font-size="20pt" font-weight="bold" fill="#000000" ><tspan>F</tspan></text>
    </g>
  </g>
</g>
<g id="ID000039" >
  <g transform="translate(538.400,564.305)">
    <g transform="rotate(-0.0)">
      <text x="0.000" y="0.000" font-family="Helvetica" text-anchor="start" font-size="20pt" font-weight="bold" fill="#000000" ><tspan>C</tspan></text>
    </g>
  </g>
</g>
<g id="ID000040" >
  <g transform="translate(571.467,533.310)">
    <g transform="rotate(-0.0)">
      <text x="0.000" y="0.000" font-family="Helvetica" text-anchor="start" font-size="20pt" font-weight="bold" fill="#000000" ><tspan>L</tspan></text>
    </g>
  </g>
</g>
<g id="ID000041" >
  <g transform="translate(604.533,75.635)">
    <g transform="rotate(-0.0)">
      <text x="0.000" y="0.000" font-family="Helvetica" text-anchor="start" font-size="20pt" font-weight="bold" fill="#000000" ><tspan>D</tspan></text>
    </g>
  </g>
</g>
<g id="ID000042" >
  <g transform="translate(637.600,477.254)">
    <g transform="rotate(-0.0)">
      <text x="0.000" y="0.000" font-family="Helvetica" text-anchor="start" font-size="20pt" font-weight="bold" fill="#000000" ><tspan>P</tspan></text>
    </g>
  </g>
</g>
<g id="ID000043" >
  <g transform="translate(670.667,240.503)">
    <g transform="rotate(-0.0)">
      <text x="0.000" y="0.000" font-family="Helvetica" text-anchor="start" font-size="20pt" font-weight="bold" fill="#000000" ><tspan>N</tspan></text>
    </g>
  </g>
</g>
<g id="ID000044" >
  <g transform="translate(703.733,557.051)">
    <g transform="rotate(-0.0)">
      <text x="0.000" y="0.000" font-family="Helvetica" text-anchor="start" font-size="20pt" font-weight="bold" fill="#000000" ><tspan>E</tspan></text>
    </g>
  </g>
</g>
<g id="ID000045" >
  <g transform="translate(736.800,234.568)">
    <g transform="rotate(-0.0)">
      <text x="0.000" y="0.000" font-family="Helvetica" text-anchor="start" font-size="20pt" font-weight="bold" fill="#000000" ><tspan>G</tspan></text>
    </g>
  </g>
</g>
<g id="ID000046" >
  <g transform="translate(769.867,347.997)">
    <g transform="rotate(-0.0)">
      <text x="0.000" y="0.000" font-family="Helvetica" text-anchor="start" font-size="20pt" font-weight="bold" fill="#000000" ><tspan>R</tspan></text>
    </g>
  </g>
</g>
<g id="ID000047" >
  <g transform="translate(802.933,525.396)">
    <g transform="rotate(-0.0)">
      <text x="0.000" y="0.000" font-family="Helvetica" text-anchor="start" font-size="20pt" font-weight="bold" fill="#000000" ><tspan>Y</tspan></text>
    </g>
  </g>
</g>
<g id="ID000048" >
  <g transform="translate(836.000,388.225)">
    <g transform="rotate(-0.0)">
      <text x="0.000" y="0.000" font-family="Helvetica" text-anchor="start" font-size="20pt" font-weight="bold" fill="#000000" ><tspan>U</tspan></text>
    </g>
  </g>
</g>
<g id="ID000049" >
  <g transform="translate(869.067,448.237)">
    <g transform="rotate(-0.0)">
      <text x="0.000" y="0.000" font-family="Helvetica" text-anchor="start" font-size="20pt" font-weight="bold" fill="#000000" ><tspan>V</tspan></text>
    </g>
  </g>
</g>
<g id="ID000050" >
  <g transform="translate(902.133,468.022)">
    <g transform="rotate(-0.0)">
      <text x="0.000" y="0.000" font-family="Helvetica" text-anchor="start" font-size="20pt" font-weight="bold" fill="#000000" ><tspan>J</tspan></text>
    </g>
  </g>
</g>
<g id="ID000051" >
  <g transform="translate(935.200,383.609)">
    <g transform="rotate(-0.0)">
      <text x="0.000" y="0.000" font-family="Helvetica" text-anchor="start" font-size="20pt" font-weight="bold" fill="#000000" ><tspan>K</tspan></text>
    </g>
  </g>
</g>
<g id="ID000052" >
  <g transform="translate(968.267,390.863)">
    <g transform="rotate(-0.0)">
      <text x="0.000" y="0.000" font-family="Helvetica" text-anchor="start" font-size="20pt" font-weight="bold" fill="#000000" ><tspan>X</tspan></text>
    </g>
  </g>
</g>
<g id="ID000053" >
  <g transform="translate(1001.333,500.995)">
    <g transform="rotate(-0.0)">
      <text x="0.000" y="0.000" font-family="Helvetica" text-anchor="start" font-size="20pt" font-weight="bold" fill="#000000" ><tspan>Z</tspan></text>
    </g>
  </g>
</g>
<g id="ID000054" >
  <g transform="translate(1034.400,390.863)">
    <g transform="rotate(-0.0)">
      <text x="0.000" y="0.000" font-family="Helvetica" text-anchor="start" font-size="20pt" font-weight="bold" fill="#000000" ><tspan>X</tspan></text>
    </g>
  </g>
</g>
<g id="ID000055" >
  <g transform="translate(661.900,655.902)">
    <g transform="rotate(-0.0)">
      <text x="0.000" y="0.000" font-family="Helvetica" text-anchor="middle" font-size="10pt" fill="#000000" ><tspan>letters</tspan></text>
    </g>
  </g>
</g>
<g id="ID000056" >
  <g transform="translate(128.400,339.233)">
    <g transform="rotate(-90.0)">
      <text x="0.000" y="0.000" font-family="Helvetica" text-anchor="middle" font-size="10pt" fill="#000000" ><tspan>% of times not matched</tspan></text>
    </g>
  </g>
</g>
<g id="ID000057" clip-path="url(#ID000001)" >
      <polyline fill="none" stroke="#000000" stroke-width="0.5pt" stroke-dasharray="8.0,2.0" stroke-opacity="1.00" points="199.46667,448.09806 207.73333,447.47951 216.00000,446.86096 224.26667,446.24241 232.53333,445.62385 240.80000,445.00530 249.06667,444.38675 257.33333,443.76820 265.60000,443.14965 273.86667,442.53109 282.13333,441.91254 290.40000,441.29399 298.66667,440.67544 306.93333,440.05688 315.20000,439.43833 323.46667,438.81978 331.73333,438.20123 340.00000,437.58268 348.26667,436.96412 356.53333,436.34557 364.80000,435.72702 373.06667,435.10847 381.33333,434.48991 389.60000,433.87136 397.86667,433.25281 406.13333,432.63426 414.40000,432.01571 422.66667,431.39715 430.93333,430.77860 439.20000,430.16005 447.46667,429.54150 455.73333,428.92294 464.00000,428.30439 472.26667,427.68584 480.53333,427.06729 488.80000,426.44874 497.06667,425.83018 505.33333,425.21163 513.60000,424.59308 521.86667,423.97453 530.13333,423.35597 538.40000,422.73742 546.66667,422.11887 554.93333,421.50032 563.20000,420.88177 571.46667,420.26321 579.73333,419.64466 588.00000,419.02611 596.26667,418.40756 604.53333,417.78900 612.80000,417.17045 621.06667,416.55190 629.33333,415.93335 637.60000,415.31480 645.86667,414.69624 654.13333,414.07769 662.40000,413.45914 670.66667,412.84059 678.93333,412.22203 687.20000,411.60348 695.46667,410.98493 703.73333,410.36638 712.00000,409.74783 720.26667,409.12927 728.53333,408.51072 736.80000,407.89217 745.06667,407.27362 753.33333,406.65506 761.60000,406.03651 769.86667,405.41796 778.13333,404.79941 786.40000,404.18086 794.66667,403.56230 802.93333,402.94375 811.20000,402.32520 819.46667,401.70665 827.73333,401.08809 836.00000,400.46954 844.26667,399.85099 852.53333,399.23244 860.80000,398.61388 869.06667,397.99533 877.33333,397.37678 885.60000,396.75823 893.86667,396.13968 902.13333,395.52112 910.40000,394.90257 918.66667,394.28402 926.93333,393.66547 935.20000,393.04691 943.46667,392.42836 951.73333,391.80981 960.00000,391.19126 968.26667,390.57271 976.53333,389.95415 984.80000,389.33560 993.06667,388.71705 1001.33333,388.09850 1009.60000,387.47994 1017.86667,386.86139 1026.13333,386.24284 "/>
</g>
<g id="ID000058" >
  <g transform="translate(661.900,44.572)">
    <g transform="rotate(-0.0)">
      <text x="0.000" y="0.000" font-family="Helvetica" text-anchor="middle" font-size="10pt" fill="#000000" ><tspan>r<tspan style="baseline-shift:super;font-size:65%%">2</tspan> = 0.020065 p = 0.42793</tspan></text>
    </g>
  </g>
</g>
    </g>
    <g>
      <polyline fill="none" stroke="#000000" stroke-width="0.5pt" stroke-dasharray="none" stroke-opacity="1.00" points="199.46667,623.89000 199.46667,613.97000 "/>
      <polyline fill="none" stroke="#000000" stroke-width="0.5pt" stroke-dasharray="none" stroke-opacity="1.00" points="232.53333,623.89000 232.53333,613.97000 "/>
      <polyline fill="none" stroke="#000000" stroke-width="0.5pt" stroke-dasharray="none" stroke-opacity="1.00" points="265.60000,623.89000 265.60000,613.97000 "/>
      <polyline fill="none" stroke="#000000" stroke-width="0.5pt" stroke-dasharray="none" stroke-opacity="1.00" points="298.66667,623.89000 298.66667,613.97000 "/>
      <polyline fill="none" stroke="#000000" stroke-width="0.5pt" stroke-dasharray="none" stroke-opacity="1.00" points="331.73333,623.89000 331.73333,613.97000 "/>
      <polyline fill="none" stroke="#000000" stroke-width="0.5pt" stroke-dasharray="none" stroke-opacity="1.00" points="364.80000,623.89000 364.80000,613.97000 "/>
      <polyline fill="none" stroke="#000000" stroke-width="0.5pt" stroke-dasharray="none" stroke-opacity="1.00" points="397.86667,623.89000 397.86667,613.97000 "/>
      <polyline fill="none" stroke="#000000" stroke-width="0.5pt" stroke-dasharray="none" stroke-opacity="1.00" points="430.93333,623.89000 430.93333,613.97000 "/>
      <polyline fill="none" stroke="#000000" stroke-width="0.5pt" stroke-dasharray="none" stroke-opacity="1.00" points="464.00000,623.89000 464.00000,613.97000 "/>
      <polyline fill="none" stroke="#000000" stroke-width="0.5pt" stroke-dasharray="none" stroke-opacity="1.00" points="497.06667,623.89000 497.06667,613.97000 "/>
      <polyline fill="none" stroke="#000000" stroke-width="0.5pt" stroke-dasharray="none" stroke-opacity="1.00" points="530.13333,623.89000 530.13333,613.97000 "/>
      <polyline fill="none" stroke="#000000" stroke-width="0.5pt" stroke-dasharray="none" stroke-opacity="1.00" points="563.20000,623.89000 563.20000,613.97000 "/>
      <polyline fill="none" stroke="#000000" stroke-width="0.5pt" stroke-dasharray="none" stroke-opacity="1.00" points="596.26667,623.89000 596.26667,613.97000 "/>
      <polyline fill="none" stroke="#000000" stroke-width="0.5pt" stroke-dasharray="none" stroke-opacity="1.00" points="629.33333,623.89000 629.33333,613.97000 "/>
      <polyline fill="none" stroke="#000000" stroke-width="0.5pt" stroke-dasharray="none" stroke-opacity="1.00" points="662.40000,623.89000 662.40000,613.97000 "/>
      <polyline fill="none" stroke="#000000" stroke-width="0.5pt" stroke-dasharray="none" stroke-opacity="1.00" points="695.46667,623.89000 695.46667,613.97000 "/>
      <polyline fill="none" stroke="#000000" stroke-width="0.5pt" stroke-dasharray="none" stroke-opacity="1.00" points="728.53333,623.89000 728.53333,613.97000 "/>
      <polyline fill="none" stroke="#000000" stroke-width="0.5pt" stroke-dasharray="none" stroke-opacity="1.00" points="761.60000,623.89000 761.60000,613.97000 "/>
      <polyline fill="none" stroke="#000000" stroke-width="0.5pt" stroke-dasharray="none" stroke-opacity="1.00" points="794.66667,623.89000 794.66667,613.97000 "/>
      <polyline fill="none" stroke="#000000" stroke-width="0.5pt" stroke-dasharray="none" stroke-opacity="1.00" points="827.73333,623.89000 827.73333,613.97000 "/>
      <polyline fill="none" stroke="#000000" stroke-width="0.5pt" stroke-dasharray="none" stroke-opacity="1.00" points="860.80000,623.89000 860.80000,613.97000 "/>
      <polyline fill="none" stroke="#000000" stroke-width="0.5pt" stroke-dasharray="none" stroke-opacity="1.00" points="893.86667,623.89000 893.86667,613.97000 "/>
      <polyline fill="none" stroke="#000000" stroke-width="0.5pt" stroke-dasharray="none" stroke-opacity="1.00" points="926.93333,623.89000 926.93333,613.97000 "/>
      <polyline fill="none" stroke="#000000" stroke-width="0.5pt" stroke-dasharray="none" stroke-opacity="1.00" points="960.00000,623.89000 960.00000,613.97000 "/>
      <polyline fill="none" stroke="#000000" stroke-width="0.5pt" stroke-dasharray="none" stroke-opacity="1.00" points="993.06667,623.89000 993.06667,613.97000 "/>
      <polyline fill="none" stroke="#000000" stroke-width="0.5pt" stroke-dasharray="none" stroke-opacity="1.00" points="1026.13333,623.89000 1026.13333,613.97000 "/>
      <polyline fill="none" stroke="#000000" stroke-width="0.5pt" stroke-dasharray="none" stroke-opacity="1.00" points="166.40000,623.89000 1158.40000,623.89000 "/>
  <g transform="translate(199.467,647.116)">
    <g transform="rotate(-0.0)">
      <text x="0.000" y="0.000" font-family="Helvetica" text-anchor="middle" font-size="10pt" fill="#000000" ><tspan>T</tspan></text>
    </g>
  </g>
  <g transform="translate(232.533,647.116)">
    <g transform="rotate(-0.0)">
      <text x="0.000" y="0.000" font-family="Helvetica" text-anchor="middle" font-size="10pt" fill="#000000" ><tspan>A</tspan></text>
    </g>
  </g>
  <g transform="translate(265.600,647.116)">
    <g transform="rotate(-0.0)">
      <text x="0.000" y="0.000" font-family="Helvetica" text-anchor="middle" font-size="10pt" fill="#000000" ><tspan>S</tspan></text>
    </g>
  </g>
  <g transform="translate(298.667,647.116)">
    <g transform="rotate(-0.0)">
      <text x="0.000" y="0.000" font-family="Helvetica" text-anchor="middle" font-size="10pt" fill="#000000" ><tspan>H</tspan></text>
    </g>
  </g>
  <g transform="translate(331.733,647.116)">
    <g transform="rotate(-0.0)">
      <text x="0.000" y="0.000" font-family="Helvetica" text-anchor="middle" font-size="10pt" fill="#000000" ><tspan>W</tspan></text>
    </g>
  </g>
  <g transform="translate(364.800,647.116)">
    <g transform="rotate(-0.0)">
      <text x="0.000" y="0.000" font-family="Helvetica" text-anchor="middle" font-size="10pt" fill="#000000" ><tspan>I</tspan></text>
    </g>
  </g>
  <g transform="translate(397.867,647.116)">
    <g transform="rotate(-0.0)">
      <text x="0.000" y="0.000" font-family="Helvetica" text-anchor="middle" font-size="10pt" fill="#000000" ><tspan>O</tspan></text>
    </g>
  </g>
  <g transform="translate(430.933,647.116)">
    <g transform="rotate(-0.0)">
      <text x="0.000" y="0.000" font-family="Helvetica" text-anchor="middle" font-size="10pt" fill="#000000" ><tspan>B</tspan></text>
    </g>
  </g>
  <g transform="translate(464.000,647.116)">
    <g transform="rotate(-0.0)">
      <text x="0.000" y="0.000" font-family="Helvetica" text-anchor="middle" font-size="10pt" fill="#000000" ><tspan>M</tspan></text>
    </g>
  </g>
  <g transform="translate(497.067,647.116)">
    <g transform="rotate(-0.0)">
      <text x="0.000" y="0.000" font-family="Helvetica" text-anchor="middle" font-size="10pt" fill="#000000" ><tspan>F</tspan></text>
    </g>
  </g>
  <g transform="translate(530.133,647.116)">
    <g transform="rotate(-0.0)">
      <text x="0.000" y="0.000" font-family="Helvetica" text-anchor="middle" font-size="10pt" fill="#000000" ><tspan>C</tspan></text>
    </g>
  </g>
  <g transform="translate(563.200,647.116)">
    <g transform="rotate(-0.0)">
      <text x="0.000" y="0.000" font-family="Helvetica" text-anchor="middle" font-size="10pt" fill="#000000" ><tspan>L</tspan></text>
    </g>
  </g>
  <g transform="translate(596.267,647.116)">
    <g transform="rotate(-0.0)">
      <text x="0.000" y="0.000" font-family="Helvetica" text-anchor="middle" font-size="10pt" fill="#000000" ><tspan>D</tspan></text>
    </g>
  </g>
  <g transform="translate(629.333,647.116)">
    <g transform="rotate(-0.0)">
      <text x="0.000" y="0.000" font-family="Helvetica" text-anchor="middle" font-size="10pt" fill="#000000" ><tspan>P</tspan></text>
    </g>
  </g>
  <g transform="translate(662.400,647.116)">
    <g transform="rotate(-0.0)">
      <text x="0.000" y="0.000" font-family="Helvetica" text-anchor="middle" font-size="10pt" fill="#000000" ><tspan>N</tspan></text>
    </g>
  </g>
  <g transform="translate(695.467,647.116)">
    <g transform="rotate(-0.0)">
      <text x="0.000" y="0.000" font-family="Helvetica" text-anchor="middle" font-size="10pt" fill="#000000" ><tspan>E</tspan></text>
    </g>
  </g>
  <g transform="translate(728.533,647.116)">
    <g transform="rotate(-0.0)">
      <text x="0.000" y="0.000" font-family="Helvetica" text-anchor="middle" font-size="10pt" fill="#000000" ><tspan>G</tspan></text>
    </g>
  </g>
  <g transform="translate(761.600,647.116)">
    <g transform="rotate(-0.0)">
      <text x="0.000" y="0.000" font-family="Helvetica" text-anchor="middle" font-size="10pt" fill="#000000" ><tspan>R</tspan></text>
    </g>
  </g>
  <g transform="translate(794.667,647.116)">
    <g transform="rotate(-0.0)">
      <text x="0.000" y="0.000" font-family="Helvetica" text-anchor="middle" font-size="10pt" fill="#000000" ><tspan>Y</tspan></text>
    </g>
  </g>
  <g transform="translate(827.733,647.116)">
    <g transform="rotate(-0.0)">
      <text x="0.000" y="0.000" font-family="Helvetica" text-anchor="middle" font-size="10pt" fill="#000000" ><tspan>U</tspan></text>
    </g>
  </g>
  <g transform="translate(860.800,647.116)">
    <g transform="rotate(-0.0)">
      <text x="0.000" y="0.000" font-family="Helvetica" text-anchor="middle" font-size="10pt" fill="#000000" ><tspan>V</tspan></text>
    </g>
  </g>
  <g transform="translate(893.867,647.116)">
    <g transform="rotate(-0.0)">
      <text x="0.000" y="0.000" font-family="Helvetica" text-anchor="middle" font-size="10pt" fill="#000000" ><tspan>J</tspan></text>
    </g>
  </g>
  <g transform="translate(926.933,647.116)">
    <g transform="rotate(-0.0)">
      <text x="0.000" y="0.000" font-family="Helvetica" text-anchor="middle" font-size="10pt" fill="#000000" ><tspan>K</tspan></text>
    </g>
  </g>
  <g transform="translate(960.000,647.116)">
    <g transform="rotate(-0.0)">
      <text x="0.000" y="0.000" font-family="Helvetica" text-anchor="middle" font-size="10pt" fill="#000000" ><tspan>X</tspan></text>
    </g>
  </g>
  <g transform="translate(993.067,647.116)">
    <g transform="rotate(-0.0)">
      <text x="0.000" y="0.000" font-family="Helvetica" text-anchor="middle" font-size="10pt" fill="#000000" ><tspan>Z</tspan></text>
    </g>
  </g>
  <g transform="translate(1026.133,647.116)">
    <g transform="rotate(-0.0)">
      <text x="0.000" y="0.000" font-family="Helvetica" text-anchor="middle" font-size="10pt" fill="#000000" ><tspan>X</tspan></text>
    </g>
  </g>
      <polyline fill="none" stroke="#000000" stroke-width="0.5pt" stroke-dasharray="none" stroke-opacity="1.00" points="166.40000,623.89000 176.32000,623.89000 "/>
      <polyline fill="none" stroke="#000000" stroke-width="0.5pt" stroke-dasharray="none" stroke-opacity="1.00" points="166.40000,542.27357 176.32000,542.27357 "/>
      <polyline fill="none" stroke="#000000" stroke-width="0.5pt" stroke-dasharray="none" stroke-opacity="1.00" points="166.40000,460.65714 176.32000,460.65714 "/>
      <polyline fill="none" stroke="#000000" stroke-width="0.5pt" stroke-dasharray="none" stroke-opacity="1.00" points="166.40000,379.04071 176.32000,379.04071 "/>
      <polyline fill="none" stroke="#000000" stroke-width="0.5pt" stroke-dasharray="none" stroke-opacity="1.00" points="166.40000,297.42429 176.32000,297.42429 "/>
      <polyline fill="none" stroke="#000000" stroke-width="0.5pt" stroke-dasharray="none" stroke-opacity="1.00" points="166.40000,215.80786 176.32000,215.80786 "/>
      <polyline fill="none" stroke="#000000" stroke-width="0.5pt" stroke-dasharray="none" stroke-opacity="1.00" points="166.40000,134.19143 176.32000,134.19143 "/>
      <polyline fill="none" stroke="#000000" stroke-width="0.5pt" stroke-dasharray="none" stroke-opacity="1.00" points="166.40000,52.57500 176.32000,52.57500 "/>
      <polyline fill="none" stroke="#000000" stroke-width="0.5pt" stroke-dasharray="none" stroke-opacity="1.00" points="166.40000,623.89000 166.40000,52.57500 "/>
  <g transform="translate(146.560,628.390)">
    <g transform="rotate(-0.0)">
      <text x="0.000" y="0.000" font-family="Helvetica" text-anchor="end" font-size="10pt" fill="#000000" ><tspan>0</tspan></text>
    </g>
  </g>
  <g transform="translate(146.560,546.774)">
    <g transform="rotate(-0.0)">
      <text x="0.000" y="0.000" font-family="Helvetica" text-anchor="end" font-size="10pt" fill="#000000" ><tspan>0.02</tspan></text>
    </g>
  </g>
  <g transform="translate(146.560,465.157)">
    <g transform="rotate(-0.0)">
      <text x="0.000" y="0.000" font-family="Helvetica" text-anchor="end" font-size="10pt" fill="#000000" ><tspan>0.04</tspan></text>
    </g>
  </g>
  <g transform="translate(146.560,383.541)">
    <g transform="rotate(-0.0)">
      <text x="0.000" y="0.000" font-family="Helvetica" text-anchor="end" font-size="10pt" fill="#000000" ><tspan>0.06</tspan></text>
    </g>
  </g>
  <g transform="translate(146.560,301.924)">
    <g transform="rotate(-0.0)">
      <text x="0.000" y="0.000" font-family="Helvetica" text-anchor="end" font-size="10pt" fill="#000000" ><tspan>0.08</tspan></text>
    </g>
  </g>
  <g transform="translate(146.560,220.308)">
    <g transform="rotate(-0.0)">
      <text x="0.000" y="0.000" font-family="Helvetica" text-anchor="end" font-size="10pt" fill="#000000" ><tspan>0.1</tspan></text>
    </g>
  </g>
  <g transform="translate(146.560,138.691)">
    <g transform="rotate(-0.0)">
      <text x="0.000" y="0.000" font-family="Helvetica" text-anchor="end" font-size="10pt" fill="#000000" ><tspan>0.12</tspan></text>
    </g>
  </g>
  <g transform="translate(146.560,57.075)">
    <g transform="rotate(-0.0)">
      <text x="0.000" y="0.000" font-family="Helvetica" text-anchor="end" font-size="10pt" fill="#000000" ><tspan>0.14</tspan></text>
    </g>
  </g>
      <polyline fill="none" stroke="#000000" stroke-width="0.5pt" stroke-dasharray="none" stroke-opacity="1.00" points="166.40000,623.89000 166.40000,618.17685 "/>
      <polyline fill="none" stroke="#000000" stroke-width="0.5pt" stroke-dasharray="none" stroke-opacity="1.00" points="166.40000,623.89000 166.40000,618.17685 "/>
      <polyline fill="none" stroke="#000000" stroke-width="0.5pt" stroke-dasharray="none" stroke-opacity="1.00" points="166.40000,623.89000 166.40000,618.17685 "/>
      <polyline fill="none" stroke="#000000" stroke-width="0.5pt" stroke-dasharray="none" stroke-opacity="1.00" points="166.40000,623.89000 166.40000,623.89000 "/>
    </g>
  </g>
  </g>
</svg>
