<?xml version="1.0" encoding="utf-8" standalone="no"?><!DOCTYPE svg PUBLIC "-//W3C//DTD SVG 1.1//EN" "http://www.w3.org/Graphics/SVG/1.1/DTD/svg11.dtd">
<svg preserveAspectRatio="xMinYMin meet" width="100%" height="100%" viewBox="0 0 1280.000 701.000"  version="1.1" xmlns="http://www.w3.org/2000/svg" xmlns:xlink="http://www.w3.org/1999/xlink">
  <desc>Matlab Figure Converted by PLOT2SVG written by Juerg Schwizer</desc>
  <g id="topgroup">
  <rect x="0" y="0" width="1280.000" height="701.000" fill="#ffffff" stroke="none" />
  <g id ="ID000000">
  <clipPath id="ID000001">
    <rect x="166.400" y="52.575" width="992.000" height="571.315"/>
  </clipPath>
      <polygon fill="#ffffff" fill-opacity="1.00" stroke="none" stroke-width="0.5pt" stroke-opacity="1.00" stroke-dasharray="none" points="166.400,623.890 1158.400,623.890 1158.400,52.575 166.400,52.575 "/>
      <polygon fill="#ffffff" fill-opacity="1.00" stroke="none" stroke-width="0.5pt" stroke-opacity="1.00" stroke-dasharray="none" points="166.400,52.575 1158.400,52.575 1158.400,52.575 166.400,52.575 "/>
      <polygon fill="#ffffff" fill-opacity="1.00" stroke="none" stroke-width="0.5pt" stroke-opacity="1.00" stroke-dasharray="none" points="166.400,623.890 166.400,623.890 166.400,52.575 166.400,52.575 "/>
    <g>
<g id="ID000002" clip-path="url(#ID000001)" >
      <polyline fill="none" stroke="#0000ff" stroke-width="0.5pt" stroke-dasharray="none" stroke-opacity="1.00" points="169.94286,-975.79200 173.48571,-404.47700 177.02857,-214.03867 180.57143,-90.25375 184.11429,-61.68800 187.65714,14.48733 191.20000,52.57500 194.74286,81.14075 198.28571,116.05444 201.82857,143.98540 205.37143,166.83800 208.91429,185.88183 212.45714,201.99585 216.00000,223.96950 219.54286,243.01333 223.08571,238.25238 226.62857,267.65829 230.17143,268.40511 233.71429,281.10100 237.25714,286.81415 240.80000,286.54210 244.34286,307.06986 247.88571,325.81261 251.42857,323.94963 254.97143,322.23568 258.51429,342.62723 262.05714,340.34848 265.60000,342.31332 269.14286,348.08276 272.68571,338.23250 276.22857,351.13316 279.77143,359.65681 283.31429,357.27633 286.85714,368.47859 290.40000,359.45277 293.94286,376.32017 297.48571,367.57030 301.02857,371.30863 304.57143,386.57454 308.11429,389.65085 311.65714,392.57710 315.20000,398.08455 318.74286,395.36400 322.28571,397.96089 325.82857,400.44236 329.37143,395.36400 332.91429,400.22626 336.45714,397.74448 340.00000,411.68729 343.54286,411.36082 347.08571,411.04716 350.62857,408.54819 354.17143,414.76715 357.71429,412.29185 361.25714,426.52664 364.80000,415.76811 368.34286,433.45167 371.88571,430.82493 375.42857,434.09722 378.97143,435.35605 382.51429,425.33462 386.05714,435.90894 389.60000,429.82427 393.14286,443.56870 396.68571,435.79552 400.22857,442.10795 403.77143,446.52654 407.31429,445.77415 410.85714,445.04357 414.40000,436.17221 417.94286,442.03480 421.48571,449.32153 425.02857,445.45189 428.57143,454.03959 432.11429,451.73375 435.65714,444.97820 439.20000,450.26960 442.74286,455.42532 446.28571,450.32595 449.82857,459.63694 453.37143,456.02214 456.91429,458.06930 460.45714,453.18383 464.00000,457.93660 467.54286,465.26607 471.08571,457.81006 474.62857,457.09229 478.17143,458.98772 481.71429,467.25982 485.25714,461.38262 488.80000,471.95788 492.34286,469.88335 495.88571,470.31070 499.42857,461.00445 502.97143,467.53011 506.51429,473.91981 510.05714,461.33027 513.60000,465.32094 517.14286,462.30596 520.68571,469.63495 524.22857,477.95013 527.77143,478.26069 531.31429,477.45586 534.85714,476.66652 538.40000,481.33330 541.94286,478.36637 545.48571,477.59064 549.02857,480.00326 552.57143,484.46817 556.11429,482.61938 559.65714,482.86269 563.20000,485.14207 566.74286,485.35875 570.28571,486.57394 573.82857,477.83208 577.37143,485.00135 580.91429,477.39897 584.45714,484.45041 588.00000,485.62217 591.54286,487.72659 595.08571,493.57352 598.62857,490.89536 602.17143,487.33178 605.71429,491.19748 609.25714,491.34492 612.80000,486.04892 616.34286,488.03399 619.88571,490.88073 623.42857,492.79757 626.97143,491.16913 630.51429,490.43779 634.05714,487.98628 637.60000,495.88108 641.14286,496.83637 644.68571,490.15997 648.22857,494.50396 651.77143,492.94627 655.31429,493.06714 658.85714,489.89814 662.40000,491.67139 665.94286,495.04023 669.48571,503.99432 673.02857,500.83754 676.57143,502.48556 680.11429,495.44263 683.65714,501.01814 687.20000,496.41291 690.74286,498.81834 694.28571,500.42461 697.82857,506.57999 701.37143,496.76295 704.91429,503.61316 708.45714,502.15883 712.00000,501.46536 715.54286,505.94110 719.08571,500.10508 722.62857,497.98236 726.17143,500.94880 729.71429,498.12884 733.25714,506.05628 736.80000,508.20758 740.34286,507.51102 743.88571,504.72000 747.42857,509.62700 750.97143,509.62700 754.51429,511.69199 758.05714,506.89016 761.60000,505.54618 765.14286,504.89421 768.68571,512.98768 772.22857,506.28598 775.77143,504.31244 779.31429,505.66412 782.85714,510.28368 786.40000,509.62700 789.94286,512.22389 793.48571,510.27255 797.02857,514.12049 800.57143,511.54202 804.11429,505.18344 807.65714,508.99571 811.20000,512.13827 814.74286,515.87088 818.28571,511.48998 821.82857,513.33283 825.37143,515.77017 828.91429,511.46010 832.45714,516.92038 836.00000,507.81330 839.54286,506.01869 843.08571,522.18995 846.62857,515.57820 850.17143,512.58718 853.71429,519.63974 857.25714,508.45507 860.80000,515.45674 864.34286,517.16720 867.88571,513.08952 871.42857,514.79467 874.97143,524.48119 878.51429,514.74325 882.05714,522.07149 885.60000,520.32157 889.14286,514.66801 892.68571,520.77461 896.22857,515.17375 899.77143,515.69895 903.31429,517.31778 906.85714,517.28098 910.40000,512.34755 913.94286,520.45762 917.48571,520.94550 921.02857,518.21014 924.57143,519.23791 928.11429,521.85048 931.65714,524.96787 935.20000,515.94569 938.74286,516.96499 942.28571,529.45346 945.82857,516.37890 949.37143,521.00160 952.91429,519.92096 956.45714,517.82524 960.00000,517.27854 963.54286,523.33856 967.08571,518.72759 970.62857,517.17742 974.17143,521.15353 977.71429,525.59388 981.25714,526.51805 984.80000,528.42351 988.34286,522.43234 991.88571,525.31977 995.42857,521.34628 998.97143,522.75509 1002.51429,526.57278 1006.05714,526.98341 1009.60000,527.87067 1013.14286,527.31625 1016.68571,525.33816 1020.22857,529.06593 1023.77143,526.62480 1027.31429,529.84638 1030.85714,526.95377 1034.40000,531.08046 1037.94286,531.45774 1041.48571,530.90675 "/>
</g>
<g id="ID000003" >
  <g transform="translate(128.400,339.233)">
    <g transform="rotate(-90.0)">
      <text x="0.000" y="0.000" font-family="Helvetica" text-anchor="middle" font-size="10pt" fill="#000000" ><tspan>95% confidence interval on prob letter is blue</tspan></text>
    </g>
  </g>
</g>
<g id="ID000004" >
  <g transform="translate(661.900,655.902)">
    <g transform="rotate(-0.0)">
      <text x="0.000" y="0.000" font-family="Helvetica" text-anchor="middle" font-size="10pt" fill="#000000" ><tspan>bootstrap sample size</tspan></text>
    </g>
  </g>
</g>
<g id="ID000005" >
</g>
    </g>
    <g>
      <polyline fill="none" stroke="#000000" stroke-width="0.5pt" stroke-dasharray="none" stroke-opacity="1.00" points="166.40000,623.89000 166.40000,613.97000 "/>
      <polyline fill="none" stroke="#000000" stroke-width="0.5pt" stroke-dasharray="none" stroke-opacity="1.00" points="308.11429,623.89000 308.11429,613.97000 "/>
      <polyline fill="none" stroke="#000000" stroke-width="0.5pt" stroke-dasharray="none" stroke-opacity="1.00" points="449.82857,623.89000 449.82857,613.97000 "/>
      <polyline fill="none" stroke="#000000" stroke-width="0.5pt" stroke-dasharray="none" stroke-opacity="1.00" points="591.54286,623.89000 591.54286,613.97000 "/>
      <polyline fill="none" stroke="#000000" stroke-width="0.5pt" stroke-dasharray="none" stroke-opacity="1.00" points="733.25714,623.89000 733.25714,613.97000 "/>
      <polyline fill="none" stroke="#000000" stroke-width="0.5pt" stroke-dasharray="none" stroke-opacity="1.00" points="874.97143,623.89000 874.97143,613.97000 "/>
      <polyline fill="none" stroke="#000000" stroke-width="0.5pt" stroke-dasharray="none" stroke-opacity="1.00" points="1016.68571,623.89000 1016.68571,613.97000 "/>
      <polyline fill="none" stroke="#000000" stroke-width="0.5pt" stroke-dasharray="none" stroke-opacity="1.00" points="1158.40000,623.89000 1158.40000,613.97000 "/>
      <polyline fill="none" stroke="#000000" stroke-width="0.5pt" stroke-dasharray="none" stroke-opacity="1.00" points="166.40000,623.89000 1158.40000,623.89000 "/>
  <g transform="translate(166.400,647.116)">
    <g transform="rotate(-0.0)">
      <text x="0.000" y="0.000" font-family="Helvetica" text-anchor="middle" font-size="10pt" fill="#000000" ><tspan>0</tspan></text>
    </g>
  </g>
  <g transform="translate(308.114,647.116)">
    <g transform="rotate(-0.0)">
      <text x="0.000" y="0.000" font-family="Helvetica" text-anchor="middle" font-size="10pt" fill="#000000" ><tspan>1000</tspan></text>
    </g>
  </g>
  <g transform="translate(449.829,647.116)">
    <g transform="rotate(-0.0)">
      <text x="0.000" y="0.000" font-family="Helvetica" text-anchor="middle" font-size="10pt" fill="#000000" ><tspan>2000</tspan></text>
    </g>
  </g>
  <g transform="translate(591.543,647.116)">
    <g transform="rotate(-0.0)">
      <text x="0.000" y="0.000" font-family="Helvetica" text-anchor="middle" font-size="10pt" fill="#000000" ><tspan>3000</tspan></text>
    </g>
  </g>
  <g transform="translate(733.257,647.116)">
    <g transform="rotate(-0.0)">
      <text x="0.000" y="0.000" font-family="Helvetica" text-anchor="middle" font-size="10pt" fill="#000000" ><tspan>4000</tspan></text>
    </g>
  </g>
  <g transform="translate(874.971,647.116)">
    <g transform="rotate(-0.0)">
      <text x="0.000" y="0.000" font-family="Helvetica" text-anchor="middle" font-size="10pt" fill="#000000" ><tspan>5000</tspan></text>
    </g>
  </g>
  <g transform="translate(1016.686,647.116)">
    <g transform="rotate(-0.0)">
      <text x="0.000" y="0.000" font-family="Helvetica" text-anchor="middle" font-size="10pt" fill="#000000" ><tspan>6000</tspan></text>
    </g>
  </g>
  <g transform="translate(1158.400,647.116)">
    <g transform="rotate(-0.0)">
      <text x="0.000" y="0.000" font-family="Helvetica" text-anchor="middle" font-size="10pt" fill="#000000" ><tspan>7000</tspan></text>
    </g>
  </g>
      <polyline fill="none" stroke="#000000" stroke-width="0.5pt" stroke-dasharray="none" stroke-opacity="1.00" points="166.40000,623.89000 176.32000,623.89000 "/>
      <polyline fill="none" stroke="#000000" stroke-width="0.5pt" stroke-dasharray="none" stroke-opacity="1.00" points="166.40000,566.75850 176.32000,566.75850 "/>
      <polyline fill="none" stroke="#000000" stroke-width="0.5pt" stroke-dasharray="none" stroke-opacity="1.00" points="166.40000,509.62700 176.32000,509.62700 "/>
      <polyline fill="none" stroke="#000000" stroke-width="0.5pt" stroke-dasharray="none" stroke-opacity="1.00" points="166.40000,452.49550 176.32000,452.49550 "/>
      <polyline fill="none" stroke="#000000" stroke-width="0.5pt" stroke-dasharray="none" stroke-opacity="1.00" points="166.40000,395.36400 176.32000,395.36400 "/>
      <polyline fill="none" stroke="#000000" stroke-width="0.5pt" stroke-dasharray="none" stroke-opacity="1.00" points="166.40000,338.23250 176.32000,338.23250 "/>
      <polyline fill="none" stroke="#000000" stroke-width="0.5pt" stroke-dasharray="none" stroke-opacity="1.00" points="166.40000,281.10100 176.32000,281.10100 "/>
      <polyline fill="none" stroke="#000000" stroke-width="0.5pt" stroke-dasharray="none" stroke-opacity="1.00" points="166.40000,223.96950 176.32000,223.96950 "/>
      <polyline fill="none" stroke="#000000" stroke-width="0.5pt" stroke-dasharray="none" stroke-opacity="1.00" points="166.40000,166.83800 176.32000,166.83800 "/>
      <polyline fill="none" stroke="#000000" stroke-width="0.5pt" stroke-dasharray="none" stroke-opacity="1.00" points="166.40000,109.70650 176.32000,109.70650 "/>
      <polyline fill="none" stroke="#000000" stroke-width="0.5pt" stroke-dasharray="none" stroke-opacity="1.00" points="166.40000,52.57500 176.32000,52.57500 "/>
      <polyline fill="none" stroke="#000000" stroke-width="0.5pt" stroke-dasharray="none" stroke-opacity="1.00" points="166.40000,623.89000 166.40000,52.57500 "/>
  <g transform="translate(146.560,628.390)">
    <g transform="rotate(-0.0)">
      <text x="0.000" y="0.000" font-family="Helvetica" text-anchor="end" font-size="10pt" fill="#000000" ><tspan>0</tspan></text>
    </g>
  </g>
  <g transform="translate(146.560,571.259)">
    <g transform="rotate(-0.0)">
      <text x="0.000" y="0.000" font-family="Helvetica" text-anchor="end" font-size="10pt" fill="#000000" ><tspan>0.01</tspan></text>
    </g>
  </g>
  <g transform="translate(146.560,514.127)">
    <g transform="rotate(-0.0)">
      <text x="0.000" y="0.000" font-family="Helvetica" text-anchor="end" font-size="10pt" fill="#000000" ><tspan>0.02</tspan></text>
    </g>
  </g>
  <g transform="translate(146.560,456.995)">
    <g transform="rotate(-0.0)">
      <text x="0.000" y="0.000" font-family="Helvetica" text-anchor="end" font-size="10pt" fill="#000000" ><tspan>0.03</tspan></text>
    </g>
  </g>
  <g transform="translate(146.560,399.864)">
    <g transform="rotate(-0.0)">
      <text x="0.000" y="0.000" font-family="Helvetica" text-anchor="end" font-size="10pt" fill="#000000" ><tspan>0.04</tspan></text>
    </g>
  </g>
  <g transform="translate(146.560,342.733)">
    <g transform="rotate(-0.0)">
      <text x="0.000" y="0.000" font-family="Helvetica" text-anchor="end" font-size="10pt" fill="#000000" ><tspan>0.05</tspan></text>
    </g>
  </g>
  <g transform="translate(146.560,285.601)">
    <g transform="rotate(-0.0)">
      <text x="0.000" y="0.000" font-family="Helvetica" text-anchor="end" font-size="10pt" fill="#000000" ><tspan>0.06</tspan></text>
    </g>
  </g>
  <g transform="translate(146.560,228.469)">
    <g transform="rotate(-0.0)">
      <text x="0.000" y="0.000" font-family="Helvetica" text-anchor="end" font-size="10pt" fill="#000000" ><tspan>0.07</tspan></text>
    </g>
  </g>
  <g transform="translate(146.560,171.338)">
    <g transform="rotate(-0.0)">
      <text x="0.000" y="0.000" font-family="Helvetica" text-anchor="end" font-size="10pt" fill="#000000" ><tspan>0.08</tspan></text>
    </g>
  </g>
  <g transform="translate(146.560,114.207)">
    <g transform="rotate(-0.0)">
      <text x="0.000" y="0.000" font-family="Helvetica" text-anchor="end" font-size="10pt" fill="#000000" ><tspan>0.09</tspan></text>
    </g>
  </g>
  <g transform="translate(146.560,57.075)">
    <g transform="rotate(-0.0)">
      <text x="0.000" y="0.000" font-family="Helvetica" text-anchor="end" font-size="10pt" fill="#000000" ><tspan>0.1</tspan></text>
    </g>
  </g>
      <polyline fill="none" stroke="#000000" stroke-width="0.5pt" stroke-dasharray="none" stroke-opacity="1.00" points="166.40000,623.89000 166.40000,618.17685 "/>
      <polyline fill="none" stroke="#000000" stroke-width="0.5pt" stroke-dasharray="none" stroke-opacity="1.00" points="166.40000,623.89000 166.40000,618.17685 "/>
      <polyline fill="none" stroke="#000000" stroke-width="0.5pt" stroke-dasharray="none" stroke-opacity="1.00" points="166.40000,623.89000 166.40000,618.17685 "/>
      <polyline fill="none" stroke="#000000" stroke-width="0.5pt" stroke-dasharray="none" stroke-opacity="1.00" points="166.40000,623.89000 166.40000,623.89000 "/>
    </g>
  </g>
  </g>
</svg>
