<?xml version="1.0" encoding="utf-8" standalone="no"?><!DOCTYPE svg PUBLIC "-//W3C//DTD SVG 1.1//EN" "http://www.w3.org/Graphics/SVG/1.1/DTD/svg11.dtd">
<svg preserveAspectRatio="xMinYMin meet" width="100%" height="100%" viewBox="0 0 1280.000 701.000"  version="1.1" xmlns="http://www.w3.org/2000/svg" xmlns:xlink="http://www.w3.org/1999/xlink">
  <desc>Matlab Figure Converted by PLOT2SVG written by Juerg Schwizer</desc>
  <g id="topgroup">
  <rect x="0" y="0" width="1280.000" height="701.000" fill="#ffffff" stroke="none" />
  <g id ="ID000000">
  <clipPath id="ID000001">
    <rect x="166.400" y="52.575" width="992.000" height="571.315"/>
  </clipPath>
      <polygon fill="#ffffff" fill-opacity="1.00" stroke="none" stroke-width="0.5pt" stroke-opacity="1.00" stroke-dasharray="none" points="166.400,623.890 1158.400,623.890 1158.400,52.575 166.400,52.575 "/>
      <polygon fill="#ffffff" fill-opacity="1.00" stroke="none" stroke-width="0.5pt" stroke-opacity="1.00" stroke-dasharray="none" points="166.400,52.575 1158.400,52.575 1158.400,52.575 166.400,52.575 "/>
      <polygon fill="#ffffff" fill-opacity="1.00" stroke="none" stroke-width="0.5pt" stroke-opacity="1.00" stroke-dasharray="none" points="166.400,623.890 166.400,623.890 166.400,52.575 166.400,52.575 "/>
    <g>
<g id="ID000002" clip-path="url(#ID000001)" >
      <polyline fill="none" stroke="#0000ff" stroke-width="0.5pt" stroke-dasharray="none" stroke-opacity="1.00" points="169.94286,-518.74000 173.48571,-290.21400 177.02857,-61.68800 180.57143,-4.55650 184.11429,75.42760 187.65714,128.75033 191.20000,150.51471 194.74286,166.83800 198.28571,217.62156 201.82857,235.39580 205.37143,218.77573 208.91429,271.57908 212.45714,281.10100 216.00000,289.26264 219.54286,303.95360 223.08571,295.38388 226.62857,314.70776 230.17143,338.23250 233.71429,329.21174 237.25714,355.37195 240.80000,346.39414 244.34286,359.00759 247.88571,355.62035 251.42857,376.32017 254.97143,367.94088 258.51429,386.57454 262.05714,374.20419 265.60000,395.36400 269.14286,403.24421 272.68571,395.36400 276.22857,402.73581 279.77143,416.78831 283.31429,398.82652 286.85714,412.16738 290.40000,414.95194 293.94286,414.40783 297.48571,413.89314 301.02857,425.43321 304.57143,421.73238 308.11429,443.92578 311.65714,420.44612 315.20000,411.68729 318.74286,437.88047 322.28571,436.91418 325.82857,446.14756 329.37143,440.07561 332.91429,441.55543 336.45714,442.97358 340.00000,451.32955 343.54286,429.64290 347.08571,449.13482 350.62857,443.70604 354.17143,451.41755 357.71429,452.49550 361.25714,461.84429 364.80000,468.81879 368.34286,461.51626 371.88571,454.46555 375.42857,465.08380 378.97143,462.01742 382.51429,457.17841 386.05714,463.55321 389.60000,467.91194 393.14286,466.77837 396.68571,462.16391 400.22857,475.00185 403.77143,470.40239 407.31429,472.65956 410.85714,476.50729 414.40000,470.45111 417.94286,477.44024 421.48571,481.06125 425.02857,472.06108 428.57143,475.65692 432.11429,480.68037 435.65714,479.55779 439.20000,474.01256 442.74286,492.04808 446.28571,485.03876 449.82857,483.91783 453.37143,485.64588 456.91429,488.72523 460.45714,487.60040 464.00000,482.42152 467.54286,492.15148 471.08571,491.02605 474.62857,491.23985 478.17143,495.34413 481.71429,486.51763 485.25714,485.50481 488.80000,490.79244 492.34286,497.20711 495.88571,493.65475 499.42857,492.60911 502.97143,491.58547 506.51429,500.10508 510.05714,491.95746 513.60000,490.97182 517.14286,496.93111 520.68571,491.34492 524.22857,501.70778 527.77143,505.14610 531.31429,496.31481 534.85714,507.42963 538.40000,504.18590 541.94286,508.54905 545.48571,510.69488 549.02857,506.45303 552.57143,501.24072 556.11429,508.58825 559.65714,503.45062 563.20000,507.58659 566.74286,502.54876 570.28571,497.59932 573.82857,506.64623 577.37143,505.68690 580.91429,508.65039 584.45714,508.65867 588.00000,505.78623 591.54286,509.62700 595.08571,509.62700 598.62857,507.75384 602.17143,511.48493 605.71429,509.62700 609.25714,505.97058 612.80000,507.81330 616.34286,509.62700 619.88571,514.98308 623.42857,513.17004 626.97143,511.38489 630.51429,515.73266 634.05714,516.55203 637.60000,512.20436 641.14286,516.44867 644.68571,513.01257 648.22857,515.50818 651.77143,513.79718 655.31429,512.11098 658.85714,516.20329 662.40000,518.60481 665.94286,520.97226 669.48571,518.47836 673.02857,518.41646 676.57143,522.32289 680.11429,523.02335 683.65714,520.58373 687.20000,520.50919 690.74286,521.20771 694.28571,525.73118 697.82857,524.86207 701.37143,517.19409 704.91429,524.66161 708.45714,520.08244 712.00000,520.01455 715.54286,525.84497 719.08571,520.61383 722.62857,527.09396 726.17143,524.09067 729.71429,521.12516 733.25714,525.33816 736.80000,524.53087 740.34286,527.96551 743.88571,527.85300 747.42857,524.25824 750.97143,526.93958 754.51429,530.27694 758.05714,531.52171 761.60000,534.11193 765.14286,529.23426 768.68571,531.13533 772.22857,529.00494 775.77143,530.22091 779.31429,532.08331 782.85714,533.92430 786.40000,530.52081 789.94286,529.75287 793.48571,527.70250 797.02857,530.81059 800.57143,532.60727 804.11429,528.03604 807.65714,531.72206 811.20000,533.48411 814.74286,532.72936 818.28571,525.77286 821.82857,529.39141 825.37143,531.74242 828.91429,531.62416 832.45714,535.15384 836.00000,531.39138 839.54286,532.47960 843.08571,529.96701 846.62857,535.21715 850.17143,539.82085 853.71429,534.95334 857.25714,534.23749 860.80000,536.44383 864.34286,527.60747 867.88571,539.05838 871.42857,533.74281 874.97143,534.76486 878.51429,535.77674 882.05714,538.47558 885.60000,541.14783 889.14286,539.87309 892.68571,537.49602 896.22857,539.57944 899.77143,535.01878 903.31429,528.30461 906.85714,540.78964 910.40000,537.92070 913.94286,538.32813 917.48571,533.88094 921.02857,539.66798 924.57143,532.58639 928.11429,536.73125 931.65714,537.13476 935.20000,545.43292 938.74286,537.93068 942.28571,539.36668 945.82857,538.19275 949.37143,540.13160 952.91429,539.47950 956.45714,540.37041 960.00000,540.23316 963.54286,537.05012 967.08571,536.92878 970.62857,539.32531 974.17143,542.70313 977.71429,543.55662 981.25714,545.39629 984.80000,543.26286 988.34286,542.13285 991.88571,547.38773 995.42857,547.71467 998.97143,540.74543 1002.51429,540.12941 1006.05714,542.89344 1009.60000,544.67405 1013.14286,537.35610 1016.68571,545.33419 1020.22857,542.81542 1023.77143,542.67828 1027.31429,535.48900 1030.85714,540.53420 1034.40000,541.80719 1037.94286,541.67638 1041.48571,541.54662 "/>
</g>
<g id="ID000003" >
  <g transform="translate(128.400,339.233)">
    <g transform="rotate(-90.0)">
      <text x="0.000" y="0.000" font-family="Helvetica" text-anchor="middle" font-size="10pt" fill="#000000" ><tspan>95% confidence interval on prob letter is yellow</tspan></text>
    </g>
  </g>
</g>
<g id="ID000004" >
  <g transform="translate(661.900,655.902)">
    <g transform="rotate(-0.0)">
      <text x="0.000" y="0.000" font-family="Helvetica" text-anchor="middle" font-size="10pt" fill="#000000" ><tspan>bootstrap sample size</tspan></text>
    </g>
  </g>
</g>
<g id="ID000005" >
</g>
    </g>
    <g>
      <polyline fill="none" stroke="#000000" stroke-width="0.5pt" stroke-dasharray="none" stroke-opacity="1.00" points="166.40000,623.89000 166.40000,613.97000 "/>
      <polyline fill="none" stroke="#000000" stroke-width="0.5pt" stroke-dasharray="none" stroke-opacity="1.00" points="308.11429,623.89000 308.11429,613.97000 "/>
      <polyline fill="none" stroke="#000000" stroke-width="0.5pt" stroke-dasharray="none" stroke-opacity="1.00" points="449.82857,623.89000 449.82857,613.97000 "/>
      <polyline fill="none" stroke="#000000" stroke-width="0.5pt" stroke-dasharray="none" stroke-opacity="1.00" points="591.54286,623.89000 591.54286,613.97000 "/>
      <polyline fill="none" stroke="#000000" stroke-width="0.5pt" stroke-dasharray="none" stroke-opacity="1.00" points="733.25714,623.89000 733.25714,613.97000 "/>
      <polyline fill="none" stroke="#000000" stroke-width="0.5pt" stroke-dasharray="none" stroke-opacity="1.00" points="874.97143,623.89000 874.97143,613.97000 "/>
      <polyline fill="none" stroke="#000000" stroke-width="0.5pt" stroke-dasharray="none" stroke-opacity="1.00" points="1016.68571,623.89000 1016.68571,613.97000 "/>
      <polyline fill="none" stroke="#000000" stroke-width="0.5pt" stroke-dasharray="none" stroke-opacity="1.00" points="1158.40000,623.89000 1158.40000,613.97000 "/>
      <polyline fill="none" stroke="#000000" stroke-width="0.5pt" stroke-dasharray="none" stroke-opacity="1.00" points="166.40000,623.89000 1158.40000,623.89000 "/>
  <g transform="translate(166.400,647.116)">
    <g transform="rotate(-0.0)">
      <text x="0.000" y="0.000" font-family="Helvetica" text-anchor="middle" font-size="10pt" fill="#000000" ><tspan>0</tspan></text>
    </g>
  </g>
  <g transform="translate(308.114,647.116)">
    <g transform="rotate(-0.0)">
      <text x="0.000" y="0.000" font-family="Helvetica" text-anchor="middle" font-size="10pt" fill="#000000" ><tspan>1000</tspan></text>
    </g>
  </g>
  <g transform="translate(449.829,647.116)">
    <g transform="rotate(-0.0)">
      <text x="0.000" y="0.000" font-family="Helvetica" text-anchor="middle" font-size="10pt" fill="#000000" ><tspan>2000</tspan></text>
    </g>
  </g>
  <g transform="translate(591.543,647.116)">
    <g transform="rotate(-0.0)">
      <text x="0.000" y="0.000" font-family="Helvetica" text-anchor="middle" font-size="10pt" fill="#000000" ><tspan>3000</tspan></text>
    </g>
  </g>
  <g transform="translate(733.257,647.116)">
    <g transform="rotate(-0.0)">
      <text x="0.000" y="0.000" font-family="Helvetica" text-anchor="middle" font-size="10pt" fill="#000000" ><tspan>4000</tspan></text>
    </g>
  </g>
  <g transform="translate(874.971,647.116)">
    <g transform="rotate(-0.0)">
      <text x="0.000" y="0.000" font-family="Helvetica" text-anchor="middle" font-size="10pt" fill="#000000" ><tspan>5000</tspan></text>
    </g>
  </g>
  <g transform="translate(1016.686,647.116)">
    <g transform="rotate(-0.0)">
      <text x="0.000" y="0.000" font-family="Helvetica" text-anchor="middle" font-size="10pt" fill="#000000" ><tspan>6000</tspan></text>
    </g>
  </g>
  <g transform="translate(1158.400,647.116)">
    <g transform="rotate(-0.0)">
      <text x="0.000" y="0.000" font-family="Helvetica" text-anchor="middle" font-size="10pt" fill="#000000" ><tspan>7000</tspan></text>
    </g>
  </g>
      <polyline fill="none" stroke="#000000" stroke-width="0.5pt" stroke-dasharray="none" stroke-opacity="1.00" points="166.40000,623.89000 176.32000,623.89000 "/>
      <polyline fill="none" stroke="#000000" stroke-width="0.5pt" stroke-dasharray="none" stroke-opacity="1.00" points="166.40000,566.75850 176.32000,566.75850 "/>
      <polyline fill="none" stroke="#000000" stroke-width="0.5pt" stroke-dasharray="none" stroke-opacity="1.00" points="166.40000,509.62700 176.32000,509.62700 "/>
      <polyline fill="none" stroke="#000000" stroke-width="0.5pt" stroke-dasharray="none" stroke-opacity="1.00" points="166.40000,452.49550 176.32000,452.49550 "/>
      <polyline fill="none" stroke="#000000" stroke-width="0.5pt" stroke-dasharray="none" stroke-opacity="1.00" points="166.40000,395.36400 176.32000,395.36400 "/>
      <polyline fill="none" stroke="#000000" stroke-width="0.5pt" stroke-dasharray="none" stroke-opacity="1.00" points="166.40000,338.23250 176.32000,338.23250 "/>
      <polyline fill="none" stroke="#000000" stroke-width="0.5pt" stroke-dasharray="none" stroke-opacity="1.00" points="166.40000,281.10100 176.32000,281.10100 "/>
      <polyline fill="none" stroke="#000000" stroke-width="0.5pt" stroke-dasharray="none" stroke-opacity="1.00" points="166.40000,223.96950 176.32000,223.96950 "/>
      <polyline fill="none" stroke="#000000" stroke-width="0.5pt" stroke-dasharray="none" stroke-opacity="1.00" points="166.40000,166.83800 176.32000,166.83800 "/>
      <polyline fill="none" stroke="#000000" stroke-width="0.5pt" stroke-dasharray="none" stroke-opacity="1.00" points="166.40000,109.70650 176.32000,109.70650 "/>
      <polyline fill="none" stroke="#000000" stroke-width="0.5pt" stroke-dasharray="none" stroke-opacity="1.00" points="166.40000,52.57500 176.32000,52.57500 "/>
      <polyline fill="none" stroke="#000000" stroke-width="0.5pt" stroke-dasharray="none" stroke-opacity="1.00" points="166.40000,623.89000 166.40000,52.57500 "/>
  <g transform="translate(146.560,628.390)">
    <g transform="rotate(-0.0)">
      <text x="0.000" y="0.000" font-family="Helvetica" text-anchor="end" font-size="10pt" fill="#000000" ><tspan>0</tspan></text>
    </g>
  </g>
  <g transform="translate(146.560,571.259)">
    <g transform="rotate(-0.0)">
      <text x="0.000" y="0.000" font-family="Helvetica" text-anchor="end" font-size="10pt" fill="#000000" ><tspan>0.01</tspan></text>
    </g>
  </g>
  <g transform="translate(146.560,514.127)">
    <g transform="rotate(-0.0)">
      <text x="0.000" y="0.000" font-family="Helvetica" text-anchor="end" font-size="10pt" fill="#000000" ><tspan>0.02</tspan></text>
    </g>
  </g>
  <g transform="translate(146.560,456.995)">
    <g transform="rotate(-0.0)">
      <text x="0.000" y="0.000" font-family="Helvetica" text-anchor="end" font-size="10pt" fill="#000000" ><tspan>0.03</tspan></text>
    </g>
  </g>
  <g transform="translate(146.560,399.864)">
    <g transform="rotate(-0.0)">
      <text x="0.000" y="0.000" font-family="Helvetica" text-anchor="end" font-size="10pt" fill="#000000" ><tspan>0.04</tspan></text>
    </g>
  </g>
  <g transform="translate(146.560,342.733)">
    <g transform="rotate(-0.0)">
      <text x="0.000" y="0.000" font-family="Helvetica" text-anchor="end" font-size="10pt" fill="#000000" ><tspan>0.05</tspan></text>
    </g>
  </g>
  <g transform="translate(146.560,285.601)">
    <g transform="rotate(-0.0)">
      <text x="0.000" y="0.000" font-family="Helvetica" text-anchor="end" font-size="10pt" fill="#000000" ><tspan>0.06</tspan></text>
    </g>
  </g>
  <g transform="translate(146.560,228.469)">
    <g transform="rotate(-0.0)">
      <text x="0.000" y="0.000" font-family="Helvetica" text-anchor="end" font-size="10pt" fill="#000000" ><tspan>0.07</tspan></text>
    </g>
  </g>
  <g transform="translate(146.560,171.338)">
    <g transform="rotate(-0.0)">
      <text x="0.000" y="0.000" font-family="Helvetica" text-anchor="end" font-size="10pt" fill="#000000" ><tspan>0.08</tspan></text>
    </g>
  </g>
  <g transform="translate(146.560,114.207)">
    <g transform="rotate(-0.0)">
      <text x="0.000" y="0.000" font-family="Helvetica" text-anchor="end" font-size="10pt" fill="#000000" ><tspan>0.09</tspan></text>
    </g>
  </g>
  <g transform="translate(146.560,57.075)">
    <g transform="rotate(-0.0)">
      <text x="0.000" y="0.000" font-family="Helvetica" text-anchor="end" font-size="10pt" fill="#000000" ><tspan>0.1</tspan></text>
    </g>
  </g>
      <polyline fill="none" stroke="#000000" stroke-width="0.5pt" stroke-dasharray="none" stroke-opacity="1.00" points="166.40000,623.89000 166.40000,618.17685 "/>
      <polyline fill="none" stroke="#000000" stroke-width="0.5pt" stroke-dasharray="none" stroke-opacity="1.00" points="166.40000,623.89000 166.40000,618.17685 "/>
      <polyline fill="none" stroke="#000000" stroke-width="0.5pt" stroke-dasharray="none" stroke-opacity="1.00" points="166.40000,623.89000 166.40000,618.17685 "/>
      <polyline fill="none" stroke="#000000" stroke-width="0.5pt" stroke-dasharray="none" stroke-opacity="1.00" points="166.40000,623.89000 166.40000,623.89000 "/>
    </g>
  </g>
  </g>
</svg>
