<?xml version="1.0" encoding="utf-8" standalone="no"?><!DOCTYPE svg PUBLIC "-//W3C//DTD SVG 1.1//EN" "http://www.w3.org/Graphics/SVG/1.1/DTD/svg11.dtd">
<svg preserveAspectRatio="xMinYMin meet" width="100%" height="100%" viewBox="0 0 1280.000 701.000"  version="1.1" xmlns="http://www.w3.org/2000/svg" xmlns:xlink="http://www.w3.org/1999/xlink">
  <desc>Matlab Figure Converted by PLOT2SVG written by Juerg Schwizer</desc>
  <g id="topgroup">
  <rect x="0" y="0" width="1280.000" height="701.000" fill="#ffffff" stroke="none" />
  <g id ="ID000000">
  <clipPath id="ID000001">
    <rect x="166.400" y="52.575" width="992.000" height="571.315"/>
  </clipPath>
      <polygon fill="#ffffff" fill-opacity="1.00" stroke="none" stroke-width="0.5pt" stroke-opacity="1.00" stroke-dasharray="none" points="166.400,623.890 1158.400,623.890 1158.400,52.575 166.400,52.575 "/>
      <polygon fill="#ffffff" fill-opacity="1.00" stroke="none" stroke-width="0.5pt" stroke-opacity="1.00" stroke-dasharray="none" points="166.400,52.575 1158.400,52.575 1158.400,52.575 166.400,52.575 "/>
      <polygon fill="#ffffff" fill-opacity="1.00" stroke="none" stroke-width="0.5pt" stroke-opacity="1.00" stroke-dasharray="none" points="166.400,623.890 166.400,623.890 166.400,52.575 166.400,52.575 "/>
    <g>
<g id="ID000002" clip-path="url(#ID000001)" >
      <polyline fill="none" stroke="#0000ff" stroke-width="0.5pt" stroke-dasharray="none" stroke-opacity="1.00" points="169.94286,-61.68800 173.48571,52.57500 177.02857,166.83800 180.57143,195.40375 184.11429,258.24840 187.65714,281.10100 191.20000,330.07086 194.74286,323.94963 198.28571,331.88456 201.82857,361.08510 205.37143,364.20136 208.91429,376.32017 212.45714,395.36400 216.00000,395.36400 219.54286,395.36400 223.08571,409.64688 226.62857,402.08535 230.17143,420.75578 233.71429,431.44705 237.25714,435.35605 240.80000,449.77495 244.34286,447.30173 247.88571,445.04357 251.42857,452.49550 254.97143,459.35128 258.51429,452.49550 262.05714,454.61148 265.60000,460.65714 269.14286,470.22597 272.68571,471.53933 276.22857,476.45387 279.77143,477.49053 283.31429,475.00185 286.85714,476.02024 290.40000,486.77440 293.94286,484.23522 297.48571,478.74511 301.02857,479.55779 304.57143,483.25862 308.11429,478.20468 311.65714,492.90559 315.20000,496.02426 318.74286,496.34060 322.28571,496.64257 325.82857,481.69604 329.37143,494.72313 332.91429,497.47136 336.45714,504.86604 340.00000,497.96751 343.54286,502.77122 347.08571,505.14610 350.62857,509.62700 354.17143,507.47109 357.71429,511.74298 361.25714,501.31696 364.80000,509.62700 368.34286,519.65007 371.88571,515.53716 375.42857,513.50032 378.97143,513.43577 382.51429,511.50016 386.05714,515.15585 389.60000,515.06810 393.14286,520.33916 396.68571,523.69014 400.22857,516.55203 403.77143,521.56493 407.31429,516.34835 410.85714,522.87488 414.40000,524.31796 417.94286,527.32972 421.48571,519.14892 425.02857,526.84471 428.57143,525.06795 432.11429,523.33856 435.65714,530.67545 439.20000,521.49848 442.74286,527.20592 446.28571,529.87614 449.82857,531.05131 453.37143,532.19747 456.91429,530.52877 460.45714,530.27694 464.00000,525.95029 467.54286,537.85668 471.08571,530.88523 474.62857,534.58099 478.17143,531.70053 481.71429,535.30408 485.25714,536.28837 488.80000,535.99538 492.34286,533.22479 495.88571,537.88559 499.42857,535.15384 502.97143,537.29067 506.51429,542.95371 510.05714,537.89826 513.60000,541.10762 517.14286,538.48129 520.68571,541.62064 524.22857,534.51597 527.77143,539.87309 531.31429,542.90749 534.85714,543.68616 538.40000,544.45001 541.94286,546.27740 545.48571,539.52760 549.02857,540.30873 552.57143,541.07553 556.11429,539.75088 559.65714,542.56768 563.20000,538.19275 566.74286,544.00702 570.28571,542.70313 573.82857,545.39629 577.37143,547.05798 580.91429,545.76145 584.45714,548.36022 588.00000,542.27357 591.54286,548.66686 595.08571,542.67828 598.62857,548.96344 602.17143,545.85673 605.71429,548.32898 609.25714,548.01937 612.80000,547.71467 616.34286,549.21418 619.88571,548.01223 623.42857,553.02922 626.97143,547.42168 630.51429,547.13318 634.05714,545.98341 637.60000,551.72389 641.14286,554.82057 644.68571,548.56106 648.22857,549.11495 651.77143,553.83093 655.31429,550.19864 658.85714,551.55083 662.40000,547.17056 665.94286,555.81843 669.48571,555.49313 673.02857,553.57431 676.57143,546.92117 680.11429,553.75616 683.65714,554.23653 687.20000,554.71036 690.74286,555.94984 694.28571,554.10521 697.82857,558.37921 701.37143,557.29964 704.91429,550.97216 708.45714,561.15737 712.00000,552.66112 715.54286,551.64630 719.08571,553.57431 722.62857,554.02218 726.17143,560.97303 729.71429,558.49419 733.25714,558.90292 736.80000,562.14540 740.34286,556.88392 743.88571,557.29500 747.42857,559.09452 750.97143,557.40971 754.51429,556.43353 758.05714,556.15325 761.60000,553.15576 765.14286,560.33543 768.68571,559.36501 772.22857,559.74235 775.77143,564.76554 779.31429,554.53962 782.85714,561.50503 786.40000,550.76168 789.94286,558.31862 793.48571,559.98019 797.02857,564.83272 800.57143,553.67251 804.11429,560.41056 807.65714,555.71097 811.20000,559.85249 814.74286,563.32437 818.28571,560.54855 821.82857,557.18511 825.37143,561.22965 828.91429,567.67505 832.45714,559.46512 836.00000,557.99229 839.54286,564.35296 843.08571,559.87879 846.62857,563.78290 850.17143,558.76601 853.71429,560.27967 857.25714,565.87955 860.80000,561.51173 864.34286,559.50831 867.88571,559.25638 871.42857,568.19396 874.97143,567.32982 878.51429,564.76885 882.05714,564.49587 885.60000,564.22558 889.14286,566.19839 892.68571,563.69291 896.22857,565.64915 899.77143,565.93051 903.31429,565.11048 906.85714,565.93843 910.40000,566.75850 913.94286,567.02927 917.48571,564.06362 921.02857,565.41738 924.57143,569.42820 928.11429,569.68151 931.65714,565.70051 935.20000,562.80932 938.74286,566.75850 942.28571,569.10637 945.82857,567.27788 949.37143,567.01701 952.91429,564.18501 956.45714,564.45274 960.00000,571.85953 963.54286,563.96540 967.08571,565.74732 970.62857,567.01018 974.17143,565.25504 977.71429,571.49867 981.25714,570.73287 984.80000,567.99511 988.34286,568.72855 991.88571,565.04210 995.42857,567.24680 998.97143,568.94651 1002.51429,568.69516 1006.05714,568.44593 1009.60000,570.59927 1013.14286,570.82225 1016.68571,568.66288 1020.22857,566.04732 1023.77143,567.70282 1027.31429,567.93405 1030.85714,569.56825 1034.40000,568.39083 1037.94286,570.93885 1041.48571,573.46625 "/>
</g>
<g id="ID000003" >
  <g transform="translate(128.400,339.233)">
    <g transform="rotate(-90.0)">
      <text x="0.000" y="0.000" font-family="Helvetica" text-anchor="middle" font-size="10pt" fill="#000000" ><tspan>95% confidence interval on prob letter is none</tspan></text>
    </g>
  </g>
</g>
<g id="ID000004" >
  <g transform="translate(661.900,655.902)">
    <g transform="rotate(-0.0)">
      <text x="0.000" y="0.000" font-family="Helvetica" text-anchor="middle" font-size="10pt" fill="#000000" ><tspan>bootstrap sample size</tspan></text>
    </g>
  </g>
</g>
<g id="ID000005" >
</g>
    </g>
    <g>
      <polyline fill="none" stroke="#000000" stroke-width="0.5pt" stroke-dasharray="none" stroke-opacity="1.00" points="166.40000,623.89000 166.40000,613.97000 "/>
      <polyline fill="none" stroke="#000000" stroke-width="0.5pt" stroke-dasharray="none" stroke-opacity="1.00" points="308.11429,623.89000 308.11429,613.97000 "/>
      <polyline fill="none" stroke="#000000" stroke-width="0.5pt" stroke-dasharray="none" stroke-opacity="1.00" points="449.82857,623.89000 449.82857,613.97000 "/>
      <polyline fill="none" stroke="#000000" stroke-width="0.5pt" stroke-dasharray="none" stroke-opacity="1.00" points="591.54286,623.89000 591.54286,613.97000 "/>
      <polyline fill="none" stroke="#000000" stroke-width="0.5pt" stroke-dasharray="none" stroke-opacity="1.00" points="733.25714,623.89000 733.25714,613.97000 "/>
      <polyline fill="none" stroke="#000000" stroke-width="0.5pt" stroke-dasharray="none" stroke-opacity="1.00" points="874.97143,623.89000 874.97143,613.97000 "/>
      <polyline fill="none" stroke="#000000" stroke-width="0.5pt" stroke-dasharray="none" stroke-opacity="1.00" points="1016.68571,623.89000 1016.68571,613.97000 "/>
      <polyline fill="none" stroke="#000000" stroke-width="0.5pt" stroke-dasharray="none" stroke-opacity="1.00" points="1158.40000,623.89000 1158.40000,613.97000 "/>
      <polyline fill="none" stroke="#000000" stroke-width="0.5pt" stroke-dasharray="none" stroke-opacity="1.00" points="166.40000,623.89000 1158.40000,623.89000 "/>
  <g transform="translate(166.400,647.116)">
    <g transform="rotate(-0.0)">
      <text x="0.000" y="0.000" font-family="Helvetica" text-anchor="middle" font-size="10pt" fill="#000000" ><tspan>0</tspan></text>
    </g>
  </g>
  <g transform="translate(308.114,647.116)">
    <g transform="rotate(-0.0)">
      <text x="0.000" y="0.000" font-family="Helvetica" text-anchor="middle" font-size="10pt" fill="#000000" ><tspan>1000</tspan></text>
    </g>
  </g>
  <g transform="translate(449.829,647.116)">
    <g transform="rotate(-0.0)">
      <text x="0.000" y="0.000" font-family="Helvetica" text-anchor="middle" font-size="10pt" fill="#000000" ><tspan>2000</tspan></text>
    </g>
  </g>
  <g transform="translate(591.543,647.116)">
    <g transform="rotate(-0.0)">
      <text x="0.000" y="0.000" font-family="Helvetica" text-anchor="middle" font-size="10pt" fill="#000000" ><tspan>3000</tspan></text>
    </g>
  </g>
  <g transform="translate(733.257,647.116)">
    <g transform="rotate(-0.0)">
      <text x="0.000" y="0.000" font-family="Helvetica" text-anchor="middle" font-size="10pt" fill="#000000" ><tspan>4000</tspan></text>
    </g>
  </g>
  <g transform="translate(874.971,647.116)">
    <g transform="rotate(-0.0)">
      <text x="0.000" y="0.000" font-family="Helvetica" text-anchor="middle" font-size="10pt" fill="#000000" ><tspan>5000</tspan></text>
    </g>
  </g>
  <g transform="translate(1016.686,647.116)">
    <g transform="rotate(-0.0)">
      <text x="0.000" y="0.000" font-family="Helvetica" text-anchor="middle" font-size="10pt" fill="#000000" ><tspan>6000</tspan></text>
    </g>
  </g>
  <g transform="translate(1158.400,647.116)">
    <g transform="rotate(-0.0)">
      <text x="0.000" y="0.000" font-family="Helvetica" text-anchor="middle" font-size="10pt" fill="#000000" ><tspan>7000</tspan></text>
    </g>
  </g>
      <polyline fill="none" stroke="#000000" stroke-width="0.5pt" stroke-dasharray="none" stroke-opacity="1.00" points="166.40000,623.89000 176.32000,623.89000 "/>
      <polyline fill="none" stroke="#000000" stroke-width="0.5pt" stroke-dasharray="none" stroke-opacity="1.00" points="166.40000,566.75850 176.32000,566.75850 "/>
      <polyline fill="none" stroke="#000000" stroke-width="0.5pt" stroke-dasharray="none" stroke-opacity="1.00" points="166.40000,509.62700 176.32000,509.62700 "/>
      <polyline fill="none" stroke="#000000" stroke-width="0.5pt" stroke-dasharray="none" stroke-opacity="1.00" points="166.40000,452.49550 176.32000,452.49550 "/>
      <polyline fill="none" stroke="#000000" stroke-width="0.5pt" stroke-dasharray="none" stroke-opacity="1.00" points="166.40000,395.36400 176.32000,395.36400 "/>
      <polyline fill="none" stroke="#000000" stroke-width="0.5pt" stroke-dasharray="none" stroke-opacity="1.00" points="166.40000,338.23250 176.32000,338.23250 "/>
      <polyline fill="none" stroke="#000000" stroke-width="0.5pt" stroke-dasharray="none" stroke-opacity="1.00" points="166.40000,281.10100 176.32000,281.10100 "/>
      <polyline fill="none" stroke="#000000" stroke-width="0.5pt" stroke-dasharray="none" stroke-opacity="1.00" points="166.40000,223.96950 176.32000,223.96950 "/>
      <polyline fill="none" stroke="#000000" stroke-width="0.5pt" stroke-dasharray="none" stroke-opacity="1.00" points="166.40000,166.83800 176.32000,166.83800 "/>
      <polyline fill="none" stroke="#000000" stroke-width="0.5pt" stroke-dasharray="none" stroke-opacity="1.00" points="166.40000,109.70650 176.32000,109.70650 "/>
      <polyline fill="none" stroke="#000000" stroke-width="0.5pt" stroke-dasharray="none" stroke-opacity="1.00" points="166.40000,52.57500 176.32000,52.57500 "/>
      <polyline fill="none" stroke="#000000" stroke-width="0.5pt" stroke-dasharray="none" stroke-opacity="1.00" points="166.40000,623.89000 166.40000,52.57500 "/>
  <g transform="translate(146.560,628.390)">
    <g transform="rotate(-0.0)">
      <text x="0.000" y="0.000" font-family="Helvetica" text-anchor="end" font-size="10pt" fill="#000000" ><tspan>0</tspan></text>
    </g>
  </g>
  <g transform="translate(146.560,571.259)">
    <g transform="rotate(-0.0)">
      <text x="0.000" y="0.000" font-family="Helvetica" text-anchor="end" font-size="10pt" fill="#000000" ><tspan>0.01</tspan></text>
    </g>
  </g>
  <g transform="translate(146.560,514.127)">
    <g transform="rotate(-0.0)">
      <text x="0.000" y="0.000" font-family="Helvetica" text-anchor="end" font-size="10pt" fill="#000000" ><tspan>0.02</tspan></text>
    </g>
  </g>
  <g transform="translate(146.560,456.995)">
    <g transform="rotate(-0.0)">
      <text x="0.000" y="0.000" font-family="Helvetica" text-anchor="end" font-size="10pt" fill="#000000" ><tspan>0.03</tspan></text>
    </g>
  </g>
  <g transform="translate(146.560,399.864)">
    <g transform="rotate(-0.0)">
      <text x="0.000" y="0.000" font-family="Helvetica" text-anchor="end" font-size="10pt" fill="#000000" ><tspan>0.04</tspan></text>
    </g>
  </g>
  <g transform="translate(146.560,342.733)">
    <g transform="rotate(-0.0)">
      <text x="0.000" y="0.000" font-family="Helvetica" text-anchor="end" font-size="10pt" fill="#000000" ><tspan>0.05</tspan></text>
    </g>
  </g>
  <g transform="translate(146.560,285.601)">
    <g transform="rotate(-0.0)">
      <text x="0.000" y="0.000" font-family="Helvetica" text-anchor="end" font-size="10pt" fill="#000000" ><tspan>0.06</tspan></text>
    </g>
  </g>
  <g transform="translate(146.560,228.469)">
    <g transform="rotate(-0.0)">
      <text x="0.000" y="0.000" font-family="Helvetica" text-anchor="end" font-size="10pt" fill="#000000" ><tspan>0.07</tspan></text>
    </g>
  </g>
  <g transform="translate(146.560,171.338)">
    <g transform="rotate(-0.0)">
      <text x="0.000" y="0.000" font-family="Helvetica" text-anchor="end" font-size="10pt" fill="#000000" ><tspan>0.08</tspan></text>
    </g>
  </g>
  <g transform="translate(146.560,114.207)">
    <g transform="rotate(-0.0)">
      <text x="0.000" y="0.000" font-family="Helvetica" text-anchor="end" font-size="10pt" fill="#000000" ><tspan>0.09</tspan></text>
    </g>
  </g>
  <g transform="translate(146.560,57.075)">
    <g transform="rotate(-0.0)">
      <text x="0.000" y="0.000" font-family="Helvetica" text-anchor="end" font-size="10pt" fill="#000000" ><tspan>0.1</tspan></text>
    </g>
  </g>
      <polyline fill="none" stroke="#000000" stroke-width="0.5pt" stroke-dasharray="none" stroke-opacity="1.00" points="166.40000,623.89000 166.40000,618.17685 "/>
      <polyline fill="none" stroke="#000000" stroke-width="0.5pt" stroke-dasharray="none" stroke-opacity="1.00" points="166.40000,623.89000 166.40000,618.17685 "/>
      <polyline fill="none" stroke="#000000" stroke-width="0.5pt" stroke-dasharray="none" stroke-opacity="1.00" points="166.40000,623.89000 166.40000,618.17685 "/>
      <polyline fill="none" stroke="#000000" stroke-width="0.5pt" stroke-dasharray="none" stroke-opacity="1.00" points="166.40000,623.89000 166.40000,623.89000 "/>
    </g>
  </g>
  </g>
</svg>
