<?xml version="1.0" encoding="utf-8" standalone="no"?><!DOCTYPE svg PUBLIC "-//W3C//DTD SVG 1.1//EN" "http://www.w3.org/Graphics/SVG/1.1/DTD/svg11.dtd">
<svg preserveAspectRatio="xMinYMin meet" width="100%" height="100%" viewBox="0 0 1280.000 701.000"  version="1.1" xmlns="http://www.w3.org/2000/svg" xmlns:xlink="http://www.w3.org/1999/xlink">
  <desc>Matlab Figure Converted by PLOT2SVG written by Juerg Schwizer</desc>
  <g id="topgroup">
  <rect x="0" y="0" width="1280.000" height="701.000" fill="#ffffff" stroke="none" />
  <g id ="ID000000">
  <clipPath id="ID000001">
    <rect x="166.400" y="52.575" width="992.000" height="571.315"/>
  </clipPath>
      <polygon fill="#ffffff" fill-opacity="1.00" stroke="none" stroke-width="0.5pt" stroke-opacity="1.00" stroke-dasharray="none" points="166.400,623.890 1158.400,623.890 1158.400,52.575 166.400,52.575 "/>
      <polygon fill="#ffffff" fill-opacity="1.00" stroke="none" stroke-width="0.5pt" stroke-opacity="1.00" stroke-dasharray="none" points="166.400,52.575 1158.400,52.575 1158.400,52.575 166.400,52.575 "/>
      <polygon fill="#ffffff" fill-opacity="1.00" stroke="none" stroke-width="0.5pt" stroke-opacity="1.00" stroke-dasharray="none" points="166.400,623.890 166.400,623.890 166.400,52.575 166.400,52.575 "/>
    <g>
<g id="ID000002" clip-path="url(#ID000001)" >
<g id="ID000003" clip-path="url(#ID000001)" >
<g>
<circle cx="199.467" cy="513.890" r="5.000" fill="#00ff00" stroke="#000000" stroke-width="0.5pt" />
</g>
</g>
<g id="ID000004" clip-path="url(#ID000001)" >
<g>
<circle cx="232.533" cy="507.295" r="5.000" fill="#00ff00" stroke="#000000" stroke-width="0.5pt" />
</g>
</g>
<g id="ID000005" clip-path="url(#ID000001)" >
<g>
<circle cx="265.600" cy="499.645" r="5.000" fill="#00ff00" stroke="#000000" stroke-width="0.5pt" />
</g>
</g>
<g id="ID000006" clip-path="url(#ID000001)" >
<g>
<circle cx="298.667" cy="393.866" r="5.000" fill="#00ff00" stroke="#000000" stroke-width="0.5pt" />
</g>
</g>
<g id="ID000007" clip-path="url(#ID000001)" >
<g>
<circle cx="331.733" cy="211.851" r="5.000" fill="#00ff00" stroke="#000000" stroke-width="0.5pt" />
</g>
</g>
<g id="ID000008" clip-path="url(#ID000001)" >
<g>
<circle cx="364.800" cy="224.777" r="5.000" fill="#00ff00" stroke="#000000" stroke-width="0.5pt" />
</g>
</g>
<g id="ID000009" clip-path="url(#ID000001)" >
<g>
<circle cx="397.867" cy="82.067" r="5.000" fill="#00ff00" stroke="#000000" stroke-width="0.5pt" />
</g>
</g>
<g id="ID000010" clip-path="url(#ID000001)" >
<g>
<circle cx="430.933" cy="448.206" r="5.000" fill="#00ff00" stroke="#000000" stroke-width="0.5pt" />
</g>
</g>
<g id="ID000011" clip-path="url(#ID000001)" >
<g>
<circle cx="464.000" cy="571.923" r="5.000" fill="#00ff00" stroke="#000000" stroke-width="0.5pt" />
</g>
</g>
<g id="ID000012" clip-path="url(#ID000001)" >
<g>
<circle cx="497.067" cy="440.820" r="5.000" fill="#00ff00" stroke="#000000" stroke-width="0.5pt" />
</g>
</g>
<g id="ID000013" clip-path="url(#ID000001)" >
<g>
<circle cx="530.133" cy="481.444" r="5.000" fill="#00ff00" stroke="#000000" stroke-width="0.5pt" />
</g>
</g>
<g id="ID000014" clip-path="url(#ID000001)" >
<g>
<circle cx="563.200" cy="435.017" r="5.000" fill="#00ff00" stroke="#000000" stroke-width="0.5pt" />
</g>
</g>
<g id="ID000015" clip-path="url(#ID000001)" >
<g>
<circle cx="596.267" cy="479.333" r="5.000" fill="#00ff00" stroke="#000000" stroke-width="0.5pt" />
</g>
</g>
<g id="ID000016" clip-path="url(#ID000001)" >
<g>
<circle cx="629.333" cy="419.189" r="5.000" fill="#00ff00" stroke="#000000" stroke-width="0.5pt" />
</g>
</g>
<g id="ID000017" clip-path="url(#ID000001)" >
<g>
<circle cx="662.400" cy="603.051" r="5.000" fill="#00ff00" stroke="#000000" stroke-width="0.5pt" />
</g>
</g>
<g id="ID000018" clip-path="url(#ID000001)" >
<g>
<circle cx="695.467" cy="451.899" r="5.000" fill="#00ff00" stroke="#000000" stroke-width="0.5pt" />
</g>
</g>
<g id="ID000019" clip-path="url(#ID000001)" >
<g>
<circle cx="728.533" cy="518.110" r="5.000" fill="#00ff00" stroke="#000000" stroke-width="0.5pt" />
</g>
</g>
<g id="ID000020" clip-path="url(#ID000001)" >
<g>
<circle cx="761.600" cy="459.813" r="5.000" fill="#00ff00" stroke="#000000" stroke-width="0.5pt" />
</g>
</g>
<g id="ID000021" clip-path="url(#ID000001)" >
<g>
<circle cx="794.667" cy="454.801" r="5.000" fill="#00ff00" stroke="#000000" stroke-width="0.5pt" />
</g>
</g>
<g id="ID000022" clip-path="url(#ID000001)" >
<g>
<circle cx="827.733" cy="301.276" r="5.000" fill="#00ff00" stroke="#000000" stroke-width="0.5pt" />
</g>
</g>
<g id="ID000023" clip-path="url(#ID000001)" >
<g>
<circle cx="860.800" cy="533.146" r="5.000" fill="#00ff00" stroke="#000000" stroke-width="0.5pt" />
</g>
</g>
<g id="ID000024" clip-path="url(#ID000001)" >
<g>
<circle cx="893.867" cy="410.221" r="5.000" fill="#00ff00" stroke="#000000" stroke-width="0.5pt" />
</g>
</g>
<g id="ID000025" clip-path="url(#ID000001)" >
<g>
<circle cx="926.933" cy="459.285" r="5.000" fill="#00ff00" stroke="#000000" stroke-width="0.5pt" />
</g>
</g>
<g id="ID000026" clip-path="url(#ID000001)" >
<g>
<circle cx="960.000" cy="571.660" r="5.000" fill="#00ff00" stroke="#000000" stroke-width="0.5pt" />
</g>
</g>
<g id="ID000027" clip-path="url(#ID000001)" >
<g>
<circle cx="993.067" cy="539.214" r="5.000" fill="#00ff00" stroke="#000000" stroke-width="0.5pt" />
</g>
</g>
<g id="ID000028" clip-path="url(#ID000001)" >
<g>
<circle cx="1026.133" cy="486.720" r="5.000" fill="#00ff00" stroke="#000000" stroke-width="0.5pt" />
</g>
</g>
</g><g id="ID000029" >
  <g transform="translate(207.733,522.890)">
    <g transform="rotate(-0.0)">
      <text x="0.000" y="0.000" font-family="Helvetica" text-anchor="start" font-size="20pt" font-weight="bold" fill="#000000" ><tspan>A</tspan></text>
    </g>
  </g>
</g>
<g id="ID000030" >
  <g transform="translate(240.800,516.295)">
    <g transform="rotate(-0.0)">
      <text x="0.000" y="0.000" font-family="Helvetica" text-anchor="start" font-size="20pt" font-weight="bold" fill="#000000" ><tspan>B</tspan></text>
    </g>
  </g>
</g>
<g id="ID000031" >
  <g transform="translate(273.867,508.645)">
    <g transform="rotate(-0.0)">
      <text x="0.000" y="0.000" font-family="Helvetica" text-anchor="start" font-size="20pt" font-weight="bold" fill="#000000" ><tspan>C</tspan></text>
    </g>
  </g>
</g>
<g id="ID000032" >
  <g transform="translate(306.933,402.866)">
    <g transform="rotate(-0.0)">
      <text x="0.000" y="0.000" font-family="Helvetica" text-anchor="start" font-size="20pt" font-weight="bold" fill="#000000" ><tspan>D</tspan></text>
    </g>
  </g>
</g>
<g id="ID000033" >
  <g transform="translate(340.000,220.851)">
    <g transform="rotate(-0.0)">
      <text x="0.000" y="0.000" font-family="Helvetica" text-anchor="start" font-size="20pt" font-weight="bold" fill="#000000" ><tspan>E</tspan></text>
    </g>
  </g>
</g>
<g id="ID000034" >
  <g transform="translate(373.067,233.777)">
    <g transform="rotate(-0.0)">
      <text x="0.000" y="0.000" font-family="Helvetica" text-anchor="start" font-size="20pt" font-weight="bold" fill="#000000" ><tspan>F</tspan></text>
    </g>
  </g>
</g>
<g id="ID000035" >
  <g transform="translate(406.133,91.067)">
    <g transform="rotate(-0.0)">
      <text x="0.000" y="0.000" font-family="Helvetica" text-anchor="start" font-size="20pt" font-weight="bold" fill="#000000" ><tspan>G</tspan></text>
    </g>
  </g>
</g>
<g id="ID000036" >
  <g transform="translate(439.200,457.206)">
    <g transform="rotate(-0.0)">
      <text x="0.000" y="0.000" font-family="Helvetica" text-anchor="start" font-size="20pt" font-weight="bold" fill="#000000" ><tspan>H</tspan></text>
    </g>
  </g>
</g>
<g id="ID000037" >
  <g transform="translate(472.267,580.923)">
    <g transform="rotate(-0.0)">
      <text x="0.000" y="0.000" font-family="Helvetica" text-anchor="start" font-size="20pt" font-weight="bold" fill="#000000" ><tspan>I</tspan></text>
    </g>
  </g>
</g>
<g id="ID000038" >
  <g transform="translate(505.333,449.820)">
    <g transform="rotate(-0.0)">
      <text x="0.000" y="0.000" font-family="Helvetica" text-anchor="start" font-size="20pt" font-weight="bold" fill="#000000" ><tspan>J</tspan></text>
    </g>
  </g>
</g>
<g id="ID000039" >
  <g transform="translate(538.400,490.444)">
    <g transform="rotate(-0.0)">
      <text x="0.000" y="0.000" font-family="Helvetica" text-anchor="start" font-size="20pt" font-weight="bold" fill="#000000" ><tspan>K</tspan></text>
    </g>
  </g>
</g>
<g id="ID000040" >
  <g transform="translate(571.467,444.017)">
    <g transform="rotate(-0.0)">
      <text x="0.000" y="0.000" font-family="Helvetica" text-anchor="start" font-size="20pt" font-weight="bold" fill="#000000" ><tspan>L</tspan></text>
    </g>
  </g>
</g>
<g id="ID000041" >
  <g transform="translate(604.533,488.333)">
    <g transform="rotate(-0.0)">
      <text x="0.000" y="0.000" font-family="Helvetica" text-anchor="start" font-size="20pt" font-weight="bold" fill="#000000" ><tspan>M</tspan></text>
    </g>
  </g>
</g>
<g id="ID000042" >
  <g transform="translate(637.600,428.189)">
    <g transform="rotate(-0.0)">
      <text x="0.000" y="0.000" font-family="Helvetica" text-anchor="start" font-size="20pt" font-weight="bold" fill="#000000" ><tspan>N</tspan></text>
    </g>
  </g>
</g>
<g id="ID000043" >
  <g transform="translate(670.667,612.051)">
    <g transform="rotate(-0.0)">
      <text x="0.000" y="0.000" font-family="Helvetica" text-anchor="start" font-size="20pt" font-weight="bold" fill="#000000" ><tspan>O</tspan></text>
    </g>
  </g>
</g>
<g id="ID000044" >
  <g transform="translate(703.733,460.899)">
    <g transform="rotate(-0.0)">
      <text x="0.000" y="0.000" font-family="Helvetica" text-anchor="start" font-size="20pt" font-weight="bold" fill="#000000" ><tspan>P</tspan></text>
    </g>
  </g>
</g>
<g id="ID000045" >
  <g transform="translate(736.800,527.110)">
    <g transform="rotate(-0.0)">
      <text x="0.000" y="0.000" font-family="Helvetica" text-anchor="start" font-size="20pt" font-weight="bold" fill="#000000" ><tspan>Q</tspan></text>
    </g>
  </g>
</g>
<g id="ID000046" >
  <g transform="translate(769.867,468.813)">
    <g transform="rotate(-0.0)">
      <text x="0.000" y="0.000" font-family="Helvetica" text-anchor="start" font-size="20pt" font-weight="bold" fill="#000000" ><tspan>R</tspan></text>
    </g>
  </g>
</g>
<g id="ID000047" >
  <g transform="translate(802.933,463.801)">
    <g transform="rotate(-0.0)">
      <text x="0.000" y="0.000" font-family="Helvetica" text-anchor="start" font-size="20pt" font-weight="bold" fill="#000000" ><tspan>S</tspan></text>
    </g>
  </g>
</g>
<g id="ID000048" >
  <g transform="translate(836.000,310.276)">
    <g transform="rotate(-0.0)">
      <text x="0.000" y="0.000" font-family="Helvetica" text-anchor="start" font-size="20pt" font-weight="bold" fill="#000000" ><tspan>T</tspan></text>
    </g>
  </g>
</g>
<g id="ID000049" >
  <g transform="translate(869.067,542.146)">
    <g transform="rotate(-0.0)">
      <text x="0.000" y="0.000" font-family="Helvetica" text-anchor="start" font-size="20pt" font-weight="bold" fill="#000000" ><tspan>U</tspan></text>
    </g>
  </g>
</g>
<g id="ID000050" >
  <g transform="translate(902.133,419.221)">
    <g transform="rotate(-0.0)">
      <text x="0.000" y="0.000" font-family="Helvetica" text-anchor="start" font-size="20pt" font-weight="bold" fill="#000000" ><tspan>V</tspan></text>
    </g>
  </g>
</g>
<g id="ID000051" >
  <g transform="translate(935.200,468.285)">
    <g transform="rotate(-0.0)">
      <text x="0.000" y="0.000" font-family="Helvetica" text-anchor="start" font-size="20pt" font-weight="bold" fill="#000000" ><tspan>W</tspan></text>
    </g>
  </g>
</g>
<g id="ID000052" >
  <g transform="translate(968.267,580.660)">
    <g transform="rotate(-0.0)">
      <text x="0.000" y="0.000" font-family="Helvetica" text-anchor="start" font-size="20pt" font-weight="bold" fill="#000000" ><tspan>X</tspan></text>
    </g>
  </g>
</g>
<g id="ID000053" >
  <g transform="translate(1001.333,548.214)">
    <g transform="rotate(-0.0)">
      <text x="0.000" y="0.000" font-family="Helvetica" text-anchor="start" font-size="20pt" font-weight="bold" fill="#000000" ><tspan>Y</tspan></text>
    </g>
  </g>
</g>
<g id="ID000054" >
  <g transform="translate(1034.400,495.720)">
    <g transform="rotate(-0.0)">
      <text x="0.000" y="0.000" font-family="Helvetica" text-anchor="start" font-size="20pt" font-weight="bold" fill="#000000" ><tspan>Z</tspan></text>
    </g>
  </g>
</g>
<g id="ID000055" >
  <g transform="translate(661.900,655.902)">
    <g transform="rotate(-0.0)">
      <text x="0.000" y="0.000" font-family="Helvetica" text-anchor="middle" font-size="10pt" fill="#000000" ><tspan>letters</tspan></text>
    </g>
  </g>
</g>
<g id="ID000056" >
  <g transform="translate(128.400,339.233)">
    <g transform="rotate(-90.0)">
      <text x="0.000" y="0.000" font-family="Helvetica" text-anchor="middle" font-size="10pt" fill="#000000" ><tspan>% of times matched</tspan></text>
    </g>
  </g>
</g>
<g id="ID000057" clip-path="url(#ID000001)" >
      <polyline fill="none" stroke="#000000" stroke-width="0.5pt" stroke-dasharray="8.0,2.0" stroke-opacity="1.00" points="199.46667,384.30838 207.73333,385.46723 216.00000,386.62608 224.26667,387.78493 232.53333,388.94377 240.80000,390.10262 249.06667,391.26147 257.33333,392.42031 265.60000,393.57916 273.86667,394.73801 282.13333,395.89685 290.40000,397.05570 298.66667,398.21455 306.93333,399.37340 315.20000,400.53224 323.46667,401.69109 331.73333,402.84994 340.00000,404.00878 348.26667,405.16763 356.53333,406.32648 364.80000,407.48532 373.06667,408.64417 381.33333,409.80302 389.60000,410.96186 397.86667,412.12071 406.13333,413.27956 414.40000,414.43841 422.66667,415.59725 430.93333,416.75610 439.20000,417.91495 447.46667,419.07379 455.73333,420.23264 464.00000,421.39149 472.26667,422.55033 480.53333,423.70918 488.80000,424.86803 497.06667,426.02688 505.33333,427.18572 513.60000,428.34457 521.86667,429.50342 530.13333,430.66226 538.40000,431.82111 546.66667,432.97996 554.93333,434.13880 563.20000,435.29765 571.46667,436.45650 579.73333,437.61535 588.00000,438.77419 596.26667,439.93304 604.53333,441.09189 612.80000,442.25073 621.06667,443.40958 629.33333,444.56843 637.60000,445.72727 645.86667,446.88612 654.13333,448.04497 662.40000,449.20381 670.66667,450.36266 678.93333,451.52151 687.20000,452.68036 695.46667,453.83920 703.73333,454.99805 712.00000,456.15690 720.26667,457.31574 728.53333,458.47459 736.80000,459.63344 745.06667,460.79228 753.33333,461.95113 761.60000,463.10998 769.86667,464.26883 778.13333,465.42767 786.40000,466.58652 794.66667,467.74537 802.93333,468.90421 811.20000,470.06306 819.46667,471.22191 827.73333,472.38075 836.00000,473.53960 844.26667,474.69845 852.53333,475.85729 860.80000,477.01614 869.06667,478.17499 877.33333,479.33384 885.60000,480.49268 893.86667,481.65153 902.13333,482.81038 910.40000,483.96922 918.66667,485.12807 926.93333,486.28692 935.20000,487.44576 943.46667,488.60461 951.73333,489.76346 960.00000,490.92231 968.26667,492.08115 976.53333,493.24000 984.80000,494.39885 993.06667,495.55769 1001.33333,496.71654 1009.60000,497.87539 1017.86667,499.03423 1026.13333,500.19308 "/>
</g>
<g id="ID000058" >
  <g transform="translate(661.900,44.572)">
    <g transform="rotate(-0.0)">
      <text x="0.000" y="0.000" font-family="Helvetica" text-anchor="middle" font-size="10pt" fill="#000000" ><tspan>r<tspan style="baseline-shift:super;font-size:65%%">2</tspan> = 0.088468 p = 0.22781</tspan></text>
    </g>
  </g>
</g>
    </g>
    <g>
      <polyline fill="none" stroke="#000000" stroke-width="0.5pt" stroke-dasharray="none" stroke-opacity="1.00" points="199.46667,623.89000 199.46667,613.97000 "/>
      <polyline fill="none" stroke="#000000" stroke-width="0.5pt" stroke-dasharray="none" stroke-opacity="1.00" points="232.53333,623.89000 232.53333,613.97000 "/>
      <polyline fill="none" stroke="#000000" stroke-width="0.5pt" stroke-dasharray="none" stroke-opacity="1.00" points="265.60000,623.89000 265.60000,613.97000 "/>
      <polyline fill="none" stroke="#000000" stroke-width="0.5pt" stroke-dasharray="none" stroke-opacity="1.00" points="298.66667,623.89000 298.66667,613.97000 "/>
      <polyline fill="none" stroke="#000000" stroke-width="0.5pt" stroke-dasharray="none" stroke-opacity="1.00" points="331.73333,623.89000 331.73333,613.97000 "/>
      <polyline fill="none" stroke="#000000" stroke-width="0.5pt" stroke-dasharray="none" stroke-opacity="1.00" points="364.80000,623.89000 364.80000,613.97000 "/>
      <polyline fill="none" stroke="#000000" stroke-width="0.5pt" stroke-dasharray="none" stroke-opacity="1.00" points="397.86667,623.89000 397.86667,613.97000 "/>
      <polyline fill="none" stroke="#000000" stroke-width="0.5pt" stroke-dasharray="none" stroke-opacity="1.00" points="430.93333,623.89000 430.93333,613.97000 "/>
      <polyline fill="none" stroke="#000000" stroke-width="0.5pt" stroke-dasharray="none" stroke-opacity="1.00" points="464.00000,623.89000 464.00000,613.97000 "/>
      <polyline fill="none" stroke="#000000" stroke-width="0.5pt" stroke-dasharray="none" stroke-opacity="1.00" points="497.06667,623.89000 497.06667,613.97000 "/>
      <polyline fill="none" stroke="#000000" stroke-width="0.5pt" stroke-dasharray="none" stroke-opacity="1.00" points="530.13333,623.89000 530.13333,613.97000 "/>
      <polyline fill="none" stroke="#000000" stroke-width="0.5pt" stroke-dasharray="none" stroke-opacity="1.00" points="563.20000,623.89000 563.20000,613.97000 "/>
      <polyline fill="none" stroke="#000000" stroke-width="0.5pt" stroke-dasharray="none" stroke-opacity="1.00" points="596.26667,623.89000 596.26667,613.97000 "/>
      <polyline fill="none" stroke="#000000" stroke-width="0.5pt" stroke-dasharray="none" stroke-opacity="1.00" points="629.33333,623.89000 629.33333,613.97000 "/>
      <polyline fill="none" stroke="#000000" stroke-width="0.5pt" stroke-dasharray="none" stroke-opacity="1.00" points="662.40000,623.89000 662.40000,613.97000 "/>
      <polyline fill="none" stroke="#000000" stroke-width="0.5pt" stroke-dasharray="none" stroke-opacity="1.00" points="695.46667,623.89000 695.46667,613.97000 "/>
      <polyline fill="none" stroke="#000000" stroke-width="0.5pt" stroke-dasharray="none" stroke-opacity="1.00" points="728.53333,623.89000 728.53333,613.97000 "/>
      <polyline fill="none" stroke="#000000" stroke-width="0.5pt" stroke-dasharray="none" stroke-opacity="1.00" points="761.60000,623.89000 761.60000,613.97000 "/>
      <polyline fill="none" stroke="#000000" stroke-width="0.5pt" stroke-dasharray="none" stroke-opacity="1.00" points="794.66667,623.89000 794.66667,613.97000 "/>
      <polyline fill="none" stroke="#000000" stroke-width="0.5pt" stroke-dasharray="none" stroke-opacity="1.00" points="827.73333,623.89000 827.73333,613.97000 "/>
      <polyline fill="none" stroke="#000000" stroke-width="0.5pt" stroke-dasharray="none" stroke-opacity="1.00" points="860.80000,623.89000 860.80000,613.97000 "/>
      <polyline fill="none" stroke="#000000" stroke-width="0.5pt" stroke-dasharray="none" stroke-opacity="1.00" points="893.86667,623.89000 893.86667,613.97000 "/>
      <polyline fill="none" stroke="#000000" stroke-width="0.5pt" stroke-dasharray="none" stroke-opacity="1.00" points="926.93333,623.89000 926.93333,613.97000 "/>
      <polyline fill="none" stroke="#000000" stroke-width="0.5pt" stroke-dasharray="none" stroke-opacity="1.00" points="960.00000,623.89000 960.00000,613.97000 "/>
      <polyline fill="none" stroke="#000000" stroke-width="0.5pt" stroke-dasharray="none" stroke-opacity="1.00" points="993.06667,623.89000 993.06667,613.97000 "/>
      <polyline fill="none" stroke="#000000" stroke-width="0.5pt" stroke-dasharray="none" stroke-opacity="1.00" points="1026.13333,623.89000 1026.13333,613.97000 "/>
      <polyline fill="none" stroke="#000000" stroke-width="0.5pt" stroke-dasharray="none" stroke-opacity="1.00" points="166.40000,623.89000 1158.40000,623.89000 "/>
  <g transform="translate(199.467,647.116)">
    <g transform="rotate(-0.0)">
      <text x="0.000" y="0.000" font-family="Helvetica" text-anchor="middle" font-size="10pt" fill="#000000" ><tspan>A</tspan></text>
    </g>
  </g>
  <g transform="translate(232.533,647.116)">
    <g transform="rotate(-0.0)">
      <text x="0.000" y="0.000" font-family="Helvetica" text-anchor="middle" font-size="10pt" fill="#000000" ><tspan>B</tspan></text>
    </g>
  </g>
  <g transform="translate(265.600,647.116)">
    <g transform="rotate(-0.0)">
      <text x="0.000" y="0.000" font-family="Helvetica" text-anchor="middle" font-size="10pt" fill="#000000" ><tspan>C</tspan></text>
    </g>
  </g>
  <g transform="translate(298.667,647.116)">
    <g transform="rotate(-0.0)">
      <text x="0.000" y="0.000" font-family="Helvetica" text-anchor="middle" font-size="10pt" fill="#000000" ><tspan>D</tspan></text>
    </g>
  </g>
  <g transform="translate(331.733,647.116)">
    <g transform="rotate(-0.0)">
      <text x="0.000" y="0.000" font-family="Helvetica" text-anchor="middle" font-size="10pt" fill="#000000" ><tspan>E</tspan></text>
    </g>
  </g>
  <g transform="translate(364.800,647.116)">
    <g transform="rotate(-0.0)">
      <text x="0.000" y="0.000" font-family="Helvetica" text-anchor="middle" font-size="10pt" fill="#000000" ><tspan>F</tspan></text>
    </g>
  </g>
  <g transform="translate(397.867,647.116)">
    <g transform="rotate(-0.0)">
      <text x="0.000" y="0.000" font-family="Helvetica" text-anchor="middle" font-size="10pt" fill="#000000" ><tspan>G</tspan></text>
    </g>
  </g>
  <g transform="translate(430.933,647.116)">
    <g transform="rotate(-0.0)">
      <text x="0.000" y="0.000" font-family="Helvetica" text-anchor="middle" font-size="10pt" fill="#000000" ><tspan>H</tspan></text>
    </g>
  </g>
  <g transform="translate(464.000,647.116)">
    <g transform="rotate(-0.0)">
      <text x="0.000" y="0.000" font-family="Helvetica" text-anchor="middle" font-size="10pt" fill="#000000" ><tspan>I</tspan></text>
    </g>
  </g>
  <g transform="translate(497.067,647.116)">
    <g transform="rotate(-0.0)">
      <text x="0.000" y="0.000" font-family="Helvetica" text-anchor="middle" font-size="10pt" fill="#000000" ><tspan>J</tspan></text>
    </g>
  </g>
  <g transform="translate(530.133,647.116)">
    <g transform="rotate(-0.0)">
      <text x="0.000" y="0.000" font-family="Helvetica" text-anchor="middle" font-size="10pt" fill="#000000" ><tspan>K</tspan></text>
    </g>
  </g>
  <g transform="translate(563.200,647.116)">
    <g transform="rotate(-0.0)">
      <text x="0.000" y="0.000" font-family="Helvetica" text-anchor="middle" font-size="10pt" fill="#000000" ><tspan>L</tspan></text>
    </g>
  </g>
  <g transform="translate(596.267,647.116)">
    <g transform="rotate(-0.0)">
      <text x="0.000" y="0.000" font-family="Helvetica" text-anchor="middle" font-size="10pt" fill="#000000" ><tspan>M</tspan></text>
    </g>
  </g>
  <g transform="translate(629.333,647.116)">
    <g transform="rotate(-0.0)">
      <text x="0.000" y="0.000" font-family="Helvetica" text-anchor="middle" font-size="10pt" fill="#000000" ><tspan>N</tspan></text>
    </g>
  </g>
  <g transform="translate(662.400,647.116)">
    <g transform="rotate(-0.0)">
      <text x="0.000" y="0.000" font-family="Helvetica" text-anchor="middle" font-size="10pt" fill="#000000" ><tspan>O</tspan></text>
    </g>
  </g>
  <g transform="translate(695.467,647.116)">
    <g transform="rotate(-0.0)">
      <text x="0.000" y="0.000" font-family="Helvetica" text-anchor="middle" font-size="10pt" fill="#000000" ><tspan>P</tspan></text>
    </g>
  </g>
  <g transform="translate(728.533,647.116)">
    <g transform="rotate(-0.0)">
      <text x="0.000" y="0.000" font-family="Helvetica" text-anchor="middle" font-size="10pt" fill="#000000" ><tspan>Q</tspan></text>
    </g>
  </g>
  <g transform="translate(761.600,647.116)">
    <g transform="rotate(-0.0)">
      <text x="0.000" y="0.000" font-family="Helvetica" text-anchor="middle" font-size="10pt" fill="#000000" ><tspan>R</tspan></text>
    </g>
  </g>
  <g transform="translate(794.667,647.116)">
    <g transform="rotate(-0.0)">
      <text x="0.000" y="0.000" font-family="Helvetica" text-anchor="middle" font-size="10pt" fill="#000000" ><tspan>S</tspan></text>
    </g>
  </g>
  <g transform="translate(827.733,647.116)">
    <g transform="rotate(-0.0)">
      <text x="0.000" y="0.000" font-family="Helvetica" text-anchor="middle" font-size="10pt" fill="#000000" ><tspan>T</tspan></text>
    </g>
  </g>
  <g transform="translate(860.800,647.116)">
    <g transform="rotate(-0.0)">
      <text x="0.000" y="0.000" font-family="Helvetica" text-anchor="middle" font-size="10pt" fill="#000000" ><tspan>U</tspan></text>
    </g>
  </g>
  <g transform="translate(893.867,647.116)">
    <g transform="rotate(-0.0)">
      <text x="0.000" y="0.000" font-family="Helvetica" text-anchor="middle" font-size="10pt" fill="#000000" ><tspan>V</tspan></text>
    </g>
  </g>
  <g transform="translate(926.933,647.116)">
    <g transform="rotate(-0.0)">
      <text x="0.000" y="0.000" font-family="Helvetica" text-anchor="middle" font-size="10pt" fill="#000000" ><tspan>W</tspan></text>
    </g>
  </g>
  <g transform="translate(960.000,647.116)">
    <g transform="rotate(-0.0)">
      <text x="0.000" y="0.000" font-family="Helvetica" text-anchor="middle" font-size="10pt" fill="#000000" ><tspan>X</tspan></text>
    </g>
  </g>
  <g transform="translate(993.067,647.116)">
    <g transform="rotate(-0.0)">
      <text x="0.000" y="0.000" font-family="Helvetica" text-anchor="middle" font-size="10pt" fill="#000000" ><tspan>Y</tspan></text>
    </g>
  </g>
  <g transform="translate(1026.133,647.116)">
    <g transform="rotate(-0.0)">
      <text x="0.000" y="0.000" font-family="Helvetica" text-anchor="middle" font-size="10pt" fill="#000000" ><tspan>Z</tspan></text>
    </g>
  </g>
      <polyline fill="none" stroke="#000000" stroke-width="0.5pt" stroke-dasharray="none" stroke-opacity="1.00" points="166.40000,623.89000 176.32000,623.89000 "/>
      <polyline fill="none" stroke="#000000" stroke-width="0.5pt" stroke-dasharray="none" stroke-opacity="1.00" points="166.40000,542.27357 176.32000,542.27357 "/>
      <polyline fill="none" stroke="#000000" stroke-width="0.5pt" stroke-dasharray="none" stroke-opacity="1.00" points="166.40000,460.65714 176.32000,460.65714 "/>
      <polyline fill="none" stroke="#000000" stroke-width="0.5pt" stroke-dasharray="none" stroke-opacity="1.00" points="166.40000,379.04071 176.32000,379.04071 "/>
      <polyline fill="none" stroke="#000000" stroke-width="0.5pt" stroke-dasharray="none" stroke-opacity="1.00" points="166.40000,297.42429 176.32000,297.42429 "/>
      <polyline fill="none" stroke="#000000" stroke-width="0.5pt" stroke-dasharray="none" stroke-opacity="1.00" points="166.40000,215.80786 176.32000,215.80786 "/>
      <polyline fill="none" stroke="#000000" stroke-width="0.5pt" stroke-dasharray="none" stroke-opacity="1.00" points="166.40000,134.19143 176.32000,134.19143 "/>
      <polyline fill="none" stroke="#000000" stroke-width="0.5pt" stroke-dasharray="none" stroke-opacity="1.00" points="166.40000,52.57500 176.32000,52.57500 "/>
      <polyline fill="none" stroke="#000000" stroke-width="0.5pt" stroke-dasharray="none" stroke-opacity="1.00" points="166.40000,623.89000 166.40000,52.57500 "/>
  <g transform="translate(146.560,628.390)">
    <g transform="rotate(-0.0)">
      <text x="0.000" y="0.000" font-family="Helvetica" text-anchor="end" font-size="10pt" fill="#000000" ><tspan>0</tspan></text>
    </g>
  </g>
  <g transform="translate(146.560,546.774)">
    <g transform="rotate(-0.0)">
      <text x="0.000" y="0.000" font-family="Helvetica" text-anchor="end" font-size="10pt" fill="#000000" ><tspan>0.05</tspan></text>
    </g>
  </g>
  <g transform="translate(146.560,465.157)">
    <g transform="rotate(-0.0)">
      <text x="0.000" y="0.000" font-family="Helvetica" text-anchor="end" font-size="10pt" fill="#000000" ><tspan>0.1</tspan></text>
    </g>
  </g>
  <g transform="translate(146.560,383.541)">
    <g transform="rotate(-0.0)">
      <text x="0.000" y="0.000" font-family="Helvetica" text-anchor="end" font-size="10pt" fill="#000000" ><tspan>0.15</tspan></text>
    </g>
  </g>
  <g transform="translate(146.560,301.924)">
    <g transform="rotate(-0.0)">
      <text x="0.000" y="0.000" font-family="Helvetica" text-anchor="end" font-size="10pt" fill="#000000" ><tspan>0.2</tspan></text>
    </g>
  </g>
  <g transform="translate(146.560,220.308)">
    <g transform="rotate(-0.0)">
      <text x="0.000" y="0.000" font-family="Helvetica" text-anchor="end" font-size="10pt" fill="#000000" ><tspan>0.25</tspan></text>
    </g>
  </g>
  <g transform="translate(146.560,138.691)">
    <g transform="rotate(-0.0)">
      <text x="0.000" y="0.000" font-family="Helvetica" text-anchor="end" font-size="10pt" fill="#000000" ><tspan>0.3</tspan></text>
    </g>
  </g>
  <g transform="translate(146.560,57.075)">
    <g transform="rotate(-0.0)">
      <text x="0.000" y="0.000" font-family="Helvetica" text-anchor="end" font-size="10pt" fill="#000000" ><tspan>0.35</tspan></text>
    </g>
  </g>
      <polyline fill="none" stroke="#000000" stroke-width="0.5pt" stroke-dasharray="none" stroke-opacity="1.00" points="166.40000,623.89000 166.40000,618.17685 "/>
      <polyline fill="none" stroke="#000000" stroke-width="0.5pt" stroke-dasharray="none" stroke-opacity="1.00" points="166.40000,623.89000 166.40000,618.17685 "/>
      <polyline fill="none" stroke="#000000" stroke-width="0.5pt" stroke-dasharray="none" stroke-opacity="1.00" points="166.40000,623.89000 166.40000,618.17685 "/>
      <polyline fill="none" stroke="#000000" stroke-width="0.5pt" stroke-dasharray="none" stroke-opacity="1.00" points="166.40000,623.89000 166.40000,623.89000 "/>
    </g>
  </g>
  </g>
</svg>
