<?xml version="1.0" encoding="utf-8" standalone="no"?><!DOCTYPE svg PUBLIC "-//W3C//DTD SVG 1.1//EN" "http://www.w3.org/Graphics/SVG/1.1/DTD/svg11.dtd">
<svg preserveAspectRatio="xMinYMin meet" width="100%" height="100%" viewBox="0 0 1280.000 701.000"  version="1.1" xmlns="http://www.w3.org/2000/svg" xmlns:xlink="http://www.w3.org/1999/xlink">
  <desc>Matlab Figure Converted by PLOT2SVG written by Juerg Schwizer</desc>
  <g id="topgroup">
  <rect x="0" y="0" width="1280.000" height="701.000" fill="#ffffff" stroke="none" />
  <g id ="ID000000">
  <clipPath id="ID000001">
    <rect x="166.400" y="52.575" width="992.000" height="571.315"/>
  </clipPath>
      <polygon fill="#ffffff" fill-opacity="1.00" stroke="none" stroke-width="0.5pt" stroke-opacity="1.00" stroke-dasharray="none" points="166.400,623.890 1158.400,623.890 1158.400,52.575 166.400,52.575 "/>
      <polygon fill="#ffffff" fill-opacity="1.00" stroke="none" stroke-width="0.5pt" stroke-opacity="1.00" stroke-dasharray="none" points="166.400,52.575 1158.400,52.575 1158.400,52.575 166.400,52.575 "/>
      <polygon fill="#ffffff" fill-opacity="1.00" stroke="none" stroke-width="0.5pt" stroke-opacity="1.00" stroke-dasharray="none" points="166.400,623.890 166.400,623.890 166.400,52.575 166.400,52.575 "/>
    <g>
<g id="ID000002" clip-path="url(#ID000001)" >
<g id="ID000003" clip-path="url(#ID000001)" >
<g>
<circle cx="199.467" cy="507.823" r="5.000" fill="#ff33ff" stroke="#000000" stroke-width="0.5pt" />
</g>
</g>
<g id="ID000004" clip-path="url(#ID000001)" >
<g>
<circle cx="232.533" cy="582.343" r="5.000" fill="#ff33ff" stroke="#000000" stroke-width="0.5pt" />
</g>
</g>
<g id="ID000005" clip-path="url(#ID000001)" >
<g>
<circle cx="265.600" cy="462.319" r="5.000" fill="#ff33ff" stroke="#000000" stroke-width="0.5pt" />
</g>
</g>
<g id="ID000006" clip-path="url(#ID000001)" >
<g>
<circle cx="298.667" cy="600.808" r="5.000" fill="#ff33ff" stroke="#000000" stroke-width="0.5pt" />
</g>
</g>
<g id="ID000007" clip-path="url(#ID000001)" >
<g>
<circle cx="331.733" cy="561.240" r="5.000" fill="#ff33ff" stroke="#000000" stroke-width="0.5pt" />
</g>
</g>
<g id="ID000008" clip-path="url(#ID000001)" >
<g>
<circle cx="364.800" cy="449.130" r="5.000" fill="#ff33ff" stroke="#000000" stroke-width="0.5pt" />
</g>
</g>
<g id="ID000009" clip-path="url(#ID000001)" >
<g>
<circle cx="397.867" cy="426.707" r="5.000" fill="#ff33ff" stroke="#000000" stroke-width="0.5pt" />
</g>
</g>
<g id="ID000010" clip-path="url(#ID000001)" >
<g>
<circle cx="430.933" cy="499.909" r="5.000" fill="#ff33ff" stroke="#000000" stroke-width="0.5pt" />
</g>
</g>
<g id="ID000011" clip-path="url(#ID000001)" >
<g>
<circle cx="464.000" cy="485.401" r="5.000" fill="#ff33ff" stroke="#000000" stroke-width="0.5pt" />
</g>
</g>
<g id="ID000012" clip-path="url(#ID000001)" >
<g>
<circle cx="497.067" cy="567.835" r="5.000" fill="#ff33ff" stroke="#000000" stroke-width="0.5pt" />
</g>
</g>
<g id="ID000013" clip-path="url(#ID000001)" >
<g>
<circle cx="530.133" cy="502.547" r="5.000" fill="#ff33ff" stroke="#000000" stroke-width="0.5pt" />
</g>
</g>
<g id="ID000014" clip-path="url(#ID000001)" >
<g>
<circle cx="563.200" cy="474.190" r="5.000" fill="#ff33ff" stroke="#000000" stroke-width="0.5pt" />
</g>
</g>
<g id="ID000015" clip-path="url(#ID000001)" >
<g>
<circle cx="596.267" cy="456.384" r="5.000" fill="#ff33ff" stroke="#000000" stroke-width="0.5pt" />
</g>
</g>
<g id="ID000016" clip-path="url(#ID000001)" >
<g>
<circle cx="629.333" cy="337.019" r="5.000" fill="#ff33ff" stroke="#000000" stroke-width="0.5pt" />
</g>
</g>
<g id="ID000017" clip-path="url(#ID000001)" >
<g>
<circle cx="662.400" cy="491.336" r="5.000" fill="#ff33ff" stroke="#000000" stroke-width="0.5pt" />
</g>
</g>
<g id="ID000018" clip-path="url(#ID000001)" >
<g>
<circle cx="695.467" cy="521.012" r="5.000" fill="#ff33ff" stroke="#000000" stroke-width="0.5pt" />
</g>
</g>
<g id="ID000019" clip-path="url(#ID000001)" >
<g>
<circle cx="728.533" cy="547.391" r="5.000" fill="#ff33ff" stroke="#000000" stroke-width="0.5pt" />
</g>
</g>
<g id="ID000020" clip-path="url(#ID000001)" >
<g>
<circle cx="761.600" cy="481.444" r="5.000" fill="#ff33ff" stroke="#000000" stroke-width="0.5pt" />
</g>
</g>
<g id="ID000021" clip-path="url(#ID000001)" >
<g>
<circle cx="794.667" cy="93.673" r="5.000" fill="#ff33ff" stroke="#000000" stroke-width="0.5pt" />
</g>
</g>
<g id="ID000022" clip-path="url(#ID000001)" >
<g>
<circle cx="827.733" cy="499.250" r="5.000" fill="#ff33ff" stroke="#000000" stroke-width="0.5pt" />
</g>
</g>
<g id="ID000023" clip-path="url(#ID000001)" >
<g>
<circle cx="860.800" cy="418.794" r="5.000" fill="#ff33ff" stroke="#000000" stroke-width="0.5pt" />
</g>
</g>
<g id="ID000024" clip-path="url(#ID000001)" >
<g>
<circle cx="893.867" cy="249.969" r="5.000" fill="#ff33ff" stroke="#000000" stroke-width="0.5pt" />
</g>
</g>
<g id="ID000025" clip-path="url(#ID000001)" >
<g>
<circle cx="926.933" cy="378.566" r="5.000" fill="#ff33ff" stroke="#000000" stroke-width="0.5pt" />
</g>
</g>
<g id="ID000026" clip-path="url(#ID000001)" >
<g>
<circle cx="960.000" cy="571.792" r="5.000" fill="#ff33ff" stroke="#000000" stroke-width="0.5pt" />
</g>
</g>
<g id="ID000027" clip-path="url(#ID000001)" >
<g>
<circle cx="993.067" cy="430.005" r="5.000" fill="#ff33ff" stroke="#000000" stroke-width="0.5pt" />
</g>
</g>
<g id="ID000028" clip-path="url(#ID000001)" >
<g>
<circle cx="1026.133" cy="559.262" r="5.000" fill="#ff33ff" stroke="#000000" stroke-width="0.5pt" />
</g>
</g>
</g><g id="ID000029" >
  <g transform="translate(207.733,516.823)">
    <g transform="rotate(-0.0)">
      <text x="0.000" y="0.000" font-family="Helvetica" text-anchor="start" font-size="20pt" font-weight="bold" fill="#000000" ><tspan>E</tspan></text>
    </g>
  </g>
</g>
<g id="ID000030" >
  <g transform="translate(240.800,591.343)">
    <g transform="rotate(-0.0)">
      <text x="0.000" y="0.000" font-family="Helvetica" text-anchor="start" font-size="20pt" font-weight="bold" fill="#000000" ><tspan>T</tspan></text>
    </g>
  </g>
</g>
<g id="ID000031" >
  <g transform="translate(273.867,471.319)">
    <g transform="rotate(-0.0)">
      <text x="0.000" y="0.000" font-family="Helvetica" text-anchor="start" font-size="20pt" font-weight="bold" fill="#000000" ><tspan>A</tspan></text>
    </g>
  </g>
</g>
<g id="ID000032" >
  <g transform="translate(306.933,609.808)">
    <g transform="rotate(-0.0)">
      <text x="0.000" y="0.000" font-family="Helvetica" text-anchor="start" font-size="20pt" font-weight="bold" fill="#000000" ><tspan>O</tspan></text>
    </g>
  </g>
</g>
<g id="ID000033" >
  <g transform="translate(340.000,570.240)">
    <g transform="rotate(-0.0)">
      <text x="0.000" y="0.000" font-family="Helvetica" text-anchor="start" font-size="20pt" font-weight="bold" fill="#000000" ><tspan>I</tspan></text>
    </g>
  </g>
</g>
<g id="ID000034" >
  <g transform="translate(373.067,458.130)">
    <g transform="rotate(-0.0)">
      <text x="0.000" y="0.000" font-family="Helvetica" text-anchor="start" font-size="20pt" font-weight="bold" fill="#000000" ><tspan>N</tspan></text>
    </g>
  </g>
</g>
<g id="ID000035" >
  <g transform="translate(406.133,435.707)">
    <g transform="rotate(-0.0)">
      <text x="0.000" y="0.000" font-family="Helvetica" text-anchor="start" font-size="20pt" font-weight="bold" fill="#000000" ><tspan>S</tspan></text>
    </g>
  </g>
</g>
<g id="ID000036" >
  <g transform="translate(439.200,508.909)">
    <g transform="rotate(-0.0)">
      <text x="0.000" y="0.000" font-family="Helvetica" text-anchor="start" font-size="20pt" font-weight="bold" fill="#000000" ><tspan>H</tspan></text>
    </g>
  </g>
</g>
<g id="ID000037" >
  <g transform="translate(472.267,494.401)">
    <g transform="rotate(-0.0)">
      <text x="0.000" y="0.000" font-family="Helvetica" text-anchor="start" font-size="20pt" font-weight="bold" fill="#000000" ><tspan>R</tspan></text>
    </g>
  </g>
</g>
<g id="ID000038" >
  <g transform="translate(505.333,576.835)">
    <g transform="rotate(-0.0)">
      <text x="0.000" y="0.000" font-family="Helvetica" text-anchor="start" font-size="20pt" font-weight="bold" fill="#000000" ><tspan>D</tspan></text>
    </g>
  </g>
</g>
<g id="ID000039" >
  <g transform="translate(538.400,511.547)">
    <g transform="rotate(-0.0)">
      <text x="0.000" y="0.000" font-family="Helvetica" text-anchor="start" font-size="20pt" font-weight="bold" fill="#000000" ><tspan>L</tspan></text>
    </g>
  </g>
</g>
<g id="ID000040" >
  <g transform="translate(571.467,483.190)">
    <g transform="rotate(-0.0)">
      <text x="0.000" y="0.000" font-family="Helvetica" text-anchor="start" font-size="20pt" font-weight="bold" fill="#000000" ><tspan>C</tspan></text>
    </g>
  </g>
</g>
<g id="ID000041" >
  <g transform="translate(604.533,465.384)">
    <g transform="rotate(-0.0)">
      <text x="0.000" y="0.000" font-family="Helvetica" text-anchor="start" font-size="20pt" font-weight="bold" fill="#000000" ><tspan>U</tspan></text>
    </g>
  </g>
</g>
<g id="ID000042" >
  <g transform="translate(637.600,346.019)">
    <g transform="rotate(-0.0)">
      <text x="0.000" y="0.000" font-family="Helvetica" text-anchor="start" font-size="20pt" font-weight="bold" fill="#000000" ><tspan>M</tspan></text>
    </g>
  </g>
</g>
<g id="ID000043" >
  <g transform="translate(670.667,500.336)">
    <g transform="rotate(-0.0)">
      <text x="0.000" y="0.000" font-family="Helvetica" text-anchor="start" font-size="20pt" font-weight="bold" fill="#000000" ><tspan>W</tspan></text>
    </g>
  </g>
</g>
<g id="ID000044" >
  <g transform="translate(703.733,530.012)">
    <g transform="rotate(-0.0)">
      <text x="0.000" y="0.000" font-family="Helvetica" text-anchor="start" font-size="20pt" font-weight="bold" fill="#000000" ><tspan>F</tspan></text>
    </g>
  </g>
</g>
<g id="ID000045" >
  <g transform="translate(736.800,556.391)">
    <g transform="rotate(-0.0)">
      <text x="0.000" y="0.000" font-family="Helvetica" text-anchor="start" font-size="20pt" font-weight="bold" fill="#000000" ><tspan>G</tspan></text>
    </g>
  </g>
</g>
<g id="ID000046" >
  <g transform="translate(769.867,490.444)">
    <g transform="rotate(-0.0)">
      <text x="0.000" y="0.000" font-family="Helvetica" text-anchor="start" font-size="20pt" font-weight="bold" fill="#000000" ><tspan>Y</tspan></text>
    </g>
  </g>
</g>
<g id="ID000047" >
  <g transform="translate(802.933,102.673)">
    <g transform="rotate(-0.0)">
      <text x="0.000" y="0.000" font-family="Helvetica" text-anchor="start" font-size="20pt" font-weight="bold" fill="#000000" ><tspan>P</tspan></text>
    </g>
  </g>
</g>
<g id="ID000048" >
  <g transform="translate(836.000,508.250)">
    <g transform="rotate(-0.0)">
      <text x="0.000" y="0.000" font-family="Helvetica" text-anchor="start" font-size="20pt" font-weight="bold" fill="#000000" ><tspan>B</tspan></text>
    </g>
  </g>
</g>
<g id="ID000049" >
  <g transform="translate(869.067,427.794)">
    <g transform="rotate(-0.0)">
      <text x="0.000" y="0.000" font-family="Helvetica" text-anchor="start" font-size="20pt" font-weight="bold" fill="#000000" ><tspan>V</tspan></text>
    </g>
  </g>
</g>
<g id="ID000050" >
  <g transform="translate(902.133,258.969)">
    <g transform="rotate(-0.0)">
      <text x="0.000" y="0.000" font-family="Helvetica" text-anchor="start" font-size="20pt" font-weight="bold" fill="#000000" ><tspan>K</tspan></text>
    </g>
  </g>
</g>
<g id="ID000051" >
  <g transform="translate(935.200,387.566)">
    <g transform="rotate(-0.0)">
      <text x="0.000" y="0.000" font-family="Helvetica" text-anchor="start" font-size="20pt" font-weight="bold" fill="#000000" ><tspan>J</tspan></text>
    </g>
  </g>
</g>
<g id="ID000052" >
  <g transform="translate(968.267,580.792)">
    <g transform="rotate(-0.0)">
      <text x="0.000" y="0.000" font-family="Helvetica" text-anchor="start" font-size="20pt" font-weight="bold" fill="#000000" ><tspan>X</tspan></text>
    </g>
  </g>
</g>
<g id="ID000053" >
  <g transform="translate(1001.333,439.005)">
    <g transform="rotate(-0.0)">
      <text x="0.000" y="0.000" font-family="Helvetica" text-anchor="start" font-size="20pt" font-weight="bold" fill="#000000" ><tspan>Q</tspan></text>
    </g>
  </g>
</g>
<g id="ID000054" >
  <g transform="translate(1034.400,568.262)">
    <g transform="rotate(-0.0)">
      <text x="0.000" y="0.000" font-family="Helvetica" text-anchor="start" font-size="20pt" font-weight="bold" fill="#000000" ><tspan>Z</tspan></text>
    </g>
  </g>
</g>
<g id="ID000055" >
  <g transform="translate(661.900,655.902)">
    <g transform="rotate(-0.0)">
      <text x="0.000" y="0.000" font-family="Helvetica" text-anchor="middle" font-size="10pt" fill="#000000" ><tspan>letters</tspan></text>
    </g>
  </g>
</g>
<g id="ID000056" >
  <g transform="translate(128.400,339.233)">
    <g transform="rotate(-90.0)">
      <text x="0.000" y="0.000" font-family="Helvetica" text-anchor="middle" font-size="10pt" fill="#000000" ><tspan>% of times matched</tspan></text>
    </g>
  </g>
</g>
<g id="ID000057" clip-path="url(#ID000001)" >
      <polyline fill="none" stroke="#000000" stroke-width="0.5pt" stroke-dasharray="8.0,2.0" stroke-opacity="1.00" points="199.46667,525.52701 207.73333,524.36735 216.00000,523.20769 224.26667,522.04803 232.53333,520.88837 240.80000,519.72871 249.06667,518.56905 257.33333,517.40939 265.60000,516.24974 273.86667,515.09008 282.13333,513.93042 290.40000,512.77076 298.66667,511.61110 306.93333,510.45144 315.20000,509.29178 323.46667,508.13213 331.73333,506.97247 340.00000,505.81281 348.26667,504.65315 356.53333,503.49349 364.80000,502.33383 373.06667,501.17417 381.33333,500.01452 389.60000,498.85486 397.86667,497.69520 406.13333,496.53554 414.40000,495.37588 422.66667,494.21622 430.93333,493.05656 439.20000,491.89691 447.46667,490.73725 455.73333,489.57759 464.00000,488.41793 472.26667,487.25827 480.53333,486.09861 488.80000,484.93895 497.06667,483.77930 505.33333,482.61964 513.60000,481.45998 521.86667,480.30032 530.13333,479.14066 538.40000,477.98100 546.66667,476.82134 554.93333,475.66168 563.20000,474.50203 571.46667,473.34237 579.73333,472.18271 588.00000,471.02305 596.26667,469.86339 604.53333,468.70373 612.80000,467.54407 621.06667,466.38442 629.33333,465.22476 637.60000,464.06510 645.86667,462.90544 654.13333,461.74578 662.40000,460.58612 670.66667,459.42646 678.93333,458.26681 687.20000,457.10715 695.46667,455.94749 703.73333,454.78783 712.00000,453.62817 720.26667,452.46851 728.53333,451.30885 736.80000,450.14920 745.06667,448.98954 753.33333,447.82988 761.60000,446.67022 769.86667,445.51056 778.13333,444.35090 786.40000,443.19124 794.66667,442.03158 802.93333,440.87193 811.20000,439.71227 819.46667,438.55261 827.73333,437.39295 836.00000,436.23329 844.26667,435.07363 852.53333,433.91397 860.80000,432.75432 869.06667,431.59466 877.33333,430.43500 885.60000,429.27534 893.86667,428.11568 902.13333,426.95602 910.40000,425.79636 918.66667,424.63671 926.93333,423.47705 935.20000,422.31739 943.46667,421.15773 951.73333,419.99807 960.00000,418.83841 968.26667,417.67875 976.53333,416.51910 984.80000,415.35944 993.06667,414.19978 1001.33333,413.04012 1009.60000,411.88046 1017.86667,410.72080 1026.13333,409.56114 "/>
</g>
<g id="ID000058" >
  <g transform="translate(661.900,44.572)">
    <g transform="rotate(-0.0)">
      <text x="0.000" y="0.000" font-family="Helvetica" text-anchor="middle" font-size="10pt" fill="#000000" ><tspan>r<tspan style="baseline-shift:super;font-size:65%%">2</tspan> = -1312.9585 p = 0.12067</tspan></text>
    </g>
  </g>
</g>
    </g>
    <g>
      <polyline fill="none" stroke="#000000" stroke-width="0.5pt" stroke-dasharray="none" stroke-opacity="1.00" points="199.46667,623.89000 199.46667,613.97000 "/>
      <polyline fill="none" stroke="#000000" stroke-width="0.5pt" stroke-dasharray="none" stroke-opacity="1.00" points="232.53333,623.89000 232.53333,613.97000 "/>
      <polyline fill="none" stroke="#000000" stroke-width="0.5pt" stroke-dasharray="none" stroke-opacity="1.00" points="265.60000,623.89000 265.60000,613.97000 "/>
      <polyline fill="none" stroke="#000000" stroke-width="0.5pt" stroke-dasharray="none" stroke-opacity="1.00" points="298.66667,623.89000 298.66667,613.97000 "/>
      <polyline fill="none" stroke="#000000" stroke-width="0.5pt" stroke-dasharray="none" stroke-opacity="1.00" points="331.73333,623.89000 331.73333,613.97000 "/>
      <polyline fill="none" stroke="#000000" stroke-width="0.5pt" stroke-dasharray="none" stroke-opacity="1.00" points="364.80000,623.89000 364.80000,613.97000 "/>
      <polyline fill="none" stroke="#000000" stroke-width="0.5pt" stroke-dasharray="none" stroke-opacity="1.00" points="397.86667,623.89000 397.86667,613.97000 "/>
      <polyline fill="none" stroke="#000000" stroke-width="0.5pt" stroke-dasharray="none" stroke-opacity="1.00" points="430.93333,623.89000 430.93333,613.97000 "/>
      <polyline fill="none" stroke="#000000" stroke-width="0.5pt" stroke-dasharray="none" stroke-opacity="1.00" points="464.00000,623.89000 464.00000,613.97000 "/>
      <polyline fill="none" stroke="#000000" stroke-width="0.5pt" stroke-dasharray="none" stroke-opacity="1.00" points="497.06667,623.89000 497.06667,613.97000 "/>
      <polyline fill="none" stroke="#000000" stroke-width="0.5pt" stroke-dasharray="none" stroke-opacity="1.00" points="530.13333,623.89000 530.13333,613.97000 "/>
      <polyline fill="none" stroke="#000000" stroke-width="0.5pt" stroke-dasharray="none" stroke-opacity="1.00" points="563.20000,623.89000 563.20000,613.97000 "/>
      <polyline fill="none" stroke="#000000" stroke-width="0.5pt" stroke-dasharray="none" stroke-opacity="1.00" points="596.26667,623.89000 596.26667,613.97000 "/>
      <polyline fill="none" stroke="#000000" stroke-width="0.5pt" stroke-dasharray="none" stroke-opacity="1.00" points="629.33333,623.89000 629.33333,613.97000 "/>
      <polyline fill="none" stroke="#000000" stroke-width="0.5pt" stroke-dasharray="none" stroke-opacity="1.00" points="662.40000,623.89000 662.40000,613.97000 "/>
      <polyline fill="none" stroke="#000000" stroke-width="0.5pt" stroke-dasharray="none" stroke-opacity="1.00" points="695.46667,623.89000 695.46667,613.97000 "/>
      <polyline fill="none" stroke="#000000" stroke-width="0.5pt" stroke-dasharray="none" stroke-opacity="1.00" points="728.53333,623.89000 728.53333,613.97000 "/>
      <polyline fill="none" stroke="#000000" stroke-width="0.5pt" stroke-dasharray="none" stroke-opacity="1.00" points="761.60000,623.89000 761.60000,613.97000 "/>
      <polyline fill="none" stroke="#000000" stroke-width="0.5pt" stroke-dasharray="none" stroke-opacity="1.00" points="794.66667,623.89000 794.66667,613.97000 "/>
      <polyline fill="none" stroke="#000000" stroke-width="0.5pt" stroke-dasharray="none" stroke-opacity="1.00" points="827.73333,623.89000 827.73333,613.97000 "/>
      <polyline fill="none" stroke="#000000" stroke-width="0.5pt" stroke-dasharray="none" stroke-opacity="1.00" points="860.80000,623.89000 860.80000,613.97000 "/>
      <polyline fill="none" stroke="#000000" stroke-width="0.5pt" stroke-dasharray="none" stroke-opacity="1.00" points="893.86667,623.89000 893.86667,613.97000 "/>
      <polyline fill="none" stroke="#000000" stroke-width="0.5pt" stroke-dasharray="none" stroke-opacity="1.00" points="926.93333,623.89000 926.93333,613.97000 "/>
      <polyline fill="none" stroke="#000000" stroke-width="0.5pt" stroke-dasharray="none" stroke-opacity="1.00" points="960.00000,623.89000 960.00000,613.97000 "/>
      <polyline fill="none" stroke="#000000" stroke-width="0.5pt" stroke-dasharray="none" stroke-opacity="1.00" points="993.06667,623.89000 993.06667,613.97000 "/>
      <polyline fill="none" stroke="#000000" stroke-width="0.5pt" stroke-dasharray="none" stroke-opacity="1.00" points="1026.13333,623.89000 1026.13333,613.97000 "/>
      <polyline fill="none" stroke="#000000" stroke-width="0.5pt" stroke-dasharray="none" stroke-opacity="1.00" points="166.40000,623.89000 1158.40000,623.89000 "/>
  <g transform="translate(199.467,647.116)">
    <g transform="rotate(-0.0)">
      <text x="0.000" y="0.000" font-family="Helvetica" text-anchor="middle" font-size="10pt" fill="#000000" ><tspan>E</tspan></text>
    </g>
  </g>
  <g transform="translate(232.533,647.116)">
    <g transform="rotate(-0.0)">
      <text x="0.000" y="0.000" font-family="Helvetica" text-anchor="middle" font-size="10pt" fill="#000000" ><tspan>T</tspan></text>
    </g>
  </g>
  <g transform="translate(265.600,647.116)">
    <g transform="rotate(-0.0)">
      <text x="0.000" y="0.000" font-family="Helvetica" text-anchor="middle" font-size="10pt" fill="#000000" ><tspan>A</tspan></text>
    </g>
  </g>
  <g transform="translate(298.667,647.116)">
    <g transform="rotate(-0.0)">
      <text x="0.000" y="0.000" font-family="Helvetica" text-anchor="middle" font-size="10pt" fill="#000000" ><tspan>O</tspan></text>
    </g>
  </g>
  <g transform="translate(331.733,647.116)">
    <g transform="rotate(-0.0)">
      <text x="0.000" y="0.000" font-family="Helvetica" text-anchor="middle" font-size="10pt" fill="#000000" ><tspan>I</tspan></text>
    </g>
  </g>
  <g transform="translate(364.800,647.116)">
    <g transform="rotate(-0.0)">
      <text x="0.000" y="0.000" font-family="Helvetica" text-anchor="middle" font-size="10pt" fill="#000000" ><tspan>N</tspan></text>
    </g>
  </g>
  <g transform="translate(397.867,647.116)">
    <g transform="rotate(-0.0)">
      <text x="0.000" y="0.000" font-family="Helvetica" text-anchor="middle" font-size="10pt" fill="#000000" ><tspan>S</tspan></text>
    </g>
  </g>
  <g transform="translate(430.933,647.116)">
    <g transform="rotate(-0.0)">
      <text x="0.000" y="0.000" font-family="Helvetica" text-anchor="middle" font-size="10pt" fill="#000000" ><tspan>H</tspan></text>
    </g>
  </g>
  <g transform="translate(464.000,647.116)">
    <g transform="rotate(-0.0)">
      <text x="0.000" y="0.000" font-family="Helvetica" text-anchor="middle" font-size="10pt" fill="#000000" ><tspan>R</tspan></text>
    </g>
  </g>
  <g transform="translate(497.067,647.116)">
    <g transform="rotate(-0.0)">
      <text x="0.000" y="0.000" font-family="Helvetica" text-anchor="middle" font-size="10pt" fill="#000000" ><tspan>D</tspan></text>
    </g>
  </g>
  <g transform="translate(530.133,647.116)">
    <g transform="rotate(-0.0)">
      <text x="0.000" y="0.000" font-family="Helvetica" text-anchor="middle" font-size="10pt" fill="#000000" ><tspan>L</tspan></text>
    </g>
  </g>
  <g transform="translate(563.200,647.116)">
    <g transform="rotate(-0.0)">
      <text x="0.000" y="0.000" font-family="Helvetica" text-anchor="middle" font-size="10pt" fill="#000000" ><tspan>C</tspan></text>
    </g>
  </g>
  <g transform="translate(596.267,647.116)">
    <g transform="rotate(-0.0)">
      <text x="0.000" y="0.000" font-family="Helvetica" text-anchor="middle" font-size="10pt" fill="#000000" ><tspan>U</tspan></text>
    </g>
  </g>
  <g transform="translate(629.333,647.116)">
    <g transform="rotate(-0.0)">
      <text x="0.000" y="0.000" font-family="Helvetica" text-anchor="middle" font-size="10pt" fill="#000000" ><tspan>M</tspan></text>
    </g>
  </g>
  <g transform="translate(662.400,647.116)">
    <g transform="rotate(-0.0)">
      <text x="0.000" y="0.000" font-family="Helvetica" text-anchor="middle" font-size="10pt" fill="#000000" ><tspan>W</tspan></text>
    </g>
  </g>
  <g transform="translate(695.467,647.116)">
    <g transform="rotate(-0.0)">
      <text x="0.000" y="0.000" font-family="Helvetica" text-anchor="middle" font-size="10pt" fill="#000000" ><tspan>F</tspan></text>
    </g>
  </g>
  <g transform="translate(728.533,647.116)">
    <g transform="rotate(-0.0)">
      <text x="0.000" y="0.000" font-family="Helvetica" text-anchor="middle" font-size="10pt" fill="#000000" ><tspan>G</tspan></text>
    </g>
  </g>
  <g transform="translate(761.600,647.116)">
    <g transform="rotate(-0.0)">
      <text x="0.000" y="0.000" font-family="Helvetica" text-anchor="middle" font-size="10pt" fill="#000000" ><tspan>Y</tspan></text>
    </g>
  </g>
  <g transform="translate(794.667,647.116)">
    <g transform="rotate(-0.0)">
      <text x="0.000" y="0.000" font-family="Helvetica" text-anchor="middle" font-size="10pt" fill="#000000" ><tspan>P</tspan></text>
    </g>
  </g>
  <g transform="translate(827.733,647.116)">
    <g transform="rotate(-0.0)">
      <text x="0.000" y="0.000" font-family="Helvetica" text-anchor="middle" font-size="10pt" fill="#000000" ><tspan>B</tspan></text>
    </g>
  </g>
  <g transform="translate(860.800,647.116)">
    <g transform="rotate(-0.0)">
      <text x="0.000" y="0.000" font-family="Helvetica" text-anchor="middle" font-size="10pt" fill="#000000" ><tspan>V</tspan></text>
    </g>
  </g>
  <g transform="translate(893.867,647.116)">
    <g transform="rotate(-0.0)">
      <text x="0.000" y="0.000" font-family="Helvetica" text-anchor="middle" font-size="10pt" fill="#000000" ><tspan>K</tspan></text>
    </g>
  </g>
  <g transform="translate(926.933,647.116)">
    <g transform="rotate(-0.0)">
      <text x="0.000" y="0.000" font-family="Helvetica" text-anchor="middle" font-size="10pt" fill="#000000" ><tspan>J</tspan></text>
    </g>
  </g>
  <g transform="translate(960.000,647.116)">
    <g transform="rotate(-0.0)">
      <text x="0.000" y="0.000" font-family="Helvetica" text-anchor="middle" font-size="10pt" fill="#000000" ><tspan>X</tspan></text>
    </g>
  </g>
  <g transform="translate(993.067,647.116)">
    <g transform="rotate(-0.0)">
      <text x="0.000" y="0.000" font-family="Helvetica" text-anchor="middle" font-size="10pt" fill="#000000" ><tspan>Q</tspan></text>
    </g>
  </g>
  <g transform="translate(1026.133,647.116)">
    <g transform="rotate(-0.0)">
      <text x="0.000" y="0.000" font-family="Helvetica" text-anchor="middle" font-size="10pt" fill="#000000" ><tspan>Z</tspan></text>
    </g>
  </g>
      <polyline fill="none" stroke="#000000" stroke-width="0.5pt" stroke-dasharray="none" stroke-opacity="1.00" points="166.40000,623.89000 176.32000,623.89000 "/>
      <polyline fill="none" stroke="#000000" stroke-width="0.5pt" stroke-dasharray="none" stroke-opacity="1.00" points="166.40000,542.27357 176.32000,542.27357 "/>
      <polyline fill="none" stroke="#000000" stroke-width="0.5pt" stroke-dasharray="none" stroke-opacity="1.00" points="166.40000,460.65714 176.32000,460.65714 "/>
      <polyline fill="none" stroke="#000000" stroke-width="0.5pt" stroke-dasharray="none" stroke-opacity="1.00" points="166.40000,379.04071 176.32000,379.04071 "/>
      <polyline fill="none" stroke="#000000" stroke-width="0.5pt" stroke-dasharray="none" stroke-opacity="1.00" points="166.40000,297.42429 176.32000,297.42429 "/>
      <polyline fill="none" stroke="#000000" stroke-width="0.5pt" stroke-dasharray="none" stroke-opacity="1.00" points="166.40000,215.80786 176.32000,215.80786 "/>
      <polyline fill="none" stroke="#000000" stroke-width="0.5pt" stroke-dasharray="none" stroke-opacity="1.00" points="166.40000,134.19143 176.32000,134.19143 "/>
      <polyline fill="none" stroke="#000000" stroke-width="0.5pt" stroke-dasharray="none" stroke-opacity="1.00" points="166.40000,52.57500 176.32000,52.57500 "/>
      <polyline fill="none" stroke="#000000" stroke-width="0.5pt" stroke-dasharray="none" stroke-opacity="1.00" points="166.40000,623.89000 166.40000,52.57500 "/>
  <g transform="translate(146.560,628.390)">
    <g transform="rotate(-0.0)">
      <text x="0.000" y="0.000" font-family="Helvetica" text-anchor="end" font-size="10pt" fill="#000000" ><tspan>0</tspan></text>
    </g>
  </g>
  <g transform="translate(146.560,546.774)">
    <g transform="rotate(-0.0)">
      <text x="0.000" y="0.000" font-family="Helvetica" text-anchor="end" font-size="10pt" fill="#000000" ><tspan>0.02</tspan></text>
    </g>
  </g>
  <g transform="translate(146.560,465.157)">
    <g transform="rotate(-0.0)">
      <text x="0.000" y="0.000" font-family="Helvetica" text-anchor="end" font-size="10pt" fill="#000000" ><tspan>0.04</tspan></text>
    </g>
  </g>
  <g transform="translate(146.560,383.541)">
    <g transform="rotate(-0.0)">
      <text x="0.000" y="0.000" font-family="Helvetica" text-anchor="end" font-size="10pt" fill="#000000" ><tspan>0.06</tspan></text>
    </g>
  </g>
  <g transform="translate(146.560,301.924)">
    <g transform="rotate(-0.0)">
      <text x="0.000" y="0.000" font-family="Helvetica" text-anchor="end" font-size="10pt" fill="#000000" ><tspan>0.08</tspan></text>
    </g>
  </g>
  <g transform="translate(146.560,220.308)">
    <g transform="rotate(-0.0)">
      <text x="0.000" y="0.000" font-family="Helvetica" text-anchor="end" font-size="10pt" fill="#000000" ><tspan>0.1</tspan></text>
    </g>
  </g>
  <g transform="translate(146.560,138.691)">
    <g transform="rotate(-0.0)">
      <text x="0.000" y="0.000" font-family="Helvetica" text-anchor="end" font-size="10pt" fill="#000000" ><tspan>0.12</tspan></text>
    </g>
  </g>
  <g transform="translate(146.560,57.075)">
    <g transform="rotate(-0.0)">
      <text x="0.000" y="0.000" font-family="Helvetica" text-anchor="end" font-size="10pt" fill="#000000" ><tspan>0.14</tspan></text>
    </g>
  </g>
      <polyline fill="none" stroke="#000000" stroke-width="0.5pt" stroke-dasharray="none" stroke-opacity="1.00" points="166.40000,623.89000 166.40000,618.17685 "/>
      <polyline fill="none" stroke="#000000" stroke-width="0.5pt" stroke-dasharray="none" stroke-opacity="1.00" points="166.40000,623.89000 166.40000,618.17685 "/>
      <polyline fill="none" stroke="#000000" stroke-width="0.5pt" stroke-dasharray="none" stroke-opacity="1.00" points="166.40000,623.89000 166.40000,618.17685 "/>
      <polyline fill="none" stroke="#000000" stroke-width="0.5pt" stroke-dasharray="none" stroke-opacity="1.00" points="166.40000,623.89000 166.40000,623.89000 "/>
    </g>
  </g>
  </g>
</svg>
