<?xml version="1.0" encoding="utf-8" standalone="no"?><!DOCTYPE svg PUBLIC "-//W3C//DTD SVG 1.1//EN" "http://www.w3.org/Graphics/SVG/1.1/DTD/svg11.dtd">
<svg preserveAspectRatio="xMinYMin meet" width="100%" height="100%" viewBox="0 0 1280.000 701.000"  version="1.1" xmlns="http://www.w3.org/2000/svg" xmlns:xlink="http://www.w3.org/1999/xlink">
  <desc>Matlab Figure Converted by PLOT2SVG written by Juerg Schwizer</desc>
  <g id="topgroup">
  <rect x="0" y="0" width="1280.000" height="701.000" fill="#ffffff" stroke="none" />
  <g id ="ID000000">
  <clipPath id="ID000001">
    <rect x="166.400" y="52.575" width="992.000" height="571.315"/>
  </clipPath>
      <polygon fill="#ffffff" fill-opacity="1.00" stroke="none" stroke-width="0.5pt" stroke-opacity="1.00" stroke-dasharray="none" points="166.400,623.890 1158.400,623.890 1158.400,52.575 166.400,52.575 "/>
      <polygon fill="#ffffff" fill-opacity="1.00" stroke="none" stroke-width="0.5pt" stroke-opacity="1.00" stroke-dasharray="none" points="166.400,52.575 1158.400,52.575 1158.400,52.575 166.400,52.575 "/>
      <polygon fill="#ffffff" fill-opacity="1.00" stroke="none" stroke-width="0.5pt" stroke-opacity="1.00" stroke-dasharray="none" points="166.400,623.890 166.400,623.890 166.400,52.575 166.400,52.575 "/>
    <g>
<g id="ID000002" clip-path="url(#ID000001)" >
      <polyline fill="none" stroke="#0000ff" stroke-width="0.5pt" stroke-dasharray="none" stroke-opacity="1.00" points="169.94286,-61.68800 173.48571,166.83800 177.02857,166.83800 180.57143,281.10100 184.11429,303.95360 187.65714,281.10100 191.20000,330.07086 194.74286,366.79825 198.28571,369.97222 201.82857,361.08510 205.37143,374.58891 208.91429,395.36400 212.45714,412.94292 216.00000,428.01057 219.54286,418.21660 223.08571,431.07119 226.62857,449.13482 230.17143,439.79961 233.71429,455.50242 237.25714,452.49550 240.80000,449.77495 244.34286,447.30173 247.88571,459.94743 251.42857,462.01742 254.97143,468.49232 258.51429,470.07442 262.05714,480.00326 265.60000,468.81879 269.14286,489.92648 272.68571,475.34810 276.22857,476.45387 279.77143,481.06125 283.31429,478.46436 286.85714,496.18429 290.40000,486.77440 293.94286,496.93111 297.48571,488.00968 301.02857,494.59239 304.57143,512.55682 308.11429,498.20070 311.65714,501.26629 315.20000,498.74481 318.74286,501.65516 322.28571,504.43323 325.82857,496.93111 329.37143,514.59496 332.91429,504.76474 336.45714,512.00748 340.00000,511.95890 343.54286,514.19752 347.08571,514.10790 350.62857,511.82437 354.17143,509.62700 357.71429,522.32289 361.25714,507.54949 364.80000,513.70782 368.34286,515.64084 371.88571,519.47726 375.42857,523.18363 378.97143,519.14892 382.51429,524.61231 386.05714,522.52766 389.60000,522.32289 393.14286,531.05131 396.68571,527.20592 400.22857,526.93958 403.77143,536.91369 407.31429,528.11072 410.85714,529.49883 414.40000,529.21494 417.94286,533.76707 421.48571,527.08385 425.02857,529.97521 428.57143,531.24432 432.11429,534.00311 435.65714,532.17891 439.20000,533.36996 442.74286,537.46029 446.28571,537.10797 449.82857,535.33618 453.37143,536.42943 456.91429,530.52877 460.45714,535.78359 464.00000,534.11193 467.54286,537.85668 471.08571,532.21387 474.62857,537.20772 478.17143,535.59586 481.71429,537.87179 485.25714,542.63631 488.80000,546.04048 492.34286,543.16071 495.88571,544.02876 499.42857,542.44722 502.97143,537.29067 506.51429,541.76347 510.05714,543.78810 513.60000,539.94167 517.14286,541.94381 520.68571,545.04853 524.22857,543.56650 527.77143,549.95512 531.31429,549.56358 534.85714,545.88353 538.40000,547.71467 541.94286,551.66716 545.48571,549.13850 549.02857,547.71467 552.57143,550.51009 556.11429,556.37095 559.65714,550.80286 563.20000,547.37460 566.74286,549.06290 570.28571,548.71697 573.82857,547.38347 577.37143,543.11788 580.91429,549.66788 584.45714,547.39189 588.00000,549.95512 591.54286,548.66686 595.08571,554.01015 598.62857,549.90002 602.17143,548.64363 605.71429,552.93636 609.25714,556.24630 612.80000,551.34206 616.34286,553.71272 619.88571,553.36830 623.42857,556.57226 626.97143,554.45325 630.51429,554.11107 634.05714,557.23658 637.60000,554.30126 641.14286,557.37870 644.68571,553.63941 648.22857,551.63546 651.77143,556.33304 655.31429,554.33861 658.85714,553.19491 662.40000,560.22919 665.94286,559.05993 669.48571,560.32115 673.02857,558.36856 676.57143,558.03008 680.11429,556.90824 683.65714,557.36702 687.20000,557.04226 690.74286,556.72189 694.28571,562.54074 697.82857,557.61746 701.37143,558.81306 704.91429,559.99293 708.45714,559.66374 712.00000,560.08079 715.54286,562.70401 719.08571,560.16640 722.62857,562.75566 726.17143,560.24985 729.71429,560.65010 733.25714,560.33121 736.80000,563.56481 740.34286,558.29457 743.88571,561.50100 747.42857,563.97160 750.97143,563.64224 754.51429,561.94018 758.05714,558.89009 761.60000,564.03795 765.14286,561.68766 768.68571,562.72569 772.22857,561.74696 775.77143,564.10122 779.31429,563.12586 782.85714,564.13176 786.40000,565.77910 789.94286,567.40772 793.48571,564.49906 797.02857,560.33923 800.57143,563.88597 804.11429,564.85412 807.65714,567.70543 811.20000,563.61941 814.74286,565.19753 818.28571,563.65353 821.82857,568.30259 825.37143,566.75850 828.91429,567.06402 832.45714,563.71959 836.00000,569.47905 839.54286,567.96127 843.08571,568.85232 846.62857,566.75850 850.17143,566.46248 853.71429,570.88139 857.25714,567.63745 860.80000,565.00958 864.34286,567.04851 867.88571,566.18141 871.42857,565.32304 874.97143,566.18718 878.51429,568.17968 882.05714,566.19284 885.60000,569.29142 889.14286,569.55906 892.68571,571.49623 896.22857,568.42252 899.77143,565.93051 903.31429,570.60389 906.85714,571.40556 910.40000,568.93494 913.94286,572.44457 917.48571,568.91441 921.02857,569.70895 924.57143,568.89426 928.11429,569.68151 931.65714,570.46147 935.20000,566.49522 938.74286,571.99992 942.28571,571.71511 945.82857,568.83601 949.37143,567.53404 952.91429,569.33199 956.45714,569.57665 960.00000,567.77871 963.54286,572.09077 967.08571,570.80321 970.62857,570.03035 974.17143,574.27580 977.71429,569.50281 981.25714,571.72646 984.80000,567.50047 988.34286,567.74353 991.88571,570.92689 995.42857,570.17662 998.97143,570.89142 1002.51429,571.11599 1006.05714,571.33866 1009.60000,570.11918 1013.14286,568.90990 1016.68571,573.42384 1020.22857,570.78852 1023.77143,572.42443 1027.31429,573.57666 1030.85714,569.56825 1034.40000,572.58824 1037.94286,572.33230 1041.48571,571.61583 "/>
</g>
<g id="ID000003" >
  <g transform="translate(128.400,339.233)">
    <g transform="rotate(-90.0)">
      <text x="0.000" y="0.000" font-family="Helvetica" text-anchor="middle" font-size="10pt" fill="#000000" ><tspan>95% confidence interval on prob letter is pink</tspan></text>
    </g>
  </g>
</g>
<g id="ID000004" >
  <g transform="translate(661.900,655.902)">
    <g transform="rotate(-0.0)">
      <text x="0.000" y="0.000" font-family="Helvetica" text-anchor="middle" font-size="10pt" fill="#000000" ><tspan>bootstrap sample size</tspan></text>
    </g>
  </g>
</g>
<g id="ID000005" >
</g>
    </g>
    <g>
      <polyline fill="none" stroke="#000000" stroke-width="0.5pt" stroke-dasharray="none" stroke-opacity="1.00" points="166.40000,623.89000 166.40000,613.97000 "/>
      <polyline fill="none" stroke="#000000" stroke-width="0.5pt" stroke-dasharray="none" stroke-opacity="1.00" points="308.11429,623.89000 308.11429,613.97000 "/>
      <polyline fill="none" stroke="#000000" stroke-width="0.5pt" stroke-dasharray="none" stroke-opacity="1.00" points="449.82857,623.89000 449.82857,613.97000 "/>
      <polyline fill="none" stroke="#000000" stroke-width="0.5pt" stroke-dasharray="none" stroke-opacity="1.00" points="591.54286,623.89000 591.54286,613.97000 "/>
      <polyline fill="none" stroke="#000000" stroke-width="0.5pt" stroke-dasharray="none" stroke-opacity="1.00" points="733.25714,623.89000 733.25714,613.97000 "/>
      <polyline fill="none" stroke="#000000" stroke-width="0.5pt" stroke-dasharray="none" stroke-opacity="1.00" points="874.97143,623.89000 874.97143,613.97000 "/>
      <polyline fill="none" stroke="#000000" stroke-width="0.5pt" stroke-dasharray="none" stroke-opacity="1.00" points="1016.68571,623.89000 1016.68571,613.97000 "/>
      <polyline fill="none" stroke="#000000" stroke-width="0.5pt" stroke-dasharray="none" stroke-opacity="1.00" points="1158.40000,623.89000 1158.40000,613.97000 "/>
      <polyline fill="none" stroke="#000000" stroke-width="0.5pt" stroke-dasharray="none" stroke-opacity="1.00" points="166.40000,623.89000 1158.40000,623.89000 "/>
  <g transform="translate(166.400,647.116)">
    <g transform="rotate(-0.0)">
      <text x="0.000" y="0.000" font-family="Helvetica" text-anchor="middle" font-size="10pt" fill="#000000" ><tspan>0</tspan></text>
    </g>
  </g>
  <g transform="translate(308.114,647.116)">
    <g transform="rotate(-0.0)">
      <text x="0.000" y="0.000" font-family="Helvetica" text-anchor="middle" font-size="10pt" fill="#000000" ><tspan>1000</tspan></text>
    </g>
  </g>
  <g transform="translate(449.829,647.116)">
    <g transform="rotate(-0.0)">
      <text x="0.000" y="0.000" font-family="Helvetica" text-anchor="middle" font-size="10pt" fill="#000000" ><tspan>2000</tspan></text>
    </g>
  </g>
  <g transform="translate(591.543,647.116)">
    <g transform="rotate(-0.0)">
      <text x="0.000" y="0.000" font-family="Helvetica" text-anchor="middle" font-size="10pt" fill="#000000" ><tspan>3000</tspan></text>
    </g>
  </g>
  <g transform="translate(733.257,647.116)">
    <g transform="rotate(-0.0)">
      <text x="0.000" y="0.000" font-family="Helvetica" text-anchor="middle" font-size="10pt" fill="#000000" ><tspan>4000</tspan></text>
    </g>
  </g>
  <g transform="translate(874.971,647.116)">
    <g transform="rotate(-0.0)">
      <text x="0.000" y="0.000" font-family="Helvetica" text-anchor="middle" font-size="10pt" fill="#000000" ><tspan>5000</tspan></text>
    </g>
  </g>
  <g transform="translate(1016.686,647.116)">
    <g transform="rotate(-0.0)">
      <text x="0.000" y="0.000" font-family="Helvetica" text-anchor="middle" font-size="10pt" fill="#000000" ><tspan>6000</tspan></text>
    </g>
  </g>
  <g transform="translate(1158.400,647.116)">
    <g transform="rotate(-0.0)">
      <text x="0.000" y="0.000" font-family="Helvetica" text-anchor="middle" font-size="10pt" fill="#000000" ><tspan>7000</tspan></text>
    </g>
  </g>
      <polyline fill="none" stroke="#000000" stroke-width="0.5pt" stroke-dasharray="none" stroke-opacity="1.00" points="166.40000,623.89000 176.32000,623.89000 "/>
      <polyline fill="none" stroke="#000000" stroke-width="0.5pt" stroke-dasharray="none" stroke-opacity="1.00" points="166.40000,566.75850 176.32000,566.75850 "/>
      <polyline fill="none" stroke="#000000" stroke-width="0.5pt" stroke-dasharray="none" stroke-opacity="1.00" points="166.40000,509.62700 176.32000,509.62700 "/>
      <polyline fill="none" stroke="#000000" stroke-width="0.5pt" stroke-dasharray="none" stroke-opacity="1.00" points="166.40000,452.49550 176.32000,452.49550 "/>
      <polyline fill="none" stroke="#000000" stroke-width="0.5pt" stroke-dasharray="none" stroke-opacity="1.00" points="166.40000,395.36400 176.32000,395.36400 "/>
      <polyline fill="none" stroke="#000000" stroke-width="0.5pt" stroke-dasharray="none" stroke-opacity="1.00" points="166.40000,338.23250 176.32000,338.23250 "/>
      <polyline fill="none" stroke="#000000" stroke-width="0.5pt" stroke-dasharray="none" stroke-opacity="1.00" points="166.40000,281.10100 176.32000,281.10100 "/>
      <polyline fill="none" stroke="#000000" stroke-width="0.5pt" stroke-dasharray="none" stroke-opacity="1.00" points="166.40000,223.96950 176.32000,223.96950 "/>
      <polyline fill="none" stroke="#000000" stroke-width="0.5pt" stroke-dasharray="none" stroke-opacity="1.00" points="166.40000,166.83800 176.32000,166.83800 "/>
      <polyline fill="none" stroke="#000000" stroke-width="0.5pt" stroke-dasharray="none" stroke-opacity="1.00" points="166.40000,109.70650 176.32000,109.70650 "/>
      <polyline fill="none" stroke="#000000" stroke-width="0.5pt" stroke-dasharray="none" stroke-opacity="1.00" points="166.40000,52.57500 176.32000,52.57500 "/>
      <polyline fill="none" stroke="#000000" stroke-width="0.5pt" stroke-dasharray="none" stroke-opacity="1.00" points="166.40000,623.89000 166.40000,52.57500 "/>
  <g transform="translate(146.560,628.390)">
    <g transform="rotate(-0.0)">
      <text x="0.000" y="0.000" font-family="Helvetica" text-anchor="end" font-size="10pt" fill="#000000" ><tspan>0</tspan></text>
    </g>
  </g>
  <g transform="translate(146.560,571.259)">
    <g transform="rotate(-0.0)">
      <text x="0.000" y="0.000" font-family="Helvetica" text-anchor="end" font-size="10pt" fill="#000000" ><tspan>0.01</tspan></text>
    </g>
  </g>
  <g transform="translate(146.560,514.127)">
    <g transform="rotate(-0.0)">
      <text x="0.000" y="0.000" font-family="Helvetica" text-anchor="end" font-size="10pt" fill="#000000" ><tspan>0.02</tspan></text>
    </g>
  </g>
  <g transform="translate(146.560,456.995)">
    <g transform="rotate(-0.0)">
      <text x="0.000" y="0.000" font-family="Helvetica" text-anchor="end" font-size="10pt" fill="#000000" ><tspan>0.03</tspan></text>
    </g>
  </g>
  <g transform="translate(146.560,399.864)">
    <g transform="rotate(-0.0)">
      <text x="0.000" y="0.000" font-family="Helvetica" text-anchor="end" font-size="10pt" fill="#000000" ><tspan>0.04</tspan></text>
    </g>
  </g>
  <g transform="translate(146.560,342.733)">
    <g transform="rotate(-0.0)">
      <text x="0.000" y="0.000" font-family="Helvetica" text-anchor="end" font-size="10pt" fill="#000000" ><tspan>0.05</tspan></text>
    </g>
  </g>
  <g transform="translate(146.560,285.601)">
    <g transform="rotate(-0.0)">
      <text x="0.000" y="0.000" font-family="Helvetica" text-anchor="end" font-size="10pt" fill="#000000" ><tspan>0.06</tspan></text>
    </g>
  </g>
  <g transform="translate(146.560,228.469)">
    <g transform="rotate(-0.0)">
      <text x="0.000" y="0.000" font-family="Helvetica" text-anchor="end" font-size="10pt" fill="#000000" ><tspan>0.07</tspan></text>
    </g>
  </g>
  <g transform="translate(146.560,171.338)">
    <g transform="rotate(-0.0)">
      <text x="0.000" y="0.000" font-family="Helvetica" text-anchor="end" font-size="10pt" fill="#000000" ><tspan>0.08</tspan></text>
    </g>
  </g>
  <g transform="translate(146.560,114.207)">
    <g transform="rotate(-0.0)">
      <text x="0.000" y="0.000" font-family="Helvetica" text-anchor="end" font-size="10pt" fill="#000000" ><tspan>0.09</tspan></text>
    </g>
  </g>
  <g transform="translate(146.560,57.075)">
    <g transform="rotate(-0.0)">
      <text x="0.000" y="0.000" font-family="Helvetica" text-anchor="end" font-size="10pt" fill="#000000" ><tspan>0.1</tspan></text>
    </g>
  </g>
      <polyline fill="none" stroke="#000000" stroke-width="0.5pt" stroke-dasharray="none" stroke-opacity="1.00" points="166.40000,623.89000 166.40000,618.17685 "/>
      <polyline fill="none" stroke="#000000" stroke-width="0.5pt" stroke-dasharray="none" stroke-opacity="1.00" points="166.40000,623.89000 166.40000,618.17685 "/>
      <polyline fill="none" stroke="#000000" stroke-width="0.5pt" stroke-dasharray="none" stroke-opacity="1.00" points="166.40000,623.89000 166.40000,618.17685 "/>
      <polyline fill="none" stroke="#000000" stroke-width="0.5pt" stroke-dasharray="none" stroke-opacity="1.00" points="166.40000,623.89000 166.40000,623.89000 "/>
    </g>
  </g>
  </g>
</svg>
