<?xml version="1.0" encoding="utf-8" standalone="no"?><!DOCTYPE svg PUBLIC "-//W3C//DTD SVG 1.1//EN" "http://www.w3.org/Graphics/SVG/1.1/DTD/svg11.dtd">
<svg preserveAspectRatio="xMinYMin meet" width="100%" height="100%" viewBox="0 0 1280.000 701.000"  version="1.1" xmlns="http://www.w3.org/2000/svg" xmlns:xlink="http://www.w3.org/1999/xlink">
  <desc>Matlab Figure Converted by PLOT2SVG written by Juerg Schwizer</desc>
  <g id="topgroup">
  <rect x="0" y="0" width="1280.000" height="701.000" fill="#ffffff" stroke="none" />
  <g id ="ID000000">
  <clipPath id="ID000001">
    <rect x="166.400" y="52.575" width="992.000" height="571.315"/>
  </clipPath>
      <polygon fill="#ffffff" fill-opacity="1.00" stroke="none" stroke-width="0.5pt" stroke-opacity="1.00" stroke-dasharray="none" points="166.400,623.890 1158.400,623.890 1158.400,52.575 166.400,52.575 "/>
      <polygon fill="#ffffff" fill-opacity="1.00" stroke="none" stroke-width="0.5pt" stroke-opacity="1.00" stroke-dasharray="none" points="166.400,52.575 1158.400,52.575 1158.400,52.575 166.400,52.575 "/>
      <polygon fill="#ffffff" fill-opacity="1.00" stroke="none" stroke-width="0.5pt" stroke-opacity="1.00" stroke-dasharray="none" points="166.400,623.890 166.400,623.890 166.400,52.575 166.400,52.575 "/>
    <g>
<g id="ID000002" clip-path="url(#ID000001)" >
      <polyline fill="none" stroke="#00ffff" stroke-width="10.0pt" stroke-dasharray="none" stroke-opacity="1.00" points="166.40000,342.58949 191.20000,418.37252 216.00000,399.91714 240.80000,380.36630 265.60000,354.42483 290.40000,332.23771 315.20000,312.81499 340.00000,293.97582 364.80000,260.44129 389.60000,262.50906 414.40000,214.59629 439.20000,204.14106 464.00000,194.39966 488.80000,171.64688 513.60000,161.48006 538.40000,151.32820 563.20000,149.43923 588.00000,135.70493 612.80000,125.11423 637.60000,124.12609 662.40000,121.42050 687.20000,127.12665 712.00000,133.25585 736.80000,131.09064 761.60000,137.07201 786.40000,145.78599 811.20000,172.34779 836.00000,177.05445 860.80000,196.25831 885.60000,221.31415 910.40000,250.81342 935.20000,251.72731 960.00000,302.01188 984.80000,310.91361 1009.60000,368.24126 1034.40000,411.75248 1059.20000,418.37252 1084.00000,490.77932 1108.80000,462.95094 1133.60000,566.56235 1158.40000,475.70017 "/>
</g>
<g id="ID000003" clip-path="url(#ID000001)" >
<g>
<circle cx="166.400" cy="342.589" r="7.500" fill="#00ffff" stroke="#00ffff" stroke-width="0.5pt" />
<circle cx="191.200" cy="418.373" r="7.500" fill="#00ffff" stroke="#00ffff" stroke-width="0.5pt" />
<circle cx="216.000" cy="399.917" r="7.500" fill="#00ffff" stroke="#00ffff" stroke-width="0.5pt" />
<circle cx="240.800" cy="380.366" r="7.500" fill="#00ffff" stroke="#00ffff" stroke-width="0.5pt" />
<circle cx="265.600" cy="354.425" r="7.500" fill="#00ffff" stroke="#00ffff" stroke-width="0.5pt" />
<circle cx="290.400" cy="332.238" r="7.500" fill="#00ffff" stroke="#00ffff" stroke-width="0.5pt" />
<circle cx="315.200" cy="312.815" r="7.500" fill="#00ffff" stroke="#00ffff" stroke-width="0.5pt" />
<circle cx="340.000" cy="293.976" r="7.500" fill="#00ffff" stroke="#00ffff" stroke-width="0.5pt" />
<circle cx="364.800" cy="260.441" r="7.500" fill="#00ffff" stroke="#00ffff" stroke-width="0.5pt" />
<circle cx="389.600" cy="262.509" r="7.500" fill="#00ffff" stroke="#00ffff" stroke-width="0.5pt" />
<circle cx="414.400" cy="214.596" r="7.500" fill="#00ffff" stroke="#00ffff" stroke-width="0.5pt" />
<circle cx="439.200" cy="204.141" r="7.500" fill="#00ffff" stroke="#00ffff" stroke-width="0.5pt" />
<circle cx="464.000" cy="194.400" r="7.500" fill="#00ffff" stroke="#00ffff" stroke-width="0.5pt" />
<circle cx="488.800" cy="171.647" r="7.500" fill="#00ffff" stroke="#00ffff" stroke-width="0.5pt" />
<circle cx="513.600" cy="161.480" r="7.500" fill="#00ffff" stroke="#00ffff" stroke-width="0.5pt" />
<circle cx="538.400" cy="151.328" r="7.500" fill="#00ffff" stroke="#00ffff" stroke-width="0.5pt" />
<circle cx="563.200" cy="149.439" r="7.500" fill="#00ffff" stroke="#00ffff" stroke-width="0.5pt" />
<circle cx="588.000" cy="135.705" r="7.500" fill="#00ffff" stroke="#00ffff" stroke-width="0.5pt" />
<circle cx="612.800" cy="125.114" r="7.500" fill="#00ffff" stroke="#00ffff" stroke-width="0.5pt" />
<circle cx="637.600" cy="124.126" r="7.500" fill="#00ffff" stroke="#00ffff" stroke-width="0.5pt" />
<circle cx="662.400" cy="121.421" r="7.500" fill="#00ffff" stroke="#00ffff" stroke-width="0.5pt" />
<circle cx="687.200" cy="127.127" r="7.500" fill="#00ffff" stroke="#00ffff" stroke-width="0.5pt" />
<circle cx="712.000" cy="133.256" r="7.500" fill="#00ffff" stroke="#00ffff" stroke-width="0.5pt" />
<circle cx="736.800" cy="131.091" r="7.500" fill="#00ffff" stroke="#00ffff" stroke-width="0.5pt" />
<circle cx="761.600" cy="137.072" r="7.500" fill="#00ffff" stroke="#00ffff" stroke-width="0.5pt" />
<circle cx="786.400" cy="145.786" r="7.500" fill="#00ffff" stroke="#00ffff" stroke-width="0.5pt" />
<circle cx="811.200" cy="172.348" r="7.500" fill="#00ffff" stroke="#00ffff" stroke-width="0.5pt" />
<circle cx="836.000" cy="177.054" r="7.500" fill="#00ffff" stroke="#00ffff" stroke-width="0.5pt" />
<circle cx="860.800" cy="196.258" r="7.500" fill="#00ffff" stroke="#00ffff" stroke-width="0.5pt" />
<circle cx="885.600" cy="221.314" r="7.500" fill="#00ffff" stroke="#00ffff" stroke-width="0.5pt" />
<circle cx="910.400" cy="250.813" r="7.500" fill="#00ffff" stroke="#00ffff" stroke-width="0.5pt" />
<circle cx="935.200" cy="251.727" r="7.500" fill="#00ffff" stroke="#00ffff" stroke-width="0.5pt" />
<circle cx="960.000" cy="302.012" r="7.500" fill="#00ffff" stroke="#00ffff" stroke-width="0.5pt" />
<circle cx="984.800" cy="310.914" r="7.500" fill="#00ffff" stroke="#00ffff" stroke-width="0.5pt" />
<circle cx="1009.600" cy="368.241" r="7.500" fill="#00ffff" stroke="#00ffff" stroke-width="0.5pt" />
<circle cx="1034.400" cy="411.752" r="7.500" fill="#00ffff" stroke="#00ffff" stroke-width="0.5pt" />
<circle cx="1059.200" cy="418.373" r="7.500" fill="#00ffff" stroke="#00ffff" stroke-width="0.5pt" />
<circle cx="1084.000" cy="490.779" r="7.500" fill="#00ffff" stroke="#00ffff" stroke-width="0.5pt" />
<circle cx="1108.800" cy="462.951" r="7.500" fill="#00ffff" stroke="#00ffff" stroke-width="0.5pt" />
<circle cx="1133.600" cy="566.562" r="7.500" fill="#00ffff" stroke="#00ffff" stroke-width="0.5pt" />
<circle cx="1158.400" cy="475.700" r="7.500" fill="#00ffff" stroke="#00ffff" stroke-width="0.5pt" />
</g>
</g>
<g id="ID000004" clip-path="url(#ID000001)" >
      <polyline fill="none" stroke="#ff0000" stroke-width="10.0pt" stroke-dasharray="none" stroke-opacity="1.00" points="166.40000,244.68422 191.20000,364.56482 216.00000,323.03864 240.80000,327.51035 265.60000,281.22658 290.40000,283.89476 315.20000,279.92410 340.00000,258.42397 364.80000,222.59645 389.60000,221.95281 414.40000,208.38334 439.20000,190.36441 464.00000,180.47727 488.80000,168.22878 513.60000,157.56245 538.40000,150.78408 563.20000,132.60031 588.00000,141.31429 612.80000,133.91662 637.60000,130.66431 662.40000,118.98503 687.20000,125.11423 712.00000,137.76412 736.80000,142.28732 761.60000,150.78408 786.40000,162.09958 811.20000,175.57751 836.00000,201.59605 860.80000,217.58241 885.60000,248.13082 910.40000,254.53119 935.20000,307.23717 960.00000,327.51035 984.80000,368.24126 1009.60000,399.91714 1034.40000,425.56891 1059.20000,442.16565 1084.00000,462.95094 1108.80000,623.89000 1133.60000,509.23470 1158.40000,509.23470 "/>
</g>
<g id="ID000005" clip-path="url(#ID000001)" >
<g>
<circle cx="166.400" cy="244.684" r="7.500" fill="#ff0000" stroke="#ff0000" stroke-width="0.5pt" />
<circle cx="191.200" cy="364.565" r="7.500" fill="#ff0000" stroke="#ff0000" stroke-width="0.5pt" />
<circle cx="216.000" cy="323.039" r="7.500" fill="#ff0000" stroke="#ff0000" stroke-width="0.5pt" />
<circle cx="240.800" cy="327.510" r="7.500" fill="#ff0000" stroke="#ff0000" stroke-width="0.5pt" />
<circle cx="265.600" cy="281.227" r="7.500" fill="#ff0000" stroke="#ff0000" stroke-width="0.5pt" />
<circle cx="290.400" cy="283.895" r="7.500" fill="#ff0000" stroke="#ff0000" stroke-width="0.5pt" />
<circle cx="315.200" cy="279.924" r="7.500" fill="#ff0000" stroke="#ff0000" stroke-width="0.5pt" />
<circle cx="340.000" cy="258.424" r="7.500" fill="#ff0000" stroke="#ff0000" stroke-width="0.5pt" />
<circle cx="364.800" cy="222.596" r="7.500" fill="#ff0000" stroke="#ff0000" stroke-width="0.5pt" />
<circle cx="389.600" cy="221.953" r="7.500" fill="#ff0000" stroke="#ff0000" stroke-width="0.5pt" />
<circle cx="414.400" cy="208.383" r="7.500" fill="#ff0000" stroke="#ff0000" stroke-width="0.5pt" />
<circle cx="439.200" cy="190.364" r="7.500" fill="#ff0000" stroke="#ff0000" stroke-width="0.5pt" />
<circle cx="464.000" cy="180.477" r="7.500" fill="#ff0000" stroke="#ff0000" stroke-width="0.5pt" />
<circle cx="488.800" cy="168.229" r="7.500" fill="#ff0000" stroke="#ff0000" stroke-width="0.5pt" />
<circle cx="513.600" cy="157.562" r="7.500" fill="#ff0000" stroke="#ff0000" stroke-width="0.5pt" />
<circle cx="538.400" cy="150.784" r="7.500" fill="#ff0000" stroke="#ff0000" stroke-width="0.5pt" />
<circle cx="563.200" cy="132.600" r="7.500" fill="#ff0000" stroke="#ff0000" stroke-width="0.5pt" />
<circle cx="588.000" cy="141.314" r="7.500" fill="#ff0000" stroke="#ff0000" stroke-width="0.5pt" />
<circle cx="612.800" cy="133.917" r="7.500" fill="#ff0000" stroke="#ff0000" stroke-width="0.5pt" />
<circle cx="637.600" cy="130.664" r="7.500" fill="#ff0000" stroke="#ff0000" stroke-width="0.5pt" />
<circle cx="662.400" cy="118.985" r="7.500" fill="#ff0000" stroke="#ff0000" stroke-width="0.5pt" />
<circle cx="687.200" cy="125.114" r="7.500" fill="#ff0000" stroke="#ff0000" stroke-width="0.5pt" />
<circle cx="712.000" cy="137.764" r="7.500" fill="#ff0000" stroke="#ff0000" stroke-width="0.5pt" />
<circle cx="736.800" cy="142.287" r="7.500" fill="#ff0000" stroke="#ff0000" stroke-width="0.5pt" />
<circle cx="761.600" cy="150.784" r="7.500" fill="#ff0000" stroke="#ff0000" stroke-width="0.5pt" />
<circle cx="786.400" cy="162.100" r="7.500" fill="#ff0000" stroke="#ff0000" stroke-width="0.5pt" />
<circle cx="811.200" cy="175.578" r="7.500" fill="#ff0000" stroke="#ff0000" stroke-width="0.5pt" />
<circle cx="836.000" cy="201.596" r="7.500" fill="#ff0000" stroke="#ff0000" stroke-width="0.5pt" />
<circle cx="860.800" cy="217.582" r="7.500" fill="#ff0000" stroke="#ff0000" stroke-width="0.5pt" />
<circle cx="885.600" cy="248.131" r="7.500" fill="#ff0000" stroke="#ff0000" stroke-width="0.5pt" />
<circle cx="910.400" cy="254.531" r="7.500" fill="#ff0000" stroke="#ff0000" stroke-width="0.5pt" />
<circle cx="935.200" cy="307.237" r="7.500" fill="#ff0000" stroke="#ff0000" stroke-width="0.5pt" />
<circle cx="960.000" cy="327.510" r="7.500" fill="#ff0000" stroke="#ff0000" stroke-width="0.5pt" />
<circle cx="984.800" cy="368.241" r="7.500" fill="#ff0000" stroke="#ff0000" stroke-width="0.5pt" />
<circle cx="1009.600" cy="399.917" r="7.500" fill="#ff0000" stroke="#ff0000" stroke-width="0.5pt" />
<circle cx="1034.400" cy="425.569" r="7.500" fill="#ff0000" stroke="#ff0000" stroke-width="0.5pt" />
<circle cx="1059.200" cy="442.166" r="7.500" fill="#ff0000" stroke="#ff0000" stroke-width="0.5pt" />
<circle cx="1084.000" cy="462.951" r="7.500" fill="#ff0000" stroke="#ff0000" stroke-width="0.5pt" />
<circle cx="1108.800" cy="623.890" r="7.500" fill="#ff0000" stroke="#ff0000" stroke-width="0.5pt" />
<circle cx="1133.600" cy="509.235" r="7.500" fill="#ff0000" stroke="#ff0000" stroke-width="0.5pt" />
<circle cx="1158.400" cy="509.235" r="7.500" fill="#ff0000" stroke="#ff0000" stroke-width="0.5pt" />
</g>
</g>
<g id="ID000006" >
  <g transform="translate(133.400,339.233)">
    <g transform="rotate(-90.0)">
      <text x="0.000" y="0.000" font-family="Helvetica" text-anchor="middle" font-size="10pt" fill="#000000" ><tspan>count of synesthetes</tspan></text>
    </g>
  </g>
</g>
<g id="ID000007" >
  <g transform="translate(661.900,655.902)">
    <g transform="rotate(-0.0)">
      <text x="0.000" y="0.000" font-family="Helvetica" text-anchor="middle" font-size="10pt" fill="#000000" ><tspan>correlation</tspan></text>
    </g>
  </g>
</g>
<g id="ID000008" >
</g>
    </g>
    <g>
      <polyline fill="none" stroke="#000000" stroke-width="0.5pt" stroke-dasharray="none" stroke-opacity="1.00" points="166.40000,623.89000 166.40000,613.97000 "/>
      <polyline fill="none" stroke="#000000" stroke-width="0.5pt" stroke-dasharray="none" stroke-opacity="1.00" points="290.40000,623.89000 290.40000,613.97000 "/>
      <polyline fill="none" stroke="#000000" stroke-width="0.5pt" stroke-dasharray="none" stroke-opacity="1.00" points="414.40000,623.89000 414.40000,613.97000 "/>
      <polyline fill="none" stroke="#000000" stroke-width="0.5pt" stroke-dasharray="none" stroke-opacity="1.00" points="538.40000,623.89000 538.40000,613.97000 "/>
      <polyline fill="none" stroke="#000000" stroke-width="0.5pt" stroke-dasharray="none" stroke-opacity="1.00" points="662.40000,623.89000 662.40000,613.97000 "/>
      <polyline fill="none" stroke="#000000" stroke-width="0.5pt" stroke-dasharray="none" stroke-opacity="1.00" points="786.40000,623.89000 786.40000,613.97000 "/>
      <polyline fill="none" stroke="#000000" stroke-width="0.5pt" stroke-dasharray="none" stroke-opacity="1.00" points="910.40000,623.89000 910.40000,613.97000 "/>
      <polyline fill="none" stroke="#000000" stroke-width="0.5pt" stroke-dasharray="none" stroke-opacity="1.00" points="1034.40000,623.89000 1034.40000,613.97000 "/>
      <polyline fill="none" stroke="#000000" stroke-width="0.5pt" stroke-dasharray="none" stroke-opacity="1.00" points="1158.40000,623.89000 1158.40000,613.97000 "/>
      <polyline fill="none" stroke="#000000" stroke-width="0.5pt" stroke-dasharray="none" stroke-opacity="1.00" points="166.40000,623.89000 1158.40000,623.89000 "/>
  <g transform="translate(166.400,647.116)">
    <g transform="rotate(-0.0)">
      <text x="0.000" y="0.000" font-family="Helvetica" text-anchor="middle" font-size="10pt" fill="#000000" ><tspan>-0.2</tspan></text>
    </g>
  </g>
  <g transform="translate(290.400,647.116)">
    <g transform="rotate(-0.0)">
      <text x="0.000" y="0.000" font-family="Helvetica" text-anchor="middle" font-size="10pt" fill="#000000" ><tspan>-0.15</tspan></text>
    </g>
  </g>
  <g transform="translate(414.400,647.116)">
    <g transform="rotate(-0.0)">
      <text x="0.000" y="0.000" font-family="Helvetica" text-anchor="middle" font-size="10pt" fill="#000000" ><tspan>-0.1</tspan></text>
    </g>
  </g>
  <g transform="translate(538.400,647.116)">
    <g transform="rotate(-0.0)">
      <text x="0.000" y="0.000" font-family="Helvetica" text-anchor="middle" font-size="10pt" fill="#000000" ><tspan>-0.05</tspan></text>
    </g>
  </g>
  <g transform="translate(662.400,647.116)">
    <g transform="rotate(-0.0)">
      <text x="0.000" y="0.000" font-family="Helvetica" text-anchor="middle" font-size="10pt" fill="#000000" ><tspan>0</tspan></text>
    </g>
  </g>
  <g transform="translate(786.400,647.116)">
    <g transform="rotate(-0.0)">
      <text x="0.000" y="0.000" font-family="Helvetica" text-anchor="middle" font-size="10pt" fill="#000000" ><tspan>0.05</tspan></text>
    </g>
  </g>
  <g transform="translate(910.400,647.116)">
    <g transform="rotate(-0.0)">
      <text x="0.000" y="0.000" font-family="Helvetica" text-anchor="middle" font-size="10pt" fill="#000000" ><tspan>0.1</tspan></text>
    </g>
  </g>
  <g transform="translate(1034.400,647.116)">
    <g transform="rotate(-0.0)">
      <text x="0.000" y="0.000" font-family="Helvetica" text-anchor="middle" font-size="10pt" fill="#000000" ><tspan>0.15</tspan></text>
    </g>
  </g>
  <g transform="translate(1158.400,647.116)">
    <g transform="rotate(-0.0)">
      <text x="0.000" y="0.000" font-family="Helvetica" text-anchor="middle" font-size="10pt" fill="#000000" ><tspan>0.2</tspan></text>
    </g>
  </g>
      <polyline fill="none" stroke="#000000" stroke-width="0.5pt" stroke-dasharray="none" stroke-opacity="1.00" points="166.40000,623.89000 176.32000,623.89000 "/>
      <polyline fill="none" stroke="#000000" stroke-width="0.5pt" stroke-dasharray="none" stroke-opacity="1.00" points="166.40000,433.45167 176.32000,433.45167 "/>
      <polyline fill="none" stroke="#000000" stroke-width="0.5pt" stroke-dasharray="none" stroke-opacity="1.00" points="166.40000,243.01333 176.32000,243.01333 "/>
      <polyline fill="none" stroke="#000000" stroke-width="0.5pt" stroke-dasharray="none" stroke-opacity="1.00" points="166.40000,52.57500 176.32000,52.57500 "/>
      <polyline fill="none" stroke="#000000" stroke-width="0.5pt" stroke-dasharray="none" stroke-opacity="1.00" points="166.40000,623.89000 166.40000,52.57500 "/>
      <polyline fill="none" stroke="#000000" stroke-width="0.5pt" stroke-dasharray="none" stroke-opacity="1.00" points="166.40000,566.56235 171.36000,566.56235 "/>
      <polyline fill="none" stroke="#000000" stroke-width="0.5pt" stroke-dasharray="none" stroke-opacity="1.00" points="166.40000,533.02782 171.36000,533.02782 "/>
      <polyline fill="none" stroke="#000000" stroke-width="0.5pt" stroke-dasharray="none" stroke-opacity="1.00" points="166.40000,509.23470 171.36000,509.23470 "/>
      <polyline fill="none" stroke="#000000" stroke-width="0.5pt" stroke-dasharray="none" stroke-opacity="1.00" points="166.40000,490.77932 171.36000,490.77932 "/>
      <polyline fill="none" stroke="#000000" stroke-width="0.5pt" stroke-dasharray="none" stroke-opacity="1.00" points="166.40000,475.70017 171.36000,475.70017 "/>
      <polyline fill="none" stroke="#000000" stroke-width="0.5pt" stroke-dasharray="none" stroke-opacity="1.00" points="166.40000,462.95094 171.36000,462.95094 "/>
      <polyline fill="none" stroke="#000000" stroke-width="0.5pt" stroke-dasharray="none" stroke-opacity="1.00" points="166.40000,451.90705 171.36000,451.90705 "/>
      <polyline fill="none" stroke="#000000" stroke-width="0.5pt" stroke-dasharray="none" stroke-opacity="1.00" points="166.40000,442.16565 171.36000,442.16565 "/>
      <polyline fill="none" stroke="#000000" stroke-width="0.5pt" stroke-dasharray="none" stroke-opacity="1.00" points="166.40000,376.12402 171.36000,376.12402 "/>
      <polyline fill="none" stroke="#000000" stroke-width="0.5pt" stroke-dasharray="none" stroke-opacity="1.00" points="166.40000,342.58949 171.36000,342.58949 "/>
      <polyline fill="none" stroke="#000000" stroke-width="0.5pt" stroke-dasharray="none" stroke-opacity="1.00" points="166.40000,318.79637 171.36000,318.79637 "/>
      <polyline fill="none" stroke="#000000" stroke-width="0.5pt" stroke-dasharray="none" stroke-opacity="1.00" points="166.40000,300.34098 171.36000,300.34098 "/>
      <polyline fill="none" stroke="#000000" stroke-width="0.5pt" stroke-dasharray="none" stroke-opacity="1.00" points="166.40000,285.26184 171.36000,285.26184 "/>
      <polyline fill="none" stroke="#000000" stroke-width="0.5pt" stroke-dasharray="none" stroke-opacity="1.00" points="166.40000,272.51260 171.36000,272.51260 "/>
      <polyline fill="none" stroke="#000000" stroke-width="0.5pt" stroke-dasharray="none" stroke-opacity="1.00" points="166.40000,261.46871 171.36000,261.46871 "/>
      <polyline fill="none" stroke="#000000" stroke-width="0.5pt" stroke-dasharray="none" stroke-opacity="1.00" points="166.40000,251.72731 171.36000,251.72731 "/>
      <polyline fill="none" stroke="#000000" stroke-width="0.5pt" stroke-dasharray="none" stroke-opacity="1.00" points="166.40000,185.68568 171.36000,185.68568 "/>
      <polyline fill="none" stroke="#000000" stroke-width="0.5pt" stroke-dasharray="none" stroke-opacity="1.00" points="166.40000,152.15116 171.36000,152.15116 "/>
      <polyline fill="none" stroke="#000000" stroke-width="0.5pt" stroke-dasharray="none" stroke-opacity="1.00" points="166.40000,128.35803 171.36000,128.35803 "/>
      <polyline fill="none" stroke="#000000" stroke-width="0.5pt" stroke-dasharray="none" stroke-opacity="1.00" points="166.40000,109.90265 171.36000,109.90265 "/>
      <polyline fill="none" stroke="#000000" stroke-width="0.5pt" stroke-dasharray="none" stroke-opacity="1.00" points="166.40000,94.82351 171.36000,94.82351 "/>
      <polyline fill="none" stroke="#000000" stroke-width="0.5pt" stroke-dasharray="none" stroke-opacity="1.00" points="166.40000,82.07427 171.36000,82.07427 "/>
      <polyline fill="none" stroke="#000000" stroke-width="0.5pt" stroke-dasharray="none" stroke-opacity="1.00" points="166.40000,71.03038 171.36000,71.03038 "/>
      <polyline fill="none" stroke="#000000" stroke-width="0.5pt" stroke-dasharray="none" stroke-opacity="1.00" points="166.40000,61.28898 171.36000,61.28898 "/>
  <g transform="translate(146.560,632.390)">
    <g transform="rotate(-0.0)">
      <text x="0.000" y="0.000" font-family="Helvetica" text-anchor="end" font-size="10pt" fill="#000000" >10<tspan font-size="7.0pt" dy="-7.0pt"><tspan>0</tspan></tspan></text>
    </g>
  </g>
  <g transform="translate(146.560,441.952)">
    <g transform="rotate(-0.0)">
      <text x="0.000" y="0.000" font-family="Helvetica" text-anchor="end" font-size="10pt" fill="#000000" >10<tspan font-size="7.0pt" dy="-7.0pt"><tspan>1</tspan></tspan></text>
    </g>
  </g>
  <g transform="translate(146.560,251.513)">
    <g transform="rotate(-0.0)">
      <text x="0.000" y="0.000" font-family="Helvetica" text-anchor="end" font-size="10pt" fill="#000000" >10<tspan font-size="7.0pt" dy="-7.0pt"><tspan>2</tspan></tspan></text>
    </g>
  </g>
  <g transform="translate(146.560,61.075)">
    <g transform="rotate(-0.0)">
      <text x="0.000" y="0.000" font-family="Helvetica" text-anchor="end" font-size="10pt" fill="#000000" >10<tspan font-size="7.0pt" dy="-7.0pt"><tspan>3</tspan></tspan></text>
    </g>
  </g>
      <polyline fill="none" stroke="#000000" stroke-width="0.5pt" stroke-dasharray="none" stroke-opacity="1.00" points="166.40000,623.89000 166.40000,618.17685 "/>
      <polyline fill="none" stroke="#000000" stroke-width="0.5pt" stroke-dasharray="none" stroke-opacity="1.00" points="166.40000,623.89000 166.40000,618.17685 "/>
      <polyline fill="none" stroke="#000000" stroke-width="0.5pt" stroke-dasharray="none" stroke-opacity="1.00" points="166.40000,623.89000 166.40000,618.17685 "/>
      <polyline fill="none" stroke="#000000" stroke-width="0.5pt" stroke-dasharray="none" stroke-opacity="1.00" points="166.40000,623.89000 166.40000,623.89000 "/>
    </g>
  </g>
  </g>
</svg>
