<?xml version="1.0" encoding="utf-8" standalone="no"?><!DOCTYPE svg PUBLIC "-//W3C//DTD SVG 1.1//EN" "http://www.w3.org/Graphics/SVG/1.1/DTD/svg11.dtd">
<svg preserveAspectRatio="xMinYMin meet" width="100%" height="100%" viewBox="0 0 1280.000 701.000"  version="1.1" xmlns="http://www.w3.org/2000/svg" xmlns:xlink="http://www.w3.org/1999/xlink">
  <desc>Matlab Figure Converted by PLOT2SVG written by Juerg Schwizer</desc>
  <g id="topgroup">
  <rect x="0" y="0" width="1280.000" height="701.000" fill="#ffffff" stroke="none" />
  <g id ="ID000000">
  <clipPath id="ID000001">
    <rect x="166.400" y="52.575" width="992.000" height="571.315"/>
  </clipPath>
      <polygon fill="#ffffff" fill-opacity="1.00" stroke="none" stroke-width="0.5pt" stroke-opacity="1.00" stroke-dasharray="none" points="166.400,623.890 1158.400,623.890 1158.400,52.575 166.400,52.575 "/>
      <polygon fill="#ffffff" fill-opacity="1.00" stroke="none" stroke-width="0.5pt" stroke-opacity="1.00" stroke-dasharray="none" points="166.400,52.575 1158.400,52.575 1158.400,52.575 166.400,52.575 "/>
      <polygon fill="#ffffff" fill-opacity="1.00" stroke="none" stroke-width="0.5pt" stroke-opacity="1.00" stroke-dasharray="none" points="166.400,623.890 166.400,623.890 166.400,52.575 166.400,52.575 "/>
    <g>
<g id="ID000002" clip-path="url(#ID000001)" >
      <polyline fill="none" stroke="#00ffff" stroke-width="10.0pt" stroke-dasharray="none" stroke-opacity="1.00" points="166.40000,300.34098 191.20000,451.90705 216.00000,389.56536 240.80000,372.08876 265.60000,329.84026 290.40000,303.71722 315.20000,305.45847 340.00000,305.45847 364.80000,274.91006 389.60000,249.01539 414.40000,223.24513 439.20000,203.11364 464.00000,205.18141 488.80000,192.13359 513.60000,176.31268 538.40000,154.95503 563.20000,153.26133 588.00000,151.05569 612.80000,151.32820 637.60000,126.92319 662.40000,138.69603 687.20000,126.51777 712.00000,133.91662 736.80000,136.84259 761.60000,132.38295 786.40000,146.55536 811.20000,154.10384 836.00000,163.03766 860.80000,177.80293 885.60000,187.35657 910.40000,216.97650 935.20000,236.64817 960.00000,260.44129 984.80000,269.04190 1009.60000,325.24428 1034.40000,354.42483 1059.20000,357.66863 1084.00000,405.62329 1108.80000,425.56891 1133.60000,490.77932 1158.40000,433.45167 "/>
</g>
<g id="ID000003" clip-path="url(#ID000001)" >
<g>
<circle cx="166.400" cy="300.341" r="7.500" fill="#00ffff" stroke="#00ffff" stroke-width="0.5pt" />
<circle cx="191.200" cy="451.907" r="7.500" fill="#00ffff" stroke="#00ffff" stroke-width="0.5pt" />
<circle cx="216.000" cy="389.565" r="7.500" fill="#00ffff" stroke="#00ffff" stroke-width="0.5pt" />
<circle cx="240.800" cy="372.089" r="7.500" fill="#00ffff" stroke="#00ffff" stroke-width="0.5pt" />
<circle cx="265.600" cy="329.840" r="7.500" fill="#00ffff" stroke="#00ffff" stroke-width="0.5pt" />
<circle cx="290.400" cy="303.717" r="7.500" fill="#00ffff" stroke="#00ffff" stroke-width="0.5pt" />
<circle cx="315.200" cy="305.458" r="7.500" fill="#00ffff" stroke="#00ffff" stroke-width="0.5pt" />
<circle cx="340.000" cy="305.458" r="7.500" fill="#00ffff" stroke="#00ffff" stroke-width="0.5pt" />
<circle cx="364.800" cy="274.910" r="7.500" fill="#00ffff" stroke="#00ffff" stroke-width="0.5pt" />
<circle cx="389.600" cy="249.015" r="7.500" fill="#00ffff" stroke="#00ffff" stroke-width="0.5pt" />
<circle cx="414.400" cy="223.245" r="7.500" fill="#00ffff" stroke="#00ffff" stroke-width="0.5pt" />
<circle cx="439.200" cy="203.114" r="7.500" fill="#00ffff" stroke="#00ffff" stroke-width="0.5pt" />
<circle cx="464.000" cy="205.181" r="7.500" fill="#00ffff" stroke="#00ffff" stroke-width="0.5pt" />
<circle cx="488.800" cy="192.134" r="7.500" fill="#00ffff" stroke="#00ffff" stroke-width="0.5pt" />
<circle cx="513.600" cy="176.313" r="7.500" fill="#00ffff" stroke="#00ffff" stroke-width="0.5pt" />
<circle cx="538.400" cy="154.955" r="7.500" fill="#00ffff" stroke="#00ffff" stroke-width="0.5pt" />
<circle cx="563.200" cy="153.261" r="7.500" fill="#00ffff" stroke="#00ffff" stroke-width="0.5pt" />
<circle cx="588.000" cy="151.056" r="7.500" fill="#00ffff" stroke="#00ffff" stroke-width="0.5pt" />
<circle cx="612.800" cy="151.328" r="7.500" fill="#00ffff" stroke="#00ffff" stroke-width="0.5pt" />
<circle cx="637.600" cy="126.923" r="7.500" fill="#00ffff" stroke="#00ffff" stroke-width="0.5pt" />
<circle cx="662.400" cy="138.696" r="7.500" fill="#00ffff" stroke="#00ffff" stroke-width="0.5pt" />
<circle cx="687.200" cy="126.518" r="7.500" fill="#00ffff" stroke="#00ffff" stroke-width="0.5pt" />
<circle cx="712.000" cy="133.917" r="7.500" fill="#00ffff" stroke="#00ffff" stroke-width="0.5pt" />
<circle cx="736.800" cy="136.843" r="7.500" fill="#00ffff" stroke="#00ffff" stroke-width="0.5pt" />
<circle cx="761.600" cy="132.383" r="7.500" fill="#00ffff" stroke="#00ffff" stroke-width="0.5pt" />
<circle cx="786.400" cy="146.555" r="7.500" fill="#00ffff" stroke="#00ffff" stroke-width="0.5pt" />
<circle cx="811.200" cy="154.104" r="7.500" fill="#00ffff" stroke="#00ffff" stroke-width="0.5pt" />
<circle cx="836.000" cy="163.038" r="7.500" fill="#00ffff" stroke="#00ffff" stroke-width="0.5pt" />
<circle cx="860.800" cy="177.803" r="7.500" fill="#00ffff" stroke="#00ffff" stroke-width="0.5pt" />
<circle cx="885.600" cy="187.357" r="7.500" fill="#00ffff" stroke="#00ffff" stroke-width="0.5pt" />
<circle cx="910.400" cy="216.976" r="7.500" fill="#00ffff" stroke="#00ffff" stroke-width="0.5pt" />
<circle cx="935.200" cy="236.648" r="7.500" fill="#00ffff" stroke="#00ffff" stroke-width="0.5pt" />
<circle cx="960.000" cy="260.441" r="7.500" fill="#00ffff" stroke="#00ffff" stroke-width="0.5pt" />
<circle cx="984.800" cy="269.042" r="7.500" fill="#00ffff" stroke="#00ffff" stroke-width="0.5pt" />
<circle cx="1009.600" cy="325.244" r="7.500" fill="#00ffff" stroke="#00ffff" stroke-width="0.5pt" />
<circle cx="1034.400" cy="354.425" r="7.500" fill="#00ffff" stroke="#00ffff" stroke-width="0.5pt" />
<circle cx="1059.200" cy="357.669" r="7.500" fill="#00ffff" stroke="#00ffff" stroke-width="0.5pt" />
<circle cx="1084.000" cy="405.623" r="7.500" fill="#00ffff" stroke="#00ffff" stroke-width="0.5pt" />
<circle cx="1108.800" cy="425.569" r="7.500" fill="#00ffff" stroke="#00ffff" stroke-width="0.5pt" />
<circle cx="1133.600" cy="490.779" r="7.500" fill="#00ffff" stroke="#00ffff" stroke-width="0.5pt" />
<circle cx="1158.400" cy="433.452" r="7.500" fill="#00ffff" stroke="#00ffff" stroke-width="0.5pt" />
</g>
</g>
<g id="ID000004" clip-path="url(#ID000001)" >
      <polyline fill="none" stroke="#ff0000" stroke-width="10.0pt" stroke-dasharray="none" stroke-opacity="1.00" points="166.40000,246.38957 191.20000,384.83800 216.00000,327.51035 240.80000,325.24428 265.60000,300.34098 290.40000,279.92410 315.20000,276.13536 340.00000,254.53119 364.80000,231.45414 389.60000,235.13058 414.40000,199.12702 439.20000,202.09883 464.00000,183.24098 488.80000,176.68274 513.60000,168.22878 538.40000,160.25476 563.20000,153.82205 588.00000,152.98238 612.80000,136.61380 637.60000,143.51992 662.40000,131.73427 687.20000,137.76412 712.00000,139.40192 736.80000,144.26840 761.60000,143.76867 786.40000,155.52739 811.20000,161.48006 836.00000,175.21236 860.80000,182.44188 885.60000,208.38334 910.40000,230.02813 935.20000,248.13082 960.00000,267.91663 984.80000,281.22658 1009.60000,354.42483 1034.40000,348.29564 1059.20000,399.91714 1084.00000,411.75248 1108.80000,490.77932 1133.60000,509.23470 1158.40000,490.77932 "/>
</g>
<g id="ID000005" clip-path="url(#ID000001)" >
<g>
<circle cx="166.400" cy="246.390" r="7.500" fill="#ff0000" stroke="#ff0000" stroke-width="0.5pt" />
<circle cx="191.200" cy="384.838" r="7.500" fill="#ff0000" stroke="#ff0000" stroke-width="0.5pt" />
<circle cx="216.000" cy="327.510" r="7.500" fill="#ff0000" stroke="#ff0000" stroke-width="0.5pt" />
<circle cx="240.800" cy="325.244" r="7.500" fill="#ff0000" stroke="#ff0000" stroke-width="0.5pt" />
<circle cx="265.600" cy="300.341" r="7.500" fill="#ff0000" stroke="#ff0000" stroke-width="0.5pt" />
<circle cx="290.400" cy="279.924" r="7.500" fill="#ff0000" stroke="#ff0000" stroke-width="0.5pt" />
<circle cx="315.200" cy="276.135" r="7.500" fill="#ff0000" stroke="#ff0000" stroke-width="0.5pt" />
<circle cx="340.000" cy="254.531" r="7.500" fill="#ff0000" stroke="#ff0000" stroke-width="0.5pt" />
<circle cx="364.800" cy="231.454" r="7.500" fill="#ff0000" stroke="#ff0000" stroke-width="0.5pt" />
<circle cx="389.600" cy="235.131" r="7.500" fill="#ff0000" stroke="#ff0000" stroke-width="0.5pt" />
<circle cx="414.400" cy="199.127" r="7.500" fill="#ff0000" stroke="#ff0000" stroke-width="0.5pt" />
<circle cx="439.200" cy="202.099" r="7.500" fill="#ff0000" stroke="#ff0000" stroke-width="0.5pt" />
<circle cx="464.000" cy="183.241" r="7.500" fill="#ff0000" stroke="#ff0000" stroke-width="0.5pt" />
<circle cx="488.800" cy="176.683" r="7.500" fill="#ff0000" stroke="#ff0000" stroke-width="0.5pt" />
<circle cx="513.600" cy="168.229" r="7.500" fill="#ff0000" stroke="#ff0000" stroke-width="0.5pt" />
<circle cx="538.400" cy="160.255" r="7.500" fill="#ff0000" stroke="#ff0000" stroke-width="0.5pt" />
<circle cx="563.200" cy="153.822" r="7.500" fill="#ff0000" stroke="#ff0000" stroke-width="0.5pt" />
<circle cx="588.000" cy="152.982" r="7.500" fill="#ff0000" stroke="#ff0000" stroke-width="0.5pt" />
<circle cx="612.800" cy="136.614" r="7.500" fill="#ff0000" stroke="#ff0000" stroke-width="0.5pt" />
<circle cx="637.600" cy="143.520" r="7.500" fill="#ff0000" stroke="#ff0000" stroke-width="0.5pt" />
<circle cx="662.400" cy="131.734" r="7.500" fill="#ff0000" stroke="#ff0000" stroke-width="0.5pt" />
<circle cx="687.200" cy="137.764" r="7.500" fill="#ff0000" stroke="#ff0000" stroke-width="0.5pt" />
<circle cx="712.000" cy="139.402" r="7.500" fill="#ff0000" stroke="#ff0000" stroke-width="0.5pt" />
<circle cx="736.800" cy="144.268" r="7.500" fill="#ff0000" stroke="#ff0000" stroke-width="0.5pt" />
<circle cx="761.600" cy="143.769" r="7.500" fill="#ff0000" stroke="#ff0000" stroke-width="0.5pt" />
<circle cx="786.400" cy="155.527" r="7.500" fill="#ff0000" stroke="#ff0000" stroke-width="0.5pt" />
<circle cx="811.200" cy="161.480" r="7.500" fill="#ff0000" stroke="#ff0000" stroke-width="0.5pt" />
<circle cx="836.000" cy="175.212" r="7.500" fill="#ff0000" stroke="#ff0000" stroke-width="0.5pt" />
<circle cx="860.800" cy="182.442" r="7.500" fill="#ff0000" stroke="#ff0000" stroke-width="0.5pt" />
<circle cx="885.600" cy="208.383" r="7.500" fill="#ff0000" stroke="#ff0000" stroke-width="0.5pt" />
<circle cx="910.400" cy="230.028" r="7.500" fill="#ff0000" stroke="#ff0000" stroke-width="0.5pt" />
<circle cx="935.200" cy="248.131" r="7.500" fill="#ff0000" stroke="#ff0000" stroke-width="0.5pt" />
<circle cx="960.000" cy="267.917" r="7.500" fill="#ff0000" stroke="#ff0000" stroke-width="0.5pt" />
<circle cx="984.800" cy="281.227" r="7.500" fill="#ff0000" stroke="#ff0000" stroke-width="0.5pt" />
<circle cx="1009.600" cy="354.425" r="7.500" fill="#ff0000" stroke="#ff0000" stroke-width="0.5pt" />
<circle cx="1034.400" cy="348.296" r="7.500" fill="#ff0000" stroke="#ff0000" stroke-width="0.5pt" />
<circle cx="1059.200" cy="399.917" r="7.500" fill="#ff0000" stroke="#ff0000" stroke-width="0.5pt" />
<circle cx="1084.000" cy="411.752" r="7.500" fill="#ff0000" stroke="#ff0000" stroke-width="0.5pt" />
<circle cx="1108.800" cy="490.779" r="7.500" fill="#ff0000" stroke="#ff0000" stroke-width="0.5pt" />
<circle cx="1133.600" cy="509.235" r="7.500" fill="#ff0000" stroke="#ff0000" stroke-width="0.5pt" />
<circle cx="1158.400" cy="490.779" r="7.500" fill="#ff0000" stroke="#ff0000" stroke-width="0.5pt" />
</g>
</g>
<g id="ID000006" >
  <g transform="translate(133.400,339.233)">
    <g transform="rotate(-90.0)">
      <text x="0.000" y="0.000" font-family="Helvetica" text-anchor="middle" font-size="10pt" fill="#000000" ><tspan>count of synesthetes</tspan></text>
    </g>
  </g>
</g>
<g id="ID000007" >
  <g transform="translate(661.900,655.902)">
    <g transform="rotate(-0.0)">
      <text x="0.000" y="0.000" font-family="Helvetica" text-anchor="middle" font-size="10pt" fill="#000000" ><tspan>correlation</tspan></text>
    </g>
  </g>
</g>
<g id="ID000008" >
</g>
    </g>
    <g>
      <polyline fill="none" stroke="#000000" stroke-width="0.5pt" stroke-dasharray="none" stroke-opacity="1.00" points="166.40000,623.89000 166.40000,613.97000 "/>
      <polyline fill="none" stroke="#000000" stroke-width="0.5pt" stroke-dasharray="none" stroke-opacity="1.00" points="290.40000,623.89000 290.40000,613.97000 "/>
      <polyline fill="none" stroke="#000000" stroke-width="0.5pt" stroke-dasharray="none" stroke-opacity="1.00" points="414.40000,623.89000 414.40000,613.97000 "/>
      <polyline fill="none" stroke="#000000" stroke-width="0.5pt" stroke-dasharray="none" stroke-opacity="1.00" points="538.40000,623.89000 538.40000,613.97000 "/>
      <polyline fill="none" stroke="#000000" stroke-width="0.5pt" stroke-dasharray="none" stroke-opacity="1.00" points="662.40000,623.89000 662.40000,613.97000 "/>
      <polyline fill="none" stroke="#000000" stroke-width="0.5pt" stroke-dasharray="none" stroke-opacity="1.00" points="786.40000,623.89000 786.40000,613.97000 "/>
      <polyline fill="none" stroke="#000000" stroke-width="0.5pt" stroke-dasharray="none" stroke-opacity="1.00" points="910.40000,623.89000 910.40000,613.97000 "/>
      <polyline fill="none" stroke="#000000" stroke-width="0.5pt" stroke-dasharray="none" stroke-opacity="1.00" points="1034.40000,623.89000 1034.40000,613.97000 "/>
      <polyline fill="none" stroke="#000000" stroke-width="0.5pt" stroke-dasharray="none" stroke-opacity="1.00" points="1158.40000,623.89000 1158.40000,613.97000 "/>
      <polyline fill="none" stroke="#000000" stroke-width="0.5pt" stroke-dasharray="none" stroke-opacity="1.00" points="166.40000,623.89000 1158.40000,623.89000 "/>
  <g transform="translate(166.400,647.116)">
    <g transform="rotate(-0.0)">
      <text x="0.000" y="0.000" font-family="Helvetica" text-anchor="middle" font-size="10pt" fill="#000000" ><tspan>-0.2</tspan></text>
    </g>
  </g>
  <g transform="translate(290.400,647.116)">
    <g transform="rotate(-0.0)">
      <text x="0.000" y="0.000" font-family="Helvetica" text-anchor="middle" font-size="10pt" fill="#000000" ><tspan>-0.15</tspan></text>
    </g>
  </g>
  <g transform="translate(414.400,647.116)">
    <g transform="rotate(-0.0)">
      <text x="0.000" y="0.000" font-family="Helvetica" text-anchor="middle" font-size="10pt" fill="#000000" ><tspan>-0.1</tspan></text>
    </g>
  </g>
  <g transform="translate(538.400,647.116)">
    <g transform="rotate(-0.0)">
      <text x="0.000" y="0.000" font-family="Helvetica" text-anchor="middle" font-size="10pt" fill="#000000" ><tspan>-0.05</tspan></text>
    </g>
  </g>
  <g transform="translate(662.400,647.116)">
    <g transform="rotate(-0.0)">
      <text x="0.000" y="0.000" font-family="Helvetica" text-anchor="middle" font-size="10pt" fill="#000000" ><tspan>0</tspan></text>
    </g>
  </g>
  <g transform="translate(786.400,647.116)">
    <g transform="rotate(-0.0)">
      <text x="0.000" y="0.000" font-family="Helvetica" text-anchor="middle" font-size="10pt" fill="#000000" ><tspan>0.05</tspan></text>
    </g>
  </g>
  <g transform="translate(910.400,647.116)">
    <g transform="rotate(-0.0)">
      <text x="0.000" y="0.000" font-family="Helvetica" text-anchor="middle" font-size="10pt" fill="#000000" ><tspan>0.1</tspan></text>
    </g>
  </g>
  <g transform="translate(1034.400,647.116)">
    <g transform="rotate(-0.0)">
      <text x="0.000" y="0.000" font-family="Helvetica" text-anchor="middle" font-size="10pt" fill="#000000" ><tspan>0.15</tspan></text>
    </g>
  </g>
  <g transform="translate(1158.400,647.116)">
    <g transform="rotate(-0.0)">
      <text x="0.000" y="0.000" font-family="Helvetica" text-anchor="middle" font-size="10pt" fill="#000000" ><tspan>0.2</tspan></text>
    </g>
  </g>
      <polyline fill="none" stroke="#000000" stroke-width="0.5pt" stroke-dasharray="none" stroke-opacity="1.00" points="166.40000,623.89000 176.32000,623.89000 "/>
      <polyline fill="none" stroke="#000000" stroke-width="0.5pt" stroke-dasharray="none" stroke-opacity="1.00" points="166.40000,433.45167 176.32000,433.45167 "/>
      <polyline fill="none" stroke="#000000" stroke-width="0.5pt" stroke-dasharray="none" stroke-opacity="1.00" points="166.40000,243.01333 176.32000,243.01333 "/>
      <polyline fill="none" stroke="#000000" stroke-width="0.5pt" stroke-dasharray="none" stroke-opacity="1.00" points="166.40000,52.57500 176.32000,52.57500 "/>
      <polyline fill="none" stroke="#000000" stroke-width="0.5pt" stroke-dasharray="none" stroke-opacity="1.00" points="166.40000,623.89000 166.40000,52.57500 "/>
      <polyline fill="none" stroke="#000000" stroke-width="0.5pt" stroke-dasharray="none" stroke-opacity="1.00" points="166.40000,566.56235 171.36000,566.56235 "/>
      <polyline fill="none" stroke="#000000" stroke-width="0.5pt" stroke-dasharray="none" stroke-opacity="1.00" points="166.40000,533.02782 171.36000,533.02782 "/>
      <polyline fill="none" stroke="#000000" stroke-width="0.5pt" stroke-dasharray="none" stroke-opacity="1.00" points="166.40000,509.23470 171.36000,509.23470 "/>
      <polyline fill="none" stroke="#000000" stroke-width="0.5pt" stroke-dasharray="none" stroke-opacity="1.00" points="166.40000,490.77932 171.36000,490.77932 "/>
      <polyline fill="none" stroke="#000000" stroke-width="0.5pt" stroke-dasharray="none" stroke-opacity="1.00" points="166.40000,475.70017 171.36000,475.70017 "/>
      <polyline fill="none" stroke="#000000" stroke-width="0.5pt" stroke-dasharray="none" stroke-opacity="1.00" points="166.40000,462.95094 171.36000,462.95094 "/>
      <polyline fill="none" stroke="#000000" stroke-width="0.5pt" stroke-dasharray="none" stroke-opacity="1.00" points="166.40000,451.90705 171.36000,451.90705 "/>
      <polyline fill="none" stroke="#000000" stroke-width="0.5pt" stroke-dasharray="none" stroke-opacity="1.00" points="166.40000,442.16565 171.36000,442.16565 "/>
      <polyline fill="none" stroke="#000000" stroke-width="0.5pt" stroke-dasharray="none" stroke-opacity="1.00" points="166.40000,376.12402 171.36000,376.12402 "/>
      <polyline fill="none" stroke="#000000" stroke-width="0.5pt" stroke-dasharray="none" stroke-opacity="1.00" points="166.40000,342.58949 171.36000,342.58949 "/>
      <polyline fill="none" stroke="#000000" stroke-width="0.5pt" stroke-dasharray="none" stroke-opacity="1.00" points="166.40000,318.79637 171.36000,318.79637 "/>
      <polyline fill="none" stroke="#000000" stroke-width="0.5pt" stroke-dasharray="none" stroke-opacity="1.00" points="166.40000,300.34098 171.36000,300.34098 "/>
      <polyline fill="none" stroke="#000000" stroke-width="0.5pt" stroke-dasharray="none" stroke-opacity="1.00" points="166.40000,285.26184 171.36000,285.26184 "/>
      <polyline fill="none" stroke="#000000" stroke-width="0.5pt" stroke-dasharray="none" stroke-opacity="1.00" points="166.40000,272.51260 171.36000,272.51260 "/>
      <polyline fill="none" stroke="#000000" stroke-width="0.5pt" stroke-dasharray="none" stroke-opacity="1.00" points="166.40000,261.46871 171.36000,261.46871 "/>
      <polyline fill="none" stroke="#000000" stroke-width="0.5pt" stroke-dasharray="none" stroke-opacity="1.00" points="166.40000,251.72731 171.36000,251.72731 "/>
      <polyline fill="none" stroke="#000000" stroke-width="0.5pt" stroke-dasharray="none" stroke-opacity="1.00" points="166.40000,185.68568 171.36000,185.68568 "/>
      <polyline fill="none" stroke="#000000" stroke-width="0.5pt" stroke-dasharray="none" stroke-opacity="1.00" points="166.40000,152.15116 171.36000,152.15116 "/>
      <polyline fill="none" stroke="#000000" stroke-width="0.5pt" stroke-dasharray="none" stroke-opacity="1.00" points="166.40000,128.35803 171.36000,128.35803 "/>
      <polyline fill="none" stroke="#000000" stroke-width="0.5pt" stroke-dasharray="none" stroke-opacity="1.00" points="166.40000,109.90265 171.36000,109.90265 "/>
      <polyline fill="none" stroke="#000000" stroke-width="0.5pt" stroke-dasharray="none" stroke-opacity="1.00" points="166.40000,94.82351 171.36000,94.82351 "/>
      <polyline fill="none" stroke="#000000" stroke-width="0.5pt" stroke-dasharray="none" stroke-opacity="1.00" points="166.40000,82.07427 171.36000,82.07427 "/>
      <polyline fill="none" stroke="#000000" stroke-width="0.5pt" stroke-dasharray="none" stroke-opacity="1.00" points="166.40000,71.03038 171.36000,71.03038 "/>
      <polyline fill="none" stroke="#000000" stroke-width="0.5pt" stroke-dasharray="none" stroke-opacity="1.00" points="166.40000,61.28898 171.36000,61.28898 "/>
  <g transform="translate(146.560,632.390)">
    <g transform="rotate(-0.0)">
      <text x="0.000" y="0.000" font-family="Helvetica" text-anchor="end" font-size="10pt" fill="#000000" >10<tspan font-size="7.0pt" dy="-7.0pt"><tspan>0</tspan></tspan></text>
    </g>
  </g>
  <g transform="translate(146.560,441.952)">
    <g transform="rotate(-0.0)">
      <text x="0.000" y="0.000" font-family="Helvetica" text-anchor="end" font-size="10pt" fill="#000000" >10<tspan font-size="7.0pt" dy="-7.0pt"><tspan>1</tspan></tspan></text>
    </g>
  </g>
  <g transform="translate(146.560,251.513)">
    <g transform="rotate(-0.0)">
      <text x="0.000" y="0.000" font-family="Helvetica" text-anchor="end" font-size="10pt" fill="#000000" >10<tspan font-size="7.0pt" dy="-7.0pt"><tspan>2</tspan></tspan></text>
    </g>
  </g>
  <g transform="translate(146.560,61.075)">
    <g transform="rotate(-0.0)">
      <text x="0.000" y="0.000" font-family="Helvetica" text-anchor="end" font-size="10pt" fill="#000000" >10<tspan font-size="7.0pt" dy="-7.0pt"><tspan>3</tspan></tspan></text>
    </g>
  </g>
      <polyline fill="none" stroke="#000000" stroke-width="0.5pt" stroke-dasharray="none" stroke-opacity="1.00" points="166.40000,623.89000 166.40000,618.17685 "/>
      <polyline fill="none" stroke="#000000" stroke-width="0.5pt" stroke-dasharray="none" stroke-opacity="1.00" points="166.40000,623.89000 166.40000,618.17685 "/>
      <polyline fill="none" stroke="#000000" stroke-width="0.5pt" stroke-dasharray="none" stroke-opacity="1.00" points="166.40000,623.89000 166.40000,618.17685 "/>
      <polyline fill="none" stroke="#000000" stroke-width="0.5pt" stroke-dasharray="none" stroke-opacity="1.00" points="166.40000,623.89000 166.40000,623.89000 "/>
    </g>
  </g>
  </g>
</svg>
