<?xml version="1.0" encoding="utf-8" standalone="no"?><!DOCTYPE svg PUBLIC "-//W3C//DTD SVG 1.1//EN" "http://www.w3.org/Graphics/SVG/1.1/DTD/svg11.dtd">
<svg preserveAspectRatio="xMinYMin meet" width="100%" height="100%" viewBox="0 0 1280.000 701.000"  version="1.1" xmlns="http://www.w3.org/2000/svg" xmlns:xlink="http://www.w3.org/1999/xlink">
  <desc>Matlab Figure Converted by PLOT2SVG written by Juerg Schwizer</desc>
  <g id="topgroup">
  <rect x="0" y="0" width="1280.000" height="701.000" fill="#ffffff" stroke="none" />
  <g id ="ID000000">
  <clipPath id="ID000001">
    <rect x="166.400" y="52.575" width="992.000" height="571.315"/>
  </clipPath>
      <polygon fill="#ffffff" fill-opacity="1.00" stroke="none" stroke-width="0.5pt" stroke-opacity="1.00" stroke-dasharray="none" points="166.400,623.890 1158.400,623.890 1158.400,52.575 166.400,52.575 "/>
      <polygon fill="#ffffff" fill-opacity="1.00" stroke="none" stroke-width="0.5pt" stroke-opacity="1.00" stroke-dasharray="none" points="166.400,52.575 1158.400,52.575 1158.400,52.575 166.400,52.575 "/>
      <polygon fill="#ffffff" fill-opacity="1.00" stroke="none" stroke-width="0.5pt" stroke-opacity="1.00" stroke-dasharray="none" points="166.400,623.890 166.400,623.890 166.400,52.575 166.400,52.575 "/>
    <g>
<g id="ID000002" clip-path="url(#ID000001)" >
      <polyline fill="none" stroke="#00ffff" stroke-width="10.0pt" stroke-dasharray="none" stroke-opacity="1.00" points="166.40000,566.56235 191.20000,533.02782 216.00000,490.77932 240.80000,425.56891 265.60000,342.58949 290.40000,307.23717 315.20000,295.52178 340.00000,243.01333 364.80000,226.56711 389.60000,192.13359 414.40000,178.93850 439.20000,170.60654 464.00000,156.39344 488.80000,152.42731 513.60000,135.93122 538.40000,129.81821 563.20000,123.92987 588.00000,131.73427 612.80000,133.47552 637.60000,135.02978 662.40000,145.53112 687.20000,155.24072 712.00000,152.98238 736.80000,162.72378 761.60000,186.51691 786.40000,193.94145 811.20000,213.43140 836.00000,203.62576 860.80000,217.58241 885.60000,233.64034 910.40000,251.72731 935.20000,259.42648 960.00000,267.91663 984.80000,279.92410 1009.60000,320.89031 1034.40000,314.76111 1059.20000,327.51035 1084.00000,368.24126 1108.80000,357.66863 1133.60000,372.08876 1158.40000,261.46871 "/>
</g>
<g id="ID000003" clip-path="url(#ID000001)" >
<g>
<circle cx="166.400" cy="566.562" r="7.500" fill="#00ffff" stroke="#00ffff" stroke-width="0.5pt" />
<circle cx="191.200" cy="533.028" r="7.500" fill="#00ffff" stroke="#00ffff" stroke-width="0.5pt" />
<circle cx="216.000" cy="490.779" r="7.500" fill="#00ffff" stroke="#00ffff" stroke-width="0.5pt" />
<circle cx="240.800" cy="425.569" r="7.500" fill="#00ffff" stroke="#00ffff" stroke-width="0.5pt" />
<circle cx="265.600" cy="342.589" r="7.500" fill="#00ffff" stroke="#00ffff" stroke-width="0.5pt" />
<circle cx="290.400" cy="307.237" r="7.500" fill="#00ffff" stroke="#00ffff" stroke-width="0.5pt" />
<circle cx="315.200" cy="295.522" r="7.500" fill="#00ffff" stroke="#00ffff" stroke-width="0.5pt" />
<circle cx="340.000" cy="243.013" r="7.500" fill="#00ffff" stroke="#00ffff" stroke-width="0.5pt" />
<circle cx="364.800" cy="226.567" r="7.500" fill="#00ffff" stroke="#00ffff" stroke-width="0.5pt" />
<circle cx="389.600" cy="192.134" r="7.500" fill="#00ffff" stroke="#00ffff" stroke-width="0.5pt" />
<circle cx="414.400" cy="178.939" r="7.500" fill="#00ffff" stroke="#00ffff" stroke-width="0.5pt" />
<circle cx="439.200" cy="170.607" r="7.500" fill="#00ffff" stroke="#00ffff" stroke-width="0.5pt" />
<circle cx="464.000" cy="156.393" r="7.500" fill="#00ffff" stroke="#00ffff" stroke-width="0.5pt" />
<circle cx="488.800" cy="152.427" r="7.500" fill="#00ffff" stroke="#00ffff" stroke-width="0.5pt" />
<circle cx="513.600" cy="135.931" r="7.500" fill="#00ffff" stroke="#00ffff" stroke-width="0.5pt" />
<circle cx="538.400" cy="129.818" r="7.500" fill="#00ffff" stroke="#00ffff" stroke-width="0.5pt" />
<circle cx="563.200" cy="123.930" r="7.500" fill="#00ffff" stroke="#00ffff" stroke-width="0.5pt" />
<circle cx="588.000" cy="131.734" r="7.500" fill="#00ffff" stroke="#00ffff" stroke-width="0.5pt" />
<circle cx="612.800" cy="133.476" r="7.500" fill="#00ffff" stroke="#00ffff" stroke-width="0.5pt" />
<circle cx="637.600" cy="135.030" r="7.500" fill="#00ffff" stroke="#00ffff" stroke-width="0.5pt" />
<circle cx="662.400" cy="145.531" r="7.500" fill="#00ffff" stroke="#00ffff" stroke-width="0.5pt" />
<circle cx="687.200" cy="155.241" r="7.500" fill="#00ffff" stroke="#00ffff" stroke-width="0.5pt" />
<circle cx="712.000" cy="152.982" r="7.500" fill="#00ffff" stroke="#00ffff" stroke-width="0.5pt" />
<circle cx="736.800" cy="162.724" r="7.500" fill="#00ffff" stroke="#00ffff" stroke-width="0.5pt" />
<circle cx="761.600" cy="186.517" r="7.500" fill="#00ffff" stroke="#00ffff" stroke-width="0.5pt" />
<circle cx="786.400" cy="193.941" r="7.500" fill="#00ffff" stroke="#00ffff" stroke-width="0.5pt" />
<circle cx="811.200" cy="213.431" r="7.500" fill="#00ffff" stroke="#00ffff" stroke-width="0.5pt" />
<circle cx="836.000" cy="203.626" r="7.500" fill="#00ffff" stroke="#00ffff" stroke-width="0.5pt" />
<circle cx="860.800" cy="217.582" r="7.500" fill="#00ffff" stroke="#00ffff" stroke-width="0.5pt" />
<circle cx="885.600" cy="233.640" r="7.500" fill="#00ffff" stroke="#00ffff" stroke-width="0.5pt" />
<circle cx="910.400" cy="251.727" r="7.500" fill="#00ffff" stroke="#00ffff" stroke-width="0.5pt" />
<circle cx="935.200" cy="259.426" r="7.500" fill="#00ffff" stroke="#00ffff" stroke-width="0.5pt" />
<circle cx="960.000" cy="267.917" r="7.500" fill="#00ffff" stroke="#00ffff" stroke-width="0.5pt" />
<circle cx="984.800" cy="279.924" r="7.500" fill="#00ffff" stroke="#00ffff" stroke-width="0.5pt" />
<circle cx="1009.600" cy="320.890" r="7.500" fill="#00ffff" stroke="#00ffff" stroke-width="0.5pt" />
<circle cx="1034.400" cy="314.761" r="7.500" fill="#00ffff" stroke="#00ffff" stroke-width="0.5pt" />
<circle cx="1059.200" cy="327.510" r="7.500" fill="#00ffff" stroke="#00ffff" stroke-width="0.5pt" />
<circle cx="1084.000" cy="368.241" r="7.500" fill="#00ffff" stroke="#00ffff" stroke-width="0.5pt" />
<circle cx="1108.800" cy="357.669" r="7.500" fill="#00ffff" stroke="#00ffff" stroke-width="0.5pt" />
<circle cx="1133.600" cy="372.089" r="7.500" fill="#00ffff" stroke="#00ffff" stroke-width="0.5pt" />
<circle cx="1158.400" cy="261.469" r="7.500" fill="#00ffff" stroke="#00ffff" stroke-width="0.5pt" />
</g>
</g>
<g id="ID000004" clip-path="url(#ID000001)" >
      <polyline fill="none" stroke="#ff0000" stroke-width="10.0pt" stroke-dasharray="none" stroke-opacity="1.00" points=","/>
      <polyline fill="none" stroke="#ff0000" stroke-width="10.0pt" stroke-dasharray="none" stroke-opacity="1.00" points=","/>
      <polyline fill="none" stroke="#ff0000" stroke-width="10.0pt" stroke-dasharray="none" stroke-opacity="1.00" points="216.00000,490.77932 240.80000,623.89000 265.60000,533.02782 290.40000,411.75248 315.20000,380.36630 340.00000,357.66863 364.80000,312.81499 389.60000,297.09718 414.40000,246.38957 439.20000,233.64034 464.00000,220.05143 488.80000,187.35657 513.60000,177.42784 538.40000,165.91748 563.20000,151.05569 588.00000,145.02372 612.80000,145.27703 637.60000,134.36009 662.40000,139.16595 687.20000,141.07281 712.00000,149.70646 736.80000,153.26133 761.60000,150.24351 786.40000,155.24072 811.20000,158.45018 836.00000,164.94635 860.80000,177.42784 885.60000,188.20485 910.40000,205.70653 935.20000,218.80771 960.00000,227.93419 984.80000,231.45414 1009.60000,230.73806 1034.40000,264.62985 1059.20000,262.50906 1084.00000,273.70264 1108.80000,282.54991 1133.60000,298.70318 1158.40000,163.35273 "/>
</g>
<g id="ID000005" clip-path="url(#ID000001)" >
<g>
<circle cx="216.000" cy="490.779" r="7.500" fill="#ff0000" stroke="#ff0000" stroke-width="0.5pt" />
<circle cx="240.800" cy="623.890" r="7.500" fill="#ff0000" stroke="#ff0000" stroke-width="0.5pt" />
<circle cx="265.600" cy="533.028" r="7.500" fill="#ff0000" stroke="#ff0000" stroke-width="0.5pt" />
<circle cx="290.400" cy="411.752" r="7.500" fill="#ff0000" stroke="#ff0000" stroke-width="0.5pt" />
<circle cx="315.200" cy="380.366" r="7.500" fill="#ff0000" stroke="#ff0000" stroke-width="0.5pt" />
<circle cx="340.000" cy="357.669" r="7.500" fill="#ff0000" stroke="#ff0000" stroke-width="0.5pt" />
<circle cx="364.800" cy="312.815" r="7.500" fill="#ff0000" stroke="#ff0000" stroke-width="0.5pt" />
<circle cx="389.600" cy="297.097" r="7.500" fill="#ff0000" stroke="#ff0000" stroke-width="0.5pt" />
<circle cx="414.400" cy="246.390" r="7.500" fill="#ff0000" stroke="#ff0000" stroke-width="0.5pt" />
<circle cx="439.200" cy="233.640" r="7.500" fill="#ff0000" stroke="#ff0000" stroke-width="0.5pt" />
<circle cx="464.000" cy="220.051" r="7.500" fill="#ff0000" stroke="#ff0000" stroke-width="0.5pt" />
<circle cx="488.800" cy="187.357" r="7.500" fill="#ff0000" stroke="#ff0000" stroke-width="0.5pt" />
<circle cx="513.600" cy="177.428" r="7.500" fill="#ff0000" stroke="#ff0000" stroke-width="0.5pt" />
<circle cx="538.400" cy="165.917" r="7.500" fill="#ff0000" stroke="#ff0000" stroke-width="0.5pt" />
<circle cx="563.200" cy="151.056" r="7.500" fill="#ff0000" stroke="#ff0000" stroke-width="0.5pt" />
<circle cx="588.000" cy="145.024" r="7.500" fill="#ff0000" stroke="#ff0000" stroke-width="0.5pt" />
<circle cx="612.800" cy="145.277" r="7.500" fill="#ff0000" stroke="#ff0000" stroke-width="0.5pt" />
<circle cx="637.600" cy="134.360" r="7.500" fill="#ff0000" stroke="#ff0000" stroke-width="0.5pt" />
<circle cx="662.400" cy="139.166" r="7.500" fill="#ff0000" stroke="#ff0000" stroke-width="0.5pt" />
<circle cx="687.200" cy="141.073" r="7.500" fill="#ff0000" stroke="#ff0000" stroke-width="0.5pt" />
<circle cx="712.000" cy="149.706" r="7.500" fill="#ff0000" stroke="#ff0000" stroke-width="0.5pt" />
<circle cx="736.800" cy="153.261" r="7.500" fill="#ff0000" stroke="#ff0000" stroke-width="0.5pt" />
<circle cx="761.600" cy="150.244" r="7.500" fill="#ff0000" stroke="#ff0000" stroke-width="0.5pt" />
<circle cx="786.400" cy="155.241" r="7.500" fill="#ff0000" stroke="#ff0000" stroke-width="0.5pt" />
<circle cx="811.200" cy="158.450" r="7.500" fill="#ff0000" stroke="#ff0000" stroke-width="0.5pt" />
<circle cx="836.000" cy="164.946" r="7.500" fill="#ff0000" stroke="#ff0000" stroke-width="0.5pt" />
<circle cx="860.800" cy="177.428" r="7.500" fill="#ff0000" stroke="#ff0000" stroke-width="0.5pt" />
<circle cx="885.600" cy="188.205" r="7.500" fill="#ff0000" stroke="#ff0000" stroke-width="0.5pt" />
<circle cx="910.400" cy="205.707" r="7.500" fill="#ff0000" stroke="#ff0000" stroke-width="0.5pt" />
<circle cx="935.200" cy="218.808" r="7.500" fill="#ff0000" stroke="#ff0000" stroke-width="0.5pt" />
<circle cx="960.000" cy="227.934" r="7.500" fill="#ff0000" stroke="#ff0000" stroke-width="0.5pt" />
<circle cx="984.800" cy="231.454" r="7.500" fill="#ff0000" stroke="#ff0000" stroke-width="0.5pt" />
<circle cx="1009.600" cy="230.738" r="7.500" fill="#ff0000" stroke="#ff0000" stroke-width="0.5pt" />
<circle cx="1034.400" cy="264.630" r="7.500" fill="#ff0000" stroke="#ff0000" stroke-width="0.5pt" />
<circle cx="1059.200" cy="262.509" r="7.500" fill="#ff0000" stroke="#ff0000" stroke-width="0.5pt" />
<circle cx="1084.000" cy="273.703" r="7.500" fill="#ff0000" stroke="#ff0000" stroke-width="0.5pt" />
<circle cx="1108.800" cy="282.550" r="7.500" fill="#ff0000" stroke="#ff0000" stroke-width="0.5pt" />
<circle cx="1133.600" cy="298.703" r="7.500" fill="#ff0000" stroke="#ff0000" stroke-width="0.5pt" />
<circle cx="1158.400" cy="163.353" r="7.500" fill="#ff0000" stroke="#ff0000" stroke-width="0.5pt" />
</g>
</g>
<g id="ID000006" >
  <g transform="translate(133.400,339.233)">
    <g transform="rotate(-90.0)">
      <text x="0.000" y="0.000" font-family="Helvetica" text-anchor="middle" font-size="10pt" fill="#000000" ><tspan>count of synesthetes</tspan></text>
    </g>
  </g>
</g>
<g id="ID000007" >
  <g transform="translate(661.900,655.902)">
    <g transform="rotate(-0.0)">
      <text x="0.000" y="0.000" font-family="Helvetica" text-anchor="middle" font-size="10pt" fill="#000000" ><tspan>correlation</tspan></text>
    </g>
  </g>
</g>
<g id="ID000008" >
</g>
    </g>
    <g>
      <polyline fill="none" stroke="#000000" stroke-width="0.5pt" stroke-dasharray="none" stroke-opacity="1.00" points="166.40000,623.89000 166.40000,613.97000 "/>
      <polyline fill="none" stroke="#000000" stroke-width="0.5pt" stroke-dasharray="none" stroke-opacity="1.00" points="290.40000,623.89000 290.40000,613.97000 "/>
      <polyline fill="none" stroke="#000000" stroke-width="0.5pt" stroke-dasharray="none" stroke-opacity="1.00" points="414.40000,623.89000 414.40000,613.97000 "/>
      <polyline fill="none" stroke="#000000" stroke-width="0.5pt" stroke-dasharray="none" stroke-opacity="1.00" points="538.40000,623.89000 538.40000,613.97000 "/>
      <polyline fill="none" stroke="#000000" stroke-width="0.5pt" stroke-dasharray="none" stroke-opacity="1.00" points="662.40000,623.89000 662.40000,613.97000 "/>
      <polyline fill="none" stroke="#000000" stroke-width="0.5pt" stroke-dasharray="none" stroke-opacity="1.00" points="786.40000,623.89000 786.40000,613.97000 "/>
      <polyline fill="none" stroke="#000000" stroke-width="0.5pt" stroke-dasharray="none" stroke-opacity="1.00" points="910.40000,623.89000 910.40000,613.97000 "/>
      <polyline fill="none" stroke="#000000" stroke-width="0.5pt" stroke-dasharray="none" stroke-opacity="1.00" points="1034.40000,623.89000 1034.40000,613.97000 "/>
      <polyline fill="none" stroke="#000000" stroke-width="0.5pt" stroke-dasharray="none" stroke-opacity="1.00" points="1158.40000,623.89000 1158.40000,613.97000 "/>
      <polyline fill="none" stroke="#000000" stroke-width="0.5pt" stroke-dasharray="none" stroke-opacity="1.00" points="166.40000,623.89000 1158.40000,623.89000 "/>
  <g transform="translate(166.400,647.116)">
    <g transform="rotate(-0.0)">
      <text x="0.000" y="0.000" font-family="Helvetica" text-anchor="middle" font-size="10pt" fill="#000000" ><tspan>-0.2</tspan></text>
    </g>
  </g>
  <g transform="translate(290.400,647.116)">
    <g transform="rotate(-0.0)">
      <text x="0.000" y="0.000" font-family="Helvetica" text-anchor="middle" font-size="10pt" fill="#000000" ><tspan>-0.15</tspan></text>
    </g>
  </g>
  <g transform="translate(414.400,647.116)">
    <g transform="rotate(-0.0)">
      <text x="0.000" y="0.000" font-family="Helvetica" text-anchor="middle" font-size="10pt" fill="#000000" ><tspan>-0.1</tspan></text>
    </g>
  </g>
  <g transform="translate(538.400,647.116)">
    <g transform="rotate(-0.0)">
      <text x="0.000" y="0.000" font-family="Helvetica" text-anchor="middle" font-size="10pt" fill="#000000" ><tspan>-0.05</tspan></text>
    </g>
  </g>
  <g transform="translate(662.400,647.116)">
    <g transform="rotate(-0.0)">
      <text x="0.000" y="0.000" font-family="Helvetica" text-anchor="middle" font-size="10pt" fill="#000000" ><tspan>0</tspan></text>
    </g>
  </g>
  <g transform="translate(786.400,647.116)">
    <g transform="rotate(-0.0)">
      <text x="0.000" y="0.000" font-family="Helvetica" text-anchor="middle" font-size="10pt" fill="#000000" ><tspan>0.05</tspan></text>
    </g>
  </g>
  <g transform="translate(910.400,647.116)">
    <g transform="rotate(-0.0)">
      <text x="0.000" y="0.000" font-family="Helvetica" text-anchor="middle" font-size="10pt" fill="#000000" ><tspan>0.1</tspan></text>
    </g>
  </g>
  <g transform="translate(1034.400,647.116)">
    <g transform="rotate(-0.0)">
      <text x="0.000" y="0.000" font-family="Helvetica" text-anchor="middle" font-size="10pt" fill="#000000" ><tspan>0.15</tspan></text>
    </g>
  </g>
  <g transform="translate(1158.400,647.116)">
    <g transform="rotate(-0.0)">
      <text x="0.000" y="0.000" font-family="Helvetica" text-anchor="middle" font-size="10pt" fill="#000000" ><tspan>0.2</tspan></text>
    </g>
  </g>
      <polyline fill="none" stroke="#000000" stroke-width="0.5pt" stroke-dasharray="none" stroke-opacity="1.00" points="166.40000,623.89000 176.32000,623.89000 "/>
      <polyline fill="none" stroke="#000000" stroke-width="0.5pt" stroke-dasharray="none" stroke-opacity="1.00" points="166.40000,433.45167 176.32000,433.45167 "/>
      <polyline fill="none" stroke="#000000" stroke-width="0.5pt" stroke-dasharray="none" stroke-opacity="1.00" points="166.40000,243.01333 176.32000,243.01333 "/>
      <polyline fill="none" stroke="#000000" stroke-width="0.5pt" stroke-dasharray="none" stroke-opacity="1.00" points="166.40000,52.57500 176.32000,52.57500 "/>
      <polyline fill="none" stroke="#000000" stroke-width="0.5pt" stroke-dasharray="none" stroke-opacity="1.00" points="166.40000,623.89000 166.40000,52.57500 "/>
      <polyline fill="none" stroke="#000000" stroke-width="0.5pt" stroke-dasharray="none" stroke-opacity="1.00" points="166.40000,566.56235 171.36000,566.56235 "/>
      <polyline fill="none" stroke="#000000" stroke-width="0.5pt" stroke-dasharray="none" stroke-opacity="1.00" points="166.40000,533.02782 171.36000,533.02782 "/>
      <polyline fill="none" stroke="#000000" stroke-width="0.5pt" stroke-dasharray="none" stroke-opacity="1.00" points="166.40000,509.23470 171.36000,509.23470 "/>
      <polyline fill="none" stroke="#000000" stroke-width="0.5pt" stroke-dasharray="none" stroke-opacity="1.00" points="166.40000,490.77932 171.36000,490.77932 "/>
      <polyline fill="none" stroke="#000000" stroke-width="0.5pt" stroke-dasharray="none" stroke-opacity="1.00" points="166.40000,475.70017 171.36000,475.70017 "/>
      <polyline fill="none" stroke="#000000" stroke-width="0.5pt" stroke-dasharray="none" stroke-opacity="1.00" points="166.40000,462.95094 171.36000,462.95094 "/>
      <polyline fill="none" stroke="#000000" stroke-width="0.5pt" stroke-dasharray="none" stroke-opacity="1.00" points="166.40000,451.90705 171.36000,451.90705 "/>
      <polyline fill="none" stroke="#000000" stroke-width="0.5pt" stroke-dasharray="none" stroke-opacity="1.00" points="166.40000,442.16565 171.36000,442.16565 "/>
      <polyline fill="none" stroke="#000000" stroke-width="0.5pt" stroke-dasharray="none" stroke-opacity="1.00" points="166.40000,376.12402 171.36000,376.12402 "/>
      <polyline fill="none" stroke="#000000" stroke-width="0.5pt" stroke-dasharray="none" stroke-opacity="1.00" points="166.40000,342.58949 171.36000,342.58949 "/>
      <polyline fill="none" stroke="#000000" stroke-width="0.5pt" stroke-dasharray="none" stroke-opacity="1.00" points="166.40000,318.79637 171.36000,318.79637 "/>
      <polyline fill="none" stroke="#000000" stroke-width="0.5pt" stroke-dasharray="none" stroke-opacity="1.00" points="166.40000,300.34098 171.36000,300.34098 "/>
      <polyline fill="none" stroke="#000000" stroke-width="0.5pt" stroke-dasharray="none" stroke-opacity="1.00" points="166.40000,285.26184 171.36000,285.26184 "/>
      <polyline fill="none" stroke="#000000" stroke-width="0.5pt" stroke-dasharray="none" stroke-opacity="1.00" points="166.40000,272.51260 171.36000,272.51260 "/>
      <polyline fill="none" stroke="#000000" stroke-width="0.5pt" stroke-dasharray="none" stroke-opacity="1.00" points="166.40000,261.46871 171.36000,261.46871 "/>
      <polyline fill="none" stroke="#000000" stroke-width="0.5pt" stroke-dasharray="none" stroke-opacity="1.00" points="166.40000,251.72731 171.36000,251.72731 "/>
      <polyline fill="none" stroke="#000000" stroke-width="0.5pt" stroke-dasharray="none" stroke-opacity="1.00" points="166.40000,185.68568 171.36000,185.68568 "/>
      <polyline fill="none" stroke="#000000" stroke-width="0.5pt" stroke-dasharray="none" stroke-opacity="1.00" points="166.40000,152.15116 171.36000,152.15116 "/>
      <polyline fill="none" stroke="#000000" stroke-width="0.5pt" stroke-dasharray="none" stroke-opacity="1.00" points="166.40000,128.35803 171.36000,128.35803 "/>
      <polyline fill="none" stroke="#000000" stroke-width="0.5pt" stroke-dasharray="none" stroke-opacity="1.00" points="166.40000,109.90265 171.36000,109.90265 "/>
      <polyline fill="none" stroke="#000000" stroke-width="0.5pt" stroke-dasharray="none" stroke-opacity="1.00" points="166.40000,94.82351 171.36000,94.82351 "/>
      <polyline fill="none" stroke="#000000" stroke-width="0.5pt" stroke-dasharray="none" stroke-opacity="1.00" points="166.40000,82.07427 171.36000,82.07427 "/>
      <polyline fill="none" stroke="#000000" stroke-width="0.5pt" stroke-dasharray="none" stroke-opacity="1.00" points="166.40000,71.03038 171.36000,71.03038 "/>
      <polyline fill="none" stroke="#000000" stroke-width="0.5pt" stroke-dasharray="none" stroke-opacity="1.00" points="166.40000,61.28898 171.36000,61.28898 "/>
  <g transform="translate(146.560,632.390)">
    <g transform="rotate(-0.0)">
      <text x="0.000" y="0.000" font-family="Helvetica" text-anchor="end" font-size="10pt" fill="#000000" >10<tspan font-size="7.0pt" dy="-7.0pt"><tspan>0</tspan></tspan></text>
    </g>
  </g>
  <g transform="translate(146.560,441.952)">
    <g transform="rotate(-0.0)">
      <text x="0.000" y="0.000" font-family="Helvetica" text-anchor="end" font-size="10pt" fill="#000000" >10<tspan font-size="7.0pt" dy="-7.0pt"><tspan>1</tspan></tspan></text>
    </g>
  </g>
  <g transform="translate(146.560,251.513)">
    <g transform="rotate(-0.0)">
      <text x="0.000" y="0.000" font-family="Helvetica" text-anchor="end" font-size="10pt" fill="#000000" >10<tspan font-size="7.0pt" dy="-7.0pt"><tspan>2</tspan></tspan></text>
    </g>
  </g>
  <g transform="translate(146.560,61.075)">
    <g transform="rotate(-0.0)">
      <text x="0.000" y="0.000" font-family="Helvetica" text-anchor="end" font-size="10pt" fill="#000000" >10<tspan font-size="7.0pt" dy="-7.0pt"><tspan>3</tspan></tspan></text>
    </g>
  </g>
      <polyline fill="none" stroke="#000000" stroke-width="0.5pt" stroke-dasharray="none" stroke-opacity="1.00" points="166.40000,623.89000 166.40000,618.17685 "/>
      <polyline fill="none" stroke="#000000" stroke-width="0.5pt" stroke-dasharray="none" stroke-opacity="1.00" points="166.40000,623.89000 166.40000,618.17685 "/>
      <polyline fill="none" stroke="#000000" stroke-width="0.5pt" stroke-dasharray="none" stroke-opacity="1.00" points="166.40000,623.89000 166.40000,618.17685 "/>
      <polyline fill="none" stroke="#000000" stroke-width="0.5pt" stroke-dasharray="none" stroke-opacity="1.00" points="166.40000,623.89000 166.40000,623.89000 "/>
    </g>
  </g>
  </g>
</svg>
