<?xml version="1.0" encoding="utf-8" standalone="no"?><!DOCTYPE svg PUBLIC "-//W3C//DTD SVG 1.1//EN" "http://www.w3.org/Graphics/SVG/1.1/DTD/svg11.dtd">
<svg preserveAspectRatio="xMinYMin meet" width="100%" height="100%" viewBox="0 0 1280.000 701.000"  version="1.1" xmlns="http://www.w3.org/2000/svg" xmlns:xlink="http://www.w3.org/1999/xlink">
  <desc>Matlab Figure Converted by PLOT2SVG written by Juerg Schwizer</desc>
  <g id="topgroup">
  <rect x="0" y="0" width="1280.000" height="701.000" fill="#ffffff" stroke="none" />
  <g id ="ID000000">
  <clipPath id="ID000001">
    <rect x="166.400" y="52.575" width="992.000" height="571.315"/>
  </clipPath>
      <polygon fill="#ffffff" fill-opacity="1.00" stroke="none" stroke-width="0.5pt" stroke-opacity="1.00" stroke-dasharray="none" points="166.400,623.890 1158.400,623.890 1158.400,52.575 166.400,52.575 "/>
      <polygon fill="#ffffff" fill-opacity="1.00" stroke="none" stroke-width="0.5pt" stroke-opacity="1.00" stroke-dasharray="none" points="166.400,52.575 1158.400,52.575 1158.400,52.575 166.400,52.575 "/>
      <polygon fill="#ffffff" fill-opacity="1.00" stroke="none" stroke-width="0.5pt" stroke-opacity="1.00" stroke-dasharray="none" points="166.400,623.890 166.400,623.890 166.400,52.575 166.400,52.575 "/>
    <g>
<g id="ID000002" clip-path="url(#ID000001)" >
      <polyline fill="none" stroke="#00ffff" stroke-width="10.0pt" stroke-dasharray="none" stroke-opacity="1.00" points="166.40000,247.37532 191.20000,397.53737 216.00000,378.98654 240.80000,393.59864 265.60000,331.00369 290.40000,336.99807 315.20000,308.58019 340.00000,318.75470 364.80000,283.06501 389.60000,273.87121 414.40000,269.51780 439.20000,254.74736 464.00000,255.38194 488.80000,222.10125 513.60000,213.18577 538.40000,210.05617 563.20000,221.61569 588.00000,225.05519 612.80000,224.55795 637.60000,227.06429 662.40000,226.05567 687.20000,217.32914 712.00000,222.58871 736.80000,236.53104 761.60000,251.00659 786.40000,250.39395 811.20000,266.00314 836.00000,266.00314 860.80000,280.70190 885.60000,302.85335 910.40000,302.85335 935.20000,325.28565 960.00000,324.17300 984.80000,351.30347 1009.60000,378.98654 1034.40000,372.27899 1059.20000,419.35827 1084.00000,412.39985 1108.80000,455.04796 1133.60000,451.90705 1158.40000,249.78432 "/>
</g>
<g id="ID000003" clip-path="url(#ID000001)" >
<g>
<circle cx="166.400" cy="247.375" r="7.500" fill="#00ffff" stroke="#00ffff" stroke-width="0.5pt" />
<circle cx="191.200" cy="397.537" r="7.500" fill="#00ffff" stroke="#00ffff" stroke-width="0.5pt" />
<circle cx="216.000" cy="378.987" r="7.500" fill="#00ffff" stroke="#00ffff" stroke-width="0.5pt" />
<circle cx="240.800" cy="393.599" r="7.500" fill="#00ffff" stroke="#00ffff" stroke-width="0.5pt" />
<circle cx="265.600" cy="331.004" r="7.500" fill="#00ffff" stroke="#00ffff" stroke-width="0.5pt" />
<circle cx="290.400" cy="336.998" r="7.500" fill="#00ffff" stroke="#00ffff" stroke-width="0.5pt" />
<circle cx="315.200" cy="308.580" r="7.500" fill="#00ffff" stroke="#00ffff" stroke-width="0.5pt" />
<circle cx="340.000" cy="318.755" r="7.500" fill="#00ffff" stroke="#00ffff" stroke-width="0.5pt" />
<circle cx="364.800" cy="283.065" r="7.500" fill="#00ffff" stroke="#00ffff" stroke-width="0.5pt" />
<circle cx="389.600" cy="273.871" r="7.500" fill="#00ffff" stroke="#00ffff" stroke-width="0.5pt" />
<circle cx="414.400" cy="269.518" r="7.500" fill="#00ffff" stroke="#00ffff" stroke-width="0.5pt" />
<circle cx="439.200" cy="254.747" r="7.500" fill="#00ffff" stroke="#00ffff" stroke-width="0.5pt" />
<circle cx="464.000" cy="255.382" r="7.500" fill="#00ffff" stroke="#00ffff" stroke-width="0.5pt" />
<circle cx="488.800" cy="222.101" r="7.500" fill="#00ffff" stroke="#00ffff" stroke-width="0.5pt" />
<circle cx="513.600" cy="213.186" r="7.500" fill="#00ffff" stroke="#00ffff" stroke-width="0.5pt" />
<circle cx="538.400" cy="210.056" r="7.500" fill="#00ffff" stroke="#00ffff" stroke-width="0.5pt" />
<circle cx="563.200" cy="221.616" r="7.500" fill="#00ffff" stroke="#00ffff" stroke-width="0.5pt" />
<circle cx="588.000" cy="225.055" r="7.500" fill="#00ffff" stroke="#00ffff" stroke-width="0.5pt" />
<circle cx="612.800" cy="224.558" r="7.500" fill="#00ffff" stroke="#00ffff" stroke-width="0.5pt" />
<circle cx="637.600" cy="227.064" r="7.500" fill="#00ffff" stroke="#00ffff" stroke-width="0.5pt" />
<circle cx="662.400" cy="226.056" r="7.500" fill="#00ffff" stroke="#00ffff" stroke-width="0.5pt" />
<circle cx="687.200" cy="217.329" r="7.500" fill="#00ffff" stroke="#00ffff" stroke-width="0.5pt" />
<circle cx="712.000" cy="222.589" r="7.500" fill="#00ffff" stroke="#00ffff" stroke-width="0.5pt" />
<circle cx="736.800" cy="236.531" r="7.500" fill="#00ffff" stroke="#00ffff" stroke-width="0.5pt" />
<circle cx="761.600" cy="251.007" r="7.500" fill="#00ffff" stroke="#00ffff" stroke-width="0.5pt" />
<circle cx="786.400" cy="250.394" r="7.500" fill="#00ffff" stroke="#00ffff" stroke-width="0.5pt" />
<circle cx="811.200" cy="266.003" r="7.500" fill="#00ffff" stroke="#00ffff" stroke-width="0.5pt" />
<circle cx="836.000" cy="266.003" r="7.500" fill="#00ffff" stroke="#00ffff" stroke-width="0.5pt" />
<circle cx="860.800" cy="280.702" r="7.500" fill="#00ffff" stroke="#00ffff" stroke-width="0.5pt" />
<circle cx="885.600" cy="302.853" r="7.500" fill="#00ffff" stroke="#00ffff" stroke-width="0.5pt" />
<circle cx="910.400" cy="302.853" r="7.500" fill="#00ffff" stroke="#00ffff" stroke-width="0.5pt" />
<circle cx="935.200" cy="325.286" r="7.500" fill="#00ffff" stroke="#00ffff" stroke-width="0.5pt" />
<circle cx="960.000" cy="324.173" r="7.500" fill="#00ffff" stroke="#00ffff" stroke-width="0.5pt" />
<circle cx="984.800" cy="351.303" r="7.500" fill="#00ffff" stroke="#00ffff" stroke-width="0.5pt" />
<circle cx="1009.600" cy="378.987" r="7.500" fill="#00ffff" stroke="#00ffff" stroke-width="0.5pt" />
<circle cx="1034.400" cy="372.279" r="7.500" fill="#00ffff" stroke="#00ffff" stroke-width="0.5pt" />
<circle cx="1059.200" cy="419.358" r="7.500" fill="#00ffff" stroke="#00ffff" stroke-width="0.5pt" />
<circle cx="1084.000" cy="412.400" r="7.500" fill="#00ffff" stroke="#00ffff" stroke-width="0.5pt" />
<circle cx="1108.800" cy="455.048" r="7.500" fill="#00ffff" stroke="#00ffff" stroke-width="0.5pt" />
<circle cx="1133.600" cy="451.907" r="7.500" fill="#00ffff" stroke="#00ffff" stroke-width="0.5pt" />
<circle cx="1158.400" cy="249.784" r="7.500" fill="#00ffff" stroke="#00ffff" stroke-width="0.5pt" />
</g>
</g>
<g id="ID000004" clip-path="url(#ID000001)" >
      <polyline fill="none" stroke="#ff0000" stroke-width="10.0pt" stroke-dasharray="none" stroke-opacity="1.00" points="166.40000,339.47934 191.20000,537.89852 216.00000,496.15595 240.80000,419.35827 265.60000,419.35827 290.40000,378.98654 315.20000,373.92219 340.00000,356.94351 364.80000,348.57678 389.60000,333.36680 414.40000,321.97720 439.20000,303.78965 464.00000,289.59596 488.80000,261.24411 513.60000,271.67541 538.40000,263.94116 563.20000,240.98209 588.00000,226.55895 612.80000,261.24411 637.60000,239.85426 662.40000,234.36401 687.20000,230.66047 712.00000,244.42840 736.80000,245.01221 761.60000,237.07877 786.40000,242.69328 811.20000,247.97320 836.00000,249.78432 860.80000,247.97320 885.60000,254.11601 910.40000,252.86288 935.20000,287.10639 960.00000,276.86074 984.80000,313.56317 1009.60000,298.27499 1034.40000,313.56317 1059.20000,329.83880 1084.00000,355.50928 1108.80000,349.93263 1133.60000,387.91554 1158.40000,96.11701 "/>
</g>
<g id="ID000005" clip-path="url(#ID000001)" >
<g>
<circle cx="166.400" cy="339.479" r="7.500" fill="#ff0000" stroke="#ff0000" stroke-width="0.5pt" />
<circle cx="191.200" cy="537.899" r="7.500" fill="#ff0000" stroke="#ff0000" stroke-width="0.5pt" />
<circle cx="216.000" cy="496.156" r="7.500" fill="#ff0000" stroke="#ff0000" stroke-width="0.5pt" />
<circle cx="240.800" cy="419.358" r="7.500" fill="#ff0000" stroke="#ff0000" stroke-width="0.5pt" />
<circle cx="265.600" cy="419.358" r="7.500" fill="#ff0000" stroke="#ff0000" stroke-width="0.5pt" />
<circle cx="290.400" cy="378.987" r="7.500" fill="#ff0000" stroke="#ff0000" stroke-width="0.5pt" />
<circle cx="315.200" cy="373.922" r="7.500" fill="#ff0000" stroke="#ff0000" stroke-width="0.5pt" />
<circle cx="340.000" cy="356.944" r="7.500" fill="#ff0000" stroke="#ff0000" stroke-width="0.5pt" />
<circle cx="364.800" cy="348.577" r="7.500" fill="#ff0000" stroke="#ff0000" stroke-width="0.5pt" />
<circle cx="389.600" cy="333.367" r="7.500" fill="#ff0000" stroke="#ff0000" stroke-width="0.5pt" />
<circle cx="414.400" cy="321.977" r="7.500" fill="#ff0000" stroke="#ff0000" stroke-width="0.5pt" />
<circle cx="439.200" cy="303.790" r="7.500" fill="#ff0000" stroke="#ff0000" stroke-width="0.5pt" />
<circle cx="464.000" cy="289.596" r="7.500" fill="#ff0000" stroke="#ff0000" stroke-width="0.5pt" />
<circle cx="488.800" cy="261.244" r="7.500" fill="#ff0000" stroke="#ff0000" stroke-width="0.5pt" />
<circle cx="513.600" cy="271.675" r="7.500" fill="#ff0000" stroke="#ff0000" stroke-width="0.5pt" />
<circle cx="538.400" cy="263.941" r="7.500" fill="#ff0000" stroke="#ff0000" stroke-width="0.5pt" />
<circle cx="563.200" cy="240.982" r="7.500" fill="#ff0000" stroke="#ff0000" stroke-width="0.5pt" />
<circle cx="588.000" cy="226.559" r="7.500" fill="#ff0000" stroke="#ff0000" stroke-width="0.5pt" />
<circle cx="612.800" cy="261.244" r="7.500" fill="#ff0000" stroke="#ff0000" stroke-width="0.5pt" />
<circle cx="637.600" cy="239.854" r="7.500" fill="#ff0000" stroke="#ff0000" stroke-width="0.5pt" />
<circle cx="662.400" cy="234.364" r="7.500" fill="#ff0000" stroke="#ff0000" stroke-width="0.5pt" />
<circle cx="687.200" cy="230.660" r="7.500" fill="#ff0000" stroke="#ff0000" stroke-width="0.5pt" />
<circle cx="712.000" cy="244.428" r="7.500" fill="#ff0000" stroke="#ff0000" stroke-width="0.5pt" />
<circle cx="736.800" cy="245.012" r="7.500" fill="#ff0000" stroke="#ff0000" stroke-width="0.5pt" />
<circle cx="761.600" cy="237.079" r="7.500" fill="#ff0000" stroke="#ff0000" stroke-width="0.5pt" />
<circle cx="786.400" cy="242.693" r="7.500" fill="#ff0000" stroke="#ff0000" stroke-width="0.5pt" />
<circle cx="811.200" cy="247.973" r="7.500" fill="#ff0000" stroke="#ff0000" stroke-width="0.5pt" />
<circle cx="836.000" cy="249.784" r="7.500" fill="#ff0000" stroke="#ff0000" stroke-width="0.5pt" />
<circle cx="860.800" cy="247.973" r="7.500" fill="#ff0000" stroke="#ff0000" stroke-width="0.5pt" />
<circle cx="885.600" cy="254.116" r="7.500" fill="#ff0000" stroke="#ff0000" stroke-width="0.5pt" />
<circle cx="910.400" cy="252.863" r="7.500" fill="#ff0000" stroke="#ff0000" stroke-width="0.5pt" />
<circle cx="935.200" cy="287.106" r="7.500" fill="#ff0000" stroke="#ff0000" stroke-width="0.5pt" />
<circle cx="960.000" cy="276.861" r="7.500" fill="#ff0000" stroke="#ff0000" stroke-width="0.5pt" />
<circle cx="984.800" cy="313.563" r="7.500" fill="#ff0000" stroke="#ff0000" stroke-width="0.5pt" />
<circle cx="1009.600" cy="298.275" r="7.500" fill="#ff0000" stroke="#ff0000" stroke-width="0.5pt" />
<circle cx="1034.400" cy="313.563" r="7.500" fill="#ff0000" stroke="#ff0000" stroke-width="0.5pt" />
<circle cx="1059.200" cy="329.839" r="7.500" fill="#ff0000" stroke="#ff0000" stroke-width="0.5pt" />
<circle cx="1084.000" cy="355.509" r="7.500" fill="#ff0000" stroke="#ff0000" stroke-width="0.5pt" />
<circle cx="1108.800" cy="349.933" r="7.500" fill="#ff0000" stroke="#ff0000" stroke-width="0.5pt" />
<circle cx="1133.600" cy="387.916" r="7.500" fill="#ff0000" stroke="#ff0000" stroke-width="0.5pt" />
<circle cx="1158.400" cy="96.117" r="7.500" fill="#ff0000" stroke="#ff0000" stroke-width="0.5pt" />
</g>
</g>
<g id="ID000006" >
  <g transform="translate(133.400,339.233)">
    <g transform="rotate(-90.0)">
      <text x="0.000" y="0.000" font-family="Helvetica" text-anchor="middle" font-size="10pt" fill="#000000" ><tspan>count of synesthetes</tspan></text>
    </g>
  </g>
</g>
<g id="ID000007" >
  <g transform="translate(661.900,655.902)">
    <g transform="rotate(-0.0)">
      <text x="0.000" y="0.000" font-family="Helvetica" text-anchor="middle" font-size="10pt" fill="#000000" ><tspan>correlation</tspan></text>
    </g>
  </g>
</g>
<g id="ID000008" >
</g>
    </g>
    <g>
      <polyline fill="none" stroke="#000000" stroke-width="0.5pt" stroke-dasharray="none" stroke-opacity="1.00" points="166.40000,623.89000 166.40000,613.97000 "/>
      <polyline fill="none" stroke="#000000" stroke-width="0.5pt" stroke-dasharray="none" stroke-opacity="1.00" points="290.40000,623.89000 290.40000,613.97000 "/>
      <polyline fill="none" stroke="#000000" stroke-width="0.5pt" stroke-dasharray="none" stroke-opacity="1.00" points="414.40000,623.89000 414.40000,613.97000 "/>
      <polyline fill="none" stroke="#000000" stroke-width="0.5pt" stroke-dasharray="none" stroke-opacity="1.00" points="538.40000,623.89000 538.40000,613.97000 "/>
      <polyline fill="none" stroke="#000000" stroke-width="0.5pt" stroke-dasharray="none" stroke-opacity="1.00" points="662.40000,623.89000 662.40000,613.97000 "/>
      <polyline fill="none" stroke="#000000" stroke-width="0.5pt" stroke-dasharray="none" stroke-opacity="1.00" points="786.40000,623.89000 786.40000,613.97000 "/>
      <polyline fill="none" stroke="#000000" stroke-width="0.5pt" stroke-dasharray="none" stroke-opacity="1.00" points="910.40000,623.89000 910.40000,613.97000 "/>
      <polyline fill="none" stroke="#000000" stroke-width="0.5pt" stroke-dasharray="none" stroke-opacity="1.00" points="1034.40000,623.89000 1034.40000,613.97000 "/>
      <polyline fill="none" stroke="#000000" stroke-width="0.5pt" stroke-dasharray="none" stroke-opacity="1.00" points="1158.40000,623.89000 1158.40000,613.97000 "/>
      <polyline fill="none" stroke="#000000" stroke-width="0.5pt" stroke-dasharray="none" stroke-opacity="1.00" points="166.40000,623.89000 1158.40000,623.89000 "/>
  <g transform="translate(166.400,647.116)">
    <g transform="rotate(-0.0)">
      <text x="0.000" y="0.000" font-family="Helvetica" text-anchor="middle" font-size="10pt" fill="#000000" ><tspan>-0.2</tspan></text>
    </g>
  </g>
  <g transform="translate(290.400,647.116)">
    <g transform="rotate(-0.0)">
      <text x="0.000" y="0.000" font-family="Helvetica" text-anchor="middle" font-size="10pt" fill="#000000" ><tspan>-0.15</tspan></text>
    </g>
  </g>
  <g transform="translate(414.400,647.116)">
    <g transform="rotate(-0.0)">
      <text x="0.000" y="0.000" font-family="Helvetica" text-anchor="middle" font-size="10pt" fill="#000000" ><tspan>-0.1</tspan></text>
    </g>
  </g>
  <g transform="translate(538.400,647.116)">
    <g transform="rotate(-0.0)">
      <text x="0.000" y="0.000" font-family="Helvetica" text-anchor="middle" font-size="10pt" fill="#000000" ><tspan>-0.05</tspan></text>
    </g>
  </g>
  <g transform="translate(662.400,647.116)">
    <g transform="rotate(-0.0)">
      <text x="0.000" y="0.000" font-family="Helvetica" text-anchor="middle" font-size="10pt" fill="#000000" ><tspan>0</tspan></text>
    </g>
  </g>
  <g transform="translate(786.400,647.116)">
    <g transform="rotate(-0.0)">
      <text x="0.000" y="0.000" font-family="Helvetica" text-anchor="middle" font-size="10pt" fill="#000000" ><tspan>0.05</tspan></text>
    </g>
  </g>
  <g transform="translate(910.400,647.116)">
    <g transform="rotate(-0.0)">
      <text x="0.000" y="0.000" font-family="Helvetica" text-anchor="middle" font-size="10pt" fill="#000000" ><tspan>0.1</tspan></text>
    </g>
  </g>
  <g transform="translate(1034.400,647.116)">
    <g transform="rotate(-0.0)">
      <text x="0.000" y="0.000" font-family="Helvetica" text-anchor="middle" font-size="10pt" fill="#000000" ><tspan>0.15</tspan></text>
    </g>
  </g>
  <g transform="translate(1158.400,647.116)">
    <g transform="rotate(-0.0)">
      <text x="0.000" y="0.000" font-family="Helvetica" text-anchor="middle" font-size="10pt" fill="#000000" ><tspan>0.2</tspan></text>
    </g>
  </g>
      <polyline fill="none" stroke="#000000" stroke-width="0.5pt" stroke-dasharray="none" stroke-opacity="1.00" points="166.40000,623.89000 176.32000,623.89000 "/>
      <polyline fill="none" stroke="#000000" stroke-width="0.5pt" stroke-dasharray="none" stroke-opacity="1.00" points="166.40000,338.23250 176.32000,338.23250 "/>
      <polyline fill="none" stroke="#000000" stroke-width="0.5pt" stroke-dasharray="none" stroke-opacity="1.00" points="166.40000,52.57500 176.32000,52.57500 "/>
      <polyline fill="none" stroke="#000000" stroke-width="0.5pt" stroke-dasharray="none" stroke-opacity="1.00" points="166.40000,623.89000 166.40000,52.57500 "/>
      <polyline fill="none" stroke="#000000" stroke-width="0.5pt" stroke-dasharray="none" stroke-opacity="1.00" points="166.40000,537.89852 171.36000,537.89852 "/>
      <polyline fill="none" stroke="#000000" stroke-width="0.5pt" stroke-dasharray="none" stroke-opacity="1.00" points="166.40000,487.59674 171.36000,487.59674 "/>
      <polyline fill="none" stroke="#000000" stroke-width="0.5pt" stroke-dasharray="none" stroke-opacity="1.00" points="166.40000,451.90705 171.36000,451.90705 "/>
      <polyline fill="none" stroke="#000000" stroke-width="0.5pt" stroke-dasharray="none" stroke-opacity="1.00" points="166.40000,424.22398 171.36000,424.22398 "/>
      <polyline fill="none" stroke="#000000" stroke-width="0.5pt" stroke-dasharray="none" stroke-opacity="1.00" points="166.40000,401.60526 171.36000,401.60526 "/>
      <polyline fill="none" stroke="#000000" stroke-width="0.5pt" stroke-dasharray="none" stroke-opacity="1.00" points="166.40000,382.48141 171.36000,382.48141 "/>
      <polyline fill="none" stroke="#000000" stroke-width="0.5pt" stroke-dasharray="none" stroke-opacity="1.00" points="166.40000,365.91557 171.36000,365.91557 "/>
      <polyline fill="none" stroke="#000000" stroke-width="0.5pt" stroke-dasharray="none" stroke-opacity="1.00" points="166.40000,351.30347 171.36000,351.30347 "/>
      <polyline fill="none" stroke="#000000" stroke-width="0.5pt" stroke-dasharray="none" stroke-opacity="1.00" points="166.40000,252.24102 171.36000,252.24102 "/>
      <polyline fill="none" stroke="#000000" stroke-width="0.5pt" stroke-dasharray="none" stroke-opacity="1.00" points="166.40000,201.93924 171.36000,201.93924 "/>
      <polyline fill="none" stroke="#000000" stroke-width="0.5pt" stroke-dasharray="none" stroke-opacity="1.00" points="166.40000,166.24955 171.36000,166.24955 "/>
      <polyline fill="none" stroke="#000000" stroke-width="0.5pt" stroke-dasharray="none" stroke-opacity="1.00" points="166.40000,138.56648 171.36000,138.56648 "/>
      <polyline fill="none" stroke="#000000" stroke-width="0.5pt" stroke-dasharray="none" stroke-opacity="1.00" points="166.40000,115.94776 171.36000,115.94776 "/>
      <polyline fill="none" stroke="#000000" stroke-width="0.5pt" stroke-dasharray="none" stroke-opacity="1.00" points="166.40000,96.82391 171.36000,96.82391 "/>
      <polyline fill="none" stroke="#000000" stroke-width="0.5pt" stroke-dasharray="none" stroke-opacity="1.00" points="166.40000,80.25807 171.36000,80.25807 "/>
      <polyline fill="none" stroke="#000000" stroke-width="0.5pt" stroke-dasharray="none" stroke-opacity="1.00" points="166.40000,65.64597 171.36000,65.64597 "/>
  <g transform="translate(146.560,632.390)">
    <g transform="rotate(-0.0)">
      <text x="0.000" y="0.000" font-family="Helvetica" text-anchor="end" font-size="10pt" fill="#000000" >10<tspan font-size="7.0pt" dy="-7.0pt"><tspan>1</tspan></tspan></text>
    </g>
  </g>
  <g transform="translate(146.560,346.733)">
    <g transform="rotate(-0.0)">
      <text x="0.000" y="0.000" font-family="Helvetica" text-anchor="end" font-size="10pt" fill="#000000" >10<tspan font-size="7.0pt" dy="-7.0pt"><tspan>2</tspan></tspan></text>
    </g>
  </g>
  <g transform="translate(146.560,61.075)">
    <g transform="rotate(-0.0)">
      <text x="0.000" y="0.000" font-family="Helvetica" text-anchor="end" font-size="10pt" fill="#000000" >10<tspan font-size="7.0pt" dy="-7.0pt"><tspan>3</tspan></tspan></text>
    </g>
  </g>
      <polyline fill="none" stroke="#000000" stroke-width="0.5pt" stroke-dasharray="none" stroke-opacity="1.00" points="166.40000,623.89000 166.40000,618.17685 "/>
      <polyline fill="none" stroke="#000000" stroke-width="0.5pt" stroke-dasharray="none" stroke-opacity="1.00" points="166.40000,623.89000 166.40000,618.17685 "/>
      <polyline fill="none" stroke="#000000" stroke-width="0.5pt" stroke-dasharray="none" stroke-opacity="1.00" points="166.40000,623.89000 166.40000,618.17685 "/>
      <polyline fill="none" stroke="#000000" stroke-width="0.5pt" stroke-dasharray="none" stroke-opacity="1.00" points="166.40000,623.89000 166.40000,623.89000 "/>
    </g>
  </g>
  </g>
</svg>
