<?xml version="1.0" encoding="utf-8" standalone="no"?><!DOCTYPE svg PUBLIC "-//W3C//DTD SVG 1.1//EN" "http://www.w3.org/Graphics/SVG/1.1/DTD/svg11.dtd">
<svg preserveAspectRatio="xMinYMin meet" width="100%" height="100%" viewBox="0 0 1280.000 701.000"  version="1.1" xmlns="http://www.w3.org/2000/svg" xmlns:xlink="http://www.w3.org/1999/xlink">
  <desc>Matlab Figure Converted by PLOT2SVG written by Juerg Schwizer</desc>
  <g id="topgroup">
  <rect x="0" y="0" width="1280.000" height="701.000" fill="#ffffff" stroke="none" />
  <g id ="ID000000">
  <clipPath id="ID000001">
    <rect x="166.400" y="52.575" width="992.000" height="571.315"/>
  </clipPath>
      <polygon fill="#ffffff" fill-opacity="1.00" stroke="none" stroke-width="0.5pt" stroke-opacity="1.00" stroke-dasharray="none" points="166.400,623.890 1158.400,623.890 1158.400,52.575 166.400,52.575 "/>
      <polygon fill="#ffffff" fill-opacity="1.00" stroke="none" stroke-width="0.5pt" stroke-opacity="1.00" stroke-dasharray="none" points="166.400,52.575 1158.400,52.575 1158.400,52.575 166.400,52.575 "/>
      <polygon fill="#ffffff" fill-opacity="1.00" stroke="none" stroke-width="0.5pt" stroke-opacity="1.00" stroke-dasharray="none" points="166.400,623.890 166.400,623.890 166.400,52.575 166.400,52.575 "/>
    <g>
<g id="ID000002" clip-path="url(#ID000001)" >
      <polyline fill="none" stroke="#00ffff" stroke-width="10.0pt" stroke-dasharray="none" stroke-opacity="1.00" points="166.40000,368.24126 191.20000,433.45167 216.00000,405.62329 240.80000,372.08876 265.60000,337.25175 290.40000,342.58949 315.20000,265.71099 340.00000,253.58596 364.80000,235.88589 389.60000,218.80771 414.40000,206.23501 439.20000,191.24427 464.00000,184.86273 488.80000,168.56430 513.60000,162.09958 538.40000,159.95125 563.20000,154.38660 588.00000,151.60161 612.80000,137.76412 637.60000,152.70438 662.40000,153.54121 687.20000,152.98238 712.00000,151.05569 736.80000,159.95125 761.60000,159.95125 786.40000,162.72378 811.20000,180.47727 836.00000,183.64345 860.80000,193.48577 885.60000,210.03203 910.40000,211.14970 935.20000,219.42723 960.00000,230.02813 984.80000,245.53250 1009.60000,274.91006 1034.40000,252.65142 1059.20000,283.89476 1084.00000,302.01188 1108.80000,307.23717 1133.60000,305.45847 1158.40000,202.09883 "/>
</g>
<g id="ID000003" clip-path="url(#ID000001)" >
<g>
<circle cx="166.400" cy="368.241" r="7.500" fill="#00ffff" stroke="#00ffff" stroke-width="0.5pt" />
<circle cx="191.200" cy="433.452" r="7.500" fill="#00ffff" stroke="#00ffff" stroke-width="0.5pt" />
<circle cx="216.000" cy="405.623" r="7.500" fill="#00ffff" stroke="#00ffff" stroke-width="0.5pt" />
<circle cx="240.800" cy="372.089" r="7.500" fill="#00ffff" stroke="#00ffff" stroke-width="0.5pt" />
<circle cx="265.600" cy="337.252" r="7.500" fill="#00ffff" stroke="#00ffff" stroke-width="0.5pt" />
<circle cx="290.400" cy="342.589" r="7.500" fill="#00ffff" stroke="#00ffff" stroke-width="0.5pt" />
<circle cx="315.200" cy="265.711" r="7.500" fill="#00ffff" stroke="#00ffff" stroke-width="0.5pt" />
<circle cx="340.000" cy="253.586" r="7.500" fill="#00ffff" stroke="#00ffff" stroke-width="0.5pt" />
<circle cx="364.800" cy="235.886" r="7.500" fill="#00ffff" stroke="#00ffff" stroke-width="0.5pt" />
<circle cx="389.600" cy="218.808" r="7.500" fill="#00ffff" stroke="#00ffff" stroke-width="0.5pt" />
<circle cx="414.400" cy="206.235" r="7.500" fill="#00ffff" stroke="#00ffff" stroke-width="0.5pt" />
<circle cx="439.200" cy="191.244" r="7.500" fill="#00ffff" stroke="#00ffff" stroke-width="0.5pt" />
<circle cx="464.000" cy="184.863" r="7.500" fill="#00ffff" stroke="#00ffff" stroke-width="0.5pt" />
<circle cx="488.800" cy="168.564" r="7.500" fill="#00ffff" stroke="#00ffff" stroke-width="0.5pt" />
<circle cx="513.600" cy="162.100" r="7.500" fill="#00ffff" stroke="#00ffff" stroke-width="0.5pt" />
<circle cx="538.400" cy="159.951" r="7.500" fill="#00ffff" stroke="#00ffff" stroke-width="0.5pt" />
<circle cx="563.200" cy="154.387" r="7.500" fill="#00ffff" stroke="#00ffff" stroke-width="0.5pt" />
<circle cx="588.000" cy="151.602" r="7.500" fill="#00ffff" stroke="#00ffff" stroke-width="0.5pt" />
<circle cx="612.800" cy="137.764" r="7.500" fill="#00ffff" stroke="#00ffff" stroke-width="0.5pt" />
<circle cx="637.600" cy="152.704" r="7.500" fill="#00ffff" stroke="#00ffff" stroke-width="0.5pt" />
<circle cx="662.400" cy="153.541" r="7.500" fill="#00ffff" stroke="#00ffff" stroke-width="0.5pt" />
<circle cx="687.200" cy="152.982" r="7.500" fill="#00ffff" stroke="#00ffff" stroke-width="0.5pt" />
<circle cx="712.000" cy="151.056" r="7.500" fill="#00ffff" stroke="#00ffff" stroke-width="0.5pt" />
<circle cx="736.800" cy="159.951" r="7.500" fill="#00ffff" stroke="#00ffff" stroke-width="0.5pt" />
<circle cx="761.600" cy="159.951" r="7.500" fill="#00ffff" stroke="#00ffff" stroke-width="0.5pt" />
<circle cx="786.400" cy="162.724" r="7.500" fill="#00ffff" stroke="#00ffff" stroke-width="0.5pt" />
<circle cx="811.200" cy="180.477" r="7.500" fill="#00ffff" stroke="#00ffff" stroke-width="0.5pt" />
<circle cx="836.000" cy="183.643" r="7.500" fill="#00ffff" stroke="#00ffff" stroke-width="0.5pt" />
<circle cx="860.800" cy="193.486" r="7.500" fill="#00ffff" stroke="#00ffff" stroke-width="0.5pt" />
<circle cx="885.600" cy="210.032" r="7.500" fill="#00ffff" stroke="#00ffff" stroke-width="0.5pt" />
<circle cx="910.400" cy="211.150" r="7.500" fill="#00ffff" stroke="#00ffff" stroke-width="0.5pt" />
<circle cx="935.200" cy="219.427" r="7.500" fill="#00ffff" stroke="#00ffff" stroke-width="0.5pt" />
<circle cx="960.000" cy="230.028" r="7.500" fill="#00ffff" stroke="#00ffff" stroke-width="0.5pt" />
<circle cx="984.800" cy="245.533" r="7.500" fill="#00ffff" stroke="#00ffff" stroke-width="0.5pt" />
<circle cx="1009.600" cy="274.910" r="7.500" fill="#00ffff" stroke="#00ffff" stroke-width="0.5pt" />
<circle cx="1034.400" cy="252.651" r="7.500" fill="#00ffff" stroke="#00ffff" stroke-width="0.5pt" />
<circle cx="1059.200" cy="283.895" r="7.500" fill="#00ffff" stroke="#00ffff" stroke-width="0.5pt" />
<circle cx="1084.000" cy="302.012" r="7.500" fill="#00ffff" stroke="#00ffff" stroke-width="0.5pt" />
<circle cx="1108.800" cy="307.237" r="7.500" fill="#00ffff" stroke="#00ffff" stroke-width="0.5pt" />
<circle cx="1133.600" cy="305.458" r="7.500" fill="#00ffff" stroke="#00ffff" stroke-width="0.5pt" />
<circle cx="1158.400" cy="202.099" r="7.500" fill="#00ffff" stroke="#00ffff" stroke-width="0.5pt" />
</g>
</g>
<g id="ID000004" clip-path="url(#ID000001)" >
      <polyline fill="none" stroke="#ff0000" stroke-width="10.0pt" stroke-dasharray="none" stroke-opacity="1.00" points="166.40000,533.02782 191.20000,623.89000 216.00000,533.02782 240.80000,490.77932 265.60000,451.90705 290.40000,399.91714 315.20000,405.62329 340.00000,354.42483 364.80000,337.25175 389.60000,297.09718 414.40000,282.54991 439.20000,263.56266 464.00000,255.48734 488.80000,246.38957 513.60000,221.31415 538.40000,206.23501 563.20000,196.72957 588.00000,190.36441 612.80000,185.27318 637.60000,172.70048 662.40000,165.59250 687.20000,162.72378 712.00000,154.67033 736.80000,164.30522 761.60000,157.26864 786.40000,151.05569 811.20000,154.10384 836.00000,170.60654 860.80000,163.35273 885.60000,168.90119 910.40000,173.76767 935.20000,184.04788 960.00000,184.45430 984.80000,187.77963 1009.60000,194.86042 1034.40000,228.62630 1059.20000,215.77783 1084.00000,223.24513 1108.80000,229.32424 1133.60000,257.43346 1158.40000,78.83047 "/>
</g>
<g id="ID000005" clip-path="url(#ID000001)" >
<g>
<circle cx="166.400" cy="533.028" r="7.500" fill="#ff0000" stroke="#ff0000" stroke-width="0.5pt" />
<circle cx="191.200" cy="623.890" r="7.500" fill="#ff0000" stroke="#ff0000" stroke-width="0.5pt" />
<circle cx="216.000" cy="533.028" r="7.500" fill="#ff0000" stroke="#ff0000" stroke-width="0.5pt" />
<circle cx="240.800" cy="490.779" r="7.500" fill="#ff0000" stroke="#ff0000" stroke-width="0.5pt" />
<circle cx="265.600" cy="451.907" r="7.500" fill="#ff0000" stroke="#ff0000" stroke-width="0.5pt" />
<circle cx="290.400" cy="399.917" r="7.500" fill="#ff0000" stroke="#ff0000" stroke-width="0.5pt" />
<circle cx="315.200" cy="405.623" r="7.500" fill="#ff0000" stroke="#ff0000" stroke-width="0.5pt" />
<circle cx="340.000" cy="354.425" r="7.500" fill="#ff0000" stroke="#ff0000" stroke-width="0.5pt" />
<circle cx="364.800" cy="337.252" r="7.500" fill="#ff0000" stroke="#ff0000" stroke-width="0.5pt" />
<circle cx="389.600" cy="297.097" r="7.500" fill="#ff0000" stroke="#ff0000" stroke-width="0.5pt" />
<circle cx="414.400" cy="282.550" r="7.500" fill="#ff0000" stroke="#ff0000" stroke-width="0.5pt" />
<circle cx="439.200" cy="263.563" r="7.500" fill="#ff0000" stroke="#ff0000" stroke-width="0.5pt" />
<circle cx="464.000" cy="255.487" r="7.500" fill="#ff0000" stroke="#ff0000" stroke-width="0.5pt" />
<circle cx="488.800" cy="246.390" r="7.500" fill="#ff0000" stroke="#ff0000" stroke-width="0.5pt" />
<circle cx="513.600" cy="221.314" r="7.500" fill="#ff0000" stroke="#ff0000" stroke-width="0.5pt" />
<circle cx="538.400" cy="206.235" r="7.500" fill="#ff0000" stroke="#ff0000" stroke-width="0.5pt" />
<circle cx="563.200" cy="196.730" r="7.500" fill="#ff0000" stroke="#ff0000" stroke-width="0.5pt" />
<circle cx="588.000" cy="190.364" r="7.500" fill="#ff0000" stroke="#ff0000" stroke-width="0.5pt" />
<circle cx="612.800" cy="185.273" r="7.500" fill="#ff0000" stroke="#ff0000" stroke-width="0.5pt" />
<circle cx="637.600" cy="172.700" r="7.500" fill="#ff0000" stroke="#ff0000" stroke-width="0.5pt" />
<circle cx="662.400" cy="165.592" r="7.500" fill="#ff0000" stroke="#ff0000" stroke-width="0.5pt" />
<circle cx="687.200" cy="162.724" r="7.500" fill="#ff0000" stroke="#ff0000" stroke-width="0.5pt" />
<circle cx="712.000" cy="154.670" r="7.500" fill="#ff0000" stroke="#ff0000" stroke-width="0.5pt" />
<circle cx="736.800" cy="164.305" r="7.500" fill="#ff0000" stroke="#ff0000" stroke-width="0.5pt" />
<circle cx="761.600" cy="157.269" r="7.500" fill="#ff0000" stroke="#ff0000" stroke-width="0.5pt" />
<circle cx="786.400" cy="151.056" r="7.500" fill="#ff0000" stroke="#ff0000" stroke-width="0.5pt" />
<circle cx="811.200" cy="154.104" r="7.500" fill="#ff0000" stroke="#ff0000" stroke-width="0.5pt" />
<circle cx="836.000" cy="170.607" r="7.500" fill="#ff0000" stroke="#ff0000" stroke-width="0.5pt" />
<circle cx="860.800" cy="163.353" r="7.500" fill="#ff0000" stroke="#ff0000" stroke-width="0.5pt" />
<circle cx="885.600" cy="168.901" r="7.500" fill="#ff0000" stroke="#ff0000" stroke-width="0.5pt" />
<circle cx="910.400" cy="173.768" r="7.500" fill="#ff0000" stroke="#ff0000" stroke-width="0.5pt" />
<circle cx="935.200" cy="184.048" r="7.500" fill="#ff0000" stroke="#ff0000" stroke-width="0.5pt" />
<circle cx="960.000" cy="184.454" r="7.500" fill="#ff0000" stroke="#ff0000" stroke-width="0.5pt" />
<circle cx="984.800" cy="187.780" r="7.500" fill="#ff0000" stroke="#ff0000" stroke-width="0.5pt" />
<circle cx="1009.600" cy="194.860" r="7.500" fill="#ff0000" stroke="#ff0000" stroke-width="0.5pt" />
<circle cx="1034.400" cy="228.626" r="7.500" fill="#ff0000" stroke="#ff0000" stroke-width="0.5pt" />
<circle cx="1059.200" cy="215.778" r="7.500" fill="#ff0000" stroke="#ff0000" stroke-width="0.5pt" />
<circle cx="1084.000" cy="223.245" r="7.500" fill="#ff0000" stroke="#ff0000" stroke-width="0.5pt" />
<circle cx="1108.800" cy="229.324" r="7.500" fill="#ff0000" stroke="#ff0000" stroke-width="0.5pt" />
<circle cx="1133.600" cy="257.433" r="7.500" fill="#ff0000" stroke="#ff0000" stroke-width="0.5pt" />
<circle cx="1158.400" cy="78.830" r="7.500" fill="#ff0000" stroke="#ff0000" stroke-width="0.5pt" />
</g>
</g>
<g id="ID000006" >
  <g transform="translate(133.400,339.233)">
    <g transform="rotate(-90.0)">
      <text x="0.000" y="0.000" font-family="Helvetica" text-anchor="middle" font-size="10pt" fill="#000000" ><tspan>count of synesthetes</tspan></text>
    </g>
  </g>
</g>
<g id="ID000007" >
  <g transform="translate(661.900,655.902)">
    <g transform="rotate(-0.0)">
      <text x="0.000" y="0.000" font-family="Helvetica" text-anchor="middle" font-size="10pt" fill="#000000" ><tspan>correlation</tspan></text>
    </g>
  </g>
</g>
<g id="ID000008" >
</g>
    </g>
    <g>
      <polyline fill="none" stroke="#000000" stroke-width="0.5pt" stroke-dasharray="none" stroke-opacity="1.00" points="166.40000,623.89000 166.40000,613.97000 "/>
      <polyline fill="none" stroke="#000000" stroke-width="0.5pt" stroke-dasharray="none" stroke-opacity="1.00" points="290.40000,623.89000 290.40000,613.97000 "/>
      <polyline fill="none" stroke="#000000" stroke-width="0.5pt" stroke-dasharray="none" stroke-opacity="1.00" points="414.40000,623.89000 414.40000,613.97000 "/>
      <polyline fill="none" stroke="#000000" stroke-width="0.5pt" stroke-dasharray="none" stroke-opacity="1.00" points="538.40000,623.89000 538.40000,613.97000 "/>
      <polyline fill="none" stroke="#000000" stroke-width="0.5pt" stroke-dasharray="none" stroke-opacity="1.00" points="662.40000,623.89000 662.40000,613.97000 "/>
      <polyline fill="none" stroke="#000000" stroke-width="0.5pt" stroke-dasharray="none" stroke-opacity="1.00" points="786.40000,623.89000 786.40000,613.97000 "/>
      <polyline fill="none" stroke="#000000" stroke-width="0.5pt" stroke-dasharray="none" stroke-opacity="1.00" points="910.40000,623.89000 910.40000,613.97000 "/>
      <polyline fill="none" stroke="#000000" stroke-width="0.5pt" stroke-dasharray="none" stroke-opacity="1.00" points="1034.40000,623.89000 1034.40000,613.97000 "/>
      <polyline fill="none" stroke="#000000" stroke-width="0.5pt" stroke-dasharray="none" stroke-opacity="1.00" points="1158.40000,623.89000 1158.40000,613.97000 "/>
      <polyline fill="none" stroke="#000000" stroke-width="0.5pt" stroke-dasharray="none" stroke-opacity="1.00" points="166.40000,623.89000 1158.40000,623.89000 "/>
  <g transform="translate(166.400,647.116)">
    <g transform="rotate(-0.0)">
      <text x="0.000" y="0.000" font-family="Helvetica" text-anchor="middle" font-size="10pt" fill="#000000" ><tspan>-0.2</tspan></text>
    </g>
  </g>
  <g transform="translate(290.400,647.116)">
    <g transform="rotate(-0.0)">
      <text x="0.000" y="0.000" font-family="Helvetica" text-anchor="middle" font-size="10pt" fill="#000000" ><tspan>-0.15</tspan></text>
    </g>
  </g>
  <g transform="translate(414.400,647.116)">
    <g transform="rotate(-0.0)">
      <text x="0.000" y="0.000" font-family="Helvetica" text-anchor="middle" font-size="10pt" fill="#000000" ><tspan>-0.1</tspan></text>
    </g>
  </g>
  <g transform="translate(538.400,647.116)">
    <g transform="rotate(-0.0)">
      <text x="0.000" y="0.000" font-family="Helvetica" text-anchor="middle" font-size="10pt" fill="#000000" ><tspan>-0.05</tspan></text>
    </g>
  </g>
  <g transform="translate(662.400,647.116)">
    <g transform="rotate(-0.0)">
      <text x="0.000" y="0.000" font-family="Helvetica" text-anchor="middle" font-size="10pt" fill="#000000" ><tspan>0</tspan></text>
    </g>
  </g>
  <g transform="translate(786.400,647.116)">
    <g transform="rotate(-0.0)">
      <text x="0.000" y="0.000" font-family="Helvetica" text-anchor="middle" font-size="10pt" fill="#000000" ><tspan>0.05</tspan></text>
    </g>
  </g>
  <g transform="translate(910.400,647.116)">
    <g transform="rotate(-0.0)">
      <text x="0.000" y="0.000" font-family="Helvetica" text-anchor="middle" font-size="10pt" fill="#000000" ><tspan>0.1</tspan></text>
    </g>
  </g>
  <g transform="translate(1034.400,647.116)">
    <g transform="rotate(-0.0)">
      <text x="0.000" y="0.000" font-family="Helvetica" text-anchor="middle" font-size="10pt" fill="#000000" ><tspan>0.15</tspan></text>
    </g>
  </g>
  <g transform="translate(1158.400,647.116)">
    <g transform="rotate(-0.0)">
      <text x="0.000" y="0.000" font-family="Helvetica" text-anchor="middle" font-size="10pt" fill="#000000" ><tspan>0.2</tspan></text>
    </g>
  </g>
      <polyline fill="none" stroke="#000000" stroke-width="0.5pt" stroke-dasharray="none" stroke-opacity="1.00" points="166.40000,623.89000 176.32000,623.89000 "/>
      <polyline fill="none" stroke="#000000" stroke-width="0.5pt" stroke-dasharray="none" stroke-opacity="1.00" points="166.40000,433.45167 176.32000,433.45167 "/>
      <polyline fill="none" stroke="#000000" stroke-width="0.5pt" stroke-dasharray="none" stroke-opacity="1.00" points="166.40000,243.01333 176.32000,243.01333 "/>
      <polyline fill="none" stroke="#000000" stroke-width="0.5pt" stroke-dasharray="none" stroke-opacity="1.00" points="166.40000,52.57500 176.32000,52.57500 "/>
      <polyline fill="none" stroke="#000000" stroke-width="0.5pt" stroke-dasharray="none" stroke-opacity="1.00" points="166.40000,623.89000 166.40000,52.57500 "/>
      <polyline fill="none" stroke="#000000" stroke-width="0.5pt" stroke-dasharray="none" stroke-opacity="1.00" points="166.40000,566.56235 171.36000,566.56235 "/>
      <polyline fill="none" stroke="#000000" stroke-width="0.5pt" stroke-dasharray="none" stroke-opacity="1.00" points="166.40000,533.02782 171.36000,533.02782 "/>
      <polyline fill="none" stroke="#000000" stroke-width="0.5pt" stroke-dasharray="none" stroke-opacity="1.00" points="166.40000,509.23470 171.36000,509.23470 "/>
      <polyline fill="none" stroke="#000000" stroke-width="0.5pt" stroke-dasharray="none" stroke-opacity="1.00" points="166.40000,490.77932 171.36000,490.77932 "/>
      <polyline fill="none" stroke="#000000" stroke-width="0.5pt" stroke-dasharray="none" stroke-opacity="1.00" points="166.40000,475.70017 171.36000,475.70017 "/>
      <polyline fill="none" stroke="#000000" stroke-width="0.5pt" stroke-dasharray="none" stroke-opacity="1.00" points="166.40000,462.95094 171.36000,462.95094 "/>
      <polyline fill="none" stroke="#000000" stroke-width="0.5pt" stroke-dasharray="none" stroke-opacity="1.00" points="166.40000,451.90705 171.36000,451.90705 "/>
      <polyline fill="none" stroke="#000000" stroke-width="0.5pt" stroke-dasharray="none" stroke-opacity="1.00" points="166.40000,442.16565 171.36000,442.16565 "/>
      <polyline fill="none" stroke="#000000" stroke-width="0.5pt" stroke-dasharray="none" stroke-opacity="1.00" points="166.40000,376.12402 171.36000,376.12402 "/>
      <polyline fill="none" stroke="#000000" stroke-width="0.5pt" stroke-dasharray="none" stroke-opacity="1.00" points="166.40000,342.58949 171.36000,342.58949 "/>
      <polyline fill="none" stroke="#000000" stroke-width="0.5pt" stroke-dasharray="none" stroke-opacity="1.00" points="166.40000,318.79637 171.36000,318.79637 "/>
      <polyline fill="none" stroke="#000000" stroke-width="0.5pt" stroke-dasharray="none" stroke-opacity="1.00" points="166.40000,300.34098 171.36000,300.34098 "/>
      <polyline fill="none" stroke="#000000" stroke-width="0.5pt" stroke-dasharray="none" stroke-opacity="1.00" points="166.40000,285.26184 171.36000,285.26184 "/>
      <polyline fill="none" stroke="#000000" stroke-width="0.5pt" stroke-dasharray="none" stroke-opacity="1.00" points="166.40000,272.51260 171.36000,272.51260 "/>
      <polyline fill="none" stroke="#000000" stroke-width="0.5pt" stroke-dasharray="none" stroke-opacity="1.00" points="166.40000,261.46871 171.36000,261.46871 "/>
      <polyline fill="none" stroke="#000000" stroke-width="0.5pt" stroke-dasharray="none" stroke-opacity="1.00" points="166.40000,251.72731 171.36000,251.72731 "/>
      <polyline fill="none" stroke="#000000" stroke-width="0.5pt" stroke-dasharray="none" stroke-opacity="1.00" points="166.40000,185.68568 171.36000,185.68568 "/>
      <polyline fill="none" stroke="#000000" stroke-width="0.5pt" stroke-dasharray="none" stroke-opacity="1.00" points="166.40000,152.15116 171.36000,152.15116 "/>
      <polyline fill="none" stroke="#000000" stroke-width="0.5pt" stroke-dasharray="none" stroke-opacity="1.00" points="166.40000,128.35803 171.36000,128.35803 "/>
      <polyline fill="none" stroke="#000000" stroke-width="0.5pt" stroke-dasharray="none" stroke-opacity="1.00" points="166.40000,109.90265 171.36000,109.90265 "/>
      <polyline fill="none" stroke="#000000" stroke-width="0.5pt" stroke-dasharray="none" stroke-opacity="1.00" points="166.40000,94.82351 171.36000,94.82351 "/>
      <polyline fill="none" stroke="#000000" stroke-width="0.5pt" stroke-dasharray="none" stroke-opacity="1.00" points="166.40000,82.07427 171.36000,82.07427 "/>
      <polyline fill="none" stroke="#000000" stroke-width="0.5pt" stroke-dasharray="none" stroke-opacity="1.00" points="166.40000,71.03038 171.36000,71.03038 "/>
      <polyline fill="none" stroke="#000000" stroke-width="0.5pt" stroke-dasharray="none" stroke-opacity="1.00" points="166.40000,61.28898 171.36000,61.28898 "/>
  <g transform="translate(146.560,632.390)">
    <g transform="rotate(-0.0)">
      <text x="0.000" y="0.000" font-family="Helvetica" text-anchor="end" font-size="10pt" fill="#000000" >10<tspan font-size="7.0pt" dy="-7.0pt"><tspan>0</tspan></tspan></text>
    </g>
  </g>
  <g transform="translate(146.560,441.952)">
    <g transform="rotate(-0.0)">
      <text x="0.000" y="0.000" font-family="Helvetica" text-anchor="end" font-size="10pt" fill="#000000" >10<tspan font-size="7.0pt" dy="-7.0pt"><tspan>1</tspan></tspan></text>
    </g>
  </g>
  <g transform="translate(146.560,251.513)">
    <g transform="rotate(-0.0)">
      <text x="0.000" y="0.000" font-family="Helvetica" text-anchor="end" font-size="10pt" fill="#000000" >10<tspan font-size="7.0pt" dy="-7.0pt"><tspan>2</tspan></tspan></text>
    </g>
  </g>
  <g transform="translate(146.560,61.075)">
    <g transform="rotate(-0.0)">
      <text x="0.000" y="0.000" font-family="Helvetica" text-anchor="end" font-size="10pt" fill="#000000" >10<tspan font-size="7.0pt" dy="-7.0pt"><tspan>3</tspan></tspan></text>
    </g>
  </g>
      <polyline fill="none" stroke="#000000" stroke-width="0.5pt" stroke-dasharray="none" stroke-opacity="1.00" points="166.40000,623.89000 166.40000,618.17685 "/>
      <polyline fill="none" stroke="#000000" stroke-width="0.5pt" stroke-dasharray="none" stroke-opacity="1.00" points="166.40000,623.89000 166.40000,618.17685 "/>
      <polyline fill="none" stroke="#000000" stroke-width="0.5pt" stroke-dasharray="none" stroke-opacity="1.00" points="166.40000,623.89000 166.40000,618.17685 "/>
      <polyline fill="none" stroke="#000000" stroke-width="0.5pt" stroke-dasharray="none" stroke-opacity="1.00" points="166.40000,623.89000 166.40000,623.89000 "/>
    </g>
  </g>
  </g>
</svg>
