<?xml version="1.0" encoding="utf-8" standalone="no"?><!DOCTYPE svg PUBLIC "-//W3C//DTD SVG 1.1//EN" "http://www.w3.org/Graphics/SVG/1.1/DTD/svg11.dtd">
<svg preserveAspectRatio="xMinYMin meet" width="100%" height="100%" viewBox="0 0 560.000 420.000"  version="1.1" xmlns="http://www.w3.org/2000/svg" xmlns:xlink="http://www.w3.org/1999/xlink">
  <desc>Matlab Figure Converted by PLOT2SVG written by Juerg Schwizer</desc>
  <g id="topgroup">
  <rect x="0" y="0" width="560.000" height="420.000" fill="#ffffff" stroke="none" />
  <g id ="ID000000">
  <clipPath id="ID000001">
    <rect x="72.800" y="31.500" width="434.000" height="342.300"/>
  </clipPath>
      <polygon fill="#ffffff" fill-opacity="1.00" stroke="none" stroke-width="0.5pt" stroke-opacity="1.00" stroke-dasharray="none" points="72.800,373.800 506.800,373.800 506.800,31.500 72.800,31.500 "/>
      <polygon fill="#ffffff" fill-opacity="1.00" stroke="none" stroke-width="0.5pt" stroke-opacity="1.00" stroke-dasharray="none" points="72.800,373.800 506.800,373.800 506.800,373.800 72.800,373.800 "/>
      <polygon fill="#ffffff" fill-opacity="1.00" stroke="none" stroke-width="0.5pt" stroke-opacity="1.00" stroke-dasharray="none" points="72.800,373.800 72.800,373.800 72.800,31.500 72.800,31.500 "/>
    <g>
<g id="ID000002" clip-path="url(#ID000001)" >
<g>
<circle cx="224.356" cy="221.969" r="5.000" fill="#00ffff" stroke="#00ffff" stroke-width="0.5pt" />
<circle cx="109.978" cy="267.869" r="5.000" fill="#00ffff" stroke="#00ffff" stroke-width="0.5pt" />
<circle cx="207.608" cy="228.690" r="5.000" fill="#00ffff" stroke="#00ffff" stroke-width="0.5pt" />
<circle cx="215.636" cy="225.468" r="5.000" fill="#00ffff" stroke="#00ffff" stroke-width="0.5pt" />
<circle cx="270.082" cy="203.618" r="5.000" fill="#00ffff" stroke="#00ffff" stroke-width="0.5pt" />
<circle cx="142.164" cy="254.953" r="5.000" fill="#00ffff" stroke="#00ffff" stroke-width="0.5pt" />
<circle cx="387.884" cy="156.344" r="5.000" fill="#00ffff" stroke="#00ffff" stroke-width="0.5pt" />
<circle cx="203.226" cy="230.448" r="5.000" fill="#00ffff" stroke="#00ffff" stroke-width="0.5pt" />
<circle cx="155.959" cy="249.417" r="5.000" fill="#00ffff" stroke="#00ffff" stroke-width="0.5pt" />
<circle cx="201.939" cy="230.965" r="5.000" fill="#00ffff" stroke="#00ffff" stroke-width="0.5pt" />
<circle cx="196.180" cy="233.276" r="5.000" fill="#00ffff" stroke="#00ffff" stroke-width="0.5pt" />
<circle cx="184.863" cy="237.817" r="5.000" fill="#00ffff" stroke="#00ffff" stroke-width="0.5pt" />
<circle cx="301.027" cy="191.200" r="5.000" fill="#00ffff" stroke="#00ffff" stroke-width="0.5pt" />
<circle cx="225.159" cy="221.646" r="5.000" fill="#00ffff" stroke="#00ffff" stroke-width="0.5pt" />
<circle cx="268.841" cy="204.116" r="5.000" fill="#00ffff" stroke="#00ffff" stroke-width="0.5pt" />
<circle cx="319.671" cy="183.718" r="5.000" fill="#00ffff" stroke="#00ffff" stroke-width="0.5pt" />
<circle cx="297.410" cy="192.651" r="5.000" fill="#00ffff" stroke="#00ffff" stroke-width="0.5pt" />
<circle cx="286.830" cy="196.897" r="5.000" fill="#00ffff" stroke="#00ffff" stroke-width="0.5pt" />
<circle cx="324.820" cy="181.652" r="5.000" fill="#00ffff" stroke="#00ffff" stroke-width="0.5pt" />
<circle cx="169.426" cy="244.012" r="5.000" fill="#00ffff" stroke="#00ffff" stroke-width="0.5pt" />
<circle cx="240.367" cy="215.543" r="5.000" fill="#00ffff" stroke="#00ffff" stroke-width="0.5pt" />
<circle cx="289.046" cy="196.008" r="5.000" fill="#00ffff" stroke="#00ffff" stroke-width="0.5pt" />
<circle cx="244.786" cy="213.770" r="5.000" fill="#00ffff" stroke="#00ffff" stroke-width="0.5pt" />
<circle cx="271.868" cy="202.901" r="5.000" fill="#00ffff" stroke="#00ffff" stroke-width="0.5pt" />
<circle cx="295.186" cy="193.544" r="5.000" fill="#00ffff" stroke="#00ffff" stroke-width="0.5pt" />
<circle cx="212.748" cy="226.627" r="5.000" fill="#00ffff" stroke="#00ffff" stroke-width="0.5pt" />
<circle cx="319.671" cy="183.718" r="5.000" fill="#00ffff" stroke="#00ffff" stroke-width="0.5pt" />
<circle cx="199.964" cy="231.757" r="5.000" fill="#00ffff" stroke="#00ffff" stroke-width="0.5pt" />
<circle cx="124.174" cy="262.172" r="5.000" fill="#00ffff" stroke="#00ffff" stroke-width="0.5pt" />
<circle cx="314.568" cy="185.766" r="5.000" fill="#00ffff" stroke="#00ffff" stroke-width="0.5pt" />
<circle cx="306.203" cy="189.123" r="5.000" fill="#00ffff" stroke="#00ffff" stroke-width="0.5pt" />
<circle cx="403.321" cy="150.148" r="5.000" fill="#00ffff" stroke="#00ffff" stroke-width="0.5pt" />
<circle cx="230.078" cy="219.672" r="5.000" fill="#00ffff" stroke="#00ffff" stroke-width="0.5pt" />
<circle cx="301.354" cy="191.068" r="5.000" fill="#00ffff" stroke="#00ffff" stroke-width="0.5pt" />
<circle cx="338.033" cy="176.349" r="5.000" fill="#00ffff" stroke="#00ffff" stroke-width="0.5pt" />
<circle cx="212.273" cy="226.817" r="5.000" fill="#00ffff" stroke="#00ffff" stroke-width="0.5pt" />
<circle cx="258.507" cy="208.263" r="5.000" fill="#00ffff" stroke="#00ffff" stroke-width="0.5pt" />
<circle cx="378.537" cy="160.095" r="5.000" fill="#00ffff" stroke="#00ffff" stroke-width="0.5pt" />
<circle cx="316.026" cy="185.181" r="5.000" fill="#00ffff" stroke="#00ffff" stroke-width="0.5pt" />
<circle cx="330.352" cy="179.432" r="5.000" fill="#00ffff" stroke="#00ffff" stroke-width="0.5pt" />
<circle cx="279.093" cy="200.002" r="5.000" fill="#00ffff" stroke="#00ffff" stroke-width="0.5pt" />
<circle cx="314.568" cy="185.766" r="5.000" fill="#00ffff" stroke="#00ffff" stroke-width="0.5pt" />
<circle cx="362.182" cy="166.658" r="5.000" fill="#00ffff" stroke="#00ffff" stroke-width="0.5pt" />
<circle cx="251.766" cy="210.969" r="5.000" fill="#00ffff" stroke="#00ffff" stroke-width="0.5pt" />
<circle cx="181.984" cy="238.973" r="5.000" fill="#00ffff" stroke="#00ffff" stroke-width="0.5pt" />
<circle cx="184.863" cy="237.817" r="5.000" fill="#00ffff" stroke="#00ffff" stroke-width="0.5pt" />
<circle cx="183.622" cy="238.315" r="5.000" fill="#00ffff" stroke="#00ffff" stroke-width="0.5pt" />
<circle cx="425.246" cy="141.350" r="5.000" fill="#00ffff" stroke="#00ffff" stroke-width="0.5pt" />
<circle cx="323.754" cy="182.079" r="5.000" fill="#00ffff" stroke="#00ffff" stroke-width="0.5pt" />
<circle cx="241.431" cy="215.116" r="5.000" fill="#00ffff" stroke="#00ffff" stroke-width="0.5pt" />
<circle cx="295.186" cy="193.544" r="5.000" fill="#00ffff" stroke="#00ffff" stroke-width="0.5pt" />
<circle cx="357.415" cy="168.571" r="5.000" fill="#00ffff" stroke="#00ffff" stroke-width="0.5pt" />
<circle cx="314.568" cy="185.766" r="5.000" fill="#00ffff" stroke="#00ffff" stroke-width="0.5pt" />
<circle cx="299.568" cy="191.785" r="5.000" fill="#00ffff" stroke="#00ffff" stroke-width="0.5pt" />
<circle cx="289.046" cy="196.008" r="5.000" fill="#00ffff" stroke="#00ffff" stroke-width="0.5pt" />
<circle cx="341.174" cy="175.088" r="5.000" fill="#00ffff" stroke="#00ffff" stroke-width="0.5pt" />
<circle cx="281.973" cy="198.846" r="5.000" fill="#00ffff" stroke="#00ffff" stroke-width="0.5pt" />
<circle cx="204.974" cy="229.747" r="5.000" fill="#00ffff" stroke="#00ffff" stroke-width="0.5pt" />
<circle cx="324.099" cy="181.941" r="5.000" fill="#00ffff" stroke="#00ffff" stroke-width="0.5pt" />
<circle cx="251.618" cy="211.028" r="5.000" fill="#00ffff" stroke="#00ffff" stroke-width="0.5pt" />
<circle cx="306.458" cy="189.020" r="5.000" fill="#00ffff" stroke="#00ffff" stroke-width="0.5pt" />
<circle cx="410.786" cy="147.153" r="5.000" fill="#00ffff" stroke="#00ffff" stroke-width="0.5pt" />
<circle cx="297.492" cy="192.618" r="5.000" fill="#00ffff" stroke="#00ffff" stroke-width="0.5pt" />
<circle cx="362.260" cy="166.627" r="5.000" fill="#00ffff" stroke="#00ffff" stroke-width="0.5pt" />
<circle cx="443.142" cy="134.168" r="5.000" fill="#00ffff" stroke="#00ffff" stroke-width="0.5pt" />
</g>
</g>
<g id="ID000003" clip-path="url(#ID000001)" >
<g>
<circle cx="224.356" cy="342.734" r="1.667" fill="#ff0000" stroke="none" stroke-width="0.5pt" />
<circle cx="109.978" cy="317.813" r="1.667" fill="#ff0000" stroke="none" stroke-width="0.5pt" />
<circle cx="207.608" cy="298.823" r="1.667" fill="#ff0000" stroke="none" stroke-width="0.5pt" />
<circle cx="215.636" cy="289.853" r="1.667" fill="#ff0000" stroke="none" stroke-width="0.5pt" />
<circle cx="270.082" cy="282.004" r="1.667" fill="#ff0000" stroke="none" stroke-width="0.5pt" />
<circle cx="142.164" cy="276.882" r="1.667" fill="#ff0000" stroke="none" stroke-width="0.5pt" />
<circle cx="387.884" cy="271.802" r="1.667" fill="#ff0000" stroke="none" stroke-width="0.5pt" />
<circle cx="203.226" cy="267.715" r="1.667" fill="#ff0000" stroke="none" stroke-width="0.5pt" />
<circle cx="155.959" cy="264.463" r="1.667" fill="#ff0000" stroke="none" stroke-width="0.5pt" />
<circle cx="201.939" cy="261.049" r="1.667" fill="#ff0000" stroke="none" stroke-width="0.5pt" />
<circle cx="196.180" cy="254.472" r="1.667" fill="#ff0000" stroke="none" stroke-width="0.5pt" />
<circle cx="184.863" cy="249.717" r="1.667" fill="#ff0000" stroke="none" stroke-width="0.5pt" />
<circle cx="301.027" cy="247.603" r="1.667" fill="#ff0000" stroke="none" stroke-width="0.5pt" />
<circle cx="225.159" cy="245.139" r="1.667" fill="#ff0000" stroke="none" stroke-width="0.5pt" />
<circle cx="268.841" cy="243.532" r="1.667" fill="#ff0000" stroke="none" stroke-width="0.5pt" />
<circle cx="319.671" cy="242.026" r="1.667" fill="#ff0000" stroke="none" stroke-width="0.5pt" />
<circle cx="297.410" cy="238.932" r="1.667" fill="#ff0000" stroke="none" stroke-width="0.5pt" />
<circle cx="286.830" cy="237.540" r="1.667" fill="#ff0000" stroke="none" stroke-width="0.5pt" />
<circle cx="324.820" cy="235.168" r="1.667" fill="#ff0000" stroke="none" stroke-width="0.5pt" />
<circle cx="169.426" cy="234.043" r="1.667" fill="#ff0000" stroke="none" stroke-width="0.5pt" />
<circle cx="240.367" cy="232.519" r="1.667" fill="#ff0000" stroke="none" stroke-width="0.5pt" />
<circle cx="289.046" cy="228.889" r="1.667" fill="#ff0000" stroke="none" stroke-width="0.5pt" />
<circle cx="244.786" cy="226.835" r="1.667" fill="#ff0000" stroke="none" stroke-width="0.5pt" />
<circle cx="271.868" cy="225.866" r="1.667" fill="#ff0000" stroke="none" stroke-width="0.5pt" />
<circle cx="295.186" cy="223.738" r="1.667" fill="#ff0000" stroke="none" stroke-width="0.5pt" />
<circle cx="212.748" cy="222.088" r="1.667" fill="#ff0000" stroke="none" stroke-width="0.5pt" />
<circle cx="319.671" cy="220.427" r="1.667" fill="#ff0000" stroke="none" stroke-width="0.5pt" />
<circle cx="199.964" cy="219.691" r="1.667" fill="#ff0000" stroke="none" stroke-width="0.5pt" />
<circle cx="124.174" cy="218.241" r="1.667" fill="#ff0000" stroke="none" stroke-width="0.5pt" />
<circle cx="314.568" cy="215.861" r="1.667" fill="#ff0000" stroke="none" stroke-width="0.5pt" />
<circle cx="306.203" cy="212.490" r="1.667" fill="#ff0000" stroke="none" stroke-width="0.5pt" />
<circle cx="403.321" cy="208.113" r="1.667" fill="#ff0000" stroke="none" stroke-width="0.5pt" />
<circle cx="230.078" cy="206.441" r="1.667" fill="#ff0000" stroke="none" stroke-width="0.5pt" />
<circle cx="301.354" cy="204.677" r="1.667" fill="#ff0000" stroke="none" stroke-width="0.5pt" />
<circle cx="338.033" cy="202.675" r="1.667" fill="#ff0000" stroke="none" stroke-width="0.5pt" />
<circle cx="212.273" cy="200.088" r="1.667" fill="#ff0000" stroke="none" stroke-width="0.5pt" />
<circle cx="258.507" cy="198.053" r="1.667" fill="#ff0000" stroke="none" stroke-width="0.5pt" />
<circle cx="378.537" cy="195.692" r="1.667" fill="#ff0000" stroke="none" stroke-width="0.5pt" />
<circle cx="316.026" cy="193.027" r="1.667" fill="#ff0000" stroke="none" stroke-width="0.5pt" />
<circle cx="330.352" cy="189.772" r="1.667" fill="#ff0000" stroke="none" stroke-width="0.5pt" />
<circle cx="279.093" cy="188.369" r="1.667" fill="#ff0000" stroke="none" stroke-width="0.5pt" />
<circle cx="314.568" cy="186.480" r="1.667" fill="#ff0000" stroke="none" stroke-width="0.5pt" />
<circle cx="362.182" cy="184.301" r="1.667" fill="#ff0000" stroke="none" stroke-width="0.5pt" />
<circle cx="251.766" cy="181.416" r="1.667" fill="#ff0000" stroke="none" stroke-width="0.5pt" />
<circle cx="181.984" cy="180.001" r="1.667" fill="#ff0000" stroke="none" stroke-width="0.5pt" />
<circle cx="184.863" cy="176.904" r="1.667" fill="#ff0000" stroke="none" stroke-width="0.5pt" />
<circle cx="183.622" cy="175.126" r="1.667" fill="#ff0000" stroke="none" stroke-width="0.5pt" />
<circle cx="425.246" cy="172.326" r="1.667" fill="#ff0000" stroke="none" stroke-width="0.5pt" />
<circle cx="323.754" cy="167.730" r="1.667" fill="#ff0000" stroke="none" stroke-width="0.5pt" />
<circle cx="241.431" cy="164.431" r="1.667" fill="#ff0000" stroke="none" stroke-width="0.5pt" />
<circle cx="295.186" cy="160.233" r="1.667" fill="#ff0000" stroke="none" stroke-width="0.5pt" />
<circle cx="357.415" cy="158.728" r="1.667" fill="#ff0000" stroke="none" stroke-width="0.5pt" />
<circle cx="314.568" cy="156.343" r="1.667" fill="#ff0000" stroke="none" stroke-width="0.5pt" />
<circle cx="299.568" cy="151.799" r="1.667" fill="#ff0000" stroke="none" stroke-width="0.5pt" />
<circle cx="289.046" cy="145.029" r="1.667" fill="#ff0000" stroke="none" stroke-width="0.5pt" />
<circle cx="341.174" cy="141.025" r="1.667" fill="#ff0000" stroke="none" stroke-width="0.5pt" />
<circle cx="281.973" cy="135.809" r="1.667" fill="#ff0000" stroke="none" stroke-width="0.5pt" />
<circle cx="204.974" cy="130.505" r="1.667" fill="#ff0000" stroke="none" stroke-width="0.5pt" />
<circle cx="324.099" cy="120.126" r="1.667" fill="#ff0000" stroke="none" stroke-width="0.5pt" />
<circle cx="251.618" cy="115.531" r="1.667" fill="#ff0000" stroke="none" stroke-width="0.5pt" />
<circle cx="306.458" cy="106.248" r="1.667" fill="#ff0000" stroke="none" stroke-width="0.5pt" />
<circle cx="410.786" cy="97.809" r="1.667" fill="#ff0000" stroke="none" stroke-width="0.5pt" />
<circle cx="297.492" cy="85.408" r="1.667" fill="#ff0000" stroke="none" stroke-width="0.5pt" />
<circle cx="362.260" cy="71.951" r="1.667" fill="#ff0000" stroke="none" stroke-width="0.5pt" />
<circle cx="443.142" cy="33.509" r="1.667" fill="#ff0000" stroke="none" stroke-width="0.5pt" />
</g>
</g>
<g id="ID000004" >
  <g transform="translate(289.300,405.820)">
    <g transform="rotate(-0.0)">
      <text x="0.000" y="0.000" font-family="Helvetica" text-anchor="middle" font-size="10pt" fill="#000000" ><tspan>KB FeatDist</tspan></text>
    </g>
  </g>
</g>
<g id="ID000005" >
  <g transform="translate(44.800,204.151)">
    <g transform="rotate(-90.0)">
      <text x="0.000" y="0.000" font-family="Helvetica" text-anchor="middle" font-size="10pt" fill="#000000" ><tspan>mean L*a*b* distance</tspan></text>
    </g>
  </g>
</g>
<g id="ID000006" >
  <g transform="translate(289.300,23.495)">
    <g transform="rotate(-0.0)">
      <text x="0.000" y="0.000" font-family="Helvetica" text-anchor="middle" font-size="10pt" fill="#000000" ><tspan>0.24828% variance explained r=0.49827 : rho = 0.44703 p = 0.00018912</tspan></text>
    </g>
  </g>
</g>
    </g>
    <g>
      <polyline fill="none" stroke="#000000" stroke-width="0.5pt" stroke-dasharray="none" stroke-opacity="1.00" points="72.80000,373.80000 72.80000,369.46000 "/>
      <polyline fill="none" stroke="#000000" stroke-width="0.5pt" stroke-dasharray="none" stroke-opacity="1.00" points="145.13333,373.80000 145.13333,369.46000 "/>
      <polyline fill="none" stroke="#000000" stroke-width="0.5pt" stroke-dasharray="none" stroke-opacity="1.00" points="217.46667,373.80000 217.46667,369.46000 "/>
      <polyline fill="none" stroke="#000000" stroke-width="0.5pt" stroke-dasharray="none" stroke-opacity="1.00" points="289.80000,373.80000 289.80000,369.46000 "/>
      <polyline fill="none" stroke="#000000" stroke-width="0.5pt" stroke-dasharray="none" stroke-opacity="1.00" points="362.13333,373.80000 362.13333,369.46000 "/>
      <polyline fill="none" stroke="#000000" stroke-width="0.5pt" stroke-dasharray="none" stroke-opacity="1.00" points="434.46667,373.80000 434.46667,369.46000 "/>
      <polyline fill="none" stroke="#000000" stroke-width="0.5pt" stroke-dasharray="none" stroke-opacity="1.00" points="506.80000,373.80000 506.80000,369.46000 "/>
      <polyline fill="none" stroke="#000000" stroke-width="0.5pt" stroke-dasharray="none" stroke-opacity="1.00" points="72.80000,373.80000 506.80000,373.80000 "/>
  <g transform="translate(72.800,392.446)">
    <g transform="rotate(-0.0)">
      <text x="0.000" y="0.000" font-family="Helvetica" text-anchor="middle" font-size="10pt" fill="#000000" ><tspan>1.8</tspan></text>
    </g>
  </g>
  <g transform="translate(145.133,392.446)">
    <g transform="rotate(-0.0)">
      <text x="0.000" y="0.000" font-family="Helvetica" text-anchor="middle" font-size="10pt" fill="#000000" ><tspan>2</tspan></text>
    </g>
  </g>
  <g transform="translate(217.467,392.446)">
    <g transform="rotate(-0.0)">
      <text x="0.000" y="0.000" font-family="Helvetica" text-anchor="middle" font-size="10pt" fill="#000000" ><tspan>2.2</tspan></text>
    </g>
  </g>
  <g transform="translate(289.800,392.446)">
    <g transform="rotate(-0.0)">
      <text x="0.000" y="0.000" font-family="Helvetica" text-anchor="middle" font-size="10pt" fill="#000000" ><tspan>2.4</tspan></text>
    </g>
  </g>
  <g transform="translate(362.133,392.446)">
    <g transform="rotate(-0.0)">
      <text x="0.000" y="0.000" font-family="Helvetica" text-anchor="middle" font-size="10pt" fill="#000000" ><tspan>2.6</tspan></text>
    </g>
  </g>
  <g transform="translate(434.467,392.446)">
    <g transform="rotate(-0.0)">
      <text x="0.000" y="0.000" font-family="Helvetica" text-anchor="middle" font-size="10pt" fill="#000000" ><tspan>2.8</tspan></text>
    </g>
  </g>
  <g transform="translate(506.800,392.446)">
    <g transform="rotate(-0.0)">
      <text x="0.000" y="0.000" font-family="Helvetica" text-anchor="middle" font-size="10pt" fill="#000000" ><tspan>3</tspan></text>
    </g>
  </g>
      <polyline fill="none" stroke="#000000" stroke-width="0.5pt" stroke-dasharray="none" stroke-opacity="1.00" points="72.80000,373.80000 77.14000,373.80000 "/>
      <polyline fill="none" stroke="#000000" stroke-width="0.5pt" stroke-dasharray="none" stroke-opacity="1.00" points="72.80000,331.01250 77.14000,331.01250 "/>
      <polyline fill="none" stroke="#000000" stroke-width="0.5pt" stroke-dasharray="none" stroke-opacity="1.00" points="72.80000,288.22500 77.14000,288.22500 "/>
      <polyline fill="none" stroke="#000000" stroke-width="0.5pt" stroke-dasharray="none" stroke-opacity="1.00" points="72.80000,245.43750 77.14000,245.43750 "/>
      <polyline fill="none" stroke="#000000" stroke-width="0.5pt" stroke-dasharray="none" stroke-opacity="1.00" points="72.80000,202.65000 77.14000,202.65000 "/>
      <polyline fill="none" stroke="#000000" stroke-width="0.5pt" stroke-dasharray="none" stroke-opacity="1.00" points="72.80000,159.86250 77.14000,159.86250 "/>
      <polyline fill="none" stroke="#000000" stroke-width="0.5pt" stroke-dasharray="none" stroke-opacity="1.00" points="72.80000,117.07500 77.14000,117.07500 "/>
      <polyline fill="none" stroke="#000000" stroke-width="0.5pt" stroke-dasharray="none" stroke-opacity="1.00" points="72.80000,74.28750 77.14000,74.28750 "/>
      <polyline fill="none" stroke="#000000" stroke-width="0.5pt" stroke-dasharray="none" stroke-opacity="1.00" points="72.80000,31.50000 77.14000,31.50000 "/>
      <polyline fill="none" stroke="#000000" stroke-width="0.5pt" stroke-dasharray="none" stroke-opacity="1.00" points="72.80000,373.80000 72.80000,31.50000 "/>
  <g transform="translate(64.120,378.300)">
    <g transform="rotate(-0.0)">
      <text x="0.000" y="0.000" font-family="Helvetica" text-anchor="end" font-size="10pt" fill="#000000" ><tspan>50</tspan></text>
    </g>
  </g>
  <g transform="translate(64.120,335.512)">
    <g transform="rotate(-0.0)">
      <text x="0.000" y="0.000" font-family="Helvetica" text-anchor="end" font-size="10pt" fill="#000000" ><tspan>55</tspan></text>
    </g>
  </g>
  <g transform="translate(64.120,292.725)">
    <g transform="rotate(-0.0)">
      <text x="0.000" y="0.000" font-family="Helvetica" text-anchor="end" font-size="10pt" fill="#000000" ><tspan>60</tspan></text>
    </g>
  </g>
  <g transform="translate(64.120,249.937)">
    <g transform="rotate(-0.0)">
      <text x="0.000" y="0.000" font-family="Helvetica" text-anchor="end" font-size="10pt" fill="#000000" ><tspan>65</tspan></text>
    </g>
  </g>
  <g transform="translate(64.120,207.150)">
    <g transform="rotate(-0.0)">
      <text x="0.000" y="0.000" font-family="Helvetica" text-anchor="end" font-size="10pt" fill="#000000" ><tspan>70</tspan></text>
    </g>
  </g>
  <g transform="translate(64.120,164.362)">
    <g transform="rotate(-0.0)">
      <text x="0.000" y="0.000" font-family="Helvetica" text-anchor="end" font-size="10pt" fill="#000000" ><tspan>75</tspan></text>
    </g>
  </g>
  <g transform="translate(64.120,121.575)">
    <g transform="rotate(-0.0)">
      <text x="0.000" y="0.000" font-family="Helvetica" text-anchor="end" font-size="10pt" fill="#000000" ><tspan>80</tspan></text>
    </g>
  </g>
  <g transform="translate(64.120,78.787)">
    <g transform="rotate(-0.0)">
      <text x="0.000" y="0.000" font-family="Helvetica" text-anchor="end" font-size="10pt" fill="#000000" ><tspan>85</tspan></text>
    </g>
  </g>
  <g transform="translate(64.120,36.000)">
    <g transform="rotate(-0.0)">
      <text x="0.000" y="0.000" font-family="Helvetica" text-anchor="end" font-size="10pt" fill="#000000" ><tspan>90</tspan></text>
    </g>
  </g>
      <polyline fill="none" stroke="#000000" stroke-width="0.5pt" stroke-dasharray="none" stroke-opacity="1.00" points="72.80000,373.80000 72.80000,370.37700 "/>
      <polyline fill="none" stroke="#000000" stroke-width="0.5pt" stroke-dasharray="none" stroke-opacity="1.00" points="72.80000,373.80000 72.80000,370.37700 "/>
      <polyline fill="none" stroke="#000000" stroke-width="0.5pt" stroke-dasharray="none" stroke-opacity="1.00" points="72.80000,373.80000 72.80000,370.37700 "/>
      <polyline fill="none" stroke="#000000" stroke-width="0.5pt" stroke-dasharray="none" stroke-opacity="1.00" points="72.80000,373.80000 72.80000,373.80000 "/>
    </g>
  </g>
  </g>
</svg>
