<?xml version="1.0" encoding="utf-8" standalone="no"?><!DOCTYPE svg PUBLIC "-//W3C//DTD SVG 1.1//EN" "http://www.w3.org/Graphics/SVG/1.1/DTD/svg11.dtd">
<svg preserveAspectRatio="xMinYMin meet" width="100%" height="100%" viewBox="0 0 560.000 420.000"  version="1.1" xmlns="http://www.w3.org/2000/svg" xmlns:xlink="http://www.w3.org/1999/xlink">
  <desc>Matlab Figure Converted by PLOT2SVG written by Juerg Schwizer</desc>
  <g id="topgroup">
  <rect x="0" y="0" width="560.000" height="420.000" fill="#ffffff" stroke="none" />
  <g id ="ID000000">
  <clipPath id="ID000001">
    <rect x="72.800" y="31.500" width="434.000" height="342.300"/>
  </clipPath>
      <polygon fill="#ffffff" fill-opacity="1.00" stroke="none" stroke-width="0.5pt" stroke-opacity="1.00" stroke-dasharray="none" points="72.800,373.800 506.800,373.800 506.800,31.500 72.800,31.500 "/>
      <polygon fill="#ffffff" fill-opacity="1.00" stroke="none" stroke-width="0.5pt" stroke-opacity="1.00" stroke-dasharray="none" points="72.800,31.500 506.800,31.500 506.800,31.500 72.800,31.500 "/>
      <polygon fill="#ffffff" fill-opacity="1.00" stroke="none" stroke-width="0.5pt" stroke-opacity="1.00" stroke-dasharray="none" points="72.800,373.800 72.800,373.800 72.800,31.500 72.800,31.500 "/>
    <g>
<g id="ID000002" clip-path="url(#ID000001)" >
<g>
<circle cx="177.871" cy="227.327" r="5.000" fill="#00ffff" stroke="#00ffff" stroke-width="0.5pt" />
<circle cx="268.491" cy="201.325" r="5.000" fill="#00ffff" stroke="#00ffff" stroke-width="0.5pt" />
<circle cx="129.929" cy="241.084" r="5.000" fill="#00ffff" stroke="#00ffff" stroke-width="0.5pt" />
<circle cx="180.345" cy="226.617" r="5.000" fill="#00ffff" stroke="#00ffff" stroke-width="0.5pt" />
<circle cx="175.166" cy="228.103" r="5.000" fill="#00ffff" stroke="#00ffff" stroke-width="0.5pt" />
<circle cx="103.064" cy="248.792" r="5.000" fill="#00ffff" stroke="#00ffff" stroke-width="0.5pt" />
<circle cx="84.489" cy="254.122" r="5.000" fill="#00ffff" stroke="#00ffff" stroke-width="0.5pt" />
<circle cx="198.096" cy="221.524" r="5.000" fill="#00ffff" stroke="#00ffff" stroke-width="0.5pt" />
<circle cx="205.083" cy="219.519" r="5.000" fill="#00ffff" stroke="#00ffff" stroke-width="0.5pt" />
<circle cx="324.723" cy="185.189" r="5.000" fill="#00ffff" stroke="#00ffff" stroke-width="0.5pt" />
<circle cx="211.911" cy="217.560" r="5.000" fill="#00ffff" stroke="#00ffff" stroke-width="0.5pt" />
<circle cx="198.805" cy="221.320" r="5.000" fill="#00ffff" stroke="#00ffff" stroke-width="0.5pt" />
<circle cx="288.946" cy="195.455" r="5.000" fill="#00ffff" stroke="#00ffff" stroke-width="0.5pt" />
<circle cx="271.283" cy="200.523" r="5.000" fill="#00ffff" stroke="#00ffff" stroke-width="0.5pt" />
<circle cx="271.731" cy="200.395" r="5.000" fill="#00ffff" stroke="#00ffff" stroke-width="0.5pt" />
<circle cx="154.074" cy="234.156" r="5.000" fill="#00ffff" stroke="#00ffff" stroke-width="0.5pt" />
<circle cx="215.109" cy="216.642" r="5.000" fill="#00ffff" stroke="#00ffff" stroke-width="0.5pt" />
<circle cx="312.238" cy="188.772" r="5.000" fill="#00ffff" stroke="#00ffff" stroke-width="0.5pt" />
<circle cx="341.417" cy="180.399" r="5.000" fill="#00ffff" stroke="#00ffff" stroke-width="0.5pt" />
<circle cx="256.252" cy="204.836" r="5.000" fill="#00ffff" stroke="#00ffff" stroke-width="0.5pt" />
<circle cx="206.515" cy="219.108" r="5.000" fill="#00ffff" stroke="#00ffff" stroke-width="0.5pt" />
<circle cx="233.525" cy="211.358" r="5.000" fill="#00ffff" stroke="#00ffff" stroke-width="0.5pt" />
<circle cx="310.053" cy="189.399" r="5.000" fill="#00ffff" stroke="#00ffff" stroke-width="0.5pt" />
<circle cx="227.752" cy="213.014" r="5.000" fill="#00ffff" stroke="#00ffff" stroke-width="0.5pt" />
<circle cx="429.996" cy="154.982" r="5.000" fill="#00ffff" stroke="#00ffff" stroke-width="0.5pt" />
<circle cx="420.723" cy="157.643" r="5.000" fill="#00ffff" stroke="#00ffff" stroke-width="0.5pt" />
<circle cx="340.115" cy="180.773" r="5.000" fill="#00ffff" stroke="#00ffff" stroke-width="0.5pt" />
<circle cx="126.399" cy="242.097" r="5.000" fill="#00ffff" stroke="#00ffff" stroke-width="0.5pt" />
<circle cx="234.885" cy="210.968" r="5.000" fill="#00ffff" stroke="#00ffff" stroke-width="0.5pt" />
<circle cx="225.221" cy="213.741" r="5.000" fill="#00ffff" stroke="#00ffff" stroke-width="0.5pt" />
<circle cx="92.518" cy="251.819" r="5.000" fill="#00ffff" stroke="#00ffff" stroke-width="0.5pt" />
<circle cx="135.484" cy="239.490" r="5.000" fill="#00ffff" stroke="#00ffff" stroke-width="0.5pt" />
<circle cx="247.818" cy="207.257" r="5.000" fill="#00ffff" stroke="#00ffff" stroke-width="0.5pt" />
<circle cx="260.736" cy="203.550" r="5.000" fill="#00ffff" stroke="#00ffff" stroke-width="0.5pt" />
<circle cx="235.405" cy="210.818" r="5.000" fill="#00ffff" stroke="#00ffff" stroke-width="0.5pt" />
<circle cx="147.361" cy="236.082" r="5.000" fill="#00ffff" stroke="#00ffff" stroke-width="0.5pt" />
<circle cx="422.228" cy="157.211" r="5.000" fill="#00ffff" stroke="#00ffff" stroke-width="0.5pt" />
<circle cx="328.571" cy="184.085" r="5.000" fill="#00ffff" stroke="#00ffff" stroke-width="0.5pt" />
<circle cx="230.530" cy="212.217" r="5.000" fill="#00ffff" stroke="#00ffff" stroke-width="0.5pt" />
<circle cx="206.139" cy="219.216" r="5.000" fill="#00ffff" stroke="#00ffff" stroke-width="0.5pt" />
<circle cx="316.288" cy="187.609" r="5.000" fill="#00ffff" stroke="#00ffff" stroke-width="0.5pt" />
<circle cx="270.371" cy="200.785" r="5.000" fill="#00ffff" stroke="#00ffff" stroke-width="0.5pt" />
<circle cx="364.795" cy="173.691" r="5.000" fill="#00ffff" stroke="#00ffff" stroke-width="0.5pt" />
<circle cx="180.996" cy="226.430" r="5.000" fill="#00ffff" stroke="#00ffff" stroke-width="0.5pt" />
<circle cx="382.343" cy="168.656" r="5.000" fill="#00ffff" stroke="#00ffff" stroke-width="0.5pt" />
<circle cx="360.195" cy="175.011" r="5.000" fill="#00ffff" stroke="#00ffff" stroke-width="0.5pt" />
<circle cx="133.690" cy="240.005" r="5.000" fill="#00ffff" stroke="#00ffff" stroke-width="0.5pt" />
<circle cx="311.862" cy="188.880" r="5.000" fill="#00ffff" stroke="#00ffff" stroke-width="0.5pt" />
<circle cx="245.937" cy="207.796" r="5.000" fill="#00ffff" stroke="#00ffff" stroke-width="0.5pt" />
<circle cx="352.643" cy="177.178" r="5.000" fill="#00ffff" stroke="#00ffff" stroke-width="0.5pt" />
<circle cx="446.040" cy="150.378" r="5.000" fill="#00ffff" stroke="#00ffff" stroke-width="0.5pt" />
<circle cx="336.846" cy="181.711" r="5.000" fill="#00ffff" stroke="#00ffff" stroke-width="0.5pt" />
<circle cx="120.005" cy="243.931" r="5.000" fill="#00ffff" stroke="#00ffff" stroke-width="0.5pt" />
<circle cx="283.970" cy="196.883" r="5.000" fill="#00ffff" stroke="#00ffff" stroke-width="0.5pt" />
<circle cx="189.343" cy="224.035" r="5.000" fill="#00ffff" stroke="#00ffff" stroke-width="0.5pt" />
<circle cx="380.636" cy="169.145" r="5.000" fill="#00ffff" stroke="#00ffff" stroke-width="0.5pt" />
<circle cx="343.920" cy="179.681" r="5.000" fill="#00ffff" stroke="#00ffff" stroke-width="0.5pt" />
<circle cx="204.215" cy="219.768" r="5.000" fill="#00ffff" stroke="#00ffff" stroke-width="0.5pt" />
<circle cx="452.319" cy="148.577" r="5.000" fill="#00ffff" stroke="#00ffff" stroke-width="0.5pt" />
<circle cx="342.589" cy="180.063" r="5.000" fill="#00ffff" stroke="#00ffff" stroke-width="0.5pt" />
<circle cx="396.173" cy="164.687" r="5.000" fill="#00ffff" stroke="#00ffff" stroke-width="0.5pt" />
<circle cx="479.386" cy="140.810" r="5.000" fill="#00ffff" stroke="#00ffff" stroke-width="0.5pt" />
<circle cx="315.536" cy="187.825" r="5.000" fill="#00ffff" stroke="#00ffff" stroke-width="0.5pt" />
<circle cx="318.068" cy="187.099" r="5.000" fill="#00ffff" stroke="#00ffff" stroke-width="0.5pt" />
<circle cx="327.081" cy="184.513" r="5.000" fill="#00ffff" stroke="#00ffff" stroke-width="0.5pt" />
</g>
</g>
<g id="ID000003" clip-path="url(#ID000001)" >
<g>
<circle cx="177.871" cy="342.734" r="1.667" fill="#ff0000" stroke="none" stroke-width="0.5pt" />
<circle cx="268.491" cy="317.813" r="1.667" fill="#ff0000" stroke="none" stroke-width="0.5pt" />
<circle cx="129.929" cy="298.823" r="1.667" fill="#ff0000" stroke="none" stroke-width="0.5pt" />
<circle cx="180.345" cy="289.853" r="1.667" fill="#ff0000" stroke="none" stroke-width="0.5pt" />
<circle cx="175.166" cy="282.004" r="1.667" fill="#ff0000" stroke="none" stroke-width="0.5pt" />
<circle cx="103.064" cy="276.882" r="1.667" fill="#ff0000" stroke="none" stroke-width="0.5pt" />
<circle cx="84.489" cy="271.802" r="1.667" fill="#ff0000" stroke="none" stroke-width="0.5pt" />
<circle cx="198.096" cy="267.715" r="1.667" fill="#ff0000" stroke="none" stroke-width="0.5pt" />
<circle cx="205.083" cy="264.463" r="1.667" fill="#ff0000" stroke="none" stroke-width="0.5pt" />
<circle cx="324.723" cy="261.049" r="1.667" fill="#ff0000" stroke="none" stroke-width="0.5pt" />
<circle cx="211.911" cy="254.472" r="1.667" fill="#ff0000" stroke="none" stroke-width="0.5pt" />
<circle cx="198.805" cy="249.717" r="1.667" fill="#ff0000" stroke="none" stroke-width="0.5pt" />
<circle cx="288.946" cy="247.603" r="1.667" fill="#ff0000" stroke="none" stroke-width="0.5pt" />
<circle cx="271.283" cy="245.139" r="1.667" fill="#ff0000" stroke="none" stroke-width="0.5pt" />
<circle cx="271.731" cy="243.532" r="1.667" fill="#ff0000" stroke="none" stroke-width="0.5pt" />
<circle cx="154.074" cy="242.026" r="1.667" fill="#ff0000" stroke="none" stroke-width="0.5pt" />
<circle cx="215.109" cy="238.932" r="1.667" fill="#ff0000" stroke="none" stroke-width="0.5pt" />
<circle cx="312.238" cy="237.540" r="1.667" fill="#ff0000" stroke="none" stroke-width="0.5pt" />
<circle cx="341.417" cy="235.168" r="1.667" fill="#ff0000" stroke="none" stroke-width="0.5pt" />
<circle cx="256.252" cy="234.043" r="1.667" fill="#ff0000" stroke="none" stroke-width="0.5pt" />
<circle cx="206.515" cy="232.519" r="1.667" fill="#ff0000" stroke="none" stroke-width="0.5pt" />
<circle cx="233.525" cy="228.889" r="1.667" fill="#ff0000" stroke="none" stroke-width="0.5pt" />
<circle cx="310.053" cy="226.835" r="1.667" fill="#ff0000" stroke="none" stroke-width="0.5pt" />
<circle cx="227.752" cy="225.866" r="1.667" fill="#ff0000" stroke="none" stroke-width="0.5pt" />
<circle cx="429.996" cy="223.738" r="1.667" fill="#ff0000" stroke="none" stroke-width="0.5pt" />
<circle cx="420.723" cy="222.088" r="1.667" fill="#ff0000" stroke="none" stroke-width="0.5pt" />
<circle cx="340.115" cy="220.427" r="1.667" fill="#ff0000" stroke="none" stroke-width="0.5pt" />
<circle cx="126.399" cy="219.691" r="1.667" fill="#ff0000" stroke="none" stroke-width="0.5pt" />
<circle cx="234.885" cy="218.241" r="1.667" fill="#ff0000" stroke="none" stroke-width="0.5pt" />
<circle cx="225.221" cy="215.861" r="1.667" fill="#ff0000" stroke="none" stroke-width="0.5pt" />
<circle cx="92.518" cy="212.490" r="1.667" fill="#ff0000" stroke="none" stroke-width="0.5pt" />
<circle cx="135.484" cy="208.113" r="1.667" fill="#ff0000" stroke="none" stroke-width="0.5pt" />
<circle cx="247.818" cy="206.441" r="1.667" fill="#ff0000" stroke="none" stroke-width="0.5pt" />
<circle cx="260.736" cy="204.677" r="1.667" fill="#ff0000" stroke="none" stroke-width="0.5pt" />
<circle cx="235.405" cy="202.675" r="1.667" fill="#ff0000" stroke="none" stroke-width="0.5pt" />
<circle cx="147.361" cy="200.088" r="1.667" fill="#ff0000" stroke="none" stroke-width="0.5pt" />
<circle cx="422.228" cy="198.053" r="1.667" fill="#ff0000" stroke="none" stroke-width="0.5pt" />
<circle cx="328.571" cy="195.692" r="1.667" fill="#ff0000" stroke="none" stroke-width="0.5pt" />
<circle cx="230.530" cy="193.027" r="1.667" fill="#ff0000" stroke="none" stroke-width="0.5pt" />
<circle cx="206.139" cy="189.772" r="1.667" fill="#ff0000" stroke="none" stroke-width="0.5pt" />
<circle cx="316.288" cy="188.369" r="1.667" fill="#ff0000" stroke="none" stroke-width="0.5pt" />
<circle cx="270.371" cy="186.480" r="1.667" fill="#ff0000" stroke="none" stroke-width="0.5pt" />
<circle cx="364.795" cy="184.301" r="1.667" fill="#ff0000" stroke="none" stroke-width="0.5pt" />
<circle cx="180.996" cy="181.416" r="1.667" fill="#ff0000" stroke="none" stroke-width="0.5pt" />
<circle cx="382.343" cy="180.001" r="1.667" fill="#ff0000" stroke="none" stroke-width="0.5pt" />
<circle cx="360.195" cy="176.904" r="1.667" fill="#ff0000" stroke="none" stroke-width="0.5pt" />
<circle cx="133.690" cy="175.126" r="1.667" fill="#ff0000" stroke="none" stroke-width="0.5pt" />
<circle cx="311.862" cy="172.326" r="1.667" fill="#ff0000" stroke="none" stroke-width="0.5pt" />
<circle cx="245.937" cy="167.730" r="1.667" fill="#ff0000" stroke="none" stroke-width="0.5pt" />
<circle cx="352.643" cy="164.431" r="1.667" fill="#ff0000" stroke="none" stroke-width="0.5pt" />
<circle cx="446.040" cy="160.233" r="1.667" fill="#ff0000" stroke="none" stroke-width="0.5pt" />
<circle cx="336.846" cy="158.728" r="1.667" fill="#ff0000" stroke="none" stroke-width="0.5pt" />
<circle cx="120.005" cy="156.343" r="1.667" fill="#ff0000" stroke="none" stroke-width="0.5pt" />
<circle cx="283.970" cy="151.799" r="1.667" fill="#ff0000" stroke="none" stroke-width="0.5pt" />
<circle cx="189.343" cy="145.029" r="1.667" fill="#ff0000" stroke="none" stroke-width="0.5pt" />
<circle cx="380.636" cy="141.025" r="1.667" fill="#ff0000" stroke="none" stroke-width="0.5pt" />
<circle cx="343.920" cy="135.809" r="1.667" fill="#ff0000" stroke="none" stroke-width="0.5pt" />
<circle cx="204.215" cy="130.505" r="1.667" fill="#ff0000" stroke="none" stroke-width="0.5pt" />
<circle cx="452.319" cy="120.126" r="1.667" fill="#ff0000" stroke="none" stroke-width="0.5pt" />
<circle cx="342.589" cy="115.531" r="1.667" fill="#ff0000" stroke="none" stroke-width="0.5pt" />
<circle cx="396.173" cy="106.248" r="1.667" fill="#ff0000" stroke="none" stroke-width="0.5pt" />
<circle cx="479.386" cy="97.809" r="1.667" fill="#ff0000" stroke="none" stroke-width="0.5pt" />
<circle cx="315.536" cy="85.408" r="1.667" fill="#ff0000" stroke="none" stroke-width="0.5pt" />
<circle cx="318.068" cy="71.951" r="1.667" fill="#ff0000" stroke="none" stroke-width="0.5pt" />
<circle cx="327.081" cy="33.509" r="1.667" fill="#ff0000" stroke="none" stroke-width="0.5pt" />
</g>
</g>
<g id="ID000004" >
  <g transform="translate(289.300,405.820)">
    <g transform="rotate(-0.0)">
      <text x="0.000" y="0.000" font-family="Helvetica" text-anchor="middle" font-size="10pt" fill="#000000" ><tspan>Lewand 2000 FreqDiff</tspan></text>
    </g>
  </g>
</g>
<g id="ID000005" >
  <g transform="translate(44.800,204.151)">
    <g transform="rotate(-90.0)">
      <text x="0.000" y="0.000" font-family="Helvetica" text-anchor="middle" font-size="10pt" fill="#000000" ><tspan>mean L*a*b* distance</tspan></text>
    </g>
  </g>
</g>
<g id="ID000006" >
  <g transform="translate(289.300,23.495)">
    <g transform="rotate(-0.0)">
      <text x="0.000" y="0.000" font-family="Helvetica" text-anchor="middle" font-size="10pt" fill="#000000" ><tspan>0.21752% variance explained r=0.46639 : rho = 0.46753 p = 0.00010365</tspan></text>
    </g>
  </g>
</g>
    </g>
    <g>
      <polyline fill="none" stroke="#000000" stroke-width="0.5pt" stroke-dasharray="none" stroke-opacity="1.00" points="72.80000,373.80000 72.80000,369.46000 "/>
      <polyline fill="none" stroke="#000000" stroke-width="0.5pt" stroke-dasharray="none" stroke-opacity="1.00" points="145.13333,373.80000 145.13333,369.46000 "/>
      <polyline fill="none" stroke="#000000" stroke-width="0.5pt" stroke-dasharray="none" stroke-opacity="1.00" points="217.46667,373.80000 217.46667,369.46000 "/>
      <polyline fill="none" stroke="#000000" stroke-width="0.5pt" stroke-dasharray="none" stroke-opacity="1.00" points="289.80000,373.80000 289.80000,369.46000 "/>
      <polyline fill="none" stroke="#000000" stroke-width="0.5pt" stroke-dasharray="none" stroke-opacity="1.00" points="362.13333,373.80000 362.13333,369.46000 "/>
      <polyline fill="none" stroke="#000000" stroke-width="0.5pt" stroke-dasharray="none" stroke-opacity="1.00" points="434.46667,373.80000 434.46667,369.46000 "/>
      <polyline fill="none" stroke="#000000" stroke-width="0.5pt" stroke-dasharray="none" stroke-opacity="1.00" points="506.80000,373.80000 506.80000,369.46000 "/>
      <polyline fill="none" stroke="#000000" stroke-width="0.5pt" stroke-dasharray="none" stroke-opacity="1.00" points="72.80000,373.80000 506.80000,373.80000 "/>
  <g transform="translate(72.800,392.446)">
    <g transform="rotate(-0.0)">
      <text x="0.000" y="0.000" font-family="Helvetica" text-anchor="middle" font-size="10pt" fill="#000000" ><tspan>0.01</tspan></text>
    </g>
  </g>
  <g transform="translate(145.133,392.446)">
    <g transform="rotate(-0.0)">
      <text x="0.000" y="0.000" font-family="Helvetica" text-anchor="middle" font-size="10pt" fill="#000000" ><tspan>0.02</tspan></text>
    </g>
  </g>
  <g transform="translate(217.467,392.446)">
    <g transform="rotate(-0.0)">
      <text x="0.000" y="0.000" font-family="Helvetica" text-anchor="middle" font-size="10pt" fill="#000000" ><tspan>0.03</tspan></text>
    </g>
  </g>
  <g transform="translate(289.800,392.446)">
    <g transform="rotate(-0.0)">
      <text x="0.000" y="0.000" font-family="Helvetica" text-anchor="middle" font-size="10pt" fill="#000000" ><tspan>0.04</tspan></text>
    </g>
  </g>
  <g transform="translate(362.133,392.446)">
    <g transform="rotate(-0.0)">
      <text x="0.000" y="0.000" font-family="Helvetica" text-anchor="middle" font-size="10pt" fill="#000000" ><tspan>0.05</tspan></text>
    </g>
  </g>
  <g transform="translate(434.467,392.446)">
    <g transform="rotate(-0.0)">
      <text x="0.000" y="0.000" font-family="Helvetica" text-anchor="middle" font-size="10pt" fill="#000000" ><tspan>0.06</tspan></text>
    </g>
  </g>
  <g transform="translate(506.800,392.446)">
    <g transform="rotate(-0.0)">
      <text x="0.000" y="0.000" font-family="Helvetica" text-anchor="middle" font-size="10pt" fill="#000000" ><tspan>0.07</tspan></text>
    </g>
  </g>
      <polyline fill="none" stroke="#000000" stroke-width="0.5pt" stroke-dasharray="none" stroke-opacity="1.00" points="72.80000,373.80000 77.14000,373.80000 "/>
      <polyline fill="none" stroke="#000000" stroke-width="0.5pt" stroke-dasharray="none" stroke-opacity="1.00" points="72.80000,331.01250 77.14000,331.01250 "/>
      <polyline fill="none" stroke="#000000" stroke-width="0.5pt" stroke-dasharray="none" stroke-opacity="1.00" points="72.80000,288.22500 77.14000,288.22500 "/>
      <polyline fill="none" stroke="#000000" stroke-width="0.5pt" stroke-dasharray="none" stroke-opacity="1.00" points="72.80000,245.43750 77.14000,245.43750 "/>
      <polyline fill="none" stroke="#000000" stroke-width="0.5pt" stroke-dasharray="none" stroke-opacity="1.00" points="72.80000,202.65000 77.14000,202.65000 "/>
      <polyline fill="none" stroke="#000000" stroke-width="0.5pt" stroke-dasharray="none" stroke-opacity="1.00" points="72.80000,159.86250 77.14000,159.86250 "/>
      <polyline fill="none" stroke="#000000" stroke-width="0.5pt" stroke-dasharray="none" stroke-opacity="1.00" points="72.80000,117.07500 77.14000,117.07500 "/>
      <polyline fill="none" stroke="#000000" stroke-width="0.5pt" stroke-dasharray="none" stroke-opacity="1.00" points="72.80000,74.28750 77.14000,74.28750 "/>
      <polyline fill="none" stroke="#000000" stroke-width="0.5pt" stroke-dasharray="none" stroke-opacity="1.00" points="72.80000,31.50000 77.14000,31.50000 "/>
      <polyline fill="none" stroke="#000000" stroke-width="0.5pt" stroke-dasharray="none" stroke-opacity="1.00" points="72.80000,373.80000 72.80000,31.50000 "/>
  <g transform="translate(64.120,378.300)">
    <g transform="rotate(-0.0)">
      <text x="0.000" y="0.000" font-family="Helvetica" text-anchor="end" font-size="10pt" fill="#000000" ><tspan>50</tspan></text>
    </g>
  </g>
  <g transform="translate(64.120,335.512)">
    <g transform="rotate(-0.0)">
      <text x="0.000" y="0.000" font-family="Helvetica" text-anchor="end" font-size="10pt" fill="#000000" ><tspan>55</tspan></text>
    </g>
  </g>
  <g transform="translate(64.120,292.725)">
    <g transform="rotate(-0.0)">
      <text x="0.000" y="0.000" font-family="Helvetica" text-anchor="end" font-size="10pt" fill="#000000" ><tspan>60</tspan></text>
    </g>
  </g>
  <g transform="translate(64.120,249.937)">
    <g transform="rotate(-0.0)">
      <text x="0.000" y="0.000" font-family="Helvetica" text-anchor="end" font-size="10pt" fill="#000000" ><tspan>65</tspan></text>
    </g>
  </g>
  <g transform="translate(64.120,207.150)">
    <g transform="rotate(-0.0)">
      <text x="0.000" y="0.000" font-family="Helvetica" text-anchor="end" font-size="10pt" fill="#000000" ><tspan>70</tspan></text>
    </g>
  </g>
  <g transform="translate(64.120,164.362)">
    <g transform="rotate(-0.0)">
      <text x="0.000" y="0.000" font-family="Helvetica" text-anchor="end" font-size="10pt" fill="#000000" ><tspan>75</tspan></text>
    </g>
  </g>
  <g transform="translate(64.120,121.575)">
    <g transform="rotate(-0.0)">
      <text x="0.000" y="0.000" font-family="Helvetica" text-anchor="end" font-size="10pt" fill="#000000" ><tspan>80</tspan></text>
    </g>
  </g>
  <g transform="translate(64.120,78.788)">
    <g transform="rotate(-0.0)">
      <text x="0.000" y="0.000" font-family="Helvetica" text-anchor="end" font-size="10pt" fill="#000000" ><tspan>85</tspan></text>
    </g>
  </g>
  <g transform="translate(64.120,36.000)">
    <g transform="rotate(-0.0)">
      <text x="0.000" y="0.000" font-family="Helvetica" text-anchor="end" font-size="10pt" fill="#000000" ><tspan>90</tspan></text>
    </g>
  </g>
      <polyline fill="none" stroke="#000000" stroke-width="0.5pt" stroke-dasharray="none" stroke-opacity="1.00" points="72.80000,373.80000 72.80000,370.37700 "/>
      <polyline fill="none" stroke="#000000" stroke-width="0.5pt" stroke-dasharray="none" stroke-opacity="1.00" points="72.80000,373.80000 72.80000,370.37700 "/>
      <polyline fill="none" stroke="#000000" stroke-width="0.5pt" stroke-dasharray="none" stroke-opacity="1.00" points="72.80000,373.80000 72.80000,370.37700 "/>
      <polyline fill="none" stroke="#000000" stroke-width="0.5pt" stroke-dasharray="none" stroke-opacity="1.00" points="72.80000,373.80000 72.80000,373.80000 "/>
    </g>
  </g>
  </g>
</svg>
