<?xml version="1.0" encoding="utf-8" standalone="no"?><!DOCTYPE svg PUBLIC "-//W3C//DTD SVG 1.1//EN" "http://www.w3.org/Graphics/SVG/1.1/DTD/svg11.dtd">
<svg preserveAspectRatio="xMinYMin meet" width="100%" height="100%" viewBox="0 0 560.000 420.000"  version="1.1" xmlns="http://www.w3.org/2000/svg" xmlns:xlink="http://www.w3.org/1999/xlink">
  <desc>Matlab Figure Converted by PLOT2SVG written by Juerg Schwizer</desc>
  <g id="topgroup">
  <rect x="0" y="0" width="560.000" height="420.000" fill="#ffffff" stroke="none" />
  <g id ="ID000000">
  <clipPath id="ID000001">
    <rect x="72.800" y="31.500" width="434.000" height="342.300"/>
  </clipPath>
      <polygon fill="#ffffff" fill-opacity="1.00" stroke="none" stroke-width="0.5pt" stroke-opacity="1.00" stroke-dasharray="none" points="72.800,373.800 506.800,373.800 506.800,31.500 72.800,31.500 "/>
      <polygon fill="#ffffff" fill-opacity="1.00" stroke="none" stroke-width="0.5pt" stroke-opacity="1.00" stroke-dasharray="none" points="72.800,373.800 506.800,373.800 506.800,373.800 72.800,373.800 "/>
      <polygon fill="#ffffff" fill-opacity="1.00" stroke="none" stroke-width="0.5pt" stroke-opacity="1.00" stroke-dasharray="none" points="72.800,373.800 72.800,373.800 72.800,31.500 72.800,31.500 "/>
    <g>
<g id="ID000002" clip-path="url(#ID000001)" >
<g>
<circle cx="126.616" cy="271.464" r="5.000" fill="#00ffff" stroke="#00ffff" stroke-width="0.5pt" />
<circle cx="81.480" cy="287.458" r="5.000" fill="#00ffff" stroke="#00ffff" stroke-width="0.5pt" />
<circle cx="307.160" cy="207.488" r="5.000" fill="#00ffff" stroke="#00ffff" stroke-width="0.5pt" />
<circle cx="263.760" cy="222.867" r="5.000" fill="#00ffff" stroke="#00ffff" stroke-width="0.5pt" />
<circle cx="359.240" cy="189.034" r="5.000" fill="#00ffff" stroke="#00ffff" stroke-width="0.5pt" />
<circle cx="133.560" cy="269.003" r="5.000" fill="#00ffff" stroke="#00ffff" stroke-width="0.5pt" />
<circle cx="258.552" cy="224.712" r="5.000" fill="#00ffff" stroke="#00ffff" stroke-width="0.5pt" />
<circle cx="275.912" cy="218.561" r="5.000" fill="#00ffff" stroke="#00ffff" stroke-width="0.5pt" />
<circle cx="230.776" cy="234.555" r="5.000" fill="#00ffff" stroke="#00ffff" stroke-width="0.5pt" />
<circle cx="171.752" cy="255.470" r="5.000" fill="#00ffff" stroke="#00ffff" stroke-width="0.5pt" />
<circle cx="189.112" cy="249.318" r="5.000" fill="#00ffff" stroke="#00ffff" stroke-width="0.5pt" />
<circle cx="277.648" cy="217.946" r="5.000" fill="#00ffff" stroke="#00ffff" stroke-width="0.5pt" />
<circle cx="281.120" cy="216.715" r="5.000" fill="#00ffff" stroke="#00ffff" stroke-width="0.5pt" />
<circle cx="322.784" cy="201.952" r="5.000" fill="#00ffff" stroke="#00ffff" stroke-width="0.5pt" />
<circle cx="308.896" cy="206.873" r="5.000" fill="#00ffff" stroke="#00ffff" stroke-width="0.5pt" />
<circle cx="399.168" cy="174.885" r="5.000" fill="#00ffff" stroke="#00ffff" stroke-width="0.5pt" />
<circle cx="451.248" cy="156.431" r="5.000" fill="#00ffff" stroke="#00ffff" stroke-width="0.5pt" />
<circle cx="300.216" cy="209.949" r="5.000" fill="#00ffff" stroke="#00ffff" stroke-width="0.5pt" />
<circle cx="414.792" cy="169.349" r="5.000" fill="#00ffff" stroke="#00ffff" stroke-width="0.5pt" />
<circle cx="190.848" cy="248.703" r="5.000" fill="#00ffff" stroke="#00ffff" stroke-width="0.5pt" />
<circle cx="393.960" cy="176.731" r="5.000" fill="#00ffff" stroke="#00ffff" stroke-width="0.5pt" />
<circle cx="303.688" cy="208.718" r="5.000" fill="#00ffff" stroke="#00ffff" stroke-width="0.5pt" />
<circle cx="366.184" cy="186.573" r="5.000" fill="#00ffff" stroke="#00ffff" stroke-width="0.5pt" />
<circle cx="366.184" cy="186.573" r="5.000" fill="#00ffff" stroke="#00ffff" stroke-width="0.5pt" />
<circle cx="220.360" cy="238.246" r="5.000" fill="#00ffff" stroke="#00ffff" stroke-width="0.5pt" />
<circle cx="267.232" cy="221.637" r="5.000" fill="#00ffff" stroke="#00ffff" stroke-width="0.5pt" />
<circle cx="308.896" cy="206.873" r="5.000" fill="#00ffff" stroke="#00ffff" stroke-width="0.5pt" />
<circle cx="345.352" cy="193.955" r="5.000" fill="#00ffff" stroke="#00ffff" stroke-width="0.5pt" />
<circle cx="327.992" cy="200.106" r="5.000" fill="#00ffff" stroke="#00ffff" stroke-width="0.5pt" />
<circle cx="360.976" cy="188.418" r="5.000" fill="#00ffff" stroke="#00ffff" stroke-width="0.5pt" />
<circle cx="392.224" cy="177.346" r="5.000" fill="#00ffff" stroke="#00ffff" stroke-width="0.5pt" />
<circle cx="439.096" cy="160.737" r="5.000" fill="#00ffff" stroke="#00ffff" stroke-width="0.5pt" />
<circle cx="329.728" cy="199.491" r="5.000" fill="#00ffff" stroke="#00ffff" stroke-width="0.5pt" />
<circle cx="360.976" cy="188.418" r="5.000" fill="#00ffff" stroke="#00ffff" stroke-width="0.5pt" />
<circle cx="317.576" cy="203.797" r="5.000" fill="#00ffff" stroke="#00ffff" stroke-width="0.5pt" />
<circle cx="246.400" cy="229.018" r="5.000" fill="#00ffff" stroke="#00ffff" stroke-width="0.5pt" />
<circle cx="324.520" cy="201.337" r="5.000" fill="#00ffff" stroke="#00ffff" stroke-width="0.5pt" />
<circle cx="425.208" cy="165.658" r="5.000" fill="#00ffff" stroke="#00ffff" stroke-width="0.5pt" />
<circle cx="341.880" cy="195.185" r="5.000" fill="#00ffff" stroke="#00ffff" stroke-width="0.5pt" />
<circle cx="354.032" cy="190.879" r="5.000" fill="#00ffff" stroke="#00ffff" stroke-width="0.5pt" />
<circle cx="385.280" cy="179.806" r="5.000" fill="#00ffff" stroke="#00ffff" stroke-width="0.5pt" />
<circle cx="286.328" cy="214.870" r="5.000" fill="#00ffff" stroke="#00ffff" stroke-width="0.5pt" />
<circle cx="385.280" cy="179.806" r="5.000" fill="#00ffff" stroke="#00ffff" stroke-width="0.5pt" />
<circle cx="341.880" cy="195.185" r="5.000" fill="#00ffff" stroke="#00ffff" stroke-width="0.5pt" />
<circle cx="362.712" cy="187.803" r="5.000" fill="#00ffff" stroke="#00ffff" stroke-width="0.5pt" />
<circle cx="360.976" cy="188.418" r="5.000" fill="#00ffff" stroke="#00ffff" stroke-width="0.5pt" />
<circle cx="185.640" cy="250.549" r="5.000" fill="#00ffff" stroke="#00ffff" stroke-width="0.5pt" />
<circle cx="355.768" cy="190.264" r="5.000" fill="#00ffff" stroke="#00ffff" stroke-width="0.5pt" />
<circle cx="357.504" cy="189.649" r="5.000" fill="#00ffff" stroke="#00ffff" stroke-width="0.5pt" />
<circle cx="385.280" cy="179.806" r="5.000" fill="#00ffff" stroke="#00ffff" stroke-width="0.5pt" />
<circle cx="430.416" cy="163.812" r="5.000" fill="#00ffff" stroke="#00ffff" stroke-width="0.5pt" />
<circle cx="390.488" cy="177.961" r="5.000" fill="#00ffff" stroke="#00ffff" stroke-width="0.5pt" />
<circle cx="393.960" cy="176.731" r="5.000" fill="#00ffff" stroke="#00ffff" stroke-width="0.5pt" />
<circle cx="404.376" cy="173.040" r="5.000" fill="#00ffff" stroke="#00ffff" stroke-width="0.5pt" />
<circle cx="284.592" cy="215.485" r="5.000" fill="#00ffff" stroke="#00ffff" stroke-width="0.5pt" />
<circle cx="399.168" cy="174.885" r="5.000" fill="#00ffff" stroke="#00ffff" stroke-width="0.5pt" />
<circle cx="383.544" cy="180.422" r="5.000" fill="#00ffff" stroke="#00ffff" stroke-width="0.5pt" />
<circle cx="360.976" cy="188.418" r="5.000" fill="#00ffff" stroke="#00ffff" stroke-width="0.5pt" />
<circle cx="388.752" cy="178.576" r="5.000" fill="#00ffff" stroke="#00ffff" stroke-width="0.5pt" />
<circle cx="274.176" cy="219.176" r="5.000" fill="#00ffff" stroke="#00ffff" stroke-width="0.5pt" />
<circle cx="260.288" cy="224.097" r="5.000" fill="#00ffff" stroke="#00ffff" stroke-width="0.5pt" />
<circle cx="395.696" cy="176.115" r="5.000" fill="#00ffff" stroke="#00ffff" stroke-width="0.5pt" />
<circle cx="334.936" cy="197.646" r="5.000" fill="#00ffff" stroke="#00ffff" stroke-width="0.5pt" />
<circle cx="350.560" cy="192.109" r="5.000" fill="#00ffff" stroke="#00ffff" stroke-width="0.5pt" />
<circle cx="366.184" cy="186.573" r="5.000" fill="#00ffff" stroke="#00ffff" stroke-width="0.5pt" />
</g>
</g>
<g id="ID000003" clip-path="url(#ID000001)" >
<g>
<circle cx="126.616" cy="342.734" r="1.667" fill="#ff0000" stroke="none" stroke-width="0.5pt" />
<circle cx="81.480" cy="317.813" r="1.667" fill="#ff0000" stroke="none" stroke-width="0.5pt" />
<circle cx="307.160" cy="298.823" r="1.667" fill="#ff0000" stroke="none" stroke-width="0.5pt" />
<circle cx="263.760" cy="289.853" r="1.667" fill="#ff0000" stroke="none" stroke-width="0.5pt" />
<circle cx="359.240" cy="282.004" r="1.667" fill="#ff0000" stroke="none" stroke-width="0.5pt" />
<circle cx="133.560" cy="276.882" r="1.667" fill="#ff0000" stroke="none" stroke-width="0.5pt" />
<circle cx="258.552" cy="271.802" r="1.667" fill="#ff0000" stroke="none" stroke-width="0.5pt" />
<circle cx="275.912" cy="267.715" r="1.667" fill="#ff0000" stroke="none" stroke-width="0.5pt" />
<circle cx="230.776" cy="264.463" r="1.667" fill="#ff0000" stroke="none" stroke-width="0.5pt" />
<circle cx="171.752" cy="261.049" r="1.667" fill="#ff0000" stroke="none" stroke-width="0.5pt" />
<circle cx="189.112" cy="254.472" r="1.667" fill="#ff0000" stroke="none" stroke-width="0.5pt" />
<circle cx="277.648" cy="249.717" r="1.667" fill="#ff0000" stroke="none" stroke-width="0.5pt" />
<circle cx="281.120" cy="247.603" r="1.667" fill="#ff0000" stroke="none" stroke-width="0.5pt" />
<circle cx="322.784" cy="245.139" r="1.667" fill="#ff0000" stroke="none" stroke-width="0.5pt" />
<circle cx="308.896" cy="243.532" r="1.667" fill="#ff0000" stroke="none" stroke-width="0.5pt" />
<circle cx="399.168" cy="242.026" r="1.667" fill="#ff0000" stroke="none" stroke-width="0.5pt" />
<circle cx="451.248" cy="238.932" r="1.667" fill="#ff0000" stroke="none" stroke-width="0.5pt" />
<circle cx="300.216" cy="237.540" r="1.667" fill="#ff0000" stroke="none" stroke-width="0.5pt" />
<circle cx="414.792" cy="235.168" r="1.667" fill="#ff0000" stroke="none" stroke-width="0.5pt" />
<circle cx="190.848" cy="234.043" r="1.667" fill="#ff0000" stroke="none" stroke-width="0.5pt" />
<circle cx="393.960" cy="232.519" r="1.667" fill="#ff0000" stroke="none" stroke-width="0.5pt" />
<circle cx="303.688" cy="228.889" r="1.667" fill="#ff0000" stroke="none" stroke-width="0.5pt" />
<circle cx="366.184" cy="226.835" r="1.667" fill="#ff0000" stroke="none" stroke-width="0.5pt" />
<circle cx="366.184" cy="225.866" r="1.667" fill="#ff0000" stroke="none" stroke-width="0.5pt" />
<circle cx="220.360" cy="223.738" r="1.667" fill="#ff0000" stroke="none" stroke-width="0.5pt" />
<circle cx="267.232" cy="222.088" r="1.667" fill="#ff0000" stroke="none" stroke-width="0.5pt" />
<circle cx="308.896" cy="220.427" r="1.667" fill="#ff0000" stroke="none" stroke-width="0.5pt" />
<circle cx="345.352" cy="219.691" r="1.667" fill="#ff0000" stroke="none" stroke-width="0.5pt" />
<circle cx="327.992" cy="218.241" r="1.667" fill="#ff0000" stroke="none" stroke-width="0.5pt" />
<circle cx="360.976" cy="215.861" r="1.667" fill="#ff0000" stroke="none" stroke-width="0.5pt" />
<circle cx="392.224" cy="212.490" r="1.667" fill="#ff0000" stroke="none" stroke-width="0.5pt" />
<circle cx="439.096" cy="208.113" r="1.667" fill="#ff0000" stroke="none" stroke-width="0.5pt" />
<circle cx="329.728" cy="206.441" r="1.667" fill="#ff0000" stroke="none" stroke-width="0.5pt" />
<circle cx="360.976" cy="204.677" r="1.667" fill="#ff0000" stroke="none" stroke-width="0.5pt" />
<circle cx="317.576" cy="202.675" r="1.667" fill="#ff0000" stroke="none" stroke-width="0.5pt" />
<circle cx="246.400" cy="200.088" r="1.667" fill="#ff0000" stroke="none" stroke-width="0.5pt" />
<circle cx="324.520" cy="198.053" r="1.667" fill="#ff0000" stroke="none" stroke-width="0.5pt" />
<circle cx="425.208" cy="195.692" r="1.667" fill="#ff0000" stroke="none" stroke-width="0.5pt" />
<circle cx="341.880" cy="193.027" r="1.667" fill="#ff0000" stroke="none" stroke-width="0.5pt" />
<circle cx="354.032" cy="189.772" r="1.667" fill="#ff0000" stroke="none" stroke-width="0.5pt" />
<circle cx="385.280" cy="188.369" r="1.667" fill="#ff0000" stroke="none" stroke-width="0.5pt" />
<circle cx="286.328" cy="186.480" r="1.667" fill="#ff0000" stroke="none" stroke-width="0.5pt" />
<circle cx="385.280" cy="184.301" r="1.667" fill="#ff0000" stroke="none" stroke-width="0.5pt" />
<circle cx="341.880" cy="181.416" r="1.667" fill="#ff0000" stroke="none" stroke-width="0.5pt" />
<circle cx="362.712" cy="180.001" r="1.667" fill="#ff0000" stroke="none" stroke-width="0.5pt" />
<circle cx="360.976" cy="176.904" r="1.667" fill="#ff0000" stroke="none" stroke-width="0.5pt" />
<circle cx="185.640" cy="175.126" r="1.667" fill="#ff0000" stroke="none" stroke-width="0.5pt" />
<circle cx="355.768" cy="172.326" r="1.667" fill="#ff0000" stroke="none" stroke-width="0.5pt" />
<circle cx="357.504" cy="167.730" r="1.667" fill="#ff0000" stroke="none" stroke-width="0.5pt" />
<circle cx="385.280" cy="164.431" r="1.667" fill="#ff0000" stroke="none" stroke-width="0.5pt" />
<circle cx="430.416" cy="160.233" r="1.667" fill="#ff0000" stroke="none" stroke-width="0.5pt" />
<circle cx="390.488" cy="158.728" r="1.667" fill="#ff0000" stroke="none" stroke-width="0.5pt" />
<circle cx="393.960" cy="156.343" r="1.667" fill="#ff0000" stroke="none" stroke-width="0.5pt" />
<circle cx="404.376" cy="151.799" r="1.667" fill="#ff0000" stroke="none" stroke-width="0.5pt" />
<circle cx="284.592" cy="145.029" r="1.667" fill="#ff0000" stroke="none" stroke-width="0.5pt" />
<circle cx="399.168" cy="141.025" r="1.667" fill="#ff0000" stroke="none" stroke-width="0.5pt" />
<circle cx="383.544" cy="135.809" r="1.667" fill="#ff0000" stroke="none" stroke-width="0.5pt" />
<circle cx="360.976" cy="130.505" r="1.667" fill="#ff0000" stroke="none" stroke-width="0.5pt" />
<circle cx="388.752" cy="120.126" r="1.667" fill="#ff0000" stroke="none" stroke-width="0.5pt" />
<circle cx="274.176" cy="115.531" r="1.667" fill="#ff0000" stroke="none" stroke-width="0.5pt" />
<circle cx="260.288" cy="106.248" r="1.667" fill="#ff0000" stroke="none" stroke-width="0.5pt" />
<circle cx="395.696" cy="97.809" r="1.667" fill="#ff0000" stroke="none" stroke-width="0.5pt" />
<circle cx="334.936" cy="85.408" r="1.667" fill="#ff0000" stroke="none" stroke-width="0.5pt" />
<circle cx="350.560" cy="71.951" r="1.667" fill="#ff0000" stroke="none" stroke-width="0.5pt" />
<circle cx="366.184" cy="33.509" r="1.667" fill="#ff0000" stroke="none" stroke-width="0.5pt" />
</g>
</g>
<g id="ID000004" >
  <g transform="translate(289.300,405.820)">
    <g transform="rotate(-0.0)">
      <text x="0.000" y="0.000" font-family="Helvetica" text-anchor="middle" font-size="10pt" fill="#000000" ><tspan>PG 1979 DiffRate Avg</tspan></text>
    </g>
  </g>
</g>
<g id="ID000005" >
  <g transform="translate(44.800,204.151)">
    <g transform="rotate(-90.0)">
      <text x="0.000" y="0.000" font-family="Helvetica" text-anchor="middle" font-size="10pt" fill="#000000" ><tspan>mean L*a*b* distance</tspan></text>
    </g>
  </g>
</g>
<g id="ID000006" >
  <g transform="translate(289.300,23.495)">
    <g transform="rotate(-0.0)">
      <text x="0.000" y="0.000" font-family="Helvetica" text-anchor="middle" font-size="10pt" fill="#000000" ><tspan>0.22546% variance explained r=0.47483 : rho = 0.44493 p = 0.00020444</tspan></text>
    </g>
  </g>
</g>
    </g>
    <g>
      <polyline fill="none" stroke="#000000" stroke-width="0.5pt" stroke-dasharray="none" stroke-opacity="1.00" points="72.80000,373.80000 72.80000,369.46000 "/>
      <polyline fill="none" stroke="#000000" stroke-width="0.5pt" stroke-dasharray="none" stroke-opacity="1.00" points="159.60000,373.80000 159.60000,369.46000 "/>
      <polyline fill="none" stroke="#000000" stroke-width="0.5pt" stroke-dasharray="none" stroke-opacity="1.00" points="246.40000,373.80000 246.40000,369.46000 "/>
      <polyline fill="none" stroke="#000000" stroke-width="0.5pt" stroke-dasharray="none" stroke-opacity="1.00" points="333.20000,373.80000 333.20000,369.46000 "/>
      <polyline fill="none" stroke="#000000" stroke-width="0.5pt" stroke-dasharray="none" stroke-opacity="1.00" points="420.00000,373.80000 420.00000,369.46000 "/>
      <polyline fill="none" stroke="#000000" stroke-width="0.5pt" stroke-dasharray="none" stroke-opacity="1.00" points="506.80000,373.80000 506.80000,369.46000 "/>
      <polyline fill="none" stroke="#000000" stroke-width="0.5pt" stroke-dasharray="none" stroke-opacity="1.00" points="72.80000,373.80000 506.80000,373.80000 "/>
  <g transform="translate(72.800,392.446)">
    <g transform="rotate(-0.0)">
      <text x="0.000" y="0.000" font-family="Helvetica" text-anchor="middle" font-size="10pt" fill="#000000" ><tspan>2</tspan></text>
    </g>
  </g>
  <g transform="translate(159.600,392.446)">
    <g transform="rotate(-0.0)">
      <text x="0.000" y="0.000" font-family="Helvetica" text-anchor="middle" font-size="10pt" fill="#000000" ><tspan>2.5</tspan></text>
    </g>
  </g>
  <g transform="translate(246.400,392.446)">
    <g transform="rotate(-0.0)">
      <text x="0.000" y="0.000" font-family="Helvetica" text-anchor="middle" font-size="10pt" fill="#000000" ><tspan>3</tspan></text>
    </g>
  </g>
  <g transform="translate(333.200,392.446)">
    <g transform="rotate(-0.0)">
      <text x="0.000" y="0.000" font-family="Helvetica" text-anchor="middle" font-size="10pt" fill="#000000" ><tspan>3.5</tspan></text>
    </g>
  </g>
  <g transform="translate(420.000,392.446)">
    <g transform="rotate(-0.0)">
      <text x="0.000" y="0.000" font-family="Helvetica" text-anchor="middle" font-size="10pt" fill="#000000" ><tspan>4</tspan></text>
    </g>
  </g>
  <g transform="translate(506.800,392.446)">
    <g transform="rotate(-0.0)">
      <text x="0.000" y="0.000" font-family="Helvetica" text-anchor="middle" font-size="10pt" fill="#000000" ><tspan>4.5</tspan></text>
    </g>
  </g>
      <polyline fill="none" stroke="#000000" stroke-width="0.5pt" stroke-dasharray="none" stroke-opacity="1.00" points="72.80000,373.80000 77.14000,373.80000 "/>
      <polyline fill="none" stroke="#000000" stroke-width="0.5pt" stroke-dasharray="none" stroke-opacity="1.00" points="72.80000,331.01250 77.14000,331.01250 "/>
      <polyline fill="none" stroke="#000000" stroke-width="0.5pt" stroke-dasharray="none" stroke-opacity="1.00" points="72.80000,288.22500 77.14000,288.22500 "/>
      <polyline fill="none" stroke="#000000" stroke-width="0.5pt" stroke-dasharray="none" stroke-opacity="1.00" points="72.80000,245.43750 77.14000,245.43750 "/>
      <polyline fill="none" stroke="#000000" stroke-width="0.5pt" stroke-dasharray="none" stroke-opacity="1.00" points="72.80000,202.65000 77.14000,202.65000 "/>
      <polyline fill="none" stroke="#000000" stroke-width="0.5pt" stroke-dasharray="none" stroke-opacity="1.00" points="72.80000,159.86250 77.14000,159.86250 "/>
      <polyline fill="none" stroke="#000000" stroke-width="0.5pt" stroke-dasharray="none" stroke-opacity="1.00" points="72.80000,117.07500 77.14000,117.07500 "/>
      <polyline fill="none" stroke="#000000" stroke-width="0.5pt" stroke-dasharray="none" stroke-opacity="1.00" points="72.80000,74.28750 77.14000,74.28750 "/>
      <polyline fill="none" stroke="#000000" stroke-width="0.5pt" stroke-dasharray="none" stroke-opacity="1.00" points="72.80000,31.50000 77.14000,31.50000 "/>
      <polyline fill="none" stroke="#000000" stroke-width="0.5pt" stroke-dasharray="none" stroke-opacity="1.00" points="72.80000,373.80000 72.80000,31.50000 "/>
  <g transform="translate(64.120,378.300)">
    <g transform="rotate(-0.0)">
      <text x="0.000" y="0.000" font-family="Helvetica" text-anchor="end" font-size="10pt" fill="#000000" ><tspan>50</tspan></text>
    </g>
  </g>
  <g transform="translate(64.120,335.513)">
    <g transform="rotate(-0.0)">
      <text x="0.000" y="0.000" font-family="Helvetica" text-anchor="end" font-size="10pt" fill="#000000" ><tspan>55</tspan></text>
    </g>
  </g>
  <g transform="translate(64.120,292.725)">
    <g transform="rotate(-0.0)">
      <text x="0.000" y="0.000" font-family="Helvetica" text-anchor="end" font-size="10pt" fill="#000000" ><tspan>60</tspan></text>
    </g>
  </g>
  <g transform="translate(64.120,249.938)">
    <g transform="rotate(-0.0)">
      <text x="0.000" y="0.000" font-family="Helvetica" text-anchor="end" font-size="10pt" fill="#000000" ><tspan>65</tspan></text>
    </g>
  </g>
  <g transform="translate(64.120,207.150)">
    <g transform="rotate(-0.0)">
      <text x="0.000" y="0.000" font-family="Helvetica" text-anchor="end" font-size="10pt" fill="#000000" ><tspan>70</tspan></text>
    </g>
  </g>
  <g transform="translate(64.120,164.363)">
    <g transform="rotate(-0.0)">
      <text x="0.000" y="0.000" font-family="Helvetica" text-anchor="end" font-size="10pt" fill="#000000" ><tspan>75</tspan></text>
    </g>
  </g>
  <g transform="translate(64.120,121.575)">
    <g transform="rotate(-0.0)">
      <text x="0.000" y="0.000" font-family="Helvetica" text-anchor="end" font-size="10pt" fill="#000000" ><tspan>80</tspan></text>
    </g>
  </g>
  <g transform="translate(64.120,78.788)">
    <g transform="rotate(-0.0)">
      <text x="0.000" y="0.000" font-family="Helvetica" text-anchor="end" font-size="10pt" fill="#000000" ><tspan>85</tspan></text>
    </g>
  </g>
  <g transform="translate(64.120,36.000)">
    <g transform="rotate(-0.0)">
      <text x="0.000" y="0.000" font-family="Helvetica" text-anchor="end" font-size="10pt" fill="#000000" ><tspan>90</tspan></text>
    </g>
  </g>
      <polyline fill="none" stroke="#000000" stroke-width="0.5pt" stroke-dasharray="none" stroke-opacity="1.00" points="72.80000,373.80000 72.80000,370.37700 "/>
      <polyline fill="none" stroke="#000000" stroke-width="0.5pt" stroke-dasharray="none" stroke-opacity="1.00" points="72.80000,373.80000 72.80000,370.37700 "/>
      <polyline fill="none" stroke="#000000" stroke-width="0.5pt" stroke-dasharray="none" stroke-opacity="1.00" points="72.80000,373.80000 72.80000,370.37700 "/>
      <polyline fill="none" stroke="#000000" stroke-width="0.5pt" stroke-dasharray="none" stroke-opacity="1.00" points="72.80000,373.80000 72.80000,373.80000 "/>
    </g>
  </g>
  </g>
</svg>
