<?xml version="1.0" encoding="utf-8" standalone="no"?><!DOCTYPE svg PUBLIC "-//W3C//DTD SVG 1.1//EN" "http://www.w3.org/Graphics/SVG/1.1/DTD/svg11.dtd">
<svg preserveAspectRatio="xMinYMin meet" width="100%" height="100%" viewBox="0 0 560.000 420.000"  version="1.1" xmlns="http://www.w3.org/2000/svg" xmlns:xlink="http://www.w3.org/1999/xlink">
  <desc>Matlab Figure Converted by PLOT2SVG written by Juerg Schwizer</desc>
  <g id="topgroup">
  <rect x="0" y="0" width="560.000" height="420.000" fill="#ffffff" stroke="none" />
  <g id ="ID000000">
  <clipPath id="ID000001">
    <rect x="72.800" y="31.500" width="434.000" height="342.300"/>
  </clipPath>
      <polygon fill="#ffffff" fill-opacity="1.00" stroke="none" stroke-width="0.5pt" stroke-opacity="1.00" stroke-dasharray="none" points="72.800,373.800 506.800,373.800 506.800,31.500 72.800,31.500 "/>
      <polygon fill="#ffffff" fill-opacity="1.00" stroke="none" stroke-width="0.5pt" stroke-opacity="1.00" stroke-dasharray="none" points="72.800,373.800 506.800,373.800 506.800,373.800 72.800,373.800 "/>
      <polygon fill="#ffffff" fill-opacity="1.00" stroke="none" stroke-width="0.5pt" stroke-opacity="1.00" stroke-dasharray="none" points="72.800,373.800 72.800,373.800 72.800,31.500 72.800,31.500 "/>
    <g>
<g id="ID000002" clip-path="url(#ID000001)" >
<g>
<circle cx="252.548" cy="221.809" r="5.000" fill="#00ffff" stroke="#00ffff" stroke-width="0.5pt" />
<circle cx="437.360" cy="337.158" r="5.000" fill="#00ffff" stroke="#00ffff" stroke-width="0.5pt" />
<circle cx="195.043" cy="185.918" r="5.000" fill="#00ffff" stroke="#00ffff" stroke-width="0.5pt" />
<circle cx="248.570" cy="219.326" r="5.000" fill="#00ffff" stroke="#00ffff" stroke-width="0.5pt" />
<circle cx="204.085" cy="191.561" r="5.000" fill="#00ffff" stroke="#00ffff" stroke-width="0.5pt" />
<circle cx="237.358" cy="212.329" r="5.000" fill="#00ffff" stroke="#00ffff" stroke-width="0.5pt" />
<circle cx="167.195" cy="168.537" r="5.000" fill="#00ffff" stroke="#00ffff" stroke-width="0.5pt" />
<circle cx="195.043" cy="185.918" r="5.000" fill="#00ffff" stroke="#00ffff" stroke-width="0.5pt" />
<circle cx="242.783" cy="215.715" r="5.000" fill="#00ffff" stroke="#00ffff" stroke-width="0.5pt" />
<circle cx="216.743" cy="199.462" r="5.000" fill="#00ffff" stroke="#00ffff" stroke-width="0.5pt" />
<circle cx="275.695" cy="236.256" r="5.000" fill="#00ffff" stroke="#00ffff" stroke-width="0.5pt" />
<circle cx="185.640" cy="180.049" r="5.000" fill="#00ffff" stroke="#00ffff" stroke-width="0.5pt" />
<circle cx="199.022" cy="188.401" r="5.000" fill="#00ffff" stroke="#00ffff" stroke-width="0.5pt" />
<circle cx="217.105" cy="199.688" r="5.000" fill="#00ffff" stroke="#00ffff" stroke-width="0.5pt" />
<circle cx="255.442" cy="223.615" r="5.000" fill="#00ffff" stroke="#00ffff" stroke-width="0.5pt" />
<circle cx="155.983" cy="161.539" r="5.000" fill="#00ffff" stroke="#00ffff" stroke-width="0.5pt" />
<circle cx="176.960" cy="174.632" r="5.000" fill="#00ffff" stroke="#00ffff" stroke-width="0.5pt" />
<circle cx="174.790" cy="173.277" r="5.000" fill="#00ffff" stroke="#00ffff" stroke-width="0.5pt" />
<circle cx="191.788" cy="183.887" r="5.000" fill="#00ffff" stroke="#00ffff" stroke-width="0.5pt" />
<circle cx="242.060" cy="215.263" r="5.000" fill="#00ffff" stroke="#00ffff" stroke-width="0.5pt" />
<circle cx="180.938" cy="177.115" r="5.000" fill="#00ffff" stroke="#00ffff" stroke-width="0.5pt" />
<circle cx="184.917" cy="179.598" r="5.000" fill="#00ffff" stroke="#00ffff" stroke-width="0.5pt" />
<circle cx="179.130" cy="175.986" r="5.000" fill="#00ffff" stroke="#00ffff" stroke-width="0.5pt" />
<circle cx="235.188" cy="210.974" r="5.000" fill="#00ffff" stroke="#00ffff" stroke-width="0.5pt" />
<circle cx="181.662" cy="177.566" r="5.000" fill="#00ffff" stroke="#00ffff" stroke-width="0.5pt" />
<circle cx="186.363" cy="180.501" r="5.000" fill="#00ffff" stroke="#00ffff" stroke-width="0.5pt" />
<circle cx="193.235" cy="184.790" r="5.000" fill="#00ffff" stroke="#00ffff" stroke-width="0.5pt" />
<circle cx="180.215" cy="176.663" r="5.000" fill="#00ffff" stroke="#00ffff" stroke-width="0.5pt" />
<circle cx="169.003" cy="169.666" r="5.000" fill="#00ffff" stroke="#00ffff" stroke-width="0.5pt" />
<circle cx="198.298" cy="187.950" r="5.000" fill="#00ffff" stroke="#00ffff" stroke-width="0.5pt" />
<circle cx="158.153" cy="162.894" r="5.000" fill="#00ffff" stroke="#00ffff" stroke-width="0.5pt" />
<circle cx="186.002" cy="180.275" r="5.000" fill="#00ffff" stroke="#00ffff" stroke-width="0.5pt" />
<circle cx="212.765" cy="196.979" r="5.000" fill="#00ffff" stroke="#00ffff" stroke-width="0.5pt" />
<circle cx="123.433" cy="141.223" r="5.000" fill="#00ffff" stroke="#00ffff" stroke-width="0.5pt" />
<circle cx="208.787" cy="194.496" r="5.000" fill="#00ffff" stroke="#00ffff" stroke-width="0.5pt" />
<circle cx="212.403" cy="196.753" r="5.000" fill="#00ffff" stroke="#00ffff" stroke-width="0.5pt" />
<circle cx="170.088" cy="170.343" r="5.000" fill="#00ffff" stroke="#00ffff" stroke-width="0.5pt" />
<circle cx="149.473" cy="157.476" r="5.000" fill="#00ffff" stroke="#00ffff" stroke-width="0.5pt" />
<circle cx="154.175" cy="160.411" r="5.000" fill="#00ffff" stroke="#00ffff" stroke-width="0.5pt" />
<circle cx="168.642" cy="169.440" r="5.000" fill="#00ffff" stroke="#00ffff" stroke-width="0.5pt" />
<circle cx="188.172" cy="181.629" r="5.000" fill="#00ffff" stroke="#00ffff" stroke-width="0.5pt" />
<circle cx="206.978" cy="193.367" r="5.000" fill="#00ffff" stroke="#00ffff" stroke-width="0.5pt" />
<circle cx="142.602" cy="153.187" r="5.000" fill="#00ffff" stroke="#00ffff" stroke-width="0.5pt" />
<circle cx="179.492" cy="176.212" r="5.000" fill="#00ffff" stroke="#00ffff" stroke-width="0.5pt" />
<circle cx="162.132" cy="165.377" r="5.000" fill="#00ffff" stroke="#00ffff" stroke-width="0.5pt" />
<circle cx="157.430" cy="162.442" r="5.000" fill="#00ffff" stroke="#00ffff" stroke-width="0.5pt" />
<circle cx="216.020" cy="199.011" r="5.000" fill="#00ffff" stroke="#00ffff" stroke-width="0.5pt" />
<circle cx="169.727" cy="170.117" r="5.000" fill="#00ffff" stroke="#00ffff" stroke-width="0.5pt" />
<circle cx="171.897" cy="171.471" r="5.000" fill="#00ffff" stroke="#00ffff" stroke-width="0.5pt" />
<circle cx="167.918" cy="168.988" r="5.000" fill="#00ffff" stroke="#00ffff" stroke-width="0.5pt" />
<circle cx="169.365" cy="169.891" r="5.000" fill="#00ffff" stroke="#00ffff" stroke-width="0.5pt" />
<circle cx="138.262" cy="150.478" r="5.000" fill="#00ffff" stroke="#00ffff" stroke-width="0.5pt" />
<circle cx="172.620" cy="171.923" r="5.000" fill="#00ffff" stroke="#00ffff" stroke-width="0.5pt" />
<circle cx="154.175" cy="160.411" r="5.000" fill="#00ffff" stroke="#00ffff" stroke-width="0.5pt" />
<circle cx="177.322" cy="174.857" r="5.000" fill="#00ffff" stroke="#00ffff" stroke-width="0.5pt" />
<circle cx="143.325" cy="153.639" r="5.000" fill="#00ffff" stroke="#00ffff" stroke-width="0.5pt" />
<circle cx="154.537" cy="160.636" r="5.000" fill="#00ffff" stroke="#00ffff" stroke-width="0.5pt" />
<circle cx="150.197" cy="157.928" r="5.000" fill="#00ffff" stroke="#00ffff" stroke-width="0.5pt" />
<circle cx="174.428" cy="173.052" r="5.000" fill="#00ffff" stroke="#00ffff" stroke-width="0.5pt" />
<circle cx="180.215" cy="176.663" r="5.000" fill="#00ffff" stroke="#00ffff" stroke-width="0.5pt" />
<circle cx="191.427" cy="183.661" r="5.000" fill="#00ffff" stroke="#00ffff" stroke-width="0.5pt" />
<circle cx="186.363" cy="180.501" r="5.000" fill="#00ffff" stroke="#00ffff" stroke-width="0.5pt" />
<circle cx="180.938" cy="177.115" r="5.000" fill="#00ffff" stroke="#00ffff" stroke-width="0.5pt" />
<circle cx="170.088" cy="170.343" r="5.000" fill="#00ffff" stroke="#00ffff" stroke-width="0.5pt" />
<circle cx="175.152" cy="173.503" r="5.000" fill="#00ffff" stroke="#00ffff" stroke-width="0.5pt" />
</g>
</g>
<g id="ID000003" clip-path="url(#ID000001)" >
<g>
<circle cx="252.548" cy="308.152" r="1.667" fill="#ff0000" stroke="none" stroke-width="0.5pt" />
<circle cx="437.360" cy="286.001" r="1.667" fill="#ff0000" stroke="none" stroke-width="0.5pt" />
<circle cx="195.043" cy="269.120" r="1.667" fill="#ff0000" stroke="none" stroke-width="0.5pt" />
<circle cx="248.570" cy="261.147" r="1.667" fill="#ff0000" stroke="none" stroke-width="0.5pt" />
<circle cx="204.085" cy="254.170" r="1.667" fill="#ff0000" stroke="none" stroke-width="0.5pt" />
<circle cx="237.358" cy="249.617" r="1.667" fill="#ff0000" stroke="none" stroke-width="0.5pt" />
<circle cx="167.195" cy="245.102" r="1.667" fill="#ff0000" stroke="none" stroke-width="0.5pt" />
<circle cx="195.043" cy="241.469" r="1.667" fill="#ff0000" stroke="none" stroke-width="0.5pt" />
<circle cx="242.783" cy="238.579" r="1.667" fill="#ff0000" stroke="none" stroke-width="0.5pt" />
<circle cx="216.743" cy="235.543" r="1.667" fill="#ff0000" stroke="none" stroke-width="0.5pt" />
<circle cx="275.695" cy="229.697" r="1.667" fill="#ff0000" stroke="none" stroke-width="0.5pt" />
<circle cx="185.640" cy="225.470" r="1.667" fill="#ff0000" stroke="none" stroke-width="0.5pt" />
<circle cx="199.022" cy="223.592" r="1.667" fill="#ff0000" stroke="none" stroke-width="0.5pt" />
<circle cx="217.105" cy="221.401" r="1.667" fill="#ff0000" stroke="none" stroke-width="0.5pt" />
<circle cx="255.442" cy="219.973" r="1.667" fill="#ff0000" stroke="none" stroke-width="0.5pt" />
<circle cx="155.983" cy="218.635" r="1.667" fill="#ff0000" stroke="none" stroke-width="0.5pt" />
<circle cx="176.960" cy="215.884" r="1.667" fill="#ff0000" stroke="none" stroke-width="0.5pt" />
<circle cx="174.790" cy="214.647" r="1.667" fill="#ff0000" stroke="none" stroke-width="0.5pt" />
<circle cx="191.788" cy="212.539" r="1.667" fill="#ff0000" stroke="none" stroke-width="0.5pt" />
<circle cx="242.060" cy="211.538" r="1.667" fill="#ff0000" stroke="none" stroke-width="0.5pt" />
<circle cx="180.938" cy="210.184" r="1.667" fill="#ff0000" stroke="none" stroke-width="0.5pt" />
<circle cx="184.917" cy="206.957" r="1.667" fill="#ff0000" stroke="none" stroke-width="0.5pt" />
<circle cx="179.130" cy="205.131" r="1.667" fill="#ff0000" stroke="none" stroke-width="0.5pt" />
<circle cx="235.188" cy="204.269" r="1.667" fill="#ff0000" stroke="none" stroke-width="0.5pt" />
<circle cx="181.662" cy="202.378" r="1.667" fill="#ff0000" stroke="none" stroke-width="0.5pt" />
<circle cx="186.363" cy="200.911" r="1.667" fill="#ff0000" stroke="none" stroke-width="0.5pt" />
<circle cx="193.235" cy="199.435" r="1.667" fill="#ff0000" stroke="none" stroke-width="0.5pt" />
<circle cx="180.215" cy="198.781" r="1.667" fill="#ff0000" stroke="none" stroke-width="0.5pt" />
<circle cx="169.003" cy="197.492" r="1.667" fill="#ff0000" stroke="none" stroke-width="0.5pt" />
<circle cx="198.298" cy="195.376" r="1.667" fill="#ff0000" stroke="none" stroke-width="0.5pt" />
<circle cx="158.153" cy="192.380" r="1.667" fill="#ff0000" stroke="none" stroke-width="0.5pt" />
<circle cx="186.002" cy="188.490" r="1.667" fill="#ff0000" stroke="none" stroke-width="0.5pt" />
<circle cx="212.765" cy="187.003" r="1.667" fill="#ff0000" stroke="none" stroke-width="0.5pt" />
<circle cx="123.433" cy="185.435" r="1.667" fill="#ff0000" stroke="none" stroke-width="0.5pt" />
<circle cx="208.787" cy="183.655" r="1.667" fill="#ff0000" stroke="none" stroke-width="0.5pt" />
<circle cx="212.403" cy="181.356" r="1.667" fill="#ff0000" stroke="none" stroke-width="0.5pt" />
<circle cx="170.088" cy="179.547" r="1.667" fill="#ff0000" stroke="none" stroke-width="0.5pt" />
<circle cx="149.473" cy="177.449" r="1.667" fill="#ff0000" stroke="none" stroke-width="0.5pt" />
<circle cx="154.175" cy="175.080" r="1.667" fill="#ff0000" stroke="none" stroke-width="0.5pt" />
<circle cx="168.642" cy="172.187" r="1.667" fill="#ff0000" stroke="none" stroke-width="0.5pt" />
<circle cx="188.172" cy="170.939" r="1.667" fill="#ff0000" stroke="none" stroke-width="0.5pt" />
<circle cx="206.978" cy="169.260" r="1.667" fill="#ff0000" stroke="none" stroke-width="0.5pt" />
<circle cx="142.602" cy="167.323" r="1.667" fill="#ff0000" stroke="none" stroke-width="0.5pt" />
<circle cx="179.492" cy="164.759" r="1.667" fill="#ff0000" stroke="none" stroke-width="0.5pt" />
<circle cx="162.132" cy="163.500" r="1.667" fill="#ff0000" stroke="none" stroke-width="0.5pt" />
<circle cx="157.430" cy="160.748" r="1.667" fill="#ff0000" stroke="none" stroke-width="0.5pt" />
<circle cx="216.020" cy="159.168" r="1.667" fill="#ff0000" stroke="none" stroke-width="0.5pt" />
<circle cx="169.727" cy="156.679" r="1.667" fill="#ff0000" stroke="none" stroke-width="0.5pt" />
<circle cx="171.897" cy="152.594" r="1.667" fill="#ff0000" stroke="none" stroke-width="0.5pt" />
<circle cx="167.918" cy="149.661" r="1.667" fill="#ff0000" stroke="none" stroke-width="0.5pt" />
<circle cx="169.365" cy="145.930" r="1.667" fill="#ff0000" stroke="none" stroke-width="0.5pt" />
<circle cx="138.262" cy="144.592" r="1.667" fill="#ff0000" stroke="none" stroke-width="0.5pt" />
<circle cx="172.620" cy="142.472" r="1.667" fill="#ff0000" stroke="none" stroke-width="0.5pt" />
<circle cx="154.175" cy="138.433" r="1.667" fill="#ff0000" stroke="none" stroke-width="0.5pt" />
<circle cx="177.322" cy="132.415" r="1.667" fill="#ff0000" stroke="none" stroke-width="0.5pt" />
<circle cx="143.325" cy="128.856" r="1.667" fill="#ff0000" stroke="none" stroke-width="0.5pt" />
<circle cx="154.537" cy="124.219" r="1.667" fill="#ff0000" stroke="none" stroke-width="0.5pt" />
<circle cx="150.197" cy="119.505" r="1.667" fill="#ff0000" stroke="none" stroke-width="0.5pt" />
<circle cx="174.428" cy="110.279" r="1.667" fill="#ff0000" stroke="none" stroke-width="0.5pt" />
<circle cx="180.215" cy="106.194" r="1.667" fill="#ff0000" stroke="none" stroke-width="0.5pt" />
<circle cx="191.427" cy="97.943" r="1.667" fill="#ff0000" stroke="none" stroke-width="0.5pt" />
<circle cx="186.363" cy="90.442" r="1.667" fill="#ff0000" stroke="none" stroke-width="0.5pt" />
<circle cx="180.938" cy="79.418" r="1.667" fill="#ff0000" stroke="none" stroke-width="0.5pt" />
<circle cx="170.088" cy="67.456" r="1.667" fill="#ff0000" stroke="none" stroke-width="0.5pt" />
<circle cx="175.152" cy="33.286" r="1.667" fill="#ff0000" stroke="none" stroke-width="0.5pt" />
</g>
</g>
<g id="ID000004" >
  <g transform="translate(289.300,405.820)">
    <g transform="rotate(-0.0)">
      <text x="0.000" y="0.000" font-family="Helvetica" text-anchor="middle" font-size="10pt" fill="#000000" ><tspan>PG1979 RT Avg</tspan></text>
    </g>
  </g>
</g>
<g id="ID000005" >
  <g transform="translate(44.800,204.151)">
    <g transform="rotate(-90.0)">
      <text x="0.000" y="0.000" font-family="Helvetica" text-anchor="middle" font-size="10pt" fill="#000000" ><tspan>mean L*a*b* distance</tspan></text>
    </g>
  </g>
</g>
<g id="ID000006" >
  <g transform="translate(289.300,23.495)">
    <g transform="rotate(-0.0)">
      <text x="0.000" y="0.000" font-family="Helvetica" text-anchor="middle" font-size="10pt" fill="#000000" ><tspan>0.26818% variance explained r=0.51786 : rho = -0.56326 p = 1.0364e-06</tspan></text>
    </g>
  </g>
</g>
    </g>
    <g>
      <polyline fill="none" stroke="#000000" stroke-width="0.5pt" stroke-dasharray="none" stroke-opacity="1.00" points="72.80000,373.80000 72.80000,369.46000 "/>
      <polyline fill="none" stroke="#000000" stroke-width="0.5pt" stroke-dasharray="none" stroke-opacity="1.00" points="145.13333,373.80000 145.13333,369.46000 "/>
      <polyline fill="none" stroke="#000000" stroke-width="0.5pt" stroke-dasharray="none" stroke-opacity="1.00" points="217.46667,373.80000 217.46667,369.46000 "/>
      <polyline fill="none" stroke="#000000" stroke-width="0.5pt" stroke-dasharray="none" stroke-opacity="1.00" points="289.80000,373.80000 289.80000,369.46000 "/>
      <polyline fill="none" stroke="#000000" stroke-width="0.5pt" stroke-dasharray="none" stroke-opacity="1.00" points="362.13333,373.80000 362.13333,369.46000 "/>
      <polyline fill="none" stroke="#000000" stroke-width="0.5pt" stroke-dasharray="none" stroke-opacity="1.00" points="434.46667,373.80000 434.46667,369.46000 "/>
      <polyline fill="none" stroke="#000000" stroke-width="0.5pt" stroke-dasharray="none" stroke-opacity="1.00" points="506.80000,373.80000 506.80000,369.46000 "/>
      <polyline fill="none" stroke="#000000" stroke-width="0.5pt" stroke-dasharray="none" stroke-opacity="1.00" points="72.80000,373.80000 506.80000,373.80000 "/>
  <g transform="translate(72.800,392.446)">
    <g transform="rotate(-0.0)">
      <text x="0.000" y="0.000" font-family="Helvetica" text-anchor="middle" font-size="10pt" fill="#000000" ><tspan>420</tspan></text>
    </g>
  </g>
  <g transform="translate(145.133,392.446)">
    <g transform="rotate(-0.0)">
      <text x="0.000" y="0.000" font-family="Helvetica" text-anchor="middle" font-size="10pt" fill="#000000" ><tspan>440</tspan></text>
    </g>
  </g>
  <g transform="translate(217.467,392.446)">
    <g transform="rotate(-0.0)">
      <text x="0.000" y="0.000" font-family="Helvetica" text-anchor="middle" font-size="10pt" fill="#000000" ><tspan>460</tspan></text>
    </g>
  </g>
  <g transform="translate(289.800,392.446)">
    <g transform="rotate(-0.0)">
      <text x="0.000" y="0.000" font-family="Helvetica" text-anchor="middle" font-size="10pt" fill="#000000" ><tspan>480</tspan></text>
    </g>
  </g>
  <g transform="translate(362.133,392.446)">
    <g transform="rotate(-0.0)">
      <text x="0.000" y="0.000" font-family="Helvetica" text-anchor="middle" font-size="10pt" fill="#000000" ><tspan>500</tspan></text>
    </g>
  </g>
  <g transform="translate(434.467,392.446)">
    <g transform="rotate(-0.0)">
      <text x="0.000" y="0.000" font-family="Helvetica" text-anchor="middle" font-size="10pt" fill="#000000" ><tspan>520</tspan></text>
    </g>
  </g>
  <g transform="translate(506.800,392.446)">
    <g transform="rotate(-0.0)">
      <text x="0.000" y="0.000" font-family="Helvetica" text-anchor="middle" font-size="10pt" fill="#000000" ><tspan>540</tspan></text>
    </g>
  </g>
      <polyline fill="none" stroke="#000000" stroke-width="0.5pt" stroke-dasharray="none" stroke-opacity="1.00" points="72.80000,373.80000 77.14000,373.80000 "/>
      <polyline fill="none" stroke="#000000" stroke-width="0.5pt" stroke-dasharray="none" stroke-opacity="1.00" points="72.80000,335.76667 77.14000,335.76667 "/>
      <polyline fill="none" stroke="#000000" stroke-width="0.5pt" stroke-dasharray="none" stroke-opacity="1.00" points="72.80000,297.73333 77.14000,297.73333 "/>
      <polyline fill="none" stroke="#000000" stroke-width="0.5pt" stroke-dasharray="none" stroke-opacity="1.00" points="72.80000,259.70000 77.14000,259.70000 "/>
      <polyline fill="none" stroke="#000000" stroke-width="0.5pt" stroke-dasharray="none" stroke-opacity="1.00" points="72.80000,221.66667 77.14000,221.66667 "/>
      <polyline fill="none" stroke="#000000" stroke-width="0.5pt" stroke-dasharray="none" stroke-opacity="1.00" points="72.80000,183.63333 77.14000,183.63333 "/>
      <polyline fill="none" stroke="#000000" stroke-width="0.5pt" stroke-dasharray="none" stroke-opacity="1.00" points="72.80000,145.60000 77.14000,145.60000 "/>
      <polyline fill="none" stroke="#000000" stroke-width="0.5pt" stroke-dasharray="none" stroke-opacity="1.00" points="72.80000,107.56667 77.14000,107.56667 "/>
      <polyline fill="none" stroke="#000000" stroke-width="0.5pt" stroke-dasharray="none" stroke-opacity="1.00" points="72.80000,69.53333 77.14000,69.53333 "/>
      <polyline fill="none" stroke="#000000" stroke-width="0.5pt" stroke-dasharray="none" stroke-opacity="1.00" points="72.80000,31.50000 77.14000,31.50000 "/>
      <polyline fill="none" stroke="#000000" stroke-width="0.5pt" stroke-dasharray="none" stroke-opacity="1.00" points="72.80000,373.80000 72.80000,31.50000 "/>
  <g transform="translate(64.120,378.300)">
    <g transform="rotate(-0.0)">
      <text x="0.000" y="0.000" font-family="Helvetica" text-anchor="end" font-size="10pt" fill="#000000" ><tspan>45</tspan></text>
    </g>
  </g>
  <g transform="translate(64.120,340.267)">
    <g transform="rotate(-0.0)">
      <text x="0.000" y="0.000" font-family="Helvetica" text-anchor="end" font-size="10pt" fill="#000000" ><tspan>50</tspan></text>
    </g>
  </g>
  <g transform="translate(64.120,302.233)">
    <g transform="rotate(-0.0)">
      <text x="0.000" y="0.000" font-family="Helvetica" text-anchor="end" font-size="10pt" fill="#000000" ><tspan>55</tspan></text>
    </g>
  </g>
  <g transform="translate(64.120,264.200)">
    <g transform="rotate(-0.0)">
      <text x="0.000" y="0.000" font-family="Helvetica" text-anchor="end" font-size="10pt" fill="#000000" ><tspan>60</tspan></text>
    </g>
  </g>
  <g transform="translate(64.120,226.167)">
    <g transform="rotate(-0.0)">
      <text x="0.000" y="0.000" font-family="Helvetica" text-anchor="end" font-size="10pt" fill="#000000" ><tspan>65</tspan></text>
    </g>
  </g>
  <g transform="translate(64.120,188.133)">
    <g transform="rotate(-0.0)">
      <text x="0.000" y="0.000" font-family="Helvetica" text-anchor="end" font-size="10pt" fill="#000000" ><tspan>70</tspan></text>
    </g>
  </g>
  <g transform="translate(64.120,150.100)">
    <g transform="rotate(-0.0)">
      <text x="0.000" y="0.000" font-family="Helvetica" text-anchor="end" font-size="10pt" fill="#000000" ><tspan>75</tspan></text>
    </g>
  </g>
  <g transform="translate(64.120,112.067)">
    <g transform="rotate(-0.0)">
      <text x="0.000" y="0.000" font-family="Helvetica" text-anchor="end" font-size="10pt" fill="#000000" ><tspan>80</tspan></text>
    </g>
  </g>
  <g transform="translate(64.120,74.033)">
    <g transform="rotate(-0.0)">
      <text x="0.000" y="0.000" font-family="Helvetica" text-anchor="end" font-size="10pt" fill="#000000" ><tspan>85</tspan></text>
    </g>
  </g>
  <g transform="translate(64.120,36.000)">
    <g transform="rotate(-0.0)">
      <text x="0.000" y="0.000" font-family="Helvetica" text-anchor="end" font-size="10pt" fill="#000000" ><tspan>90</tspan></text>
    </g>
  </g>
      <polyline fill="none" stroke="#000000" stroke-width="0.5pt" stroke-dasharray="none" stroke-opacity="1.00" points="72.80000,373.80000 72.80000,370.37700 "/>
      <polyline fill="none" stroke="#000000" stroke-width="0.5pt" stroke-dasharray="none" stroke-opacity="1.00" points="72.80000,373.80000 72.80000,370.37700 "/>
      <polyline fill="none" stroke="#000000" stroke-width="0.5pt" stroke-dasharray="none" stroke-opacity="1.00" points="72.80000,373.80000 72.80000,370.37700 "/>
      <polyline fill="none" stroke="#000000" stroke-width="0.5pt" stroke-dasharray="none" stroke-opacity="1.00" points="72.80000,373.80000 72.80000,373.80000 "/>
    </g>
  </g>
  </g>
</svg>
